{
	"asset":{
		"generator":"Khronos glTF Blender I/O v4.1.62",
		"version":"2.0"
	},
	"scene":0,
	"scenes":[
		{
			"name":"Scene",
			"nodes":[
				38
			]
		}
	],
	"nodes":[
		{
			"name":"leg_front_left_toe",
			"rotation":[
				-0.6428109407424927,
				-0.03907853364944458,
				-0.03907902538776398,
				0.7640287280082703
			],
			"scale":[
				0.9999999403953552,
				0.9999999403953552,
				0.9999999403953552
			],
			"translation":[
				3.2782554626464844e-07,
				5.2775492668151855,
				8.344650268554688e-07
			]
		},
		{
			"children":[
				0
			],
			"name":"leg_front_left_ankle",
			"rotation":[
				-0.07149862498044968,
				0.05525681748986244,
				0.0007889817352406681,
				0.9959086775779724
			],
			"scale":[
				0.9999999403953552,
				1,
				1
			],
			"translation":[
				-7.481044121959712e-07,
				10.50429630279541,
				4.850153345614672e-07
			]
		},
		{
			"children":[
				1
			],
			"name":"leg_front_left_bot0",
			"rotation":[
				-1.4093275524373894e-07,
				-0.9998980164527893,
				-0.014281208626925945,
				3.6514049952529604e-06
			],
			"scale":[
				1,
				1.0000001192092896,
				0.9999999403953552
			],
			"translation":[
				-2.5317706331406953e-07,
				7.320002555847168,
				4.022424491267884e-07
			]
		},
		{
			"children":[
				2
			],
			"name":"leg_front_left_top1",
			"rotation":[
				2.455230463382918e-10,
				0.01529531180858612,
				-0.3169929087162018,
				0.9483045935630798
			],
			"scale":[
				0.9999999403953552,
				0.9999999403953552,
				1
			],
			"translation":[
				4.3213367462158203e-07,
				9.812504768371582,
				-1.0463409125804901e-06
			]
		},
		{
			"children":[
				3
			],
			"name":"leg_front_left_top0",
			"rotation":[
				-0.2290254682302475,
				-0.6519138813018799,
				-0.6886869668960571,
				0.2196950763463974
			],
			"scale":[
				1,
				0.9999999403953552,
				1
			],
			"translation":[
				0.3006061911582947,
				7.579965114593506,
				1.3971413373947144
			]
		},
		{
			"name":"head0",
			"rotation":[
				0.6194595694541931,
				5.097360917716287e-05,
				9.543545456836e-05,
				0.7850285768508911
			],
			"scale":[
				1,
				1.0000001192092896,
				1.0000001192092896
			],
			"translation":[
				0,
				10.01651668548584,
				-2.384185791015625e-06
			]
		},
		{
			"children":[
				5
			],
			"name":"neck1",
			"rotation":[
				-0.0921463891863823,
				-5.890926310127276e-13,
				-4.0574637291505844e-13,
				0.9957454800605774
			],
			"scale":[
				1,
				1.0000001192092896,
				1
			],
			"translation":[
				-2.7755575615628914e-17,
				9.058181762695312,
				-1.5497207641601562e-06
			]
		},
		{
			"children":[
				6
			],
			"name":"neck0",
			"rotation":[
				-0.17423726618289948,
				-8.619235425215421e-13,
				-1.0228083571067748e-12,
				0.9847037196159363
			],
			"translation":[
				-6.938893903907228e-18,
				7.661526203155518,
				-1.3113021850585938e-06
			]
		},
		{
			"name":"leg_front_right_toe",
			"rotation":[
				-0.6428109407424927,
				0.03907854110002518,
				0.03907901793718338,
				0.7640287280082703
			],
			"scale":[
				0.9999999403953552,
				0.9999999403953552,
				1
			],
			"translation":[
				1.6391277313232422e-07,
				5.277550220489502,
				7.748603820800781e-07
			]
		},
		{
			"children":[
				8
			],
			"name":"leg_front_right_ankle",
			"rotation":[
				-0.07149861752986908,
				-0.05525681748986244,
				-0.0007889820844866335,
				0.9959086775779724
			],
			"translation":[
				-6.996547199378256e-07,
				10.504297256469727,
				-1.71936335391365e-06
			]
		},
		{
			"children":[
				9
			],
			"name":"leg_front_right_bot0",
			"rotation":[
				-1.1109846553836178e-07,
				0.9998980164527893,
				0.014281203038990498,
				3.6514045405056095e-06
			],
			"scale":[
				1,
				0.9999998211860657,
				1
			],
			"translation":[
				7.386174729617778e-07,
				7.32000207901001,
				2.290964630446979e-06
			]
		},
		{
			"children":[
				10
			],
			"name":"leg_front_right_top1",
			"rotation":[
				0,
				-0.01529531180858612,
				0.3169929087162018,
				0.9483045935630798
			],
			"scale":[
				0.9999998807907104,
				0.9999998807907104,
				1
			],
			"translation":[
				-2.384185791015625e-07,
				9.812504768371582,
				-1.0509975254535675e-06
			]
		},
		{
			"children":[
				11
			],
			"name":"leg_front_right_top0",
			"rotation":[
				-0.2290254682302475,
				0.6519138813018799,
				0.6886869668960571,
				0.2196950763463974
			],
			"scale":[
				1,
				0.9999999403953552,
				1
			],
			"translation":[
				-0.3006061911582947,
				7.579964637756348,
				1.397141933441162
			]
		},
		{
			"children":[
				4,
				7,
				12
			],
			"name":"body_top1",
			"rotation":[
				-0.03525860607624054,
				-4.646195537680309e-13,
				1.2632224259678804e-11,
				0.9993782639503479
			],
			"translation":[
				1.355830725469076e-10,
				7.650943756103516,
				-9.387731552124023e-07
			]
		},
		{
			"children":[
				13
			],
			"name":"body_top0",
			"rotation":[
				-0.02485673502087593,
				3.775707955355756e-05,
				3.716944411280565e-05,
				0.9996910095214844
			],
			"scale":[
				1,
				0.9999999403953552,
				0.9999999403953552
			],
			"translation":[
				8.731149137020111e-11,
				7.164520740509033,
				3.084540367126465e-06
			]
		},
		{
			"name":"leg_hind_left_toe",
			"rotation":[
				-0.5104643702507019,
				-1.0600459745546686e-06,
				-6.430836947401986e-07,
				0.8598989248275757
			],
			"scale":[
				1,
				1.0000001192092896,
				1
			],
			"translation":[
				9.375253284815699e-08,
				5.011983871459961,
				2.854621925507672e-07
			]
		},
		{
			"children":[
				15
			],
			"name":"leg_hind_left_ankle",
			"rotation":[
				-0.28660210967063904,
				-0.5650404095649719,
				-0.14408282935619354,
				0.7601504921913147
			],
			"scale":[
				0.9999999403953552,
				1,
				0.9999999403953552
			],
			"translation":[
				-5.960464477539062e-07,
				12.400388717651367,
				-1.1920928955078125e-06
			]
		},
		{
			"children":[
				16
			],
			"name":"leg_hind_left_bot0",
			"rotation":[
				-2.768373974504357e-07,
				-0.8073959946632385,
				0.08989188075065613,
				0.5831219553947449
			],
			"scale":[
				0.9999998807907104,
				0.9999998807907104,
				0.9999999403953552
			],
			"translation":[
				-1.1175816894137824e-07,
				6.419989585876465,
				1.2226989838381996e-06
			]
		},
		{
			"children":[
				17
			],
			"name":"leg_hind_left_top1",
			"rotation":[
				-1.1218779150112823e-07,
				-0.34962162375450134,
				-0.3638518452644348,
				0.8633519411087036
			],
			"translation":[
				-4.172325134277344e-07,
				9.129706382751465,
				8.940696716308594e-08
			]
		},
		{
			"children":[
				18
			],
			"name":"leg_hind_left_top0",
			"rotation":[
				-0.4991671144962311,
				-0.7011358737945557,
				0.5029644966125488,
				0.07916609197854996
			],
			"scale":[
				1,
				0.9999998211860657,
				1
			],
			"translation":[
				0.2350337654352188,
				10.005671501159668,
				0.602469265460968
			]
		},
		{
			"name":"tail8",
			"rotation":[
				0.025670412927865982,
				-0.0211469903588295,
				0.006961881648749113,
				0.999422550201416
			],
			"scale":[
				1,
				1.0000001192092896,
				1
			],
			"translation":[
				-2.6774819161801133e-07,
				3.897123336791992,
				1.8870224494094145e-06
			]
		},
		{
			"children":[
				20
			],
			"name":"tail7",
			"rotation":[
				0.12418926507234573,
				0.05237255617976189,
				-0.012875104323029518,
				0.9907917976379395
			],
			"scale":[
				1,
				1.0000001192092896,
				1.0000001192092896
			],
			"translation":[
				-1.2442469596862793e-06,
				4.712480068206787,
				-4.851026460528374e-06
			]
		},
		{
			"children":[
				21
			],
			"name":"tail6",
			"rotation":[
				-0.05013824626803398,
				-0.031037144362926483,
				0.006873331032693386,
				0.9982362389564514
			],
			"scale":[
				1,
				0.9999998807907104,
				1
			],
			"translation":[
				-3.509689605607491e-08,
				4.026481628417969,
				5.245208740234375e-06
			]
		},
		{
			"children":[
				22
			],
			"name":"tail5",
			"rotation":[
				-0.03017812967300415,
				0.020570341497659683,
				-0.004555406980216503,
				0.9993224740028381
			],
			"translation":[
				-2.961754717034637e-07,
				2.0736560821533203,
				6.913454399182228e-06
			]
		},
		{
			"children":[
				23
			],
			"name":"tail4",
			"rotation":[
				-1.3508542906492949e-07,
				-4.71482053399086e-08,
				4.6566128730773926e-09,
				1
			],
			"translation":[
				9.704381227493286e-07,
				2.7590343952178955,
				5.25452196598053e-06
			]
		},
		{
			"children":[
				24
			],
			"name":"tail3",
			"rotation":[
				-0.08138785511255264,
				-0.036601271480321884,
				0.011042183265089989,
				0.9959490299224854
			],
			"scale":[
				0.9999999403953552,
				0.9999998211860657,
				0.9999998211860657
			],
			"translation":[
				-1.1548399925231934e-07,
				4.490830898284912,
				-8.36013350635767e-06
			]
		},
		{
			"children":[
				25
			],
			"name":"tail2",
			"rotation":[
				-0.1447772979736328,
				0.015296589583158493,
				-0.00786555651575327,
				0.9893147349357605
			],
			"scale":[
				1,
				0.9999999403953552,
				1
			],
			"translation":[
				-2.6756374893466273e-14,
				8.85225772857666,
				-8.940696716308594e-08
			]
		},
		{
			"children":[
				26
			],
			"name":"tail1",
			"rotation":[
				-0.06450337916612625,
				-3.0941477158208386e-10,
				-3.4167685347696874e-10,
				0.9979175329208374
			],
			"scale":[
				1,
				0.9999998807907104,
				0.9999998807907104
			],
			"translation":[
				1.4210854715202004e-14,
				1.5882420539855957,
				-4.76837158203125e-07
			]
		},
		{
			"children":[
				27
			],
			"name":"tail0",
			"rotation":[
				-0.1448296457529068,
				8.423080899433444e-09,
				4.3495929080705764e-10,
				0.9894565939903259
			],
			"scale":[
				1,
				1,
				0.9999999403953552
			],
			"translation":[
				1.4246268165152287e-08,
				15.267849922180176,
				2.384185791015625e-07
			]
		},
		{
			"children":[
				28
			],
			"name":"pelvis",
			"rotation":[
				0.0661037340760231,
				0.00481785461306572,
				-0.003934686537832022,
				0.9977933764457703
			],
			"scale":[
				1,
				0.9999999403953552,
				1.0000001192092896
			],
			"translation":[
				4.656454422047318e-08,
				1.0275204181671143,
				2.264768909299164e-06
			]
		},
		{
			"name":"leg_hind_right_toe",
			"rotation":[
				-0.5104638338088989,
				1.0496816003069398e-06,
				9.963700904336292e-07,
				0.8598992824554443
			],
			"scale":[
				1,
				0.9999999403953552,
				0.9999999403953552
			],
			"translation":[
				-1.045772478391882e-06,
				5.011972427368164,
				4.9889422371052206e-08
			]
		},
		{
			"children":[
				30
			],
			"name":"leg_hind_right_ankle",
			"rotation":[
				-0.2866024672985077,
				0.5650404691696167,
				0.1440829336643219,
				0.7601502537727356
			],
			"scale":[
				0.9999999403953552,
				0.9999998807907104,
				0.9999998807907104
			],
			"translation":[
				-5.960464477539062e-07,
				12.400392532348633,
				4.76837158203125e-07
			]
		},
		{
			"children":[
				31
			],
			"name":"leg_hind_right_bot0",
			"rotation":[
				-4.913866291644808e-07,
				0.8073956370353699,
				-0.08989215642213821,
				0.5831223726272583
			],
			"scale":[
				1.0000001192092896,
				1.0000003576278687,
				1
			],
			"translation":[
				-7.510210480177193e-07,
				6.419989585876465,
				1.0081253094540443e-06
			]
		},
		{
			"children":[
				32
			],
			"name":"leg_hind_right_top1",
			"rotation":[
				8.658702199682011e-09,
				0.3666362464427948,
				0.35378497838974,
				0.8604731559753418
			],
			"scale":[
				1,
				1,
				1.0000001192092896
			],
			"translation":[
				-2.5331974029541016e-07,
				8.944113731384277,
				-7.003545761108398e-07
			]
		},
		{
			"children":[
				33
			],
			"name":"leg_hind_right_top0",
			"rotation":[
				-0.5008339881896973,
				0.7032462358474731,
				-0.4968309700489044,
				0.08814197778701782
			],
			"scale":[
				1,
				0.9999997019767761,
				1
			],
			"translation":[
				-0.3835500180721283,
				10.01013469696045,
				0.6010943055152893
			]
		},
		{
			"children":[
				19,
				29,
				34
			],
			"name":"body_bot",
			"rotation":[
				0.9801629781723022,
				-0.004496789537370205,
				-0.0042830402962863445,
				0.19809597730636597
			],
			"scale":[
				1,
				1.0000001192092896,
				1.000001311302185
			],
			"translation":[
				0.00785619392991066,
				0.9775407910346985,
				-0.07222730666399002
			]
		},
		{
			"children":[
				14,
				35
			],
			"name":"body",
			"rotation":[
				0.03269592672586441,
				-3.746441871044226e-05,
				-3.746441871044226e-05,
				0.9994654059410095
			],
			"scale":[
				1,
				0.9999999403953552,
				0.9999999403953552
			],
			"translation":[
				-0.0005189899820834398,
				-5.049201011657715,
				-9.128251075744629
			]
		},
		{
			"mesh":0,
			"name":"tasmanian_wolf",
			"skin":0
		},
		{
			"children":[
				37,
				36
			],
			"name":"rig",
			"rotation":[
				0.7071068286895752,
				0,
				0,
				0.7071068286895752
			]
		}
	],
	"animations":[
		{
			"channels":[
				{
					"sampler":0,
					"target":{
						"node":36,
						"path":"translation"
					}
				},
				{
					"sampler":1,
					"target":{
						"node":36,
						"path":"rotation"
					}
				},
				{
					"sampler":2,
					"target":{
						"node":36,
						"path":"scale"
					}
				},
				{
					"sampler":3,
					"target":{
						"node":14,
						"path":"translation"
					}
				},
				{
					"sampler":4,
					"target":{
						"node":14,
						"path":"rotation"
					}
				},
				{
					"sampler":5,
					"target":{
						"node":14,
						"path":"scale"
					}
				},
				{
					"sampler":6,
					"target":{
						"node":13,
						"path":"translation"
					}
				},
				{
					"sampler":7,
					"target":{
						"node":13,
						"path":"rotation"
					}
				},
				{
					"sampler":8,
					"target":{
						"node":13,
						"path":"scale"
					}
				},
				{
					"sampler":9,
					"target":{
						"node":4,
						"path":"translation"
					}
				},
				{
					"sampler":10,
					"target":{
						"node":4,
						"path":"rotation"
					}
				},
				{
					"sampler":11,
					"target":{
						"node":4,
						"path":"scale"
					}
				},
				{
					"sampler":12,
					"target":{
						"node":3,
						"path":"translation"
					}
				},
				{
					"sampler":13,
					"target":{
						"node":3,
						"path":"rotation"
					}
				},
				{
					"sampler":14,
					"target":{
						"node":3,
						"path":"scale"
					}
				},
				{
					"sampler":15,
					"target":{
						"node":2,
						"path":"translation"
					}
				},
				{
					"sampler":16,
					"target":{
						"node":2,
						"path":"rotation"
					}
				},
				{
					"sampler":17,
					"target":{
						"node":2,
						"path":"scale"
					}
				},
				{
					"sampler":18,
					"target":{
						"node":1,
						"path":"translation"
					}
				},
				{
					"sampler":19,
					"target":{
						"node":1,
						"path":"rotation"
					}
				},
				{
					"sampler":20,
					"target":{
						"node":1,
						"path":"scale"
					}
				},
				{
					"sampler":21,
					"target":{
						"node":0,
						"path":"translation"
					}
				},
				{
					"sampler":22,
					"target":{
						"node":0,
						"path":"rotation"
					}
				},
				{
					"sampler":23,
					"target":{
						"node":0,
						"path":"scale"
					}
				},
				{
					"sampler":24,
					"target":{
						"node":7,
						"path":"translation"
					}
				},
				{
					"sampler":25,
					"target":{
						"node":7,
						"path":"rotation"
					}
				},
				{
					"sampler":26,
					"target":{
						"node":7,
						"path":"scale"
					}
				},
				{
					"sampler":27,
					"target":{
						"node":6,
						"path":"translation"
					}
				},
				{
					"sampler":28,
					"target":{
						"node":6,
						"path":"rotation"
					}
				},
				{
					"sampler":29,
					"target":{
						"node":6,
						"path":"scale"
					}
				},
				{
					"sampler":30,
					"target":{
						"node":5,
						"path":"translation"
					}
				},
				{
					"sampler":31,
					"target":{
						"node":5,
						"path":"rotation"
					}
				},
				{
					"sampler":32,
					"target":{
						"node":5,
						"path":"scale"
					}
				},
				{
					"sampler":33,
					"target":{
						"node":12,
						"path":"translation"
					}
				},
				{
					"sampler":34,
					"target":{
						"node":12,
						"path":"rotation"
					}
				},
				{
					"sampler":35,
					"target":{
						"node":12,
						"path":"scale"
					}
				},
				{
					"sampler":36,
					"target":{
						"node":11,
						"path":"translation"
					}
				},
				{
					"sampler":37,
					"target":{
						"node":11,
						"path":"rotation"
					}
				},
				{
					"sampler":38,
					"target":{
						"node":11,
						"path":"scale"
					}
				},
				{
					"sampler":39,
					"target":{
						"node":10,
						"path":"translation"
					}
				},
				{
					"sampler":40,
					"target":{
						"node":10,
						"path":"rotation"
					}
				},
				{
					"sampler":41,
					"target":{
						"node":10,
						"path":"scale"
					}
				},
				{
					"sampler":42,
					"target":{
						"node":9,
						"path":"translation"
					}
				},
				{
					"sampler":43,
					"target":{
						"node":9,
						"path":"rotation"
					}
				},
				{
					"sampler":44,
					"target":{
						"node":9,
						"path":"scale"
					}
				},
				{
					"sampler":45,
					"target":{
						"node":8,
						"path":"translation"
					}
				},
				{
					"sampler":46,
					"target":{
						"node":8,
						"path":"rotation"
					}
				},
				{
					"sampler":47,
					"target":{
						"node":8,
						"path":"scale"
					}
				},
				{
					"sampler":48,
					"target":{
						"node":35,
						"path":"translation"
					}
				},
				{
					"sampler":49,
					"target":{
						"node":35,
						"path":"rotation"
					}
				},
				{
					"sampler":50,
					"target":{
						"node":35,
						"path":"scale"
					}
				},
				{
					"sampler":51,
					"target":{
						"node":19,
						"path":"translation"
					}
				},
				{
					"sampler":52,
					"target":{
						"node":19,
						"path":"rotation"
					}
				},
				{
					"sampler":53,
					"target":{
						"node":19,
						"path":"scale"
					}
				},
				{
					"sampler":54,
					"target":{
						"node":18,
						"path":"translation"
					}
				},
				{
					"sampler":55,
					"target":{
						"node":18,
						"path":"rotation"
					}
				},
				{
					"sampler":56,
					"target":{
						"node":18,
						"path":"scale"
					}
				},
				{
					"sampler":57,
					"target":{
						"node":17,
						"path":"translation"
					}
				},
				{
					"sampler":58,
					"target":{
						"node":17,
						"path":"rotation"
					}
				},
				{
					"sampler":59,
					"target":{
						"node":17,
						"path":"scale"
					}
				},
				{
					"sampler":60,
					"target":{
						"node":16,
						"path":"translation"
					}
				},
				{
					"sampler":61,
					"target":{
						"node":16,
						"path":"rotation"
					}
				},
				{
					"sampler":62,
					"target":{
						"node":16,
						"path":"scale"
					}
				},
				{
					"sampler":63,
					"target":{
						"node":15,
						"path":"translation"
					}
				},
				{
					"sampler":64,
					"target":{
						"node":15,
						"path":"rotation"
					}
				},
				{
					"sampler":65,
					"target":{
						"node":15,
						"path":"scale"
					}
				},
				{
					"sampler":66,
					"target":{
						"node":29,
						"path":"translation"
					}
				},
				{
					"sampler":67,
					"target":{
						"node":29,
						"path":"rotation"
					}
				},
				{
					"sampler":68,
					"target":{
						"node":29,
						"path":"scale"
					}
				},
				{
					"sampler":69,
					"target":{
						"node":28,
						"path":"translation"
					}
				},
				{
					"sampler":70,
					"target":{
						"node":28,
						"path":"rotation"
					}
				},
				{
					"sampler":71,
					"target":{
						"node":28,
						"path":"scale"
					}
				},
				{
					"sampler":72,
					"target":{
						"node":27,
						"path":"translation"
					}
				},
				{
					"sampler":73,
					"target":{
						"node":27,
						"path":"rotation"
					}
				},
				{
					"sampler":74,
					"target":{
						"node":27,
						"path":"scale"
					}
				},
				{
					"sampler":75,
					"target":{
						"node":26,
						"path":"translation"
					}
				},
				{
					"sampler":76,
					"target":{
						"node":26,
						"path":"rotation"
					}
				},
				{
					"sampler":77,
					"target":{
						"node":26,
						"path":"scale"
					}
				},
				{
					"sampler":78,
					"target":{
						"node":25,
						"path":"translation"
					}
				},
				{
					"sampler":79,
					"target":{
						"node":25,
						"path":"rotation"
					}
				},
				{
					"sampler":80,
					"target":{
						"node":25,
						"path":"scale"
					}
				},
				{
					"sampler":81,
					"target":{
						"node":24,
						"path":"translation"
					}
				},
				{
					"sampler":82,
					"target":{
						"node":24,
						"path":"rotation"
					}
				},
				{
					"sampler":83,
					"target":{
						"node":24,
						"path":"scale"
					}
				},
				{
					"sampler":84,
					"target":{
						"node":23,
						"path":"translation"
					}
				},
				{
					"sampler":85,
					"target":{
						"node":23,
						"path":"rotation"
					}
				},
				{
					"sampler":86,
					"target":{
						"node":23,
						"path":"scale"
					}
				},
				{
					"sampler":87,
					"target":{
						"node":22,
						"path":"translation"
					}
				},
				{
					"sampler":88,
					"target":{
						"node":22,
						"path":"rotation"
					}
				},
				{
					"sampler":89,
					"target":{
						"node":22,
						"path":"scale"
					}
				},
				{
					"sampler":90,
					"target":{
						"node":21,
						"path":"translation"
					}
				},
				{
					"sampler":91,
					"target":{
						"node":21,
						"path":"rotation"
					}
				},
				{
					"sampler":92,
					"target":{
						"node":21,
						"path":"scale"
					}
				},
				{
					"sampler":93,
					"target":{
						"node":20,
						"path":"translation"
					}
				},
				{
					"sampler":94,
					"target":{
						"node":20,
						"path":"rotation"
					}
				},
				{
					"sampler":95,
					"target":{
						"node":20,
						"path":"scale"
					}
				},
				{
					"sampler":96,
					"target":{
						"node":34,
						"path":"translation"
					}
				},
				{
					"sampler":97,
					"target":{
						"node":34,
						"path":"rotation"
					}
				},
				{
					"sampler":98,
					"target":{
						"node":34,
						"path":"scale"
					}
				},
				{
					"sampler":99,
					"target":{
						"node":33,
						"path":"translation"
					}
				},
				{
					"sampler":100,
					"target":{
						"node":33,
						"path":"rotation"
					}
				},
				{
					"sampler":101,
					"target":{
						"node":33,
						"path":"scale"
					}
				},
				{
					"sampler":102,
					"target":{
						"node":32,
						"path":"translation"
					}
				},
				{
					"sampler":103,
					"target":{
						"node":32,
						"path":"rotation"
					}
				},
				{
					"sampler":104,
					"target":{
						"node":32,
						"path":"scale"
					}
				},
				{
					"sampler":105,
					"target":{
						"node":31,
						"path":"translation"
					}
				},
				{
					"sampler":106,
					"target":{
						"node":31,
						"path":"rotation"
					}
				},
				{
					"sampler":107,
					"target":{
						"node":31,
						"path":"scale"
					}
				},
				{
					"sampler":108,
					"target":{
						"node":30,
						"path":"translation"
					}
				},
				{
					"sampler":109,
					"target":{
						"node":30,
						"path":"rotation"
					}
				},
				{
					"sampler":110,
					"target":{
						"node":30,
						"path":"scale"
					}
				},
				{
					"sampler":111,
					"target":{
						"node":38,
						"path":"translation"
					}
				},
				{
					"sampler":112,
					"target":{
						"node":38,
						"path":"rotation"
					}
				},
				{
					"sampler":113,
					"target":{
						"node":38,
						"path":"scale"
					}
				}
			],
			"name":"rig|rig|walk",
			"samplers":[
				{
					"input":7,
					"interpolation":"STEP",
					"output":8
				},
				{
					"input":7,
					"interpolation":"STEP",
					"output":9
				},
				{
					"input":7,
					"interpolation":"STEP",
					"output":10
				},
				{
					"input":7,
					"interpolation":"STEP",
					"output":11
				},
				{
					"input":12,
					"interpolation":"LINEAR",
					"output":13
				},
				{
					"input":7,
					"interpolation":"STEP",
					"output":14
				},
				{
					"input":7,
					"interpolation":"STEP",
					"output":15
				},
				{
					"input":12,
					"interpolation":"LINEAR",
					"output":16
				},
				{
					"input":7,
					"interpolation":"STEP",
					"output":17
				},
				{
					"input":12,
					"interpolation":"LINEAR",
					"output":18
				},
				{
					"input":12,
					"interpolation":"LINEAR",
					"output":19
				},
				{
					"input":7,
					"interpolation":"STEP",
					"output":20
				},
				{
					"input":7,
					"interpolation":"STEP",
					"output":21
				},
				{
					"input":12,
					"interpolation":"LINEAR",
					"output":22
				},
				{
					"input":7,
					"interpolation":"STEP",
					"output":23
				},
				{
					"input":7,
					"interpolation":"STEP",
					"output":24
				},
				{
					"input":12,
					"interpolation":"LINEAR",
					"output":25
				},
				{
					"input":7,
					"interpolation":"STEP",
					"output":26
				},
				{
					"input":7,
					"interpolation":"STEP",
					"output":27
				},
				{
					"input":12,
					"interpolation":"LINEAR",
					"output":28
				},
				{
					"input":7,
					"interpolation":"STEP",
					"output":29
				},
				{
					"input":7,
					"interpolation":"STEP",
					"output":30
				},
				{
					"input":12,
					"interpolation":"LINEAR",
					"output":31
				},
				{
					"input":7,
					"interpolation":"STEP",
					"output":32
				},
				{
					"input":12,
					"interpolation":"LINEAR",
					"output":33
				},
				{
					"input":12,
					"interpolation":"LINEAR",
					"output":34
				},
				{
					"input":7,
					"interpolation":"STEP",
					"output":35
				},
				{
					"input":7,
					"interpolation":"LINEAR",
					"output":36
				},
				{
					"input":12,
					"interpolation":"LINEAR",
					"output":37
				},
				{
					"input":7,
					"interpolation":"STEP",
					"output":38
				},
				{
					"input":7,
					"interpolation":"LINEAR",
					"output":39
				},
				{
					"input":12,
					"interpolation":"LINEAR",
					"output":40
				},
				{
					"input":7,
					"interpolation":"STEP",
					"output":41
				},
				{
					"input":7,
					"interpolation":"STEP",
					"output":42
				},
				{
					"input":12,
					"interpolation":"LINEAR",
					"output":43
				},
				{
					"input":7,
					"interpolation":"STEP",
					"output":44
				},
				{
					"input":7,
					"interpolation":"STEP",
					"output":45
				},
				{
					"input":12,
					"interpolation":"LINEAR",
					"output":46
				},
				{
					"input":7,
					"interpolation":"STEP",
					"output":47
				},
				{
					"input":7,
					"interpolation":"STEP",
					"output":48
				},
				{
					"input":12,
					"interpolation":"LINEAR",
					"output":49
				},
				{
					"input":7,
					"interpolation":"STEP",
					"output":50
				},
				{
					"input":7,
					"interpolation":"STEP",
					"output":51
				},
				{
					"input":12,
					"interpolation":"LINEAR",
					"output":52
				},
				{
					"input":7,
					"interpolation":"STEP",
					"output":53
				},
				{
					"input":7,
					"interpolation":"STEP",
					"output":54
				},
				{
					"input":12,
					"interpolation":"LINEAR",
					"output":55
				},
				{
					"input":7,
					"interpolation":"STEP",
					"output":56
				},
				{
					"input":7,
					"interpolation":"STEP",
					"output":57
				},
				{
					"input":12,
					"interpolation":"LINEAR",
					"output":58
				},
				{
					"input":7,
					"interpolation":"STEP",
					"output":59
				},
				{
					"input":7,
					"interpolation":"STEP",
					"output":60
				},
				{
					"input":12,
					"interpolation":"LINEAR",
					"output":61
				},
				{
					"input":7,
					"interpolation":"STEP",
					"output":62
				},
				{
					"input":7,
					"interpolation":"STEP",
					"output":63
				},
				{
					"input":12,
					"interpolation":"LINEAR",
					"output":64
				},
				{
					"input":7,
					"interpolation":"STEP",
					"output":65
				},
				{
					"input":7,
					"interpolation":"STEP",
					"output":66
				},
				{
					"input":12,
					"interpolation":"LINEAR",
					"output":67
				},
				{
					"input":7,
					"interpolation":"STEP",
					"output":68
				},
				{
					"input":7,
					"interpolation":"STEP",
					"output":69
				},
				{
					"input":12,
					"interpolation":"LINEAR",
					"output":70
				},
				{
					"input":7,
					"interpolation":"STEP",
					"output":71
				},
				{
					"input":7,
					"interpolation":"STEP",
					"output":72
				},
				{
					"input":12,
					"interpolation":"LINEAR",
					"output":73
				},
				{
					"input":7,
					"interpolation":"STEP",
					"output":74
				},
				{
					"input":7,
					"interpolation":"STEP",
					"output":75
				},
				{
					"input":12,
					"interpolation":"LINEAR",
					"output":76
				},
				{
					"input":7,
					"interpolation":"STEP",
					"output":77
				},
				{
					"input":7,
					"interpolation":"STEP",
					"output":78
				},
				{
					"input":12,
					"interpolation":"LINEAR",
					"output":79
				},
				{
					"input":7,
					"interpolation":"STEP",
					"output":80
				},
				{
					"input":7,
					"interpolation":"LINEAR",
					"output":81
				},
				{
					"input":12,
					"interpolation":"LINEAR",
					"output":82
				},
				{
					"input":7,
					"interpolation":"STEP",
					"output":83
				},
				{
					"input":7,
					"interpolation":"LINEAR",
					"output":84
				},
				{
					"input":12,
					"interpolation":"LINEAR",
					"output":85
				},
				{
					"input":7,
					"interpolation":"STEP",
					"output":86
				},
				{
					"input":7,
					"interpolation":"LINEAR",
					"output":87
				},
				{
					"input":12,
					"interpolation":"LINEAR",
					"output":88
				},
				{
					"input":7,
					"interpolation":"STEP",
					"output":89
				},
				{
					"input":7,
					"interpolation":"LINEAR",
					"output":90
				},
				{
					"input":12,
					"interpolation":"LINEAR",
					"output":91
				},
				{
					"input":7,
					"interpolation":"STEP",
					"output":92
				},
				{
					"input":7,
					"interpolation":"LINEAR",
					"output":93
				},
				{
					"input":12,
					"interpolation":"LINEAR",
					"output":94
				},
				{
					"input":7,
					"interpolation":"STEP",
					"output":95
				},
				{
					"input":7,
					"interpolation":"LINEAR",
					"output":96
				},
				{
					"input":12,
					"interpolation":"LINEAR",
					"output":97
				},
				{
					"input":7,
					"interpolation":"STEP",
					"output":98
				},
				{
					"input":7,
					"interpolation":"LINEAR",
					"output":99
				},
				{
					"input":12,
					"interpolation":"LINEAR",
					"output":100
				},
				{
					"input":7,
					"interpolation":"LINEAR",
					"output":101
				},
				{
					"input":7,
					"interpolation":"LINEAR",
					"output":102
				},
				{
					"input":12,
					"interpolation":"LINEAR",
					"output":103
				},
				{
					"input":7,
					"interpolation":"LINEAR",
					"output":104
				},
				{
					"input":7,
					"interpolation":"STEP",
					"output":105
				},
				{
					"input":12,
					"interpolation":"LINEAR",
					"output":106
				},
				{
					"input":7,
					"interpolation":"STEP",
					"output":107
				},
				{
					"input":7,
					"interpolation":"STEP",
					"output":108
				},
				{
					"input":12,
					"interpolation":"LINEAR",
					"output":109
				},
				{
					"input":7,
					"interpolation":"STEP",
					"output":110
				},
				{
					"input":7,
					"interpolation":"STEP",
					"output":111
				},
				{
					"input":12,
					"interpolation":"LINEAR",
					"output":112
				},
				{
					"input":7,
					"interpolation":"STEP",
					"output":113
				},
				{
					"input":7,
					"interpolation":"STEP",
					"output":114
				},
				{
					"input":12,
					"interpolation":"LINEAR",
					"output":115
				},
				{
					"input":7,
					"interpolation":"LINEAR",
					"output":116
				},
				{
					"input":7,
					"interpolation":"LINEAR",
					"output":117
				},
				{
					"input":12,
					"interpolation":"LINEAR",
					"output":118
				},
				{
					"input":7,
					"interpolation":"LINEAR",
					"output":119
				},
				{
					"input":7,
					"interpolation":"STEP",
					"output":120
				},
				{
					"input":7,
					"interpolation":"STEP",
					"output":121
				},
				{
					"input":7,
					"interpolation":"STEP",
					"output":122
				}
			]
		}
	],
	"materials":[
		{
			"doubleSided":true,
			"name":"Material.002",
			"pbrMetallicRoughness":{
				"baseColorTexture":{
					"index":0
				},
				"metallicFactor":0,
				"roughnessFactor":0.6732679605484009
			}
		}
	],
	"meshes":[
		{
			"name":"tasmanian_wolf",
			"primitives":[
				{
					"attributes":{
						"POSITION":0,
						"NORMAL":1,
						"TEXCOORD_0":2,
						"JOINTS_0":3,
						"WEIGHTS_0":4
					},
					"indices":5,
					"material":0
				}
			]
		}
	],
	"textures":[
		{
			"sampler":0,
			"source":0
		}
	],
	"images":[
		{
			"mimeType":"image/png",
			"name":"tasmanian_wolf_uv",
			"uri":"tasmanian_wolf_uv.png"
		}
	],
	"skins":[
		{
			"inverseBindMatrices":6,
			"joints":[
				36,
				14,
				13,
				4,
				3,
				2,
				1,
				0,
				7,
				6,
				5,
				12,
				11,
				10,
				9,
				8,
				35,
				19,
				18,
				17,
				16,
				15,
				29,
				28,
				27,
				26,
				25,
				24,
				23,
				22,
				21,
				20,
				34,
				33,
				32,
				31,
				30
			],
			"name":"rig"
		}
	],
	"accessors":[
		{
			"bufferView":0,
			"componentType":5126,
			"count":1438,
			"max":[
				9.95260238647461,
				24.295305252075195,
				42.5521240234375
			],
			"min":[
				-9.95260238647461,
				-24.295312881469727,
				-42.552127838134766
			],
			"type":"VEC3"
		},
		{
			"bufferView":1,
			"componentType":5126,
			"count":1438,
			"type":"VEC3"
		},
		{
			"bufferView":2,
			"componentType":5126,
			"count":1438,
			"type":"VEC2"
		},
		{
			"bufferView":3,
			"componentType":5121,
			"count":1438,
			"type":"VEC4"
		},
		{
			"bufferView":4,
			"componentType":5126,
			"count":1438,
			"type":"VEC4"
		},
		{
			"bufferView":5,
			"componentType":5123,
			"count":7596,
			"type":"SCALAR"
		},
		{
			"bufferView":6,
			"componentType":5126,
			"count":37,
			"type":"MAT4"
		},
		{
			"bufferView":7,
			"componentType":5126,
			"count":2,
			"max":[
				1.0333333333333334
			],
			"min":[
				0.03333333333333333
			],
			"type":"SCALAR"
		},
		{
			"bufferView":8,
			"componentType":5126,
			"count":2,
			"type":"VEC3"
		},
		{
			"bufferView":9,
			"componentType":5126,
			"count":2,
			"type":"VEC4"
		},
		{
			"bufferView":10,
			"componentType":5126,
			"count":2,
			"type":"VEC3"
		},
		{
			"bufferView":11,
			"componentType":5126,
			"count":2,
			"type":"VEC3"
		},
		{
			"bufferView":12,
			"componentType":5126,
			"count":31,
			"max":[
				1.0333333333333334
			],
			"min":[
				0.03333333333333333
			],
			"type":"SCALAR"
		},
		{
			"bufferView":13,
			"componentType":5126,
			"count":31,
			"type":"VEC4"
		},
		{
			"bufferView":14,
			"componentType":5126,
			"count":2,
			"type":"VEC3"
		},
		{
			"bufferView":15,
			"componentType":5126,
			"count":2,
			"type":"VEC3"
		},
		{
			"bufferView":16,
			"componentType":5126,
			"count":31,
			"type":"VEC4"
		},
		{
			"bufferView":17,
			"componentType":5126,
			"count":2,
			"type":"VEC3"
		},
		{
			"bufferView":18,
			"componentType":5126,
			"count":31,
			"type":"VEC3"
		},
		{
			"bufferView":19,
			"componentType":5126,
			"count":31,
			"type":"VEC4"
		},
		{
			"bufferView":20,
			"componentType":5126,
			"count":2,
			"type":"VEC3"
		},
		{
			"bufferView":21,
			"componentType":5126,
			"count":2,
			"type":"VEC3"
		},
		{
			"bufferView":22,
			"componentType":5126,
			"count":31,
			"type":"VEC4"
		},
		{
			"bufferView":23,
			"componentType":5126,
			"count":2,
			"type":"VEC3"
		},
		{
			"bufferView":24,
			"componentType":5126,
			"count":2,
			"type":"VEC3"
		},
		{
			"bufferView":25,
			"componentType":5126,
			"count":31,
			"type":"VEC4"
		},
		{
			"bufferView":26,
			"componentType":5126,
			"count":2,
			"type":"VEC3"
		},
		{
			"bufferView":27,
			"componentType":5126,
			"count":2,
			"type":"VEC3"
		},
		{
			"bufferView":28,
			"componentType":5126,
			"count":31,
			"type":"VEC4"
		},
		{
			"bufferView":29,
			"componentType":5126,
			"count":2,
			"type":"VEC3"
		},
		{
			"bufferView":30,
			"componentType":5126,
			"count":2,
			"type":"VEC3"
		},
		{
			"bufferView":31,
			"componentType":5126,
			"count":31,
			"type":"VEC4"
		},
		{
			"bufferView":32,
			"componentType":5126,
			"count":2,
			"type":"VEC3"
		},
		{
			"bufferView":33,
			"componentType":5126,
			"count":31,
			"type":"VEC3"
		},
		{
			"bufferView":34,
			"componentType":5126,
			"count":31,
			"type":"VEC4"
		},
		{
			"bufferView":35,
			"componentType":5126,
			"count":2,
			"type":"VEC3"
		},
		{
			"bufferView":36,
			"componentType":5126,
			"count":2,
			"type":"VEC3"
		},
		{
			"bufferView":37,
			"componentType":5126,
			"count":31,
			"type":"VEC4"
		},
		{
			"bufferView":38,
			"componentType":5126,
			"count":2,
			"type":"VEC3"
		},
		{
			"bufferView":39,
			"componentType":5126,
			"count":2,
			"type":"VEC3"
		},
		{
			"bufferView":40,
			"componentType":5126,
			"count":31,
			"type":"VEC4"
		},
		{
			"bufferView":41,
			"componentType":5126,
			"count":2,
			"type":"VEC3"
		},
		{
			"bufferView":42,
			"componentType":5126,
			"count":2,
			"type":"VEC3"
		},
		{
			"bufferView":43,
			"componentType":5126,
			"count":31,
			"type":"VEC4"
		},
		{
			"bufferView":44,
			"componentType":5126,
			"count":2,
			"type":"VEC3"
		},
		{
			"bufferView":45,
			"componentType":5126,
			"count":2,
			"type":"VEC3"
		},
		{
			"bufferView":46,
			"componentType":5126,
			"count":31,
			"type":"VEC4"
		},
		{
			"bufferView":47,
			"componentType":5126,
			"count":2,
			"type":"VEC3"
		},
		{
			"bufferView":48,
			"componentType":5126,
			"count":2,
			"type":"VEC3"
		},
		{
			"bufferView":49,
			"componentType":5126,
			"count":31,
			"type":"VEC4"
		},
		{
			"bufferView":50,
			"componentType":5126,
			"count":2,
			"type":"VEC3"
		},
		{
			"bufferView":51,
			"componentType":5126,
			"count":2,
			"type":"VEC3"
		},
		{
			"bufferView":52,
			"componentType":5126,
			"count":31,
			"type":"VEC4"
		},
		{
			"bufferView":53,
			"componentType":5126,
			"count":2,
			"type":"VEC3"
		},
		{
			"bufferView":54,
			"componentType":5126,
			"count":2,
			"type":"VEC3"
		},
		{
			"bufferView":55,
			"componentType":5126,
			"count":31,
			"type":"VEC4"
		},
		{
			"bufferView":56,
			"componentType":5126,
			"count":2,
			"type":"VEC3"
		},
		{
			"bufferView":57,
			"componentType":5126,
			"count":2,
			"type":"VEC3"
		},
		{
			"bufferView":58,
			"componentType":5126,
			"count":31,
			"type":"VEC4"
		},
		{
			"bufferView":59,
			"componentType":5126,
			"count":2,
			"type":"VEC3"
		},
		{
			"bufferView":60,
			"componentType":5126,
			"count":2,
			"type":"VEC3"
		},
		{
			"bufferView":61,
			"componentType":5126,
			"count":31,
			"type":"VEC4"
		},
		{
			"bufferView":62,
			"componentType":5126,
			"count":2,
			"type":"VEC3"
		},
		{
			"bufferView":63,
			"componentType":5126,
			"count":2,
			"type":"VEC3"
		},
		{
			"bufferView":64,
			"componentType":5126,
			"count":31,
			"type":"VEC4"
		},
		{
			"bufferView":65,
			"componentType":5126,
			"count":2,
			"type":"VEC3"
		},
		{
			"bufferView":66,
			"componentType":5126,
			"count":2,
			"type":"VEC3"
		},
		{
			"bufferView":67,
			"componentType":5126,
			"count":31,
			"type":"VEC4"
		},
		{
			"bufferView":68,
			"componentType":5126,
			"count":2,
			"type":"VEC3"
		},
		{
			"bufferView":69,
			"componentType":5126,
			"count":2,
			"type":"VEC3"
		},
		{
			"bufferView":70,
			"componentType":5126,
			"count":31,
			"type":"VEC4"
		},
		{
			"bufferView":71,
			"componentType":5126,
			"count":2,
			"type":"VEC3"
		},
		{
			"bufferView":72,
			"componentType":5126,
			"count":2,
			"type":"VEC3"
		},
		{
			"bufferView":73,
			"componentType":5126,
			"count":31,
			"type":"VEC4"
		},
		{
			"bufferView":74,
			"componentType":5126,
			"count":2,
			"type":"VEC3"
		},
		{
			"bufferView":75,
			"componentType":5126,
			"count":2,
			"type":"VEC3"
		},
		{
			"bufferView":76,
			"componentType":5126,
			"count":31,
			"type":"VEC4"
		},
		{
			"bufferView":77,
			"componentType":5126,
			"count":2,
			"type":"VEC3"
		},
		{
			"bufferView":78,
			"componentType":5126,
			"count":2,
			"type":"VEC3"
		},
		{
			"bufferView":79,
			"componentType":5126,
			"count":31,
			"type":"VEC4"
		},
		{
			"bufferView":80,
			"componentType":5126,
			"count":2,
			"type":"VEC3"
		},
		{
			"bufferView":81,
			"componentType":5126,
			"count":2,
			"type":"VEC3"
		},
		{
			"bufferView":82,
			"componentType":5126,
			"count":31,
			"type":"VEC4"
		},
		{
			"bufferView":83,
			"componentType":5126,
			"count":2,
			"type":"VEC3"
		},
		{
			"bufferView":84,
			"componentType":5126,
			"count":2,
			"type":"VEC3"
		},
		{
			"bufferView":85,
			"componentType":5126,
			"count":31,
			"type":"VEC4"
		},
		{
			"bufferView":86,
			"componentType":5126,
			"count":2,
			"type":"VEC3"
		},
		{
			"bufferView":87,
			"componentType":5126,
			"count":2,
			"type":"VEC3"
		},
		{
			"bufferView":88,
			"componentType":5126,
			"count":31,
			"type":"VEC4"
		},
		{
			"bufferView":89,
			"componentType":5126,
			"count":2,
			"type":"VEC3"
		},
		{
			"bufferView":90,
			"componentType":5126,
			"count":2,
			"type":"VEC3"
		},
		{
			"bufferView":91,
			"componentType":5126,
			"count":31,
			"type":"VEC4"
		},
		{
			"bufferView":92,
			"componentType":5126,
			"count":2,
			"type":"VEC3"
		},
		{
			"bufferView":93,
			"componentType":5126,
			"count":2,
			"type":"VEC3"
		},
		{
			"bufferView":94,
			"componentType":5126,
			"count":31,
			"type":"VEC4"
		},
		{
			"bufferView":95,
			"componentType":5126,
			"count":2,
			"type":"VEC3"
		},
		{
			"bufferView":96,
			"componentType":5126,
			"count":2,
			"type":"VEC3"
		},
		{
			"bufferView":97,
			"componentType":5126,
			"count":31,
			"type":"VEC4"
		},
		{
			"bufferView":98,
			"componentType":5126,
			"count":2,
			"type":"VEC3"
		},
		{
			"bufferView":99,
			"componentType":5126,
			"count":2,
			"type":"VEC3"
		},
		{
			"bufferView":100,
			"componentType":5126,
			"count":31,
			"type":"VEC4"
		},
		{
			"bufferView":101,
			"componentType":5126,
			"count":2,
			"type":"VEC3"
		},
		{
			"bufferView":102,
			"componentType":5126,
			"count":2,
			"type":"VEC3"
		},
		{
			"bufferView":103,
			"componentType":5126,
			"count":31,
			"type":"VEC4"
		},
		{
			"bufferView":104,
			"componentType":5126,
			"count":2,
			"type":"VEC3"
		},
		{
			"bufferView":105,
			"componentType":5126,
			"count":2,
			"type":"VEC3"
		},
		{
			"bufferView":106,
			"componentType":5126,
			"count":31,
			"type":"VEC4"
		},
		{
			"bufferView":107,
			"componentType":5126,
			"count":2,
			"type":"VEC3"
		},
		{
			"bufferView":108,
			"componentType":5126,
			"count":2,
			"type":"VEC3"
		},
		{
			"bufferView":109,
			"componentType":5126,
			"count":31,
			"type":"VEC4"
		},
		{
			"bufferView":110,
			"componentType":5126,
			"count":2,
			"type":"VEC3"
		},
		{
			"bufferView":111,
			"componentType":5126,
			"count":2,
			"type":"VEC3"
		},
		{
			"bufferView":112,
			"componentType":5126,
			"count":31,
			"type":"VEC4"
		},
		{
			"bufferView":113,
			"componentType":5126,
			"count":2,
			"type":"VEC3"
		},
		{
			"bufferView":114,
			"componentType":5126,
			"count":2,
			"type":"VEC3"
		},
		{
			"bufferView":115,
			"componentType":5126,
			"count":31,
			"type":"VEC4"
		},
		{
			"bufferView":116,
			"componentType":5126,
			"count":2,
			"type":"VEC3"
		},
		{
			"bufferView":117,
			"componentType":5126,
			"count":2,
			"type":"VEC3"
		},
		{
			"bufferView":118,
			"componentType":5126,
			"count":31,
			"type":"VEC4"
		},
		{
			"bufferView":119,
			"componentType":5126,
			"count":2,
			"type":"VEC3"
		},
		{
			"bufferView":120,
			"componentType":5126,
			"count":2,
			"type":"VEC3"
		},
		{
			"bufferView":121,
			"componentType":5126,
			"count":2,
			"type":"VEC4"
		},
		{
			"bufferView":122,
			"componentType":5126,
			"count":2,
			"type":"VEC3"
		}
	],
	"bufferViews":[
		{
			"buffer":0,
			"byteLength":17256,
			"byteOffset":0,
			"target":34962
		},
		{
			"buffer":0,
			"byteLength":17256,
			"byteOffset":17256,
			"target":34962
		},
		{
			"buffer":0,
			"byteLength":11504,
			"byteOffset":34512,
			"target":34962
		},
		{
			"buffer":0,
			"byteLength":5752,
			"byteOffset":46016,
			"target":34962
		},
		{
			"buffer":0,
			"byteLength":23008,
			"byteOffset":51768,
			"target":34962
		},
		{
			"buffer":0,
			"byteLength":15192,
			"byteOffset":74776,
			"target":34963
		},
		{
			"buffer":0,
			"byteLength":2368,
			"byteOffset":89968
		},
		{
			"buffer":0,
			"byteLength":8,
			"byteOffset":92336
		},
		{
			"buffer":0,
			"byteLength":24,
			"byteOffset":92344
		},
		{
			"buffer":0,
			"byteLength":32,
			"byteOffset":92368
		},
		{
			"buffer":0,
			"byteLength":24,
			"byteOffset":92400
		},
		{
			"buffer":0,
			"byteLength":24,
			"byteOffset":92424
		},
		{
			"buffer":0,
			"byteLength":124,
			"byteOffset":92448
		},
		{
			"buffer":0,
			"byteLength":496,
			"byteOffset":92572
		},
		{
			"buffer":0,
			"byteLength":24,
			"byteOffset":93068
		},
		{
			"buffer":0,
			"byteLength":24,
			"byteOffset":93092
		},
		{
			"buffer":0,
			"byteLength":496,
			"byteOffset":93116
		},
		{
			"buffer":0,
			"byteLength":24,
			"byteOffset":93612
		},
		{
			"buffer":0,
			"byteLength":372,
			"byteOffset":93636
		},
		{
			"buffer":0,
			"byteLength":496,
			"byteOffset":94008
		},
		{
			"buffer":0,
			"byteLength":24,
			"byteOffset":94504
		},
		{
			"buffer":0,
			"byteLength":24,
			"byteOffset":94528
		},
		{
			"buffer":0,
			"byteLength":496,
			"byteOffset":94552
		},
		{
			"buffer":0,
			"byteLength":24,
			"byteOffset":95048
		},
		{
			"buffer":0,
			"byteLength":24,
			"byteOffset":95072
		},
		{
			"buffer":0,
			"byteLength":496,
			"byteOffset":95096
		},
		{
			"buffer":0,
			"byteLength":24,
			"byteOffset":95592
		},
		{
			"buffer":0,
			"byteLength":24,
			"byteOffset":95616
		},
		{
			"buffer":0,
			"byteLength":496,
			"byteOffset":95640
		},
		{
			"buffer":0,
			"byteLength":24,
			"byteOffset":96136
		},
		{
			"buffer":0,
			"byteLength":24,
			"byteOffset":96160
		},
		{
			"buffer":0,
			"byteLength":496,
			"byteOffset":96184
		},
		{
			"buffer":0,
			"byteLength":24,
			"byteOffset":96680
		},
		{
			"buffer":0,
			"byteLength":372,
			"byteOffset":96704
		},
		{
			"buffer":0,
			"byteLength":496,
			"byteOffset":97076
		},
		{
			"buffer":0,
			"byteLength":24,
			"byteOffset":97572
		},
		{
			"buffer":0,
			"byteLength":24,
			"byteOffset":97596
		},
		{
			"buffer":0,
			"byteLength":496,
			"byteOffset":97620
		},
		{
			"buffer":0,
			"byteLength":24,
			"byteOffset":98116
		},
		{
			"buffer":0,
			"byteLength":24,
			"byteOffset":98140
		},
		{
			"buffer":0,
			"byteLength":496,
			"byteOffset":98164
		},
		{
			"buffer":0,
			"byteLength":24,
			"byteOffset":98660
		},
		{
			"buffer":0,
			"byteLength":24,
			"byteOffset":98684
		},
		{
			"buffer":0,
			"byteLength":496,
			"byteOffset":98708
		},
		{
			"buffer":0,
			"byteLength":24,
			"byteOffset":99204
		},
		{
			"buffer":0,
			"byteLength":24,
			"byteOffset":99228
		},
		{
			"buffer":0,
			"byteLength":496,
			"byteOffset":99252
		},
		{
			"buffer":0,
			"byteLength":24,
			"byteOffset":99748
		},
		{
			"buffer":0,
			"byteLength":24,
			"byteOffset":99772
		},
		{
			"buffer":0,
			"byteLength":496,
			"byteOffset":99796
		},
		{
			"buffer":0,
			"byteLength":24,
			"byteOffset":100292
		},
		{
			"buffer":0,
			"byteLength":24,
			"byteOffset":100316
		},
		{
			"buffer":0,
			"byteLength":496,
			"byteOffset":100340
		},
		{
			"buffer":0,
			"byteLength":24,
			"byteOffset":100836
		},
		{
			"buffer":0,
			"byteLength":24,
			"byteOffset":100860
		},
		{
			"buffer":0,
			"byteLength":496,
			"byteOffset":100884
		},
		{
			"buffer":0,
			"byteLength":24,
			"byteOffset":101380
		},
		{
			"buffer":0,
			"byteLength":24,
			"byteOffset":101404
		},
		{
			"buffer":0,
			"byteLength":496,
			"byteOffset":101428
		},
		{
			"buffer":0,
			"byteLength":24,
			"byteOffset":101924
		},
		{
			"buffer":0,
			"byteLength":24,
			"byteOffset":101948
		},
		{
			"buffer":0,
			"byteLength":496,
			"byteOffset":101972
		},
		{
			"buffer":0,
			"byteLength":24,
			"byteOffset":102468
		},
		{
			"buffer":0,
			"byteLength":24,
			"byteOffset":102492
		},
		{
			"buffer":0,
			"byteLength":496,
			"byteOffset":102516
		},
		{
			"buffer":0,
			"byteLength":24,
			"byteOffset":103012
		},
		{
			"buffer":0,
			"byteLength":24,
			"byteOffset":103036
		},
		{
			"buffer":0,
			"byteLength":496,
			"byteOffset":103060
		},
		{
			"buffer":0,
			"byteLength":24,
			"byteOffset":103556
		},
		{
			"buffer":0,
			"byteLength":24,
			"byteOffset":103580
		},
		{
			"buffer":0,
			"byteLength":496,
			"byteOffset":103604
		},
		{
			"buffer":0,
			"byteLength":24,
			"byteOffset":104100
		},
		{
			"buffer":0,
			"byteLength":24,
			"byteOffset":104124
		},
		{
			"buffer":0,
			"byteLength":496,
			"byteOffset":104148
		},
		{
			"buffer":0,
			"byteLength":24,
			"byteOffset":104644
		},
		{
			"buffer":0,
			"byteLength":24,
			"byteOffset":104668
		},
		{
			"buffer":0,
			"byteLength":496,
			"byteOffset":104692
		},
		{
			"buffer":0,
			"byteLength":24,
			"byteOffset":105188
		},
		{
			"buffer":0,
			"byteLength":24,
			"byteOffset":105212
		},
		{
			"buffer":0,
			"byteLength":496,
			"byteOffset":105236
		},
		{
			"buffer":0,
			"byteLength":24,
			"byteOffset":105732
		},
		{
			"buffer":0,
			"byteLength":24,
			"byteOffset":105756
		},
		{
			"buffer":0,
			"byteLength":496,
			"byteOffset":105780
		},
		{
			"buffer":0,
			"byteLength":24,
			"byteOffset":106276
		},
		{
			"buffer":0,
			"byteLength":24,
			"byteOffset":106300
		},
		{
			"buffer":0,
			"byteLength":496,
			"byteOffset":106324
		},
		{
			"buffer":0,
			"byteLength":24,
			"byteOffset":106820
		},
		{
			"buffer":0,
			"byteLength":24,
			"byteOffset":106844
		},
		{
			"buffer":0,
			"byteLength":496,
			"byteOffset":106868
		},
		{
			"buffer":0,
			"byteLength":24,
			"byteOffset":107364
		},
		{
			"buffer":0,
			"byteLength":24,
			"byteOffset":107388
		},
		{
			"buffer":0,
			"byteLength":496,
			"byteOffset":107412
		},
		{
			"buffer":0,
			"byteLength":24,
			"byteOffset":107908
		},
		{
			"buffer":0,
			"byteLength":24,
			"byteOffset":107932
		},
		{
			"buffer":0,
			"byteLength":496,
			"byteOffset":107956
		},
		{
			"buffer":0,
			"byteLength":24,
			"byteOffset":108452
		},
		{
			"buffer":0,
			"byteLength":24,
			"byteOffset":108476
		},
		{
			"buffer":0,
			"byteLength":496,
			"byteOffset":108500
		},
		{
			"buffer":0,
			"byteLength":24,
			"byteOffset":108996
		},
		{
			"buffer":0,
			"byteLength":24,
			"byteOffset":109020
		},
		{
			"buffer":0,
			"byteLength":496,
			"byteOffset":109044
		},
		{
			"buffer":0,
			"byteLength":24,
			"byteOffset":109540
		},
		{
			"buffer":0,
			"byteLength":24,
			"byteOffset":109564
		},
		{
			"buffer":0,
			"byteLength":496,
			"byteOffset":109588
		},
		{
			"buffer":0,
			"byteLength":24,
			"byteOffset":110084
		},
		{
			"buffer":0,
			"byteLength":24,
			"byteOffset":110108
		},
		{
			"buffer":0,
			"byteLength":496,
			"byteOffset":110132
		},
		{
			"buffer":0,
			"byteLength":24,
			"byteOffset":110628
		},
		{
			"buffer":0,
			"byteLength":24,
			"byteOffset":110652
		},
		{
			"buffer":0,
			"byteLength":496,
			"byteOffset":110676
		},
		{
			"buffer":0,
			"byteLength":24,
			"byteOffset":111172
		},
		{
			"buffer":0,
			"byteLength":24,
			"byteOffset":111196
		},
		{
			"buffer":0,
			"byteLength":496,
			"byteOffset":111220
		},
		{
			"buffer":0,
			"byteLength":24,
			"byteOffset":111716
		},
		{
			"buffer":0,
			"byteLength":24,
			"byteOffset":111740
		},
		{
			"buffer":0,
			"byteLength":496,
			"byteOffset":111764
		},
		{
			"buffer":0,
			"byteLength":24,
			"byteOffset":112260
		},
		{
			"buffer":0,
			"byteLength":24,
			"byteOffset":112284
		},
		{
			"buffer":0,
			"byteLength":496,
			"byteOffset":112308
		},
		{
			"buffer":0,
			"byteLength":24,
			"byteOffset":112804
		},
		{
			"buffer":0,
			"byteLength":24,
			"byteOffset":112828
		},
		{
			"buffer":0,
			"byteLength":32,
			"byteOffset":112852
		},
		{
			"buffer":0,
			"byteLength":24,
			"byteOffset":112884
		}
	],
	"samplers":[
		{
			"magFilter":9729,
			"minFilter":9987
		}
	],
	"buffers":[
		{
			"byteLength":112908,
			"uri":"tasmanian_wolf_walk.bin"
		}
	]
}
