{
	"asset":{
		"generator":"Khronos glTF Blender I/O v4.1.62",
		"version":"2.0"
	},
	"scene":0,
	"scenes":[
		{
			"name":"Scene",
			"nodes":[
				29
			]
		}
	],
	"nodes":[
		{
			"name":"leg_front_right_bot2",
			"rotation":[
				0.026783131062984467,
				0.7065985798835754,
				0.7065993547439575,
				0.026805346831679344
			],
			"scale":[
				0.9999998807907104,
				1,
				0.9999999403953552
			],
			"translation":[
				-3.8259895518422127e-07,
				7.922762393951416,
				-1.1308475222904235e-06
			]
		},
		{
			"children":[
				0
			],
			"name":"leg_front_right_bot1",
			"rotation":[
				-0.013103821314871311,
				-0.34557026624679565,
				-0.056834690272808075,
				0.9365785121917725
			],
			"scale":[
				0.9999998807907104,
				0.9999998807907104,
				0.9999998211860657
			],
			"translation":[
				7.152557373046875e-07,
				7.833428859710693,
				-7.748603820800781e-07
			]
		},
		{
			"children":[
				1
			],
			"name":"leg_front_right_bot0",
			"rotation":[
				-0.06765136867761612,
				-0.9314209818840027,
				-0.0658835619688034,
				0.3514792025089264
			],
			"scale":[
				1.0000001192092896,
				1,
				1.0000001192092896
			],
			"translation":[
				-2.6241104933433235e-07,
				14.208147048950195,
				2.46967829298228e-07
			]
		},
		{
			"children":[
				2
			],
			"name":"leg_front_right_top1",
			"rotation":[
				-0.4971037805080414,
				0.849047064781189,
				0.06005466729402542,
				0.16852396726608276
			],
			"scale":[
				1,
				0.9999996423721313,
				1
			],
			"translation":[
				7.152557373046875e-07,
				8.906654357910156,
				-1.1920928955078125e-07
			]
		},
		{
			"children":[
				3
			],
			"name":"leg_front_right_top0",
			"rotation":[
				-0.46949633955955505,
				0.5557480454444885,
				0.6430341601371765,
				0.23921619355678558
			],
			"scale":[
				1.0000001192092896,
				1.000000238418579,
				0.9999999403953552
			],
			"translation":[
				-0.42281612753868103,
				12.107254981994629,
				1.233602523803711
			]
		},
		{
			"name":"head0",
			"rotation":[
				0.16545233130455017,
				2.287067618622629e-10,
				-0.00032441585790365934,
				0.9862177968025208
			],
			"scale":[
				0.9999999403953552,
				0.9999999403953552,
				1.0000001192092896
			],
			"translation":[
				-1.862645149230957e-09,
				13.058897018432617,
				3.808236215263605e-08
			]
		},
		{
			"children":[
				5
			],
			"name":"neck0",
			"rotation":[
				0.18353323638439178,
				-0.005144678987562656,
				-0.004489957354962826,
				0.9829897880554199
			],
			"scale":[
				0.9999999403953552,
				0.9999999403953552,
				1.0000001192092896
			],
			"translation":[
				4.470348358154297e-08,
				12.391813278198242,
				-3.3281976357102394e-06
			]
		},
		{
			"name":"leg_front_left_bot2",
			"rotation":[
				0.026802070438861847,
				-0.706599235534668,
				-0.706598699092865,
				0.02678648568689823
			],
			"scale":[
				1,
				1,
				0.9999999403953552
			],
			"translation":[
				-2.92464392259717e-07,
				7.922756195068359,
				5.522088031284511e-08
			]
		},
		{
			"children":[
				7
			],
			"name":"leg_front_left_bot1",
			"rotation":[
				-0.01310559082776308,
				0.3455955386161804,
				0.05683441087603569,
				0.9365692138671875
			],
			"scale":[
				0.9999999403953552,
				0.9999999403953552,
				0.9999998211860657
			],
			"translation":[
				2.384185791015625e-07,
				7.833428859710693,
				-1.7881393432617188e-06
			]
		},
		{
			"children":[
				8
			],
			"name":"leg_front_left_bot0",
			"rotation":[
				-0.06765231490135193,
				0.9314177632331848,
				0.06588295102119446,
				0.3514876961708069
			],
			"translation":[
				-4.6087825467111543e-07,
				14.208148002624512,
				-7.226117304526269e-07
			]
		},
		{
			"children":[
				9
			],
			"name":"leg_front_left_top1",
			"rotation":[
				-0.501430094242096,
				-0.8476311564445496,
				-0.059958841651678085,
				0.16277047991752625
			],
			"scale":[
				0.9999998807907104,
				0.9999997615814209,
				1
			],
			"translation":[
				-2.384185791015625e-07,
				9.072099685668945,
				4.76837158203125e-07
			]
		},
		{
			"children":[
				10
			],
			"name":"leg_front_left_top0",
			"rotation":[
				-0.46844667196273804,
				-0.5526910424232483,
				-0.6471326947212219,
				0.23729607462882996
			],
			"scale":[
				1.0000001192092896,
				1.0000003576278687,
				1.0000001192092896
			],
			"translation":[
				0.40439891815185547,
				12.102952003479004,
				1.2350573539733887
			]
		},
		{
			"children":[
				4,
				6,
				11
			],
			"name":"body_top1",
			"rotation":[
				-0.009078443050384521,
				0.003503096289932728,
				0.004003344569355249,
				0.9999446272850037
			],
			"scale":[
				1,
				1,
				0.9999999403953552
			],
			"translation":[
				2.9339794593852275e-08,
				12.30885124206543,
				-4.470348358154297e-07
			]
		},
		{
			"children":[
				12
			],
			"name":"body_top0",
			"rotation":[
				-0.1723896712064743,
				0.002279639011248946,
				0.002605176530778408,
				0.985022783279419
			],
			"scale":[
				0.9999999403953552,
				0.9999999403953552,
				1
			],
			"translation":[
				-2.607658622366671e-08,
				11.961366653442383,
				4.769375436808332e-07
			]
		},
		{
			"name":"tail0",
			"rotation":[
				1.8789435785038222e-07,
				-6.651971489191055e-07,
				1.3329554349184036e-07,
				1
			],
			"scale":[
				1,
				0.9999998807907104,
				0.9999999403953552
			],
			"translation":[
				3.2782554626464844e-07,
				5.836113929748535,
				2.7194619178771973e-07
			]
		},
		{
			"children":[
				14
			],
			"name":"pelvis",
			"rotation":[
				-0.03983351215720177,
				0.037512507289648056,
				-0.037818264216184616,
				0.9977854490280151
			],
			"scale":[
				1,
				0.9999998807907104,
				1.0000001192092896
			],
			"translation":[
				3.725539698962166e-08,
				10.348708152770996,
				-4.850818186241668e-06
			]
		},
		{
			"name":"leg_hind_right_bot2",
			"rotation":[
				0.08047150820493698,
				0.7025119662284851,
				0.7025136351585388,
				0.08047248423099518
			],
			"scale":[
				0.9999998211860657,
				0.9999997019767761,
				0.9999998807907104
			],
			"translation":[
				-3.417717380216345e-07,
				11.4979887008667,
				-2.4979458430607338e-06
			]
		},
		{
			"children":[
				16
			],
			"name":"leg_hind_right_bot1",
			"rotation":[
				7.83016218974808e-07,
				6.632086751778843e-06,
				0.07516830414533615,
				0.9971708655357361
			],
			"scale":[
				0.9999999403953552,
				0.9999999403953552,
				1
			],
			"translation":[
				5.3638359531760216e-08,
				4.51366662979126,
				-8.547258403268643e-07
			]
		},
		{
			"children":[
				17
			],
			"name":"leg_hind_right_bot0",
			"rotation":[
				-0.038705598562955856,
				-0.9967911839485168,
				-0.07001373171806335,
				0.0027083817403763533
			],
			"translation":[
				4.2694864532677457e-07,
				14.307360649108887,
				6.895243132021278e-07
			]
		},
		{
			"children":[
				18
			],
			"name":"leg_hind_right_top1",
			"rotation":[
				-0.5207434892654419,
				0.841996431350708,
				0.05914006382226944,
				0.12794791162014008
			],
			"scale":[
				1.0000001192092896,
				1.0000001192092896,
				1
			],
			"translation":[
				0,
				7.854673385620117,
				3.6954879760742188e-06
			]
		},
		{
			"children":[
				19
			],
			"name":"leg_hind_right_top0",
			"rotation":[
				0.2442644238471985,
				-0.5966089963912964,
				0.599495530128479,
				0.4743393361568451
			],
			"scale":[
				1,
				1,
				0.9999998807907104
			],
			"translation":[
				-0.42502114176750183,
				10.426901817321777,
				-1.2418030500411987
			]
		},
		{
			"name":"leg_hind_left_bot2",
			"rotation":[
				0.08047473430633545,
				-0.7025122046470642,
				-0.7025135159492493,
				0.08046858757734299
			],
			"translation":[
				6.633345037698746e-07,
				11.498016357421875,
				-2.6858433557208627e-06
			]
		},
		{
			"children":[
				21
			],
			"name":"leg_hind_left_bot1",
			"rotation":[
				-1.4357880218085484e-06,
				1.5522831745329313e-05,
				-0.07516854256391525,
				0.9971708655357361
			],
			"translation":[
				3.3207470551133156e-07,
				4.5136637687683105,
				-4.027937393402681e-06
			]
		},
		{
			"children":[
				22
			],
			"name":"leg_hind_left_bot0",
			"rotation":[
				-0.038704004138708115,
				0.9967912435531616,
				0.07001334428787231,
				0.0027307213749736547
			],
			"scale":[
				0.9999998211860657,
				0.9999997019767761,
				1
			],
			"translation":[
				-7.017524694674648e-08,
				14.307352066040039,
				-9.532413969282061e-08
			]
		},
		{
			"children":[
				23
			],
			"name":"leg_hind_left_top1",
			"rotation":[
				-0.5207441449165344,
				-0.8419952988624573,
				-0.0591423436999321,
				0.12795159220695496
			],
			"scale":[
				0.9999998807907104,
				0.9999999403953552,
				0.9999998807907104
			],
			"translation":[
				-4.76837158203125e-07,
				7.854671955108643,
				2.1457672119140625e-06
			]
		},
		{
			"children":[
				24
			],
			"name":"leg_hind_left_top0",
			"rotation":[
				0.24426531791687012,
				0.595432460308075,
				-0.5958365797996521,
				0.480388879776001
			],
			"scale":[
				1,
				1.0000001192092896,
				0.9999999403953552
			],
			"translation":[
				0.4367530941963196,
				10.431264877319336,
				-1.237439751625061
			]
		},
		{
			"children":[
				15,
				20,
				25
			],
			"name":"body_bot",
			"rotation":[
				0.9944453835487366,
				0.005233776289969683,
				-0.00020125204173382372,
				0.10512366145849228
			],
			"scale":[
				1.0000001192092896,
				0.9999998807907104,
				0.9999914765357971
			],
			"translation":[
				-0.005584940314292908,
				0.9790703654289246,
				-0.14867852628231049
			]
		},
		{
			"children":[
				13,
				26
			],
			"name":"body",
			"rotation":[
				0.1065090224146843,
				-0.002447825390845537,
				-0.002447826787829399,
				0.9943057298660278
			],
			"translation":[
				-0.051988210529088974,
				-21.33983612060547,
				-11.800285339355469
			]
		},
		{
			"mesh":0,
			"name":"uploads-files-5014602-Rhino_Quad",
			"skin":0
		},
		{
			"children":[
				28,
				27
			],
			"name":"rig",
			"rotation":[
				0.7071068286895752,
				0,
				0,
				0.7071068286895752
			]
		}
	],
	"animations":[
		{
			"channels":[
				{
					"sampler":0,
					"target":{
						"node":27,
						"path":"translation"
					}
				},
				{
					"sampler":1,
					"target":{
						"node":27,
						"path":"rotation"
					}
				},
				{
					"sampler":2,
					"target":{
						"node":27,
						"path":"scale"
					}
				},
				{
					"sampler":3,
					"target":{
						"node":13,
						"path":"translation"
					}
				},
				{
					"sampler":4,
					"target":{
						"node":13,
						"path":"rotation"
					}
				},
				{
					"sampler":5,
					"target":{
						"node":13,
						"path":"scale"
					}
				},
				{
					"sampler":6,
					"target":{
						"node":12,
						"path":"translation"
					}
				},
				{
					"sampler":7,
					"target":{
						"node":12,
						"path":"rotation"
					}
				},
				{
					"sampler":8,
					"target":{
						"node":12,
						"path":"scale"
					}
				},
				{
					"sampler":9,
					"target":{
						"node":4,
						"path":"translation"
					}
				},
				{
					"sampler":10,
					"target":{
						"node":4,
						"path":"rotation"
					}
				},
				{
					"sampler":11,
					"target":{
						"node":4,
						"path":"scale"
					}
				},
				{
					"sampler":12,
					"target":{
						"node":3,
						"path":"translation"
					}
				},
				{
					"sampler":13,
					"target":{
						"node":3,
						"path":"rotation"
					}
				},
				{
					"sampler":14,
					"target":{
						"node":3,
						"path":"scale"
					}
				},
				{
					"sampler":15,
					"target":{
						"node":2,
						"path":"translation"
					}
				},
				{
					"sampler":16,
					"target":{
						"node":2,
						"path":"rotation"
					}
				},
				{
					"sampler":17,
					"target":{
						"node":2,
						"path":"scale"
					}
				},
				{
					"sampler":18,
					"target":{
						"node":1,
						"path":"translation"
					}
				},
				{
					"sampler":19,
					"target":{
						"node":1,
						"path":"rotation"
					}
				},
				{
					"sampler":20,
					"target":{
						"node":1,
						"path":"scale"
					}
				},
				{
					"sampler":21,
					"target":{
						"node":0,
						"path":"translation"
					}
				},
				{
					"sampler":22,
					"target":{
						"node":0,
						"path":"rotation"
					}
				},
				{
					"sampler":23,
					"target":{
						"node":0,
						"path":"scale"
					}
				},
				{
					"sampler":24,
					"target":{
						"node":6,
						"path":"translation"
					}
				},
				{
					"sampler":25,
					"target":{
						"node":6,
						"path":"rotation"
					}
				},
				{
					"sampler":26,
					"target":{
						"node":6,
						"path":"scale"
					}
				},
				{
					"sampler":27,
					"target":{
						"node":5,
						"path":"translation"
					}
				},
				{
					"sampler":28,
					"target":{
						"node":5,
						"path":"rotation"
					}
				},
				{
					"sampler":29,
					"target":{
						"node":5,
						"path":"scale"
					}
				},
				{
					"sampler":30,
					"target":{
						"node":11,
						"path":"translation"
					}
				},
				{
					"sampler":31,
					"target":{
						"node":11,
						"path":"rotation"
					}
				},
				{
					"sampler":32,
					"target":{
						"node":11,
						"path":"scale"
					}
				},
				{
					"sampler":33,
					"target":{
						"node":10,
						"path":"translation"
					}
				},
				{
					"sampler":34,
					"target":{
						"node":10,
						"path":"rotation"
					}
				},
				{
					"sampler":35,
					"target":{
						"node":10,
						"path":"scale"
					}
				},
				{
					"sampler":36,
					"target":{
						"node":9,
						"path":"translation"
					}
				},
				{
					"sampler":37,
					"target":{
						"node":9,
						"path":"rotation"
					}
				},
				{
					"sampler":38,
					"target":{
						"node":9,
						"path":"scale"
					}
				},
				{
					"sampler":39,
					"target":{
						"node":8,
						"path":"translation"
					}
				},
				{
					"sampler":40,
					"target":{
						"node":8,
						"path":"rotation"
					}
				},
				{
					"sampler":41,
					"target":{
						"node":8,
						"path":"scale"
					}
				},
				{
					"sampler":42,
					"target":{
						"node":7,
						"path":"translation"
					}
				},
				{
					"sampler":43,
					"target":{
						"node":7,
						"path":"rotation"
					}
				},
				{
					"sampler":44,
					"target":{
						"node":7,
						"path":"scale"
					}
				},
				{
					"sampler":45,
					"target":{
						"node":26,
						"path":"translation"
					}
				},
				{
					"sampler":46,
					"target":{
						"node":26,
						"path":"rotation"
					}
				},
				{
					"sampler":47,
					"target":{
						"node":26,
						"path":"scale"
					}
				},
				{
					"sampler":48,
					"target":{
						"node":15,
						"path":"translation"
					}
				},
				{
					"sampler":49,
					"target":{
						"node":15,
						"path":"rotation"
					}
				},
				{
					"sampler":50,
					"target":{
						"node":15,
						"path":"scale"
					}
				},
				{
					"sampler":51,
					"target":{
						"node":14,
						"path":"translation"
					}
				},
				{
					"sampler":52,
					"target":{
						"node":14,
						"path":"rotation"
					}
				},
				{
					"sampler":53,
					"target":{
						"node":14,
						"path":"scale"
					}
				},
				{
					"sampler":54,
					"target":{
						"node":20,
						"path":"translation"
					}
				},
				{
					"sampler":55,
					"target":{
						"node":20,
						"path":"rotation"
					}
				},
				{
					"sampler":56,
					"target":{
						"node":20,
						"path":"scale"
					}
				},
				{
					"sampler":57,
					"target":{
						"node":19,
						"path":"translation"
					}
				},
				{
					"sampler":58,
					"target":{
						"node":19,
						"path":"rotation"
					}
				},
				{
					"sampler":59,
					"target":{
						"node":19,
						"path":"scale"
					}
				},
				{
					"sampler":60,
					"target":{
						"node":18,
						"path":"translation"
					}
				},
				{
					"sampler":61,
					"target":{
						"node":18,
						"path":"rotation"
					}
				},
				{
					"sampler":62,
					"target":{
						"node":18,
						"path":"scale"
					}
				},
				{
					"sampler":63,
					"target":{
						"node":17,
						"path":"translation"
					}
				},
				{
					"sampler":64,
					"target":{
						"node":17,
						"path":"rotation"
					}
				},
				{
					"sampler":65,
					"target":{
						"node":17,
						"path":"scale"
					}
				},
				{
					"sampler":66,
					"target":{
						"node":16,
						"path":"translation"
					}
				},
				{
					"sampler":67,
					"target":{
						"node":16,
						"path":"rotation"
					}
				},
				{
					"sampler":68,
					"target":{
						"node":16,
						"path":"scale"
					}
				},
				{
					"sampler":69,
					"target":{
						"node":25,
						"path":"translation"
					}
				},
				{
					"sampler":70,
					"target":{
						"node":25,
						"path":"rotation"
					}
				},
				{
					"sampler":71,
					"target":{
						"node":25,
						"path":"scale"
					}
				},
				{
					"sampler":72,
					"target":{
						"node":24,
						"path":"translation"
					}
				},
				{
					"sampler":73,
					"target":{
						"node":24,
						"path":"rotation"
					}
				},
				{
					"sampler":74,
					"target":{
						"node":24,
						"path":"scale"
					}
				},
				{
					"sampler":75,
					"target":{
						"node":23,
						"path":"translation"
					}
				},
				{
					"sampler":76,
					"target":{
						"node":23,
						"path":"rotation"
					}
				},
				{
					"sampler":77,
					"target":{
						"node":23,
						"path":"scale"
					}
				},
				{
					"sampler":78,
					"target":{
						"node":22,
						"path":"translation"
					}
				},
				{
					"sampler":79,
					"target":{
						"node":22,
						"path":"rotation"
					}
				},
				{
					"sampler":80,
					"target":{
						"node":22,
						"path":"scale"
					}
				},
				{
					"sampler":81,
					"target":{
						"node":21,
						"path":"translation"
					}
				},
				{
					"sampler":82,
					"target":{
						"node":21,
						"path":"rotation"
					}
				},
				{
					"sampler":83,
					"target":{
						"node":21,
						"path":"scale"
					}
				},
				{
					"sampler":84,
					"target":{
						"node":29,
						"path":"translation"
					}
				},
				{
					"sampler":85,
					"target":{
						"node":29,
						"path":"rotation"
					}
				},
				{
					"sampler":86,
					"target":{
						"node":29,
						"path":"scale"
					}
				}
			],
			"name":"rig|rig|idle",
			"samplers":[
				{
					"input":7,
					"interpolation":"STEP",
					"output":8
				},
				{
					"input":7,
					"interpolation":"STEP",
					"output":9
				},
				{
					"input":7,
					"interpolation":"STEP",
					"output":10
				},
				{
					"input":7,
					"interpolation":"STEP",
					"output":11
				},
				{
					"input":12,
					"interpolation":"LINEAR",
					"output":13
				},
				{
					"input":7,
					"interpolation":"STEP",
					"output":14
				},
				{
					"input":7,
					"interpolation":"STEP",
					"output":15
				},
				{
					"input":12,
					"interpolation":"LINEAR",
					"output":16
				},
				{
					"input":7,
					"interpolation":"STEP",
					"output":17
				},
				{
					"input":7,
					"interpolation":"STEP",
					"output":18
				},
				{
					"input":12,
					"interpolation":"LINEAR",
					"output":19
				},
				{
					"input":7,
					"interpolation":"STEP",
					"output":20
				},
				{
					"input":7,
					"interpolation":"STEP",
					"output":21
				},
				{
					"input":12,
					"interpolation":"LINEAR",
					"output":22
				},
				{
					"input":7,
					"interpolation":"STEP",
					"output":23
				},
				{
					"input":7,
					"interpolation":"STEP",
					"output":24
				},
				{
					"input":12,
					"interpolation":"LINEAR",
					"output":25
				},
				{
					"input":7,
					"interpolation":"STEP",
					"output":26
				},
				{
					"input":7,
					"interpolation":"STEP",
					"output":27
				},
				{
					"input":12,
					"interpolation":"LINEAR",
					"output":28
				},
				{
					"input":7,
					"interpolation":"STEP",
					"output":29
				},
				{
					"input":7,
					"interpolation":"STEP",
					"output":30
				},
				{
					"input":12,
					"interpolation":"LINEAR",
					"output":31
				},
				{
					"input":7,
					"interpolation":"STEP",
					"output":32
				},
				{
					"input":7,
					"interpolation":"STEP",
					"output":33
				},
				{
					"input":12,
					"interpolation":"LINEAR",
					"output":34
				},
				{
					"input":7,
					"interpolation":"STEP",
					"output":35
				},
				{
					"input":7,
					"interpolation":"STEP",
					"output":36
				},
				{
					"input":12,
					"interpolation":"LINEAR",
					"output":37
				},
				{
					"input":7,
					"interpolation":"STEP",
					"output":38
				},
				{
					"input":7,
					"interpolation":"STEP",
					"output":39
				},
				{
					"input":12,
					"interpolation":"LINEAR",
					"output":40
				},
				{
					"input":7,
					"interpolation":"STEP",
					"output":41
				},
				{
					"input":7,
					"interpolation":"STEP",
					"output":42
				},
				{
					"input":12,
					"interpolation":"LINEAR",
					"output":43
				},
				{
					"input":7,
					"interpolation":"STEP",
					"output":44
				},
				{
					"input":7,
					"interpolation":"STEP",
					"output":45
				},
				{
					"input":12,
					"interpolation":"LINEAR",
					"output":46
				},
				{
					"input":7,
					"interpolation":"STEP",
					"output":47
				},
				{
					"input":7,
					"interpolation":"STEP",
					"output":48
				},
				{
					"input":12,
					"interpolation":"LINEAR",
					"output":49
				},
				{
					"input":7,
					"interpolation":"STEP",
					"output":50
				},
				{
					"input":7,
					"interpolation":"STEP",
					"output":51
				},
				{
					"input":12,
					"interpolation":"LINEAR",
					"output":52
				},
				{
					"input":7,
					"interpolation":"STEP",
					"output":53
				},
				{
					"input":7,
					"interpolation":"STEP",
					"output":54
				},
				{
					"input":12,
					"interpolation":"LINEAR",
					"output":55
				},
				{
					"input":7,
					"interpolation":"STEP",
					"output":56
				},
				{
					"input":7,
					"interpolation":"STEP",
					"output":57
				},
				{
					"input":12,
					"interpolation":"LINEAR",
					"output":58
				},
				{
					"input":7,
					"interpolation":"STEP",
					"output":59
				},
				{
					"input":7,
					"interpolation":"STEP",
					"output":60
				},
				{
					"input":12,
					"interpolation":"LINEAR",
					"output":61
				},
				{
					"input":7,
					"interpolation":"STEP",
					"output":62
				},
				{
					"input":7,
					"interpolation":"STEP",
					"output":63
				},
				{
					"input":12,
					"interpolation":"LINEAR",
					"output":64
				},
				{
					"input":7,
					"interpolation":"STEP",
					"output":65
				},
				{
					"input":7,
					"interpolation":"STEP",
					"output":66
				},
				{
					"input":12,
					"interpolation":"LINEAR",
					"output":67
				},
				{
					"input":7,
					"interpolation":"STEP",
					"output":68
				},
				{
					"input":7,
					"interpolation":"STEP",
					"output":69
				},
				{
					"input":12,
					"interpolation":"LINEAR",
					"output":70
				},
				{
					"input":7,
					"interpolation":"STEP",
					"output":71
				},
				{
					"input":7,
					"interpolation":"STEP",
					"output":72
				},
				{
					"input":12,
					"interpolation":"LINEAR",
					"output":73
				},
				{
					"input":7,
					"interpolation":"STEP",
					"output":74
				},
				{
					"input":7,
					"interpolation":"STEP",
					"output":75
				},
				{
					"input":7,
					"interpolation":"STEP",
					"output":76
				},
				{
					"input":7,
					"interpolation":"STEP",
					"output":77
				},
				{
					"input":7,
					"interpolation":"STEP",
					"output":78
				},
				{
					"input":12,
					"interpolation":"LINEAR",
					"output":79
				},
				{
					"input":7,
					"interpolation":"STEP",
					"output":80
				},
				{
					"input":7,
					"interpolation":"STEP",
					"output":81
				},
				{
					"input":12,
					"interpolation":"LINEAR",
					"output":82
				},
				{
					"input":7,
					"interpolation":"STEP",
					"output":83
				},
				{
					"input":7,
					"interpolation":"STEP",
					"output":84
				},
				{
					"input":12,
					"interpolation":"LINEAR",
					"output":85
				},
				{
					"input":7,
					"interpolation":"STEP",
					"output":86
				},
				{
					"input":7,
					"interpolation":"STEP",
					"output":87
				},
				{
					"input":12,
					"interpolation":"LINEAR",
					"output":88
				},
				{
					"input":7,
					"interpolation":"STEP",
					"output":89
				},
				{
					"input":7,
					"interpolation":"STEP",
					"output":90
				},
				{
					"input":12,
					"interpolation":"LINEAR",
					"output":91
				},
				{
					"input":7,
					"interpolation":"STEP",
					"output":92
				},
				{
					"input":7,
					"interpolation":"STEP",
					"output":93
				},
				{
					"input":7,
					"interpolation":"STEP",
					"output":94
				},
				{
					"input":7,
					"interpolation":"STEP",
					"output":95
				}
			]
		}
	],
	"materials":[
		{
			"doubleSided":true,
			"name":"Rhino_Quad_Material",
			"pbrMetallicRoughness":{
				"baseColorTexture":{
					"index":0
				},
				"metallicFactor":0,
				"roughnessFactor":0.5
			}
		}
	],
	"meshes":[
		{
			"name":"uploads-files-5014602-Rhino_Quad",
			"primitives":[
				{
					"attributes":{
						"POSITION":0,
						"NORMAL":1,
						"TEXCOORD_0":2,
						"JOINTS_0":3,
						"WEIGHTS_0":4
					},
					"indices":5,
					"material":0
				}
			]
		}
	],
	"textures":[
		{
			"sampler":0,
			"source":0
		}
	],
	"images":[
		{
			"mimeType":"image/png",
			"name":"Textures_Rhino_Quad_Diffuse",
			"uri":"Textures_Rhino_Quad_Diffuse.png"
		}
	],
	"skins":[
		{
			"inverseBindMatrices":6,
			"joints":[
				27,
				13,
				12,
				4,
				3,
				2,
				1,
				0,
				6,
				5,
				11,
				10,
				9,
				8,
				7,
				26,
				15,
				14,
				20,
				19,
				18,
				17,
				16,
				25,
				24,
				23,
				22,
				21
			],
			"name":"rig"
		}
	],
	"accessors":[
		{
			"bufferView":0,
			"componentType":5126,
			"count":13752,
			"max":[
				16.527204513549805,
				24.120220184326172,
				40.559417724609375
			],
			"min":[
				-16.527204513549805,
				-24.120214462280273,
				-40.559417724609375
			],
			"type":"VEC3"
		},
		{
			"bufferView":1,
			"componentType":5126,
			"count":13752,
			"type":"VEC3"
		},
		{
			"bufferView":2,
			"componentType":5126,
			"count":13752,
			"type":"VEC2"
		},
		{
			"bufferView":3,
			"componentType":5121,
			"count":13752,
			"type":"VEC4"
		},
		{
			"bufferView":4,
			"componentType":5126,
			"count":13752,
			"type":"VEC4"
		},
		{
			"bufferView":5,
			"componentType":5123,
			"count":69816,
			"type":"SCALAR"
		},
		{
			"bufferView":6,
			"componentType":5126,
			"count":28,
			"type":"MAT4"
		},
		{
			"bufferView":7,
			"componentType":5126,
			"count":2,
			"max":[
				4.033333333333333
			],
			"min":[
				0.03333333333333333
			],
			"type":"SCALAR"
		},
		{
			"bufferView":8,
			"componentType":5126,
			"count":2,
			"type":"VEC3"
		},
		{
			"bufferView":9,
			"componentType":5126,
			"count":2,
			"type":"VEC4"
		},
		{
			"bufferView":10,
			"componentType":5126,
			"count":2,
			"type":"VEC3"
		},
		{
			"bufferView":11,
			"componentType":5126,
			"count":2,
			"type":"VEC3"
		},
		{
			"bufferView":12,
			"componentType":5126,
			"count":121,
			"max":[
				4.033333333333333
			],
			"min":[
				0.03333333333333333
			],
			"type":"SCALAR"
		},
		{
			"bufferView":13,
			"componentType":5126,
			"count":121,
			"type":"VEC4"
		},
		{
			"bufferView":14,
			"componentType":5126,
			"count":2,
			"type":"VEC3"
		},
		{
			"bufferView":15,
			"componentType":5126,
			"count":2,
			"type":"VEC3"
		},
		{
			"bufferView":16,
			"componentType":5126,
			"count":121,
			"type":"VEC4"
		},
		{
			"bufferView":17,
			"componentType":5126,
			"count":2,
			"type":"VEC3"
		},
		{
			"bufferView":18,
			"componentType":5126,
			"count":2,
			"type":"VEC3"
		},
		{
			"bufferView":19,
			"componentType":5126,
			"count":121,
			"type":"VEC4"
		},
		{
			"bufferView":20,
			"componentType":5126,
			"count":2,
			"type":"VEC3"
		},
		{
			"bufferView":21,
			"componentType":5126,
			"count":2,
			"type":"VEC3"
		},
		{
			"bufferView":22,
			"componentType":5126,
			"count":121,
			"type":"VEC4"
		},
		{
			"bufferView":23,
			"componentType":5126,
			"count":2,
			"type":"VEC3"
		},
		{
			"bufferView":24,
			"componentType":5126,
			"count":2,
			"type":"VEC3"
		},
		{
			"bufferView":25,
			"componentType":5126,
			"count":121,
			"type":"VEC4"
		},
		{
			"bufferView":26,
			"componentType":5126,
			"count":2,
			"type":"VEC3"
		},
		{
			"bufferView":27,
			"componentType":5126,
			"count":2,
			"type":"VEC3"
		},
		{
			"bufferView":28,
			"componentType":5126,
			"count":121,
			"type":"VEC4"
		},
		{
			"bufferView":29,
			"componentType":5126,
			"count":2,
			"type":"VEC3"
		},
		{
			"bufferView":30,
			"componentType":5126,
			"count":2,
			"type":"VEC3"
		},
		{
			"bufferView":31,
			"componentType":5126,
			"count":121,
			"type":"VEC4"
		},
		{
			"bufferView":32,
			"componentType":5126,
			"count":2,
			"type":"VEC3"
		},
		{
			"bufferView":33,
			"componentType":5126,
			"count":2,
			"type":"VEC3"
		},
		{
			"bufferView":34,
			"componentType":5126,
			"count":121,
			"type":"VEC4"
		},
		{
			"bufferView":35,
			"componentType":5126,
			"count":2,
			"type":"VEC3"
		},
		{
			"bufferView":36,
			"componentType":5126,
			"count":2,
			"type":"VEC3"
		},
		{
			"bufferView":37,
			"componentType":5126,
			"count":121,
			"type":"VEC4"
		},
		{
			"bufferView":38,
			"componentType":5126,
			"count":2,
			"type":"VEC3"
		},
		{
			"bufferView":39,
			"componentType":5126,
			"count":2,
			"type":"VEC3"
		},
		{
			"bufferView":40,
			"componentType":5126,
			"count":121,
			"type":"VEC4"
		},
		{
			"bufferView":41,
			"componentType":5126,
			"count":2,
			"type":"VEC3"
		},
		{
			"bufferView":42,
			"componentType":5126,
			"count":2,
			"type":"VEC3"
		},
		{
			"bufferView":43,
			"componentType":5126,
			"count":121,
			"type":"VEC4"
		},
		{
			"bufferView":44,
			"componentType":5126,
			"count":2,
			"type":"VEC3"
		},
		{
			"bufferView":45,
			"componentType":5126,
			"count":2,
			"type":"VEC3"
		},
		{
			"bufferView":46,
			"componentType":5126,
			"count":121,
			"type":"VEC4"
		},
		{
			"bufferView":47,
			"componentType":5126,
			"count":2,
			"type":"VEC3"
		},
		{
			"bufferView":48,
			"componentType":5126,
			"count":2,
			"type":"VEC3"
		},
		{
			"bufferView":49,
			"componentType":5126,
			"count":121,
			"type":"VEC4"
		},
		{
			"bufferView":50,
			"componentType":5126,
			"count":2,
			"type":"VEC3"
		},
		{
			"bufferView":51,
			"componentType":5126,
			"count":2,
			"type":"VEC3"
		},
		{
			"bufferView":52,
			"componentType":5126,
			"count":121,
			"type":"VEC4"
		},
		{
			"bufferView":53,
			"componentType":5126,
			"count":2,
			"type":"VEC3"
		},
		{
			"bufferView":54,
			"componentType":5126,
			"count":2,
			"type":"VEC3"
		},
		{
			"bufferView":55,
			"componentType":5126,
			"count":121,
			"type":"VEC4"
		},
		{
			"bufferView":56,
			"componentType":5126,
			"count":2,
			"type":"VEC3"
		},
		{
			"bufferView":57,
			"componentType":5126,
			"count":2,
			"type":"VEC3"
		},
		{
			"bufferView":58,
			"componentType":5126,
			"count":121,
			"type":"VEC4"
		},
		{
			"bufferView":59,
			"componentType":5126,
			"count":2,
			"type":"VEC3"
		},
		{
			"bufferView":60,
			"componentType":5126,
			"count":2,
			"type":"VEC3"
		},
		{
			"bufferView":61,
			"componentType":5126,
			"count":121,
			"type":"VEC4"
		},
		{
			"bufferView":62,
			"componentType":5126,
			"count":2,
			"type":"VEC3"
		},
		{
			"bufferView":63,
			"componentType":5126,
			"count":2,
			"type":"VEC3"
		},
		{
			"bufferView":64,
			"componentType":5126,
			"count":121,
			"type":"VEC4"
		},
		{
			"bufferView":65,
			"componentType":5126,
			"count":2,
			"type":"VEC3"
		},
		{
			"bufferView":66,
			"componentType":5126,
			"count":2,
			"type":"VEC3"
		},
		{
			"bufferView":67,
			"componentType":5126,
			"count":121,
			"type":"VEC4"
		},
		{
			"bufferView":68,
			"componentType":5126,
			"count":2,
			"type":"VEC3"
		},
		{
			"bufferView":69,
			"componentType":5126,
			"count":2,
			"type":"VEC3"
		},
		{
			"bufferView":70,
			"componentType":5126,
			"count":121,
			"type":"VEC4"
		},
		{
			"bufferView":71,
			"componentType":5126,
			"count":2,
			"type":"VEC3"
		},
		{
			"bufferView":72,
			"componentType":5126,
			"count":2,
			"type":"VEC3"
		},
		{
			"bufferView":73,
			"componentType":5126,
			"count":121,
			"type":"VEC4"
		},
		{
			"bufferView":74,
			"componentType":5126,
			"count":2,
			"type":"VEC3"
		},
		{
			"bufferView":75,
			"componentType":5126,
			"count":2,
			"type":"VEC3"
		},
		{
			"bufferView":76,
			"componentType":5126,
			"count":2,
			"type":"VEC4"
		},
		{
			"bufferView":77,
			"componentType":5126,
			"count":2,
			"type":"VEC3"
		},
		{
			"bufferView":78,
			"componentType":5126,
			"count":2,
			"type":"VEC3"
		},
		{
			"bufferView":79,
			"componentType":5126,
			"count":121,
			"type":"VEC4"
		},
		{
			"bufferView":80,
			"componentType":5126,
			"count":2,
			"type":"VEC3"
		},
		{
			"bufferView":81,
			"componentType":5126,
			"count":2,
			"type":"VEC3"
		},
		{
			"bufferView":82,
			"componentType":5126,
			"count":121,
			"type":"VEC4"
		},
		{
			"bufferView":83,
			"componentType":5126,
			"count":2,
			"type":"VEC3"
		},
		{
			"bufferView":84,
			"componentType":5126,
			"count":2,
			"type":"VEC3"
		},
		{
			"bufferView":85,
			"componentType":5126,
			"count":121,
			"type":"VEC4"
		},
		{
			"bufferView":86,
			"componentType":5126,
			"count":2,
			"type":"VEC3"
		},
		{
			"bufferView":87,
			"componentType":5126,
			"count":2,
			"type":"VEC3"
		},
		{
			"bufferView":88,
			"componentType":5126,
			"count":121,
			"type":"VEC4"
		},
		{
			"bufferView":89,
			"componentType":5126,
			"count":2,
			"type":"VEC3"
		},
		{
			"bufferView":90,
			"componentType":5126,
			"count":2,
			"type":"VEC3"
		},
		{
			"bufferView":91,
			"componentType":5126,
			"count":121,
			"type":"VEC4"
		},
		{
			"bufferView":92,
			"componentType":5126,
			"count":2,
			"type":"VEC3"
		},
		{
			"bufferView":93,
			"componentType":5126,
			"count":2,
			"type":"VEC3"
		},
		{
			"bufferView":94,
			"componentType":5126,
			"count":2,
			"type":"VEC4"
		},
		{
			"bufferView":95,
			"componentType":5126,
			"count":2,
			"type":"VEC3"
		}
	],
	"bufferViews":[
		{
			"buffer":0,
			"byteLength":165024,
			"byteOffset":0,
			"target":34962
		},
		{
			"buffer":0,
			"byteLength":165024,
			"byteOffset":165024,
			"target":34962
		},
		{
			"buffer":0,
			"byteLength":110016,
			"byteOffset":330048,
			"target":34962
		},
		{
			"buffer":0,
			"byteLength":55008,
			"byteOffset":440064,
			"target":34962
		},
		{
			"buffer":0,
			"byteLength":220032,
			"byteOffset":495072,
			"target":34962
		},
		{
			"buffer":0,
			"byteLength":139632,
			"byteOffset":715104,
			"target":34963
		},
		{
			"buffer":0,
			"byteLength":1792,
			"byteOffset":854736
		},
		{
			"buffer":0,
			"byteLength":8,
			"byteOffset":856528
		},
		{
			"buffer":0,
			"byteLength":24,
			"byteOffset":856536
		},
		{
			"buffer":0,
			"byteLength":32,
			"byteOffset":856560
		},
		{
			"buffer":0,
			"byteLength":24,
			"byteOffset":856592
		},
		{
			"buffer":0,
			"byteLength":24,
			"byteOffset":856616
		},
		{
			"buffer":0,
			"byteLength":484,
			"byteOffset":856640
		},
		{
			"buffer":0,
			"byteLength":1936,
			"byteOffset":857124
		},
		{
			"buffer":0,
			"byteLength":24,
			"byteOffset":859060
		},
		{
			"buffer":0,
			"byteLength":24,
			"byteOffset":859084
		},
		{
			"buffer":0,
			"byteLength":1936,
			"byteOffset":859108
		},
		{
			"buffer":0,
			"byteLength":24,
			"byteOffset":861044
		},
		{
			"buffer":0,
			"byteLength":24,
			"byteOffset":861068
		},
		{
			"buffer":0,
			"byteLength":1936,
			"byteOffset":861092
		},
		{
			"buffer":0,
			"byteLength":24,
			"byteOffset":863028
		},
		{
			"buffer":0,
			"byteLength":24,
			"byteOffset":863052
		},
		{
			"buffer":0,
			"byteLength":1936,
			"byteOffset":863076
		},
		{
			"buffer":0,
			"byteLength":24,
			"byteOffset":865012
		},
		{
			"buffer":0,
			"byteLength":24,
			"byteOffset":865036
		},
		{
			"buffer":0,
			"byteLength":1936,
			"byteOffset":865060
		},
		{
			"buffer":0,
			"byteLength":24,
			"byteOffset":866996
		},
		{
			"buffer":0,
			"byteLength":24,
			"byteOffset":867020
		},
		{
			"buffer":0,
			"byteLength":1936,
			"byteOffset":867044
		},
		{
			"buffer":0,
			"byteLength":24,
			"byteOffset":868980
		},
		{
			"buffer":0,
			"byteLength":24,
			"byteOffset":869004
		},
		{
			"buffer":0,
			"byteLength":1936,
			"byteOffset":869028
		},
		{
			"buffer":0,
			"byteLength":24,
			"byteOffset":870964
		},
		{
			"buffer":0,
			"byteLength":24,
			"byteOffset":870988
		},
		{
			"buffer":0,
			"byteLength":1936,
			"byteOffset":871012
		},
		{
			"buffer":0,
			"byteLength":24,
			"byteOffset":872948
		},
		{
			"buffer":0,
			"byteLength":24,
			"byteOffset":872972
		},
		{
			"buffer":0,
			"byteLength":1936,
			"byteOffset":872996
		},
		{
			"buffer":0,
			"byteLength":24,
			"byteOffset":874932
		},
		{
			"buffer":0,
			"byteLength":24,
			"byteOffset":874956
		},
		{
			"buffer":0,
			"byteLength":1936,
			"byteOffset":874980
		},
		{
			"buffer":0,
			"byteLength":24,
			"byteOffset":876916
		},
		{
			"buffer":0,
			"byteLength":24,
			"byteOffset":876940
		},
		{
			"buffer":0,
			"byteLength":1936,
			"byteOffset":876964
		},
		{
			"buffer":0,
			"byteLength":24,
			"byteOffset":878900
		},
		{
			"buffer":0,
			"byteLength":24,
			"byteOffset":878924
		},
		{
			"buffer":0,
			"byteLength":1936,
			"byteOffset":878948
		},
		{
			"buffer":0,
			"byteLength":24,
			"byteOffset":880884
		},
		{
			"buffer":0,
			"byteLength":24,
			"byteOffset":880908
		},
		{
			"buffer":0,
			"byteLength":1936,
			"byteOffset":880932
		},
		{
			"buffer":0,
			"byteLength":24,
			"byteOffset":882868
		},
		{
			"buffer":0,
			"byteLength":24,
			"byteOffset":882892
		},
		{
			"buffer":0,
			"byteLength":1936,
			"byteOffset":882916
		},
		{
			"buffer":0,
			"byteLength":24,
			"byteOffset":884852
		},
		{
			"buffer":0,
			"byteLength":24,
			"byteOffset":884876
		},
		{
			"buffer":0,
			"byteLength":1936,
			"byteOffset":884900
		},
		{
			"buffer":0,
			"byteLength":24,
			"byteOffset":886836
		},
		{
			"buffer":0,
			"byteLength":24,
			"byteOffset":886860
		},
		{
			"buffer":0,
			"byteLength":1936,
			"byteOffset":886884
		},
		{
			"buffer":0,
			"byteLength":24,
			"byteOffset":888820
		},
		{
			"buffer":0,
			"byteLength":24,
			"byteOffset":888844
		},
		{
			"buffer":0,
			"byteLength":1936,
			"byteOffset":888868
		},
		{
			"buffer":0,
			"byteLength":24,
			"byteOffset":890804
		},
		{
			"buffer":0,
			"byteLength":24,
			"byteOffset":890828
		},
		{
			"buffer":0,
			"byteLength":1936,
			"byteOffset":890852
		},
		{
			"buffer":0,
			"byteLength":24,
			"byteOffset":892788
		},
		{
			"buffer":0,
			"byteLength":24,
			"byteOffset":892812
		},
		{
			"buffer":0,
			"byteLength":1936,
			"byteOffset":892836
		},
		{
			"buffer":0,
			"byteLength":24,
			"byteOffset":894772
		},
		{
			"buffer":0,
			"byteLength":24,
			"byteOffset":894796
		},
		{
			"buffer":0,
			"byteLength":1936,
			"byteOffset":894820
		},
		{
			"buffer":0,
			"byteLength":24,
			"byteOffset":896756
		},
		{
			"buffer":0,
			"byteLength":24,
			"byteOffset":896780
		},
		{
			"buffer":0,
			"byteLength":1936,
			"byteOffset":896804
		},
		{
			"buffer":0,
			"byteLength":24,
			"byteOffset":898740
		},
		{
			"buffer":0,
			"byteLength":24,
			"byteOffset":898764
		},
		{
			"buffer":0,
			"byteLength":32,
			"byteOffset":898788
		},
		{
			"buffer":0,
			"byteLength":24,
			"byteOffset":898820
		},
		{
			"buffer":0,
			"byteLength":24,
			"byteOffset":898844
		},
		{
			"buffer":0,
			"byteLength":1936,
			"byteOffset":898868
		},
		{
			"buffer":0,
			"byteLength":24,
			"byteOffset":900804
		},
		{
			"buffer":0,
			"byteLength":24,
			"byteOffset":900828
		},
		{
			"buffer":0,
			"byteLength":1936,
			"byteOffset":900852
		},
		{
			"buffer":0,
			"byteLength":24,
			"byteOffset":902788
		},
		{
			"buffer":0,
			"byteLength":24,
			"byteOffset":902812
		},
		{
			"buffer":0,
			"byteLength":1936,
			"byteOffset":902836
		},
		{
			"buffer":0,
			"byteLength":24,
			"byteOffset":904772
		},
		{
			"buffer":0,
			"byteLength":24,
			"byteOffset":904796
		},
		{
			"buffer":0,
			"byteLength":1936,
			"byteOffset":904820
		},
		{
			"buffer":0,
			"byteLength":24,
			"byteOffset":906756
		},
		{
			"buffer":0,
			"byteLength":24,
			"byteOffset":906780
		},
		{
			"buffer":0,
			"byteLength":1936,
			"byteOffset":906804
		},
		{
			"buffer":0,
			"byteLength":24,
			"byteOffset":908740
		},
		{
			"buffer":0,
			"byteLength":24,
			"byteOffset":908764
		},
		{
			"buffer":0,
			"byteLength":32,
			"byteOffset":908788
		},
		{
			"buffer":0,
			"byteLength":24,
			"byteOffset":908820
		}
	],
	"samplers":[
		{
			"magFilter":9729,
			"minFilter":9987
		}
	],
	"buffers":[
		{
			"byteLength":908844,
			"uri":"uploads-files-5014602-Rhino_Quad_idle.bin"
		}
	]
}
