{
	"asset":{
		"generator":"Khronos glTF Blender I/O v4.1.62",
		"version":"2.0"
	},
	"scene":0,
	"scenes":[
		{
			"name":"Scene",
			"nodes":[
				35
			]
		}
	],
	"nodes":[
		{
			"name":"leg_front_left_bot2_end",
			"rotation":[
				-4.044590454655578e-13,
				3.4825347938749474e-07,
				3.179011969223211e-07,
				1
			],
			"translation":[
				-2.394035618635826e-07,
				2.9999969005584717,
				-1.6151110457940376e-06
			]
		},
		{
			"children":[
				0
			],
			"name":"leg_front_left_bot2",
			"rotation":[
				0.0073953359387815,
				-0.7070664763450623,
				-0.707068145275116,
				0.007540571037679911
			],
			"scale":[
				0.9999999403953552,
				0.9999998211860657,
				0.9999998807907104
			],
			"translation":[
				-1.8766149878501892e-07,
				7.101587295532227,
				2.5843692128546536e-06
			]
		},
		{
			"children":[
				1
			],
			"name":"leg_front_left_bot1",
			"rotation":[
				-0.002466282108798623,
				0.23429012298583984,
				0.0904964879155159,
				0.9679424166679382
			],
			"scale":[
				0.9999999403953552,
				1,
				1
			],
			"translation":[
				-3.5762786865234375e-07,
				8.471868515014648,
				-7.748603820800781e-07
			]
		},
		{
			"children":[
				2
			],
			"name":"leg_front_left_bot0",
			"rotation":[
				-0.10130508244037628,
				0.9668747186660767,
				-0.002454067813232541,
				0.23427456617355347
			],
			"scale":[
				1,
				1.0000003576278687,
				1.0000001192092896
			],
			"translation":[
				8.908136805985123e-07,
				9.943187713623047,
				-8.484348654747009e-07
			]
		},
		{
			"children":[
				3
			],
			"name":"leg_front_left_top1",
			"rotation":[
				0.35065653920173645,
				0.9350410103797913,
				-0.002314512152224779,
				0.052277736365795135
			],
			"translation":[
				9.5367431640625e-07,
				11.551802635192871,
				8.195638656616211e-08
			]
		},
		{
			"children":[
				4
			],
			"name":"leg_front_left_top0",
			"rotation":[
				-0.2115585058927536,
				-0.6649616956710815,
				-0.6618952751159668,
				0.2737950086593628
			],
			"scale":[
				1,
				0.9999999403953552,
				0.9999999403953552
			],
			"translation":[
				0.16289514303207397,
				12.436525344848633,
				7.0776896476745605
			]
		},
		{
			"name":"head0_end",
			"rotation":[
				7.454581663068893e-08,
				-1.3154930478265214e-08,
				-8.149071972773925e-10,
				1
			],
			"scale":[
				1,
				1.0000001192092896,
				1.0000001192092896
			],
			"translation":[
				-5.587935447692871e-08,
				19.516616821289062,
				-8.384231477975845e-07
			]
		},
		{
			"children":[
				6
			],
			"name":"head0",
			"rotation":[
				0.004427730571478605,
				-0.028805453330278397,
				-0.00984383374452591,
				0.9995267987251282
			],
			"scale":[
				0.9999999403953552,
				0.9999999403953552,
				0.9999998211860657
			],
			"translation":[
				5.21540641784668e-08,
				12.441534996032715,
				-2.551823854446411e-07
			]
		},
		{
			"children":[
				7
			],
			"name":"neck0",
			"rotation":[
				0.4335339665412903,
				0.0023363728541880846,
				0.009290109388530254,
				0.9010863304138184
			],
			"scale":[
				0.9999999403953552,
				0.9999998807907104,
				0.9999999403953552
			],
			"translation":[
				-8.940696716308594e-08,
				15.538339614868164,
				4.1606836020946503e-07
			]
		},
		{
			"name":"leg_front_right_bot2_end",
			"rotation":[
				2.4404458488780367e-13,
				-1.1880386807661125e-07,
				-1.5893121485532902e-07,
				1
			],
			"translation":[
				-3.9366727833112236e-07,
				3.000001907348633,
				4.716798684967216e-08
			]
		},
		{
			"children":[
				9
			],
			"name":"leg_front_right_bot2",
			"rotation":[
				0.007392676081508398,
				0.7070666551589966,
				0.7070679664611816,
				0.00754360668361187
			],
			"scale":[
				0.9999999403953552,
				1,
				1
			],
			"translation":[
				2.752058207988739e-07,
				7.101590633392334,
				1.143518602475524e-06
			]
		},
		{
			"children":[
				10
			],
			"name":"leg_front_right_bot1",
			"rotation":[
				-0.002465866506099701,
				-0.23428231477737427,
				-0.09049612283706665,
				0.967944324016571
			],
			"scale":[
				1,
				1.0000001192092896,
				1
			],
			"translation":[
				2.384185791015625e-07,
				8.471880912780762,
				-2.0265579223632812e-06
			]
		},
		{
			"children":[
				11
			],
			"name":"leg_front_right_bot0",
			"rotation":[
				-0.10130485892295837,
				-0.9668818712234497,
				0.0024510540533810854,
				0.234245166182518
			],
			"scale":[
				1,
				0.9999998807907104,
				1
			],
			"translation":[
				1.750704541336745e-07,
				9.943185806274414,
				-4.6193599700927734e-07
			]
		},
		{
			"children":[
				12
			],
			"name":"leg_front_right_top1",
			"rotation":[
				0.3417244255542755,
				-0.9382089972496033,
				0.002332329284399748,
				0.05461585894227028
			],
			"scale":[
				1,
				0.9999997615814209,
				1
			],
			"translation":[
				1.1920928955078125e-07,
				11.357319831848145,
				1.5348196029663086e-06
			]
		},
		{
			"children":[
				13
			],
			"name":"leg_front_right_top0",
			"rotation":[
				-0.20359613001346588,
				0.665968656539917,
				0.6562117338180542,
				0.29055219888687134
			],
			"scale":[
				1,
				0.9999999403953552,
				1.0000001192092896
			],
			"translation":[
				-0.48525944352149963,
				12.447320938110352,
				7.07334041595459
			]
		},
		{
			"children":[
				5,
				8,
				14
			],
			"name":"body_top1",
			"rotation":[
				-0.029711168259382248,
				0.011563695035874844,
				0.010973050259053707,
				0.9994314312934875
			],
			"scale":[
				0.9999998807907104,
				0.9999999403953552,
				0.9999999403953552
			],
			"translation":[
				-1.4901161193847656e-08,
				16.252246856689453,
				-2.5446643121540546e-06
			]
		},
		{
			"children":[
				15
			],
			"name":"body_top0",
			"rotation":[
				-0.1955348700284958,
				-0.005658042151480913,
				-0.0040733423084020615,
				0.9806720018386841
			],
			"scale":[
				0.9999999403953552,
				0.9999999403953552,
				1.0000001192092896
			],
			"translation":[
				0.010441510006785393,
				11.118874549865723,
				-7.37452507019043
			]
		},
		{
			"name":"tail0_end",
			"rotation":[
				-1.1757949280877256e-08,
				1.6763806343078613e-08,
				1.210719435817964e-08,
				1
			],
			"scale":[
				1,
				0.9999999403953552,
				0.9999999403953552
			],
			"translation":[
				-9.238719940185547e-07,
				5.431621074676514,
				3.5390257835388184e-07
			]
		},
		{
			"children":[
				17
			],
			"name":"tail0",
			"rotation":[
				0.08338499069213867,
				0.07226989418268204,
				-0.035793427377939224,
				0.9932486414909363
			],
			"scale":[
				1.0000001192092896,
				0.9999998807907104,
				0.9999998807907104
			],
			"translation":[
				-8.195638656616211e-08,
				10.618782997131348,
				-1.1709635145962238e-05
			]
		},
		{
			"children":[
				18
			],
			"name":"pelvis",
			"rotation":[
				-0.6473288536071777,
				0.0017043419647961855,
				0.011004314757883549,
				0.762129545211792
			],
			"scale":[
				0.9999999403953552,
				0.9999999403953552,
				0.9999998807907104
			],
			"translation":[
				-0.2996565103530884,
				36.9476318359375,
				4.75192403793335
			]
		},
		{
			"name":"leg_hind_left_bot2_end",
			"rotation":[
				-3.9731474946007317e-13,
				1.5243907114381727e-07,
				-5.4685117924831855e-14,
				1
			],
			"translation":[
				-5.661775048793061e-08,
				3.0000016689300537,
				9.783859695744468e-07
			]
		},
		{
			"children":[
				20
			],
			"name":"leg_hind_left_bot2",
			"rotation":[
				0.058815330266952515,
				-0.7046563029289246,
				-0.7046567797660828,
				0.058814436197280884
			],
			"scale":[
				0.9999999403953552,
				0.9999996423721313,
				0.9999999403953552
			],
			"translation":[
				-2.9749207897111773e-07,
				11.762749671936035,
				1.3206349649408367e-06
			]
		},
		{
			"children":[
				21
			],
			"name":"leg_hind_left_bot1",
			"rotation":[
				-0.06062018871307373,
				0.7262809872627258,
				0.07685723900794983,
				0.6803925633430481
			],
			"scale":[
				1.0000001192092896,
				1.0000001192092896,
				1.0000001192092896
			],
			"translation":[
				-4.76837158203125e-07,
				6.42803955078125,
				9.5367431640625e-07
			]
		},
		{
			"children":[
				22
			],
			"name":"leg_hind_left_bot0",
			"rotation":[
				-0.05732377991080284,
				0.6911344528198242,
				0.07347162067890167,
				0.7166932225227356
			],
			"scale":[
				1,
				1.000000238418579,
				1
			],
			"translation":[
				7.003545761108398e-07,
				12.294295310974121,
				2.473592758178711e-06
			]
		},
		{
			"children":[
				23
			],
			"name":"leg_hind_left_top1",
			"rotation":[
				-0.5512019991874695,
				-0.7866294384002686,
				-0.06370318681001663,
				0.2707994282245636
			],
			"scale":[
				1.0000001192092896,
				1.000000238418579,
				1
			],
			"translation":[
				7.152557373046875e-07,
				8.062281608581543,
				-2.86102294921875e-06
			]
		},
		{
			"children":[
				24
			],
			"name":"leg_hind_left_top0",
			"rotation":[
				-0.10718878358602524,
				0.32396945357322693,
				-0.715749979019165,
				0.609308123588562
			],
			"scale":[
				0.9999998807907104,
				0.9999998807907104,
				0.9999999403953552
			],
			"translation":[
				2.9802322387695312e-08,
				32.99131393432617,
				-1.7581041902303696e-06
			]
		},
		{
			"name":"leg_hind_right_bot2_end",
			"rotation":[
				-1.7931728150955006e-13,
				1.1151185219659965e-07,
				1.1920957376787555e-07,
				1
			],
			"translation":[
				1.366770447930321e-07,
				3.0000052452087402,
				-2.137794581358321e-07
			]
		},
		{
			"children":[
				26
			],
			"name":"leg_hind_right_bot2",
			"rotation":[
				0.058817412704229355,
				0.7046564221382141,
				0.7046565413475037,
				0.0588129386305809
			],
			"scale":[
				0.9999999403953552,
				0.9999998807907104,
				0.9999998807907104
			],
			"translation":[
				4.336761776357889e-07,
				11.762758255004883,
				1.3553344615502283e-06
			]
		},
		{
			"children":[
				27
			],
			"name":"leg_hind_right_bot1",
			"rotation":[
				-0.060620471835136414,
				-0.7262822389602661,
				-0.07685711234807968,
				0.6803913116455078
			],
			"scale":[
				1,
				1.0000001192092896,
				1
			],
			"translation":[
				3.5762786865234375e-07,
				6.428042888641357,
				3.5762786865234375e-07
			]
		},
		{
			"children":[
				28
			],
			"name":"leg_hind_right_bot0",
			"rotation":[
				-0.05732383951544762,
				-0.6911351680755615,
				-0.07347161322832108,
				0.7166924476623535
			],
			"scale":[
				1,
				0.9999998807907104,
				0.9999999403953552
			],
			"translation":[
				1.2442469596862793e-06,
				12.294292449951172,
				-2.9802322387695312e-08
			]
		},
		{
			"children":[
				29
			],
			"name":"leg_hind_right_top1",
			"rotation":[
				-0.5543673038482666,
				0.7876808643341064,
				0.06370962411165237,
				0.26110705733299255
			],
			"scale":[
				0.9999999403953552,
				0.9999998807907104,
				1
			],
			"translation":[
				-2.384185791015625e-06,
				8.224679946899414,
				-1.1920928955078125e-06
			]
		},
		{
			"children":[
				30
			],
			"name":"leg_hind_right_top0",
			"rotation":[
				-0.09702964127063751,
				-0.318017840385437,
				0.7072197794914246,
				0.6239312291145325
			],
			"scale":[
				1,
				1,
				0.9999999403953552
			],
			"translation":[
				-0.8117859959602356,
				33.005531311035156,
				0.011739661917090416
			]
		},
		{
			"children":[
				19,
				25,
				31
			],
			"name":"body_bot",
			"rotation":[
				-0.9914854764938354,
				0.009010420180857182,
				0.0026670678053051233,
				0.1298779398202896
			],
			"scale":[
				1,
				1.0000001192092896,
				1.000001072883606
			],
			"translation":[
				1.0283772945404053,
				31.337038040161133,
				17.117534637451172
			]
		},
		{
			"children":[
				16,
				32
			],
			"name":"body",
			"rotation":[
				0.22935199737548828,
				0.0017630038782954216,
				0.0017630039947107434,
				0.9733403921127319
			],
			"scale":[
				0.9999999403953552,
				1,
				1
			],
			"translation":[
				0.04999999701976776,
				-26.704586029052734,
				-17.943222045898438
			]
		},
		{
			"mesh":0,
			"name":"uploads-files-5014602-Rhino_Low_Poly",
			"skin":0
		},
		{
			"children":[
				34,
				33
			],
			"name":"rig",
			"rotation":[
				0.7071068286895752,
				0,
				0,
				0.7071068286895752
			]
		}
	],
	"materials":[
		{
			"doubleSided":true,
			"name":"Rhino_Tris_Material",
			"pbrMetallicRoughness":{
				"baseColorTexture":{
					"index":0
				},
				"metallicFactor":0,
				"roughnessFactor":0.5
			}
		}
	],
	"meshes":[
		{
			"name":"uploads-files-5014602-Rhino_Low_Poly",
			"primitives":[
				{
					"attributes":{
						"POSITION":0,
						"NORMAL":1,
						"TEXCOORD_0":2,
						"JOINTS_0":3,
						"WEIGHTS_0":4
					},
					"indices":5,
					"material":0
				}
			]
		}
	],
	"textures":[
		{
			"sampler":0,
			"source":0
		}
	],
	"images":[
		{
			"mimeType":"image/png",
			"name":"Textures_Rhino_Tris_Diffuse",
			"uri":"Textures_Rhino_Tris_Diffuse.png"
		}
	],
	"skins":[
		{
			"inverseBindMatrices":6,
			"joints":[
				33,
				16,
				15,
				5,
				4,
				3,
				2,
				1,
				0,
				8,
				7,
				6,
				14,
				13,
				12,
				11,
				10,
				9,
				32,
				19,
				18,
				17,
				25,
				24,
				23,
				22,
				21,
				20,
				31,
				30,
				29,
				28,
				27,
				26
			],
			"name":"rig"
		}
	],
	"accessors":[
		{
			"bufferView":0,
			"componentType":5126,
			"count":1486,
			"max":[
				16.48042106628418,
				24.065664291381836,
				40.61083221435547
			],
			"min":[
				-16.48042106628418,
				-24.065662384033203,
				-40.61083221435547
			],
			"type":"VEC3"
		},
		{
			"bufferView":1,
			"componentType":5126,
			"count":1486,
			"type":"VEC3"
		},
		{
			"bufferView":2,
			"componentType":5126,
			"count":1486,
			"type":"VEC2"
		},
		{
			"bufferView":3,
			"componentType":5121,
			"count":1486,
			"type":"VEC4"
		},
		{
			"bufferView":4,
			"componentType":5126,
			"count":1486,
			"type":"VEC4"
		},
		{
			"bufferView":5,
			"componentType":5123,
			"count":4530,
			"type":"SCALAR"
		},
		{
			"bufferView":6,
			"componentType":5126,
			"count":34,
			"type":"MAT4"
		}
	],
	"bufferViews":[
		{
			"buffer":0,
			"byteLength":17832,
			"byteOffset":0,
			"target":34962
		},
		{
			"buffer":0,
			"byteLength":17832,
			"byteOffset":17832,
			"target":34962
		},
		{
			"buffer":0,
			"byteLength":11888,
			"byteOffset":35664,
			"target":34962
		},
		{
			"buffer":0,
			"byteLength":5944,
			"byteOffset":47552,
			"target":34962
		},
		{
			"buffer":0,
			"byteLength":23776,
			"byteOffset":53496,
			"target":34962
		},
		{
			"buffer":0,
			"byteLength":9060,
			"byteOffset":77272,
			"target":34963
		},
		{
			"buffer":0,
			"byteLength":2176,
			"byteOffset":86332
		}
	],
	"samplers":[
		{
			"magFilter":9729,
			"minFilter":9987
		}
	],
	"buffers":[
		{
			"byteLength":88508,
			"uri":"uploads-files-5014602-Rhino_Low_Poly.bin"
		}
	]
}
