{
	"asset":{
		"generator":"Khronos glTF Blender I/O v4.1.62",
		"version":"2.0"
	},
	"scene":0,
	"scenes":[
		{
			"name":"Scene",
			"nodes":[
				35
			]
		}
	],
	"nodes":[
		{
			"name":"leg_front_left_bot2",
			"rotation":[
				-0.4487541913986206,
				-0.5200501084327698,
				-0.2547822594642639,
				0.6806273460388184
			],
			"scale":[
				0.9999999403953552,
				1.0000001192092896,
				1
			],
			"translation":[
				1.5050172805786133e-06,
				4.341959476470947,
				9.5367431640625e-07
			]
		},
		{
			"children":[
				0
			],
			"name":"leg_front_left_bot1",
			"rotation":[
				-0.013827144168317318,
				-0.17996257543563843,
				-0.08545283228158951,
				0.9798572063446045
			],
			"scale":[
				0.9999999403953552,
				0.9999998807907104,
				0.9999999403953552
			],
			"translation":[
				-2.384185791015625e-07,
				4.103881359100342,
				-3.337860107421875e-06
			]
		},
		{
			"children":[
				1
			],
			"name":"leg_front_left_bot0",
			"rotation":[
				0.0931762307882309,
				0.7130681276321411,
				0.34793323278427124,
				0.6014936566352844
			],
			"scale":[
				0.9999999403953552,
				0.9999997615814209,
				1
			],
			"translation":[
				7.152557373046875e-07,
				4.893577575683594,
				1.430511474609375e-06
			]
		},
		{
			"children":[
				2
			],
			"name":"leg_front_left_top1",
			"rotation":[
				0.4331263303756714,
				0.5970766544342041,
				-0.06031198799610138,
				0.6725054979324341
			],
			"scale":[
				0.9999999403953552,
				0.9999999403953552,
				1
			],
			"translation":[
				-2.384185791015625e-07,
				13.8225679397583,
				7.748603820800781e-07
			]
		},
		{
			"children":[
				3
			],
			"name":"leg_front_left_top0",
			"rotation":[
				-0.5097426176071167,
				-0.5756989121437073,
				-0.548517644405365,
				0.3284234404563904
			],
			"scale":[
				0.9999998211860657,
				0.9999995231628418,
				0.9999999403953552
			],
			"translation":[
				0.5177772045135498,
				11.14182186126709,
				1.2658610343933105
			]
		},
		{
			"name":"head1",
			"rotation":[
				0.16167162358760834,
				0.01127407792955637,
				0.011697852984070778,
				0.9867109060287476
			],
			"scale":[
				1.0000001192092896,
				1.0000001192092896,
				1
			],
			"translation":[
				-1.5832483768463135e-08,
				5.115652084350586,
				-8.831557352095842e-08
			]
		},
		{
			"children":[
				5
			],
			"name":"head0",
			"rotation":[
				-0.019704198464751244,
				-0.003985912539064884,
				-0.003983194939792156,
				0.9997900128364563
			],
			"scale":[
				1,
				1,
				1.0000001192092896
			],
			"translation":[
				2.3283064365386963e-08,
				3.133864164352417,
				-2.2759195417165756e-07
			]
		},
		{
			"children":[
				6
			],
			"name":"neck2",
			"rotation":[
				0.015537633560597897,
				0.0031520214397460222,
				0.0031544154044240713,
				0.9998694062232971
			],
			"scale":[
				0.9999999403953552,
				1,
				0.9999999403953552
			],
			"translation":[
				1.0244548320770264e-08,
				6.142560958862305,
				-7.57281668484211e-08
			]
		},
		{
			"children":[
				7
			],
			"name":"neck1",
			"rotation":[
				-0.999751627445221,
				0.004323653876781464,
				-0.0014870871091261506,
				0.021813634783029556
			],
			"scale":[
				1,
				1,
				1.000001072883606
			],
			"translation":[
				-4.190951585769653e-09,
				2.4684531688690186,
				-3.8568396121263504e-07
			]
		},
		{
			"children":[
				8
			],
			"name":"neck0",
			"rotation":[
				0.9996182918548584,
				0.003982855938374996,
				-0.006710386835038662,
				0.026502450928092003
			],
			"scale":[
				0.9999999403953552,
				0.9999999403953552,
				1.0000020265579224
			],
			"translation":[
				1.4156103134155273e-07,
				14.231529235839844,
				1.2654345482587814e-07
			]
		},
		{
			"name":"leg_front_right_bot2",
			"rotation":[
				-0.44522035121917725,
				0.5179660320281982,
				0.25603967905044556,
				0.68405681848526
			],
			"scale":[
				1.0000001192092896,
				1.0000001192092896,
				1
			],
			"translation":[
				5.662441253662109e-07,
				3.821553945541382,
				-1.1920928955078125e-07
			]
		},
		{
			"children":[
				10
			],
			"name":"leg_front_right_bot1",
			"rotation":[
				-0.022761767730116844,
				0.16340652108192444,
				0.07876745611429214,
				0.9831458926200867
			],
			"scale":[
				1,
				1.0000001192092896,
				1
			],
			"translation":[
				3.5762786865234375e-07,
				4.6207685470581055,
				2.384185791015625e-06
			]
		},
		{
			"children":[
				11
			],
			"name":"leg_front_right_bot0",
			"rotation":[
				0.09649015218019485,
				-0.7037181258201599,
				-0.3388783633708954,
				0.6169536709785461
			],
			"scale":[
				1.0000001192092896,
				1.000000238418579,
				1.000000238418579
			],
			"translation":[
				0,
				4.893564224243164,
				9.5367431640625e-07
			]
		},
		{
			"children":[
				12
			],
			"name":"leg_front_right_top1",
			"rotation":[
				0.4335908591747284,
				-0.5943279266357422,
				0.062471672892570496,
				0.6744409799575806
			],
			"scale":[
				0.9999999403953552,
				1,
				0.9999999403953552
			],
			"translation":[
				-2.384185791015625e-07,
				14.105690002441406,
				-5.364418029785156e-07
			]
		},
		{
			"children":[
				13
			],
			"name":"leg_front_right_top0",
			"rotation":[
				-0.509552001953125,
				0.5728642344474792,
				0.5565423965454102,
				0.3200688660144806
			],
			"scale":[
				0.9999998211860657,
				0.9999998211860657,
				0.9999998211860657
			],
			"translation":[
				-0.42586347460746765,
				11.133152961730957,
				1.273223638534546
			]
		},
		{
			"children":[
				4,
				9,
				14
			],
			"name":"body_top1",
			"rotation":[
				0.005789854098111391,
				-0.005446994211524725,
				-0.005301766563206911,
				0.999954342842102
			],
			"scale":[
				0.9999999403953552,
				1,
				1
			],
			"translation":[
				0,
				11.1040620803833,
				2.9802322387695312e-08
			]
		},
		{
			"children":[
				15
			],
			"name":"body_top0",
			"rotation":[
				0.01596049591898918,
				0,
				0,
				0.999872624874115
			],
			"scale":[
				1,
				1,
				0.9999999403953552
			],
			"translation":[
				0,
				10.200128555297852,
				7.172347977757454e-07
			]
		},
		{
			"name":"leg_hind_left_bot2",
			"rotation":[
				0.20738288760185242,
				0.8241128921508789,
				-0.3643819987773895,
				0.3808622360229492
			],
			"scale":[
				1,
				1.0000003576278687,
				1.0000001192092896
			],
			"translation":[
				1.3113021850585938e-06,
				3.8836543560028076,
				-3.5762786865234375e-07
			]
		},
		{
			"children":[
				17
			],
			"name":"leg_hind_left_bot1",
			"rotation":[
				1.0330695658922195e-06,
				-1.1576339602470398e-06,
				5.485489964485168e-07,
				1
			],
			"scale":[
				1,
				0.9999998807907104,
				1
			],
			"translation":[
				5.21540641784668e-07,
				3.8437366485595703,
				2.1457672119140625e-06
			]
		},
		{
			"children":[
				18
			],
			"name":"leg_hind_left_bot0",
			"rotation":[
				-0.3798896074295044,
				-0.6093894243240356,
				0.2596763074398041,
				0.6456754207611084
			],
			"scale":[
				1,
				0.9999998211860657,
				0.9999998211860657
			],
			"translation":[
				6.556510925292969e-07,
				4.897452354431152,
				2.1457672119140625e-06
			]
		},
		{
			"children":[
				19
			],
			"name":"leg_hind_left_top1",
			"rotation":[
				-0.27743372321128845,
				-0.417450875043869,
				0.1488654911518097,
				0.8524109125137329
			],
			"scale":[
				1,
				1.0000001192092896,
				1
			],
			"translation":[
				0,
				10.683698654174805,
				1.430511474609375e-06
			]
		},
		{
			"children":[
				20
			],
			"name":"leg_hind_left_top0",
			"rotation":[
				0.4754828214645386,
				0.659790575504303,
				-0.5282642841339111,
				0.24398678541183472
			],
			"scale":[
				1,
				0.9999999403953552,
				1
			],
			"translation":[
				0.44260871410369873,
				11.812270164489746,
				1.4408910274505615
			]
		},
		{
			"name":"tail3",
			"rotation":[
				0.059397224336862564,
				0.013795092701911926,
				-0.010166635736823082,
				0.9980873465538025
			],
			"scale":[
				1,
				0.9999999403953552,
				0.9999999403953552
			],
			"translation":[
				-4.470348358154297e-08,
				3.8694515228271484,
				-2.561137080192566e-08
			]
		},
		{
			"children":[
				22
			],
			"name":"tail2",
			"rotation":[
				0.00836886651813984,
				-0.000936582509893924,
				0.0009155584848485887,
				0.99996417760849
			],
			"scale":[
				1,
				0.9999999403953552,
				1
			],
			"translation":[
				-5.960464477539063e-08,
				4.217296123504639,
				6.812624633312225e-07
			]
		},
		{
			"children":[
				23
			],
			"name":"tail1",
			"rotation":[
				0.13788707554340363,
				0.013218696229159832,
				-0.007874030619859695,
				0.9903284311294556
			],
			"scale":[
				0.9999999403953552,
				1,
				0.9999999403953552
			],
			"translation":[
				0,
				4.872661590576172,
				7.152557373046875e-07
			]
		},
		{
			"children":[
				24
			],
			"name":"tail0",
			"rotation":[
				-0.1765197366476059,
				0,
				0,
				0.9842971563339233
			],
			"scale":[
				1,
				1,
				0.9999999403953552
			],
			"translation":[
				0,
				17.0909423828125,
				-6.258487701416016e-07
			]
		},
		{
			"children":[
				25
			],
			"name":"pelvis",
			"rotation":[
				0.03953146934509277,
				0,
				0,
				0.9992183446884155
			],
			"translation":[
				0,
				1.0169211626052856,
				-7.152557373046875e-07
			]
		},
		{
			"name":"leg_hind_right_bot2",
			"rotation":[
				0.20738208293914795,
				-0.8241123557090759,
				0.36438190937042236,
				0.3808639645576477
			],
			"translation":[
				0,
				2.484600305557251,
				-1.9073486328125e-06
			]
		},
		{
			"children":[
				27
			],
			"name":"leg_hind_right_bot1",
			"rotation":[
				8.466886356472969e-07,
				1.6130508129208465e-06,
				-7.832422284081986e-07,
				1
			],
			"scale":[
				1,
				1.0000001192092896,
				0.9999999403953552
			],
			"translation":[
				4.172325134277344e-07,
				5.242794513702393,
				-1.3113021850585938e-06
			]
		},
		{
			"children":[
				28
			],
			"name":"leg_hind_right_bot0",
			"rotation":[
				-0.37988951802253723,
				0.6093892455101013,
				-0.25967615842819214,
				0.6456755995750427
			],
			"scale":[
				1,
				1.0000001192092896,
				1.0000001192092896
			],
			"translation":[
				-6.556510925292969e-07,
				4.897452354431152,
				2.1457672119140625e-06
			]
		},
		{
			"children":[
				29
			],
			"name":"leg_hind_right_top1",
			"rotation":[
				-0.27743372321128845,
				0.417450875043869,
				-0.1488654911518097,
				0.8524109125137329
			],
			"scale":[
				1,
				1.0000001192092896,
				1
			],
			"translation":[
				0,
				10.683698654174805,
				1.430511474609375e-06
			]
		},
		{
			"children":[
				30
			],
			"name":"leg_hind_right_top0",
			"rotation":[
				0.4754828214645386,
				-0.659790575504303,
				0.5282642841339111,
				0.24398678541183472
			],
			"scale":[
				1,
				0.9999999403953552,
				1
			],
			"translation":[
				-0.44260871410369873,
				11.812270164489746,
				1.4408910274505615
			]
		},
		{
			"children":[
				21,
				26,
				31
			],
			"name":"body_bot",
			"rotation":[
				0.9941944479942322,
				0,
				0,
				0.1075981855392456
			],
			"scale":[
				1,
				1,
				0.9999943971633911
			],
			"translation":[
				0,
				0.4970475137233734,
				0.05048403888940811
			]
		},
		{
			"children":[
				16,
				32
			],
			"name":"body",
			"rotation":[
				-0.0024509623181074858,
				0,
				0,
				0.9999970197677612
			],
			"scale":[
				1,
				0.9999999403953552,
				0.9999999403953552
			],
			"translation":[
				0,
				-9.850000381469727,
				-2.4000000953674316
			]
		},
		{
			"mesh":0,
			"name":"uploads_files_2184392_Turtle_OBJ",
			"skin":0
		},
		{
			"children":[
				34,
				33
			],
			"name":"rig",
			"rotation":[
				0.7071068286895752,
				0,
				0,
				0.7071068286895752
			]
		}
	],
	"animations":[
		{
			"channels":[
				{
					"sampler":0,
					"target":{
						"node":33,
						"path":"translation"
					}
				},
				{
					"sampler":1,
					"target":{
						"node":33,
						"path":"rotation"
					}
				},
				{
					"sampler":2,
					"target":{
						"node":33,
						"path":"scale"
					}
				},
				{
					"sampler":3,
					"target":{
						"node":16,
						"path":"translation"
					}
				},
				{
					"sampler":4,
					"target":{
						"node":16,
						"path":"rotation"
					}
				},
				{
					"sampler":5,
					"target":{
						"node":16,
						"path":"scale"
					}
				},
				{
					"sampler":6,
					"target":{
						"node":15,
						"path":"translation"
					}
				},
				{
					"sampler":7,
					"target":{
						"node":15,
						"path":"rotation"
					}
				},
				{
					"sampler":8,
					"target":{
						"node":15,
						"path":"scale"
					}
				},
				{
					"sampler":9,
					"target":{
						"node":4,
						"path":"translation"
					}
				},
				{
					"sampler":10,
					"target":{
						"node":4,
						"path":"rotation"
					}
				},
				{
					"sampler":11,
					"target":{
						"node":4,
						"path":"scale"
					}
				},
				{
					"sampler":12,
					"target":{
						"node":3,
						"path":"translation"
					}
				},
				{
					"sampler":13,
					"target":{
						"node":3,
						"path":"rotation"
					}
				},
				{
					"sampler":14,
					"target":{
						"node":3,
						"path":"scale"
					}
				},
				{
					"sampler":15,
					"target":{
						"node":2,
						"path":"translation"
					}
				},
				{
					"sampler":16,
					"target":{
						"node":2,
						"path":"rotation"
					}
				},
				{
					"sampler":17,
					"target":{
						"node":2,
						"path":"scale"
					}
				},
				{
					"sampler":18,
					"target":{
						"node":1,
						"path":"translation"
					}
				},
				{
					"sampler":19,
					"target":{
						"node":1,
						"path":"rotation"
					}
				},
				{
					"sampler":20,
					"target":{
						"node":1,
						"path":"scale"
					}
				},
				{
					"sampler":21,
					"target":{
						"node":0,
						"path":"translation"
					}
				},
				{
					"sampler":22,
					"target":{
						"node":0,
						"path":"rotation"
					}
				},
				{
					"sampler":23,
					"target":{
						"node":0,
						"path":"scale"
					}
				},
				{
					"sampler":24,
					"target":{
						"node":9,
						"path":"translation"
					}
				},
				{
					"sampler":25,
					"target":{
						"node":9,
						"path":"rotation"
					}
				},
				{
					"sampler":26,
					"target":{
						"node":9,
						"path":"scale"
					}
				},
				{
					"sampler":27,
					"target":{
						"node":8,
						"path":"translation"
					}
				},
				{
					"sampler":28,
					"target":{
						"node":8,
						"path":"rotation"
					}
				},
				{
					"sampler":29,
					"target":{
						"node":8,
						"path":"scale"
					}
				},
				{
					"sampler":30,
					"target":{
						"node":7,
						"path":"translation"
					}
				},
				{
					"sampler":31,
					"target":{
						"node":7,
						"path":"rotation"
					}
				},
				{
					"sampler":32,
					"target":{
						"node":7,
						"path":"scale"
					}
				},
				{
					"sampler":33,
					"target":{
						"node":6,
						"path":"translation"
					}
				},
				{
					"sampler":34,
					"target":{
						"node":6,
						"path":"rotation"
					}
				},
				{
					"sampler":35,
					"target":{
						"node":6,
						"path":"scale"
					}
				},
				{
					"sampler":36,
					"target":{
						"node":5,
						"path":"translation"
					}
				},
				{
					"sampler":37,
					"target":{
						"node":5,
						"path":"rotation"
					}
				},
				{
					"sampler":38,
					"target":{
						"node":5,
						"path":"scale"
					}
				},
				{
					"sampler":39,
					"target":{
						"node":14,
						"path":"translation"
					}
				},
				{
					"sampler":40,
					"target":{
						"node":14,
						"path":"rotation"
					}
				},
				{
					"sampler":41,
					"target":{
						"node":14,
						"path":"scale"
					}
				},
				{
					"sampler":42,
					"target":{
						"node":13,
						"path":"translation"
					}
				},
				{
					"sampler":43,
					"target":{
						"node":13,
						"path":"rotation"
					}
				},
				{
					"sampler":44,
					"target":{
						"node":13,
						"path":"scale"
					}
				},
				{
					"sampler":45,
					"target":{
						"node":12,
						"path":"translation"
					}
				},
				{
					"sampler":46,
					"target":{
						"node":12,
						"path":"rotation"
					}
				},
				{
					"sampler":47,
					"target":{
						"node":12,
						"path":"scale"
					}
				},
				{
					"sampler":48,
					"target":{
						"node":11,
						"path":"translation"
					}
				},
				{
					"sampler":49,
					"target":{
						"node":11,
						"path":"rotation"
					}
				},
				{
					"sampler":50,
					"target":{
						"node":11,
						"path":"scale"
					}
				},
				{
					"sampler":51,
					"target":{
						"node":10,
						"path":"translation"
					}
				},
				{
					"sampler":52,
					"target":{
						"node":10,
						"path":"rotation"
					}
				},
				{
					"sampler":53,
					"target":{
						"node":10,
						"path":"scale"
					}
				},
				{
					"sampler":54,
					"target":{
						"node":32,
						"path":"translation"
					}
				},
				{
					"sampler":55,
					"target":{
						"node":32,
						"path":"rotation"
					}
				},
				{
					"sampler":56,
					"target":{
						"node":32,
						"path":"scale"
					}
				},
				{
					"sampler":57,
					"target":{
						"node":21,
						"path":"translation"
					}
				},
				{
					"sampler":58,
					"target":{
						"node":21,
						"path":"rotation"
					}
				},
				{
					"sampler":59,
					"target":{
						"node":21,
						"path":"scale"
					}
				},
				{
					"sampler":60,
					"target":{
						"node":20,
						"path":"translation"
					}
				},
				{
					"sampler":61,
					"target":{
						"node":20,
						"path":"rotation"
					}
				},
				{
					"sampler":62,
					"target":{
						"node":20,
						"path":"scale"
					}
				},
				{
					"sampler":63,
					"target":{
						"node":19,
						"path":"translation"
					}
				},
				{
					"sampler":64,
					"target":{
						"node":19,
						"path":"rotation"
					}
				},
				{
					"sampler":65,
					"target":{
						"node":19,
						"path":"scale"
					}
				},
				{
					"sampler":66,
					"target":{
						"node":18,
						"path":"translation"
					}
				},
				{
					"sampler":67,
					"target":{
						"node":18,
						"path":"rotation"
					}
				},
				{
					"sampler":68,
					"target":{
						"node":18,
						"path":"scale"
					}
				},
				{
					"sampler":69,
					"target":{
						"node":17,
						"path":"translation"
					}
				},
				{
					"sampler":70,
					"target":{
						"node":17,
						"path":"rotation"
					}
				},
				{
					"sampler":71,
					"target":{
						"node":17,
						"path":"scale"
					}
				},
				{
					"sampler":72,
					"target":{
						"node":26,
						"path":"translation"
					}
				},
				{
					"sampler":73,
					"target":{
						"node":26,
						"path":"rotation"
					}
				},
				{
					"sampler":74,
					"target":{
						"node":26,
						"path":"scale"
					}
				},
				{
					"sampler":75,
					"target":{
						"node":25,
						"path":"translation"
					}
				},
				{
					"sampler":76,
					"target":{
						"node":25,
						"path":"rotation"
					}
				},
				{
					"sampler":77,
					"target":{
						"node":25,
						"path":"scale"
					}
				},
				{
					"sampler":78,
					"target":{
						"node":24,
						"path":"translation"
					}
				},
				{
					"sampler":79,
					"target":{
						"node":24,
						"path":"rotation"
					}
				},
				{
					"sampler":80,
					"target":{
						"node":24,
						"path":"scale"
					}
				},
				{
					"sampler":81,
					"target":{
						"node":23,
						"path":"translation"
					}
				},
				{
					"sampler":82,
					"target":{
						"node":23,
						"path":"rotation"
					}
				},
				{
					"sampler":83,
					"target":{
						"node":23,
						"path":"scale"
					}
				},
				{
					"sampler":84,
					"target":{
						"node":22,
						"path":"translation"
					}
				},
				{
					"sampler":85,
					"target":{
						"node":22,
						"path":"rotation"
					}
				},
				{
					"sampler":86,
					"target":{
						"node":22,
						"path":"scale"
					}
				},
				{
					"sampler":87,
					"target":{
						"node":31,
						"path":"translation"
					}
				},
				{
					"sampler":88,
					"target":{
						"node":31,
						"path":"rotation"
					}
				},
				{
					"sampler":89,
					"target":{
						"node":31,
						"path":"scale"
					}
				},
				{
					"sampler":90,
					"target":{
						"node":30,
						"path":"translation"
					}
				},
				{
					"sampler":91,
					"target":{
						"node":30,
						"path":"rotation"
					}
				},
				{
					"sampler":92,
					"target":{
						"node":30,
						"path":"scale"
					}
				},
				{
					"sampler":93,
					"target":{
						"node":29,
						"path":"translation"
					}
				},
				{
					"sampler":94,
					"target":{
						"node":29,
						"path":"rotation"
					}
				},
				{
					"sampler":95,
					"target":{
						"node":29,
						"path":"scale"
					}
				},
				{
					"sampler":96,
					"target":{
						"node":28,
						"path":"translation"
					}
				},
				{
					"sampler":97,
					"target":{
						"node":28,
						"path":"rotation"
					}
				},
				{
					"sampler":98,
					"target":{
						"node":28,
						"path":"scale"
					}
				},
				{
					"sampler":99,
					"target":{
						"node":27,
						"path":"translation"
					}
				},
				{
					"sampler":100,
					"target":{
						"node":27,
						"path":"rotation"
					}
				},
				{
					"sampler":101,
					"target":{
						"node":27,
						"path":"scale"
					}
				},
				{
					"sampler":102,
					"target":{
						"node":35,
						"path":"translation"
					}
				},
				{
					"sampler":103,
					"target":{
						"node":35,
						"path":"rotation"
					}
				},
				{
					"sampler":104,
					"target":{
						"node":35,
						"path":"scale"
					}
				}
			],
			"name":"rig|rig|idle",
			"samplers":[
				{
					"input":25,
					"interpolation":"STEP",
					"output":26
				},
				{
					"input":25,
					"interpolation":"STEP",
					"output":27
				},
				{
					"input":25,
					"interpolation":"STEP",
					"output":28
				},
				{
					"input":25,
					"interpolation":"STEP",
					"output":29
				},
				{
					"input":30,
					"interpolation":"LINEAR",
					"output":31
				},
				{
					"input":25,
					"interpolation":"STEP",
					"output":32
				},
				{
					"input":25,
					"interpolation":"STEP",
					"output":33
				},
				{
					"input":30,
					"interpolation":"LINEAR",
					"output":34
				},
				{
					"input":25,
					"interpolation":"STEP",
					"output":35
				},
				{
					"input":25,
					"interpolation":"STEP",
					"output":36
				},
				{
					"input":30,
					"interpolation":"LINEAR",
					"output":37
				},
				{
					"input":25,
					"interpolation":"STEP",
					"output":38
				},
				{
					"input":25,
					"interpolation":"STEP",
					"output":39
				},
				{
					"input":30,
					"interpolation":"LINEAR",
					"output":40
				},
				{
					"input":25,
					"interpolation":"STEP",
					"output":41
				},
				{
					"input":25,
					"interpolation":"STEP",
					"output":42
				},
				{
					"input":30,
					"interpolation":"LINEAR",
					"output":43
				},
				{
					"input":25,
					"interpolation":"STEP",
					"output":44
				},
				{
					"input":25,
					"interpolation":"STEP",
					"output":45
				},
				{
					"input":30,
					"interpolation":"LINEAR",
					"output":46
				},
				{
					"input":25,
					"interpolation":"STEP",
					"output":47
				},
				{
					"input":25,
					"interpolation":"STEP",
					"output":48
				},
				{
					"input":30,
					"interpolation":"LINEAR",
					"output":49
				},
				{
					"input":25,
					"interpolation":"STEP",
					"output":50
				},
				{
					"input":25,
					"interpolation":"STEP",
					"output":51
				},
				{
					"input":30,
					"interpolation":"LINEAR",
					"output":52
				},
				{
					"input":25,
					"interpolation":"STEP",
					"output":53
				},
				{
					"input":25,
					"interpolation":"STEP",
					"output":54
				},
				{
					"input":30,
					"interpolation":"LINEAR",
					"output":55
				},
				{
					"input":25,
					"interpolation":"STEP",
					"output":56
				},
				{
					"input":25,
					"interpolation":"STEP",
					"output":57
				},
				{
					"input":30,
					"interpolation":"LINEAR",
					"output":58
				},
				{
					"input":25,
					"interpolation":"STEP",
					"output":59
				},
				{
					"input":25,
					"interpolation":"STEP",
					"output":60
				},
				{
					"input":30,
					"interpolation":"LINEAR",
					"output":61
				},
				{
					"input":25,
					"interpolation":"STEP",
					"output":62
				},
				{
					"input":25,
					"interpolation":"STEP",
					"output":63
				},
				{
					"input":30,
					"interpolation":"LINEAR",
					"output":64
				},
				{
					"input":25,
					"interpolation":"STEP",
					"output":65
				},
				{
					"input":25,
					"interpolation":"STEP",
					"output":66
				},
				{
					"input":30,
					"interpolation":"LINEAR",
					"output":67
				},
				{
					"input":25,
					"interpolation":"STEP",
					"output":68
				},
				{
					"input":25,
					"interpolation":"STEP",
					"output":69
				},
				{
					"input":30,
					"interpolation":"LINEAR",
					"output":70
				},
				{
					"input":25,
					"interpolation":"STEP",
					"output":71
				},
				{
					"input":25,
					"interpolation":"STEP",
					"output":72
				},
				{
					"input":30,
					"interpolation":"LINEAR",
					"output":73
				},
				{
					"input":25,
					"interpolation":"STEP",
					"output":74
				},
				{
					"input":25,
					"interpolation":"STEP",
					"output":75
				},
				{
					"input":30,
					"interpolation":"LINEAR",
					"output":76
				},
				{
					"input":25,
					"interpolation":"STEP",
					"output":77
				},
				{
					"input":25,
					"interpolation":"STEP",
					"output":78
				},
				{
					"input":30,
					"interpolation":"LINEAR",
					"output":79
				},
				{
					"input":25,
					"interpolation":"STEP",
					"output":80
				},
				{
					"input":25,
					"interpolation":"STEP",
					"output":81
				},
				{
					"input":30,
					"interpolation":"LINEAR",
					"output":82
				},
				{
					"input":25,
					"interpolation":"STEP",
					"output":83
				},
				{
					"input":25,
					"interpolation":"STEP",
					"output":84
				},
				{
					"input":30,
					"interpolation":"LINEAR",
					"output":85
				},
				{
					"input":25,
					"interpolation":"STEP",
					"output":86
				},
				{
					"input":25,
					"interpolation":"STEP",
					"output":87
				},
				{
					"input":30,
					"interpolation":"LINEAR",
					"output":88
				},
				{
					"input":25,
					"interpolation":"STEP",
					"output":89
				},
				{
					"input":25,
					"interpolation":"STEP",
					"output":90
				},
				{
					"input":30,
					"interpolation":"LINEAR",
					"output":91
				},
				{
					"input":25,
					"interpolation":"STEP",
					"output":92
				},
				{
					"input":25,
					"interpolation":"STEP",
					"output":93
				},
				{
					"input":30,
					"interpolation":"LINEAR",
					"output":94
				},
				{
					"input":25,
					"interpolation":"STEP",
					"output":95
				},
				{
					"input":25,
					"interpolation":"STEP",
					"output":96
				},
				{
					"input":30,
					"interpolation":"LINEAR",
					"output":97
				},
				{
					"input":25,
					"interpolation":"STEP",
					"output":98
				},
				{
					"input":25,
					"interpolation":"STEP",
					"output":99
				},
				{
					"input":30,
					"interpolation":"LINEAR",
					"output":100
				},
				{
					"input":25,
					"interpolation":"STEP",
					"output":101
				},
				{
					"input":25,
					"interpolation":"STEP",
					"output":102
				},
				{
					"input":30,
					"interpolation":"LINEAR",
					"output":103
				},
				{
					"input":25,
					"interpolation":"STEP",
					"output":104
				},
				{
					"input":25,
					"interpolation":"STEP",
					"output":105
				},
				{
					"input":30,
					"interpolation":"LINEAR",
					"output":106
				},
				{
					"input":25,
					"interpolation":"STEP",
					"output":107
				},
				{
					"input":25,
					"interpolation":"STEP",
					"output":108
				},
				{
					"input":30,
					"interpolation":"LINEAR",
					"output":109
				},
				{
					"input":25,
					"interpolation":"STEP",
					"output":110
				},
				{
					"input":25,
					"interpolation":"STEP",
					"output":111
				},
				{
					"input":30,
					"interpolation":"LINEAR",
					"output":112
				},
				{
					"input":25,
					"interpolation":"STEP",
					"output":113
				},
				{
					"input":25,
					"interpolation":"STEP",
					"output":114
				},
				{
					"input":30,
					"interpolation":"LINEAR",
					"output":115
				},
				{
					"input":25,
					"interpolation":"STEP",
					"output":116
				},
				{
					"input":25,
					"interpolation":"STEP",
					"output":117
				},
				{
					"input":30,
					"interpolation":"LINEAR",
					"output":118
				},
				{
					"input":25,
					"interpolation":"STEP",
					"output":119
				},
				{
					"input":25,
					"interpolation":"STEP",
					"output":120
				},
				{
					"input":30,
					"interpolation":"LINEAR",
					"output":121
				},
				{
					"input":25,
					"interpolation":"STEP",
					"output":122
				},
				{
					"input":25,
					"interpolation":"STEP",
					"output":123
				},
				{
					"input":30,
					"interpolation":"LINEAR",
					"output":124
				},
				{
					"input":25,
					"interpolation":"STEP",
					"output":125
				},
				{
					"input":25,
					"interpolation":"STEP",
					"output":126
				},
				{
					"input":30,
					"interpolation":"LINEAR",
					"output":127
				},
				{
					"input":25,
					"interpolation":"STEP",
					"output":128
				},
				{
					"input":25,
					"interpolation":"STEP",
					"output":129
				},
				{
					"input":25,
					"interpolation":"STEP",
					"output":130
				},
				{
					"input":25,
					"interpolation":"STEP",
					"output":131
				}
			]
		}
	],
	"materials":[
		{
			"doubleSided":true,
			"name":"unghie2SG1",
			"pbrMetallicRoughness":{
				"baseColorTexture":{
					"index":0
				},
				"metallicFactor":0,
				"roughnessFactor":0.5
			}
		},
		{
			"doubleSided":true,
			"name":"unghie2SG3",
			"pbrMetallicRoughness":{
				"baseColorTexture":{
					"index":1
				},
				"metallicFactor":0,
				"roughnessFactor":0.5
			}
		},
		{
			"doubleSided":true,
			"name":"unghie2SG2",
			"pbrMetallicRoughness":{
				"baseColorTexture":{
					"index":2
				},
				"metallicFactor":0,
				"roughnessFactor":0.5
			}
		},
		{
			"doubleSided":true,
			"name":"unghie2SG",
			"pbrMetallicRoughness":{
				"baseColorTexture":{
					"index":3
				},
				"metallicFactor":0,
				"roughnessFactor":0.5
			}
		}
	],
	"meshes":[
		{
			"name":"uploads_files_2184392_Turtle_OBJ",
			"primitives":[
				{
					"attributes":{
						"POSITION":0,
						"NORMAL":1,
						"TEXCOORD_0":2,
						"JOINTS_0":3,
						"WEIGHTS_0":4
					},
					"indices":5,
					"material":0
				},
				{
					"attributes":{
						"POSITION":6,
						"NORMAL":7,
						"TEXCOORD_0":8,
						"JOINTS_0":9,
						"WEIGHTS_0":10
					},
					"indices":11,
					"material":1
				},
				{
					"attributes":{
						"POSITION":12,
						"NORMAL":13,
						"TEXCOORD_0":14,
						"JOINTS_0":15,
						"WEIGHTS_0":16
					},
					"indices":17,
					"material":2
				},
				{
					"attributes":{
						"POSITION":18,
						"NORMAL":19,
						"TEXCOORD_0":20,
						"JOINTS_0":21,
						"WEIGHTS_0":22
					},
					"indices":23,
					"material":3
				}
			]
		}
	],
	"textures":[
		{
			"sampler":0,
			"source":0
		},
		{
			"sampler":0,
			"source":0
		},
		{
			"sampler":0,
			"source":0
		},
		{
			"sampler":0,
			"source":0
		}
	],
	"images":[
		{
			"mimeType":"image/png",
			"name":"Turtle_body_BaseColor",
			"uri":"Turtle_body_BaseColor.png"
		}
	],
	"skins":[
		{
			"inverseBindMatrices":24,
			"joints":[
				33,
				16,
				15,
				4,
				3,
				2,
				1,
				0,
				9,
				8,
				7,
				6,
				5,
				14,
				13,
				12,
				11,
				10,
				32,
				21,
				20,
				19,
				18,
				17,
				26,
				25,
				24,
				23,
				22,
				31,
				30,
				29,
				28,
				27
			],
			"name":"rig"
		}
	],
	"accessors":[
		{
			"bufferView":0,
			"componentType":5126,
			"count":4652,
			"max":[
				20.770090103149414,
				16.237051010131836,
				42.48484420776367
			],
			"min":[
				-20.770092010498047,
				-15.11463737487793,
				-42.48483657836914
			],
			"type":"VEC3"
		},
		{
			"bufferView":1,
			"componentType":5126,
			"count":4652,
			"type":"VEC3"
		},
		{
			"bufferView":2,
			"componentType":5126,
			"count":4652,
			"type":"VEC2"
		},
		{
			"bufferView":3,
			"componentType":5121,
			"count":4652,
			"type":"VEC4"
		},
		{
			"bufferView":4,
			"componentType":5126,
			"count":4652,
			"type":"VEC4"
		},
		{
			"bufferView":5,
			"componentType":5123,
			"count":25872,
			"type":"SCALAR"
		},
		{
			"bufferView":6,
			"componentType":5126,
			"count":804,
			"max":[
				2.7457821369171143,
				2.040236711502075,
				40.88557815551758
			],
			"min":[
				-2.8706870079040527,
				0.3452449142932892,
				39.23196792602539
			],
			"type":"VEC3"
		},
		{
			"bufferView":7,
			"componentType":5126,
			"count":804,
			"type":"VEC3"
		},
		{
			"bufferView":8,
			"componentType":5126,
			"count":804,
			"type":"VEC2"
		},
		{
			"bufferView":9,
			"componentType":5121,
			"count":804,
			"type":"VEC4"
		},
		{
			"bufferView":10,
			"componentType":5126,
			"count":804,
			"type":"VEC4"
		},
		{
			"bufferView":11,
			"componentType":5123,
			"count":4560,
			"type":"SCALAR"
		},
		{
			"bufferView":12,
			"componentType":5126,
			"count":804,
			"max":[
				2.678983449935913,
				1.9268525838851929,
				40.77678298950195
			],
			"min":[
				-2.836562395095825,
				0.40885117650032043,
				39.26126480102539
			],
			"type":"VEC3"
		},
		{
			"bufferView":13,
			"componentType":5126,
			"count":804,
			"type":"VEC3"
		},
		{
			"bufferView":14,
			"componentType":5126,
			"count":804,
			"type":"VEC2"
		},
		{
			"bufferView":15,
			"componentType":5121,
			"count":804,
			"type":"VEC4"
		},
		{
			"bufferView":16,
			"componentType":5126,
			"count":804,
			"type":"VEC4"
		},
		{
			"bufferView":17,
			"componentType":5123,
			"count":4560,
			"type":"SCALAR"
		},
		{
			"bufferView":18,
			"componentType":5126,
			"count":3020,
			"max":[
				20.121877670288086,
				-11.675880432128906,
				33.52360153198242
			],
			"min":[
				-20.121877670288086,
				-16.23704719543457,
				-29.220258712768555
			],
			"type":"VEC3"
		},
		{
			"bufferView":19,
			"componentType":5126,
			"count":3020,
			"type":"VEC3"
		},
		{
			"bufferView":20,
			"componentType":5126,
			"count":3020,
			"type":"VEC2"
		},
		{
			"bufferView":21,
			"componentType":5121,
			"count":3020,
			"type":"VEC4"
		},
		{
			"bufferView":22,
			"componentType":5126,
			"count":3020,
			"type":"VEC4"
		},
		{
			"bufferView":23,
			"componentType":5123,
			"count":16320,
			"type":"SCALAR"
		},
		{
			"bufferView":24,
			"componentType":5126,
			"count":34,
			"type":"MAT4"
		},
		{
			"bufferView":25,
			"componentType":5126,
			"count":2,
			"max":[
				5.366666666666666
			],
			"min":[
				0.03333333333333333
			],
			"type":"SCALAR"
		},
		{
			"bufferView":26,
			"componentType":5126,
			"count":2,
			"type":"VEC3"
		},
		{
			"bufferView":27,
			"componentType":5126,
			"count":2,
			"type":"VEC4"
		},
		{
			"bufferView":28,
			"componentType":5126,
			"count":2,
			"type":"VEC3"
		},
		{
			"bufferView":29,
			"componentType":5126,
			"count":2,
			"type":"VEC3"
		},
		{
			"bufferView":30,
			"componentType":5126,
			"count":161,
			"max":[
				5.366666666666666
			],
			"min":[
				0.03333333333333333
			],
			"type":"SCALAR"
		},
		{
			"bufferView":31,
			"componentType":5126,
			"count":161,
			"type":"VEC4"
		},
		{
			"bufferView":32,
			"componentType":5126,
			"count":2,
			"type":"VEC3"
		},
		{
			"bufferView":33,
			"componentType":5126,
			"count":2,
			"type":"VEC3"
		},
		{
			"bufferView":34,
			"componentType":5126,
			"count":161,
			"type":"VEC4"
		},
		{
			"bufferView":35,
			"componentType":5126,
			"count":2,
			"type":"VEC3"
		},
		{
			"bufferView":36,
			"componentType":5126,
			"count":2,
			"type":"VEC3"
		},
		{
			"bufferView":37,
			"componentType":5126,
			"count":161,
			"type":"VEC4"
		},
		{
			"bufferView":38,
			"componentType":5126,
			"count":2,
			"type":"VEC3"
		},
		{
			"bufferView":39,
			"componentType":5126,
			"count":2,
			"type":"VEC3"
		},
		{
			"bufferView":40,
			"componentType":5126,
			"count":161,
			"type":"VEC4"
		},
		{
			"bufferView":41,
			"componentType":5126,
			"count":2,
			"type":"VEC3"
		},
		{
			"bufferView":42,
			"componentType":5126,
			"count":2,
			"type":"VEC3"
		},
		{
			"bufferView":43,
			"componentType":5126,
			"count":161,
			"type":"VEC4"
		},
		{
			"bufferView":44,
			"componentType":5126,
			"count":2,
			"type":"VEC3"
		},
		{
			"bufferView":45,
			"componentType":5126,
			"count":2,
			"type":"VEC3"
		},
		{
			"bufferView":46,
			"componentType":5126,
			"count":161,
			"type":"VEC4"
		},
		{
			"bufferView":47,
			"componentType":5126,
			"count":2,
			"type":"VEC3"
		},
		{
			"bufferView":48,
			"componentType":5126,
			"count":2,
			"type":"VEC3"
		},
		{
			"bufferView":49,
			"componentType":5126,
			"count":161,
			"type":"VEC4"
		},
		{
			"bufferView":50,
			"componentType":5126,
			"count":2,
			"type":"VEC3"
		},
		{
			"bufferView":51,
			"componentType":5126,
			"count":2,
			"type":"VEC3"
		},
		{
			"bufferView":52,
			"componentType":5126,
			"count":161,
			"type":"VEC4"
		},
		{
			"bufferView":53,
			"componentType":5126,
			"count":2,
			"type":"VEC3"
		},
		{
			"bufferView":54,
			"componentType":5126,
			"count":2,
			"type":"VEC3"
		},
		{
			"bufferView":55,
			"componentType":5126,
			"count":161,
			"type":"VEC4"
		},
		{
			"bufferView":56,
			"componentType":5126,
			"count":2,
			"type":"VEC3"
		},
		{
			"bufferView":57,
			"componentType":5126,
			"count":2,
			"type":"VEC3"
		},
		{
			"bufferView":58,
			"componentType":5126,
			"count":161,
			"type":"VEC4"
		},
		{
			"bufferView":59,
			"componentType":5126,
			"count":2,
			"type":"VEC3"
		},
		{
			"bufferView":60,
			"componentType":5126,
			"count":2,
			"type":"VEC3"
		},
		{
			"bufferView":61,
			"componentType":5126,
			"count":161,
			"type":"VEC4"
		},
		{
			"bufferView":62,
			"componentType":5126,
			"count":2,
			"type":"VEC3"
		},
		{
			"bufferView":63,
			"componentType":5126,
			"count":2,
			"type":"VEC3"
		},
		{
			"bufferView":64,
			"componentType":5126,
			"count":161,
			"type":"VEC4"
		},
		{
			"bufferView":65,
			"componentType":5126,
			"count":2,
			"type":"VEC3"
		},
		{
			"bufferView":66,
			"componentType":5126,
			"count":2,
			"type":"VEC3"
		},
		{
			"bufferView":67,
			"componentType":5126,
			"count":161,
			"type":"VEC4"
		},
		{
			"bufferView":68,
			"componentType":5126,
			"count":2,
			"type":"VEC3"
		},
		{
			"bufferView":69,
			"componentType":5126,
			"count":2,
			"type":"VEC3"
		},
		{
			"bufferView":70,
			"componentType":5126,
			"count":161,
			"type":"VEC4"
		},
		{
			"bufferView":71,
			"componentType":5126,
			"count":2,
			"type":"VEC3"
		},
		{
			"bufferView":72,
			"componentType":5126,
			"count":2,
			"type":"VEC3"
		},
		{
			"bufferView":73,
			"componentType":5126,
			"count":161,
			"type":"VEC4"
		},
		{
			"bufferView":74,
			"componentType":5126,
			"count":2,
			"type":"VEC3"
		},
		{
			"bufferView":75,
			"componentType":5126,
			"count":2,
			"type":"VEC3"
		},
		{
			"bufferView":76,
			"componentType":5126,
			"count":161,
			"type":"VEC4"
		},
		{
			"bufferView":77,
			"componentType":5126,
			"count":2,
			"type":"VEC3"
		},
		{
			"bufferView":78,
			"componentType":5126,
			"count":2,
			"type":"VEC3"
		},
		{
			"bufferView":79,
			"componentType":5126,
			"count":161,
			"type":"VEC4"
		},
		{
			"bufferView":80,
			"componentType":5126,
			"count":2,
			"type":"VEC3"
		},
		{
			"bufferView":81,
			"componentType":5126,
			"count":2,
			"type":"VEC3"
		},
		{
			"bufferView":82,
			"componentType":5126,
			"count":161,
			"type":"VEC4"
		},
		{
			"bufferView":83,
			"componentType":5126,
			"count":2,
			"type":"VEC3"
		},
		{
			"bufferView":84,
			"componentType":5126,
			"count":2,
			"type":"VEC3"
		},
		{
			"bufferView":85,
			"componentType":5126,
			"count":161,
			"type":"VEC4"
		},
		{
			"bufferView":86,
			"componentType":5126,
			"count":2,
			"type":"VEC3"
		},
		{
			"bufferView":87,
			"componentType":5126,
			"count":2,
			"type":"VEC3"
		},
		{
			"bufferView":88,
			"componentType":5126,
			"count":161,
			"type":"VEC4"
		},
		{
			"bufferView":89,
			"componentType":5126,
			"count":2,
			"type":"VEC3"
		},
		{
			"bufferView":90,
			"componentType":5126,
			"count":2,
			"type":"VEC3"
		},
		{
			"bufferView":91,
			"componentType":5126,
			"count":161,
			"type":"VEC4"
		},
		{
			"bufferView":92,
			"componentType":5126,
			"count":2,
			"type":"VEC3"
		},
		{
			"bufferView":93,
			"componentType":5126,
			"count":2,
			"type":"VEC3"
		},
		{
			"bufferView":94,
			"componentType":5126,
			"count":161,
			"type":"VEC4"
		},
		{
			"bufferView":95,
			"componentType":5126,
			"count":2,
			"type":"VEC3"
		},
		{
			"bufferView":96,
			"componentType":5126,
			"count":2,
			"type":"VEC3"
		},
		{
			"bufferView":97,
			"componentType":5126,
			"count":161,
			"type":"VEC4"
		},
		{
			"bufferView":98,
			"componentType":5126,
			"count":2,
			"type":"VEC3"
		},
		{
			"bufferView":99,
			"componentType":5126,
			"count":2,
			"type":"VEC3"
		},
		{
			"bufferView":100,
			"componentType":5126,
			"count":161,
			"type":"VEC4"
		},
		{
			"bufferView":101,
			"componentType":5126,
			"count":2,
			"type":"VEC3"
		},
		{
			"bufferView":102,
			"componentType":5126,
			"count":2,
			"type":"VEC3"
		},
		{
			"bufferView":103,
			"componentType":5126,
			"count":161,
			"type":"VEC4"
		},
		{
			"bufferView":104,
			"componentType":5126,
			"count":2,
			"type":"VEC3"
		},
		{
			"bufferView":105,
			"componentType":5126,
			"count":2,
			"type":"VEC3"
		},
		{
			"bufferView":106,
			"componentType":5126,
			"count":161,
			"type":"VEC4"
		},
		{
			"bufferView":107,
			"componentType":5126,
			"count":2,
			"type":"VEC3"
		},
		{
			"bufferView":108,
			"componentType":5126,
			"count":2,
			"type":"VEC3"
		},
		{
			"bufferView":109,
			"componentType":5126,
			"count":161,
			"type":"VEC4"
		},
		{
			"bufferView":110,
			"componentType":5126,
			"count":2,
			"type":"VEC3"
		},
		{
			"bufferView":111,
			"componentType":5126,
			"count":2,
			"type":"VEC3"
		},
		{
			"bufferView":112,
			"componentType":5126,
			"count":161,
			"type":"VEC4"
		},
		{
			"bufferView":113,
			"componentType":5126,
			"count":2,
			"type":"VEC3"
		},
		{
			"bufferView":114,
			"componentType":5126,
			"count":2,
			"type":"VEC3"
		},
		{
			"bufferView":115,
			"componentType":5126,
			"count":161,
			"type":"VEC4"
		},
		{
			"bufferView":116,
			"componentType":5126,
			"count":2,
			"type":"VEC3"
		},
		{
			"bufferView":117,
			"componentType":5126,
			"count":2,
			"type":"VEC3"
		},
		{
			"bufferView":118,
			"componentType":5126,
			"count":161,
			"type":"VEC4"
		},
		{
			"bufferView":119,
			"componentType":5126,
			"count":2,
			"type":"VEC3"
		},
		{
			"bufferView":120,
			"componentType":5126,
			"count":2,
			"type":"VEC3"
		},
		{
			"bufferView":121,
			"componentType":5126,
			"count":161,
			"type":"VEC4"
		},
		{
			"bufferView":122,
			"componentType":5126,
			"count":2,
			"type":"VEC3"
		},
		{
			"bufferView":123,
			"componentType":5126,
			"count":2,
			"type":"VEC3"
		},
		{
			"bufferView":124,
			"componentType":5126,
			"count":161,
			"type":"VEC4"
		},
		{
			"bufferView":125,
			"componentType":5126,
			"count":2,
			"type":"VEC3"
		},
		{
			"bufferView":126,
			"componentType":5126,
			"count":2,
			"type":"VEC3"
		},
		{
			"bufferView":127,
			"componentType":5126,
			"count":161,
			"type":"VEC4"
		},
		{
			"bufferView":128,
			"componentType":5126,
			"count":2,
			"type":"VEC3"
		},
		{
			"bufferView":129,
			"componentType":5126,
			"count":2,
			"type":"VEC3"
		},
		{
			"bufferView":130,
			"componentType":5126,
			"count":2,
			"type":"VEC4"
		},
		{
			"bufferView":131,
			"componentType":5126,
			"count":2,
			"type":"VEC3"
		}
	],
	"bufferViews":[
		{
			"buffer":0,
			"byteLength":55824,
			"byteOffset":0,
			"target":34962
		},
		{
			"buffer":0,
			"byteLength":55824,
			"byteOffset":55824,
			"target":34962
		},
		{
			"buffer":0,
			"byteLength":37216,
			"byteOffset":111648,
			"target":34962
		},
		{
			"buffer":0,
			"byteLength":18608,
			"byteOffset":148864,
			"target":34962
		},
		{
			"buffer":0,
			"byteLength":74432,
			"byteOffset":167472,
			"target":34962
		},
		{
			"buffer":0,
			"byteLength":51744,
			"byteOffset":241904,
			"target":34963
		},
		{
			"buffer":0,
			"byteLength":9648,
			"byteOffset":293648,
			"target":34962
		},
		{
			"buffer":0,
			"byteLength":9648,
			"byteOffset":303296,
			"target":34962
		},
		{
			"buffer":0,
			"byteLength":6432,
			"byteOffset":312944,
			"target":34962
		},
		{
			"buffer":0,
			"byteLength":3216,
			"byteOffset":319376,
			"target":34962
		},
		{
			"buffer":0,
			"byteLength":12864,
			"byteOffset":322592,
			"target":34962
		},
		{
			"buffer":0,
			"byteLength":9120,
			"byteOffset":335456,
			"target":34963
		},
		{
			"buffer":0,
			"byteLength":9648,
			"byteOffset":344576,
			"target":34962
		},
		{
			"buffer":0,
			"byteLength":9648,
			"byteOffset":354224,
			"target":34962
		},
		{
			"buffer":0,
			"byteLength":6432,
			"byteOffset":363872,
			"target":34962
		},
		{
			"buffer":0,
			"byteLength":3216,
			"byteOffset":370304,
			"target":34962
		},
		{
			"buffer":0,
			"byteLength":12864,
			"byteOffset":373520,
			"target":34962
		},
		{
			"buffer":0,
			"byteLength":9120,
			"byteOffset":386384,
			"target":34963
		},
		{
			"buffer":0,
			"byteLength":36240,
			"byteOffset":395504,
			"target":34962
		},
		{
			"buffer":0,
			"byteLength":36240,
			"byteOffset":431744,
			"target":34962
		},
		{
			"buffer":0,
			"byteLength":24160,
			"byteOffset":467984,
			"target":34962
		},
		{
			"buffer":0,
			"byteLength":12080,
			"byteOffset":492144,
			"target":34962
		},
		{
			"buffer":0,
			"byteLength":48320,
			"byteOffset":504224,
			"target":34962
		},
		{
			"buffer":0,
			"byteLength":32640,
			"byteOffset":552544,
			"target":34963
		},
		{
			"buffer":0,
			"byteLength":2176,
			"byteOffset":585184
		},
		{
			"buffer":0,
			"byteLength":8,
			"byteOffset":587360
		},
		{
			"buffer":0,
			"byteLength":24,
			"byteOffset":587368
		},
		{
			"buffer":0,
			"byteLength":32,
			"byteOffset":587392
		},
		{
			"buffer":0,
			"byteLength":24,
			"byteOffset":587424
		},
		{
			"buffer":0,
			"byteLength":24,
			"byteOffset":587448
		},
		{
			"buffer":0,
			"byteLength":644,
			"byteOffset":587472
		},
		{
			"buffer":0,
			"byteLength":2576,
			"byteOffset":588116
		},
		{
			"buffer":0,
			"byteLength":24,
			"byteOffset":590692
		},
		{
			"buffer":0,
			"byteLength":24,
			"byteOffset":590716
		},
		{
			"buffer":0,
			"byteLength":2576,
			"byteOffset":590740
		},
		{
			"buffer":0,
			"byteLength":24,
			"byteOffset":593316
		},
		{
			"buffer":0,
			"byteLength":24,
			"byteOffset":593340
		},
		{
			"buffer":0,
			"byteLength":2576,
			"byteOffset":593364
		},
		{
			"buffer":0,
			"byteLength":24,
			"byteOffset":595940
		},
		{
			"buffer":0,
			"byteLength":24,
			"byteOffset":595964
		},
		{
			"buffer":0,
			"byteLength":2576,
			"byteOffset":595988
		},
		{
			"buffer":0,
			"byteLength":24,
			"byteOffset":598564
		},
		{
			"buffer":0,
			"byteLength":24,
			"byteOffset":598588
		},
		{
			"buffer":0,
			"byteLength":2576,
			"byteOffset":598612
		},
		{
			"buffer":0,
			"byteLength":24,
			"byteOffset":601188
		},
		{
			"buffer":0,
			"byteLength":24,
			"byteOffset":601212
		},
		{
			"buffer":0,
			"byteLength":2576,
			"byteOffset":601236
		},
		{
			"buffer":0,
			"byteLength":24,
			"byteOffset":603812
		},
		{
			"buffer":0,
			"byteLength":24,
			"byteOffset":603836
		},
		{
			"buffer":0,
			"byteLength":2576,
			"byteOffset":603860
		},
		{
			"buffer":0,
			"byteLength":24,
			"byteOffset":606436
		},
		{
			"buffer":0,
			"byteLength":24,
			"byteOffset":606460
		},
		{
			"buffer":0,
			"byteLength":2576,
			"byteOffset":606484
		},
		{
			"buffer":0,
			"byteLength":24,
			"byteOffset":609060
		},
		{
			"buffer":0,
			"byteLength":24,
			"byteOffset":609084
		},
		{
			"buffer":0,
			"byteLength":2576,
			"byteOffset":609108
		},
		{
			"buffer":0,
			"byteLength":24,
			"byteOffset":611684
		},
		{
			"buffer":0,
			"byteLength":24,
			"byteOffset":611708
		},
		{
			"buffer":0,
			"byteLength":2576,
			"byteOffset":611732
		},
		{
			"buffer":0,
			"byteLength":24,
			"byteOffset":614308
		},
		{
			"buffer":0,
			"byteLength":24,
			"byteOffset":614332
		},
		{
			"buffer":0,
			"byteLength":2576,
			"byteOffset":614356
		},
		{
			"buffer":0,
			"byteLength":24,
			"byteOffset":616932
		},
		{
			"buffer":0,
			"byteLength":24,
			"byteOffset":616956
		},
		{
			"buffer":0,
			"byteLength":2576,
			"byteOffset":616980
		},
		{
			"buffer":0,
			"byteLength":24,
			"byteOffset":619556
		},
		{
			"buffer":0,
			"byteLength":24,
			"byteOffset":619580
		},
		{
			"buffer":0,
			"byteLength":2576,
			"byteOffset":619604
		},
		{
			"buffer":0,
			"byteLength":24,
			"byteOffset":622180
		},
		{
			"buffer":0,
			"byteLength":24,
			"byteOffset":622204
		},
		{
			"buffer":0,
			"byteLength":2576,
			"byteOffset":622228
		},
		{
			"buffer":0,
			"byteLength":24,
			"byteOffset":624804
		},
		{
			"buffer":0,
			"byteLength":24,
			"byteOffset":624828
		},
		{
			"buffer":0,
			"byteLength":2576,
			"byteOffset":624852
		},
		{
			"buffer":0,
			"byteLength":24,
			"byteOffset":627428
		},
		{
			"buffer":0,
			"byteLength":24,
			"byteOffset":627452
		},
		{
			"buffer":0,
			"byteLength":2576,
			"byteOffset":627476
		},
		{
			"buffer":0,
			"byteLength":24,
			"byteOffset":630052
		},
		{
			"buffer":0,
			"byteLength":24,
			"byteOffset":630076
		},
		{
			"buffer":0,
			"byteLength":2576,
			"byteOffset":630100
		},
		{
			"buffer":0,
			"byteLength":24,
			"byteOffset":632676
		},
		{
			"buffer":0,
			"byteLength":24,
			"byteOffset":632700
		},
		{
			"buffer":0,
			"byteLength":2576,
			"byteOffset":632724
		},
		{
			"buffer":0,
			"byteLength":24,
			"byteOffset":635300
		},
		{
			"buffer":0,
			"byteLength":24,
			"byteOffset":635324
		},
		{
			"buffer":0,
			"byteLength":2576,
			"byteOffset":635348
		},
		{
			"buffer":0,
			"byteLength":24,
			"byteOffset":637924
		},
		{
			"buffer":0,
			"byteLength":24,
			"byteOffset":637948
		},
		{
			"buffer":0,
			"byteLength":2576,
			"byteOffset":637972
		},
		{
			"buffer":0,
			"byteLength":24,
			"byteOffset":640548
		},
		{
			"buffer":0,
			"byteLength":24,
			"byteOffset":640572
		},
		{
			"buffer":0,
			"byteLength":2576,
			"byteOffset":640596
		},
		{
			"buffer":0,
			"byteLength":24,
			"byteOffset":643172
		},
		{
			"buffer":0,
			"byteLength":24,
			"byteOffset":643196
		},
		{
			"buffer":0,
			"byteLength":2576,
			"byteOffset":643220
		},
		{
			"buffer":0,
			"byteLength":24,
			"byteOffset":645796
		},
		{
			"buffer":0,
			"byteLength":24,
			"byteOffset":645820
		},
		{
			"buffer":0,
			"byteLength":2576,
			"byteOffset":645844
		},
		{
			"buffer":0,
			"byteLength":24,
			"byteOffset":648420
		},
		{
			"buffer":0,
			"byteLength":24,
			"byteOffset":648444
		},
		{
			"buffer":0,
			"byteLength":2576,
			"byteOffset":648468
		},
		{
			"buffer":0,
			"byteLength":24,
			"byteOffset":651044
		},
		{
			"buffer":0,
			"byteLength":24,
			"byteOffset":651068
		},
		{
			"buffer":0,
			"byteLength":2576,
			"byteOffset":651092
		},
		{
			"buffer":0,
			"byteLength":24,
			"byteOffset":653668
		},
		{
			"buffer":0,
			"byteLength":24,
			"byteOffset":653692
		},
		{
			"buffer":0,
			"byteLength":2576,
			"byteOffset":653716
		},
		{
			"buffer":0,
			"byteLength":24,
			"byteOffset":656292
		},
		{
			"buffer":0,
			"byteLength":24,
			"byteOffset":656316
		},
		{
			"buffer":0,
			"byteLength":2576,
			"byteOffset":656340
		},
		{
			"buffer":0,
			"byteLength":24,
			"byteOffset":658916
		},
		{
			"buffer":0,
			"byteLength":24,
			"byteOffset":658940
		},
		{
			"buffer":0,
			"byteLength":2576,
			"byteOffset":658964
		},
		{
			"buffer":0,
			"byteLength":24,
			"byteOffset":661540
		},
		{
			"buffer":0,
			"byteLength":24,
			"byteOffset":661564
		},
		{
			"buffer":0,
			"byteLength":2576,
			"byteOffset":661588
		},
		{
			"buffer":0,
			"byteLength":24,
			"byteOffset":664164
		},
		{
			"buffer":0,
			"byteLength":24,
			"byteOffset":664188
		},
		{
			"buffer":0,
			"byteLength":2576,
			"byteOffset":664212
		},
		{
			"buffer":0,
			"byteLength":24,
			"byteOffset":666788
		},
		{
			"buffer":0,
			"byteLength":24,
			"byteOffset":666812
		},
		{
			"buffer":0,
			"byteLength":2576,
			"byteOffset":666836
		},
		{
			"buffer":0,
			"byteLength":24,
			"byteOffset":669412
		},
		{
			"buffer":0,
			"byteLength":24,
			"byteOffset":669436
		},
		{
			"buffer":0,
			"byteLength":2576,
			"byteOffset":669460
		},
		{
			"buffer":0,
			"byteLength":24,
			"byteOffset":672036
		},
		{
			"buffer":0,
			"byteLength":24,
			"byteOffset":672060
		},
		{
			"buffer":0,
			"byteLength":2576,
			"byteOffset":672084
		},
		{
			"buffer":0,
			"byteLength":24,
			"byteOffset":674660
		},
		{
			"buffer":0,
			"byteLength":24,
			"byteOffset":674684
		},
		{
			"buffer":0,
			"byteLength":32,
			"byteOffset":674708
		},
		{
			"buffer":0,
			"byteLength":24,
			"byteOffset":674740
		}
	],
	"samplers":[
		{
			"magFilter":9729,
			"minFilter":9987
		}
	],
	"buffers":[
		{
			"byteLength":674764,
			"uri":"uploads_files_2184392_Turtle_OBJ_idle.bin"
		}
	]
}
