{
	"asset":{
		"generator":"Khronos glTF Blender I/O v4.1.62",
		"version":"2.0"
	},
	"scene":0,
	"scenes":[
		{
			"name":"Scene",
			"nodes":[
				37
			]
		}
	],
	"nodes":[
		{
			"name":"leg_front_right_toe",
			"rotation":[
				-0.5214505791664124,
				-0.1508551836013794,
				-0.15085473656654358,
				0.8261809349060059
			],
			"scale":[
				0.9999998807907104,
				0.9999998807907104,
				0.9999999403953552
			],
			"translation":[
				-1.7248094081878662e-06,
				8.157519340515137,
				-7.152557373046875e-07
			]
		},
		{
			"children":[
				0
			],
			"name":"leg_front_right_ankle",
			"rotation":[
				0.010324697941541672,
				-0.13272155821323395,
				-0.02769991010427475,
				0.9907124638557434
			],
			"scale":[
				1,
				0.9999999403953552,
				0.9999999403953552
			],
			"translation":[
				1.6689300537109375e-06,
				11.706631660461426,
				-1.1920928955078125e-06
			]
		},
		{
			"children":[
				1
			],
			"name":"leg_front_right_bot0",
			"rotation":[
				0.0340174175798893,
				-0.9128983616828918,
				-0.20445214211940765,
				0.3516514301300049
			],
			"scale":[
				1,
				0.9999997615814209,
				1
			],
			"translation":[
				4.803878255188465e-07,
				6.718631744384766,
				1.1378333510947414e-06
			]
		},
		{
			"children":[
				2
			],
			"name":"leg_front_right_top1",
			"rotation":[
				0.018730998039245605,
				-0.5027195811271667,
				0.19127915799617767,
				0.8428134322166443
			],
			"scale":[
				1,
				1.0000001192092896,
				0.9999998807907104
			],
			"translation":[
				2.750927023953409e-07,
				10.665851593017578,
				-5.064499646323384e-07
			]
		},
		{
			"children":[
				3
			],
			"name":"leg_front_right_top0",
			"rotation":[
				0.5311281681060791,
				-0.524986207485199,
				-0.6494510173797607,
				0.14319832623004913
			],
			"translation":[
				-0.185834601521492,
				8.842121124267578,
				1.3947944641113281
			]
		},
		{
			"name":"head0",
			"rotation":[
				0.5420680046081543,
				-0.005473044700920582,
				-0.0011746984673663974,
				0.8403159976005554
			],
			"scale":[
				1.0000001192092896,
				0.9999999403953552,
				1
			],
			"translation":[
				1.4901161193847656e-07,
				7.908777236938477,
				-4.1082967072725296e-07
			]
		},
		{
			"children":[
				5
			],
			"name":"neck1",
			"rotation":[
				-0.10601194947957993,
				2.282970035238918e-09,
				-0.002398461103439331,
				0.9943619966506958
			],
			"scale":[
				0.9999999403953552,
				1.0000001192092896,
				0.9999999403953552
			],
			"translation":[
				5.21540641784668e-08,
				6.627110004425049,
				-1.2016971595585346e-07
			]
		},
		{
			"children":[
				6
			],
			"name":"neck0",
			"rotation":[
				-0.1857469528913498,
				0.006730502936989069,
				0.008326184004545212,
				0.9825392961502075
			],
			"scale":[
				1,
				1,
				1.0000001192092896
			],
			"translation":[
				6.348926717691938e-09,
				9.255609512329102,
				-2.8633189685933758e-06
			]
		},
		{
			"name":"leg_front_left_toe",
			"rotation":[
				-0.5214502215385437,
				0.15085436403751373,
				0.15085449814796448,
				0.8261812925338745
			],
			"scale":[
				0.9999999403953552,
				1,
				1
			],
			"translation":[
				2.421438694000244e-07,
				8.15751838684082,
				2.6226043701171875e-06
			]
		},
		{
			"children":[
				8
			],
			"name":"leg_front_left_ankle",
			"rotation":[
				0.010324160568416119,
				0.1327224224805832,
				0.027700399979948997,
				0.9907122850418091
			],
			"scale":[
				0.9999999403953552,
				1,
				1
			],
			"translation":[
				2.384185791015625e-07,
				11.706629753112793,
				-4.76837158203125e-07
			]
		},
		{
			"children":[
				9
			],
			"name":"leg_front_left_bot0",
			"rotation":[
				0.034017208963632584,
				0.9128976464271545,
				0.20445190370082855,
				0.35165342688560486
			],
			"scale":[
				1,
				1,
				0.9999999403953552
			],
			"translation":[
				-1.6366539057344198e-07,
				6.718631744384766,
				3.904215191141702e-07
			]
		},
		{
			"children":[
				10
			],
			"name":"leg_front_left_top1",
			"rotation":[
				0.019443439319729805,
				0.5218311548233032,
				-0.18491429090499878,
				0.8325388431549072
			],
			"scale":[
				0.9999999403953552,
				0.9999999403953552,
				0.9999999403953552
			],
			"translation":[
				2.3982506718311924e-06,
				10.593073844909668,
				-5.12900101057312e-07
			]
		},
		{
			"children":[
				11
			],
			"name":"leg_front_left_top0",
			"rotation":[
				0.5417616963386536,
				0.5186807513237,
				0.6416507959365845,
				0.16046454012393951
			],
			"scale":[
				1,
				1,
				0.9999999403953552
			],
			"translation":[
				0.1780393421649933,
				8.84078311920166,
				1.3975300788879395
			]
		},
		{
			"children":[
				4,
				7,
				12
			],
			"name":"body_top1",
			"rotation":[
				-0.06158531829714775,
				0.009329951368272305,
				0.011541931889951229,
				0.9979915022850037
			],
			"scale":[
				0.9999998807907104,
				1,
				1
			],
			"translation":[
				0,
				9.137288093566895,
				7.53672793507576e-07
			]
		},
		{
			"children":[
				13
			],
			"name":"body_top0",
			"rotation":[
				-0.036095038056373596,
				-0.016284288838505745,
				-0.016989311203360558,
				0.9990712404251099
			],
			"scale":[
				0.9999999403953552,
				0.9999999403953552,
				1
			],
			"translation":[
				3.725290298461914e-09,
				8.501504898071289,
				-1.816311851143837e-06
			]
		},
		{
			"name":"tail7",
			"rotation":[
				0.07909838855266571,
				0.03589937090873718,
				-0.018610835075378418,
				0.9960463643074036
			],
			"translation":[
				1.8212506347481394e-07,
				3.4135866165161133,
				6.699746791127836e-06
			]
		},
		{
			"children":[
				15
			],
			"name":"tail6",
			"rotation":[
				0.06267180293798447,
				0.0214828047901392,
				-0.010872568935155869,
				0.9977437257766724
			],
			"scale":[
				0.9999999403953552,
				1,
				1
			],
			"translation":[
				-3.725290298461914e-08,
				2.0112485885620117,
				-7.66245648264885e-07
			]
		},
		{
			"children":[
				16
			],
			"name":"tail5",
			"rotation":[
				-1.4806571968506432e-08,
				-5.820766091346741e-10,
				1.1641532182693481e-09,
				1
			],
			"scale":[
				1,
				1,
				1.0000001192092896
			],
			"translation":[
				6.705522537231445e-08,
				2.1858372688293457,
				-3.6222045309841633e-06
			]
		},
		{
			"children":[
				17
			],
			"name":"tail4",
			"rotation":[
				1.0248912474253302e-07,
				-5.647307261824608e-07,
				3.271270543336868e-08,
				1
			],
			"scale":[
				1,
				1.0000001192092896,
				1.0000001192092896
			],
			"translation":[
				1.516193151473999e-06,
				2.2375991344451904,
				5.732581485062838e-06
			]
		},
		{
			"children":[
				18
			],
			"name":"tail3",
			"rotation":[
				0.04219428449869156,
				-0.7227119207382202,
				0.3442635238170624,
				0.5978208780288696
			],
			"scale":[
				1,
				1.000000238418579,
				1
			],
			"translation":[
				5.735718787036603e-06,
				4.383513450622559,
				-3.7886672998865834e-07
			]
		},
		{
			"children":[
				19
			],
			"name":"tail2",
			"rotation":[
				-0.02967359684407711,
				0.8694056272506714,
				-0.38442936539649963,
				0.30897799134254456
			],
			"scale":[
				1,
				1.0000001192092896,
				1
			],
			"translation":[
				5.3942203521728516e-06,
				6.7716450691223145,
				4.351139068603516e-06
			]
		},
		{
			"children":[
				20
			],
			"name":"tail1",
			"rotation":[
				0.22771669924259186,
				-0.3248338997364044,
				0.06031375005841255,
				0.9159641265869141
			],
			"scale":[
				0.9999999403953552,
				1.0000001192092896,
				0.9999998807907104
			],
			"translation":[
				-1.2217896028232644e-08,
				1.3928422927856445,
				-1.3004968195673428e-06
			]
		},
		{
			"children":[
				21
			],
			"name":"tail0",
			"rotation":[
				-0.3206164538860321,
				-0.0550042949616909,
				0.010213037952780724,
				0.945555567741394
			],
			"scale":[
				0.9999998807907104,
				1,
				1.0000001192092896
			],
			"translation":[
				-6.407499313354492e-07,
				6.412074565887451,
				3.827735781669617e-06
			]
		},
		{
			"children":[
				22
			],
			"name":"pelvis",
			"rotation":[
				-0.15091238915920258,
				0.038683779537677765,
				-0.03135494887828827,
				0.9872921705245972
			],
			"scale":[
				1,
				0.9999999403953552,
				0.9999999403953552
			],
			"translation":[
				-0.23850393295288086,
				8.606236457824707,
				1.403268814086914
			]
		},
		{
			"name":"leg_hind_right_toe",
			"rotation":[
				-0.5403316020965576,
				-0.33474624156951904,
				-0.3347439169883728,
				0.6956531405448914
			],
			"scale":[
				0.9999999403953552,
				1,
				0.9999999403953552
			],
			"translation":[
				-2.1457672119140625e-06,
				6.250833988189697,
				4.76837158203125e-07
			]
		},
		{
			"children":[
				24
			],
			"name":"leg_hind_right_ankle",
			"rotation":[
				-0.359012246131897,
				0.7790955305099487,
				-0.09655843675136566,
				0.5047740340232849
			],
			"scale":[
				1,
				1,
				1.0000001192092896
			],
			"translation":[
				-2.384185791015625e-06,
				12.390854835510254,
				-2.86102294921875e-06
			]
		},
		{
			"children":[
				25
			],
			"name":"leg_hind_right_bot0",
			"rotation":[
				-0.025246990844607353,
				0.8490384817123413,
				-0.291084349155426,
				0.44018882513046265
			],
			"scale":[
				1,
				1.0000001192092896,
				1.0000001192092896
			],
			"translation":[
				-8.037022780627012e-08,
				8.414916038513184,
				1.2170344234618824e-06
			]
		},
		{
			"children":[
				26
			],
			"name":"leg_hind_right_top1",
			"rotation":[
				-0.002370266942307353,
				0.07971988618373871,
				0.18749916553497314,
				0.9790215492248535
			],
			"scale":[
				1,
				0.9999999403953552,
				0.9999998807907104
			],
			"translation":[
				1.250592504220549e-06,
				6.7387189865112305,
				-3.0230075935833156e-06
			]
		},
		{
			"children":[
				27
			],
			"name":"leg_hind_right_top0",
			"rotation":[
				0.21978449821472168,
				-0.7668298482894897,
				0.5996249318122864,
				0.06416160613298416
			],
			"scale":[
				1,
				1.0000001192092896,
				0.9999998807907104
			],
			"translation":[
				-0.4378436803817749,
				8.942262649536133,
				-0.012220938690006733
			]
		},
		{
			"name":"leg_hind_left_toe",
			"rotation":[
				-0.5403310656547546,
				0.3347474932670593,
				0.33474475145339966,
				0.6956526041030884
			],
			"scale":[
				1,
				1,
				0.9999998807907104
			],
			"translation":[
				1.9073486328125e-06,
				6.250833034515381,
				-4.76837158203125e-07
			]
		},
		{
			"children":[
				29
			],
			"name":"leg_hind_left_ankle",
			"rotation":[
				-0.3590118885040283,
				-0.7790965437889099,
				0.09655869007110596,
				0.5047726631164551
			],
			"scale":[
				0.9999998807907104,
				0.9999999403953552,
				0.9999997615814209
			],
			"translation":[
				9.5367431640625e-07,
				12.390868186950684,
				4.76837158203125e-07
			]
		},
		{
			"children":[
				30
			],
			"name":"leg_hind_left_bot0",
			"rotation":[
				-0.02524862252175808,
				-0.849040687084198,
				0.2910842001438141,
				0.44018447399139404
			],
			"scale":[
				1,
				0.9999999403953552,
				1.0000001192092896
			],
			"translation":[
				3.9279984775930643e-07,
				8.414913177490234,
				1.1018826171493856e-06
			]
		},
		{
			"children":[
				31
			],
			"name":"leg_hind_left_top1",
			"rotation":[
				-0.002148896688595414,
				-0.07230814546346664,
				-0.20551584661006927,
				0.9759765267372131
			],
			"scale":[
				1.0000001192092896,
				1,
				1
			],
			"translation":[
				6.732034307788126e-07,
				6.870147228240967,
				-6.065459388082672e-07
			]
		},
		{
			"children":[
				32
			],
			"name":"leg_hind_left_top0",
			"rotation":[
				0.22935892641544342,
				0.7649558782577515,
				-0.5946108102798462,
				0.09314003586769104
			],
			"scale":[
				1,
				0.9999997019767761,
				0.9999999403953552
			],
			"translation":[
				7.078051567077637e-08,
				8.943951606750488,
				-3.634020686149597e-06
			]
		},
		{
			"children":[
				23,
				28,
				33
			],
			"name":"body_bot",
			"rotation":[
				0.9933007955551147,
				-0.0024822524283081293,
				0.00979294441640377,
				0.11511516571044922
			],
			"scale":[
				0.9999999403953552,
				1,
				0.9999986886978149
			],
			"translation":[
				0.016712725162506104,
				0.9918531775474548,
				-0.09327449649572372
			]
		},
		{
			"children":[
				14,
				34
			],
			"name":"body",
			"rotation":[
				-0.007844476029276848,
				0.006149744149297476,
				0.006149744614958763,
				0.9999313950538635
			],
			"translation":[
				0.005377139896154404,
				-10.949809074401855,
				-8.187272071838379
			]
		},
		{
			"mesh":0,
			"name":"uploads_files_5014699_Leopard_Low_Poly",
			"skin":0
		},
		{
			"children":[
				36,
				35
			],
			"name":"rig",
			"rotation":[
				0.7071068286895752,
				0,
				0,
				0.7071068286895752
			]
		}
	],
	"animations":[
		{
			"channels":[
				{
					"sampler":0,
					"target":{
						"node":35,
						"path":"translation"
					}
				},
				{
					"sampler":1,
					"target":{
						"node":35,
						"path":"rotation"
					}
				},
				{
					"sampler":2,
					"target":{
						"node":35,
						"path":"scale"
					}
				},
				{
					"sampler":3,
					"target":{
						"node":14,
						"path":"translation"
					}
				},
				{
					"sampler":4,
					"target":{
						"node":14,
						"path":"rotation"
					}
				},
				{
					"sampler":5,
					"target":{
						"node":14,
						"path":"scale"
					}
				},
				{
					"sampler":6,
					"target":{
						"node":13,
						"path":"translation"
					}
				},
				{
					"sampler":7,
					"target":{
						"node":13,
						"path":"rotation"
					}
				},
				{
					"sampler":8,
					"target":{
						"node":13,
						"path":"scale"
					}
				},
				{
					"sampler":9,
					"target":{
						"node":4,
						"path":"translation"
					}
				},
				{
					"sampler":10,
					"target":{
						"node":4,
						"path":"rotation"
					}
				},
				{
					"sampler":11,
					"target":{
						"node":4,
						"path":"scale"
					}
				},
				{
					"sampler":12,
					"target":{
						"node":3,
						"path":"translation"
					}
				},
				{
					"sampler":13,
					"target":{
						"node":3,
						"path":"rotation"
					}
				},
				{
					"sampler":14,
					"target":{
						"node":3,
						"path":"scale"
					}
				},
				{
					"sampler":15,
					"target":{
						"node":2,
						"path":"translation"
					}
				},
				{
					"sampler":16,
					"target":{
						"node":2,
						"path":"rotation"
					}
				},
				{
					"sampler":17,
					"target":{
						"node":2,
						"path":"scale"
					}
				},
				{
					"sampler":18,
					"target":{
						"node":1,
						"path":"translation"
					}
				},
				{
					"sampler":19,
					"target":{
						"node":1,
						"path":"rotation"
					}
				},
				{
					"sampler":20,
					"target":{
						"node":1,
						"path":"scale"
					}
				},
				{
					"sampler":21,
					"target":{
						"node":0,
						"path":"translation"
					}
				},
				{
					"sampler":22,
					"target":{
						"node":0,
						"path":"rotation"
					}
				},
				{
					"sampler":23,
					"target":{
						"node":0,
						"path":"scale"
					}
				},
				{
					"sampler":24,
					"target":{
						"node":7,
						"path":"translation"
					}
				},
				{
					"sampler":25,
					"target":{
						"node":7,
						"path":"rotation"
					}
				},
				{
					"sampler":26,
					"target":{
						"node":7,
						"path":"scale"
					}
				},
				{
					"sampler":27,
					"target":{
						"node":6,
						"path":"translation"
					}
				},
				{
					"sampler":28,
					"target":{
						"node":6,
						"path":"rotation"
					}
				},
				{
					"sampler":29,
					"target":{
						"node":6,
						"path":"scale"
					}
				},
				{
					"sampler":30,
					"target":{
						"node":5,
						"path":"translation"
					}
				},
				{
					"sampler":31,
					"target":{
						"node":5,
						"path":"rotation"
					}
				},
				{
					"sampler":32,
					"target":{
						"node":5,
						"path":"scale"
					}
				},
				{
					"sampler":33,
					"target":{
						"node":12,
						"path":"translation"
					}
				},
				{
					"sampler":34,
					"target":{
						"node":12,
						"path":"rotation"
					}
				},
				{
					"sampler":35,
					"target":{
						"node":12,
						"path":"scale"
					}
				},
				{
					"sampler":36,
					"target":{
						"node":11,
						"path":"translation"
					}
				},
				{
					"sampler":37,
					"target":{
						"node":11,
						"path":"rotation"
					}
				},
				{
					"sampler":38,
					"target":{
						"node":11,
						"path":"scale"
					}
				},
				{
					"sampler":39,
					"target":{
						"node":10,
						"path":"translation"
					}
				},
				{
					"sampler":40,
					"target":{
						"node":10,
						"path":"rotation"
					}
				},
				{
					"sampler":41,
					"target":{
						"node":10,
						"path":"scale"
					}
				},
				{
					"sampler":42,
					"target":{
						"node":9,
						"path":"translation"
					}
				},
				{
					"sampler":43,
					"target":{
						"node":9,
						"path":"rotation"
					}
				},
				{
					"sampler":44,
					"target":{
						"node":9,
						"path":"scale"
					}
				},
				{
					"sampler":45,
					"target":{
						"node":8,
						"path":"translation"
					}
				},
				{
					"sampler":46,
					"target":{
						"node":8,
						"path":"rotation"
					}
				},
				{
					"sampler":47,
					"target":{
						"node":8,
						"path":"scale"
					}
				},
				{
					"sampler":48,
					"target":{
						"node":34,
						"path":"translation"
					}
				},
				{
					"sampler":49,
					"target":{
						"node":34,
						"path":"rotation"
					}
				},
				{
					"sampler":50,
					"target":{
						"node":34,
						"path":"scale"
					}
				},
				{
					"sampler":51,
					"target":{
						"node":23,
						"path":"translation"
					}
				},
				{
					"sampler":52,
					"target":{
						"node":23,
						"path":"rotation"
					}
				},
				{
					"sampler":53,
					"target":{
						"node":23,
						"path":"scale"
					}
				},
				{
					"sampler":54,
					"target":{
						"node":22,
						"path":"translation"
					}
				},
				{
					"sampler":55,
					"target":{
						"node":22,
						"path":"rotation"
					}
				},
				{
					"sampler":56,
					"target":{
						"node":22,
						"path":"scale"
					}
				},
				{
					"sampler":57,
					"target":{
						"node":21,
						"path":"translation"
					}
				},
				{
					"sampler":58,
					"target":{
						"node":21,
						"path":"rotation"
					}
				},
				{
					"sampler":59,
					"target":{
						"node":21,
						"path":"scale"
					}
				},
				{
					"sampler":60,
					"target":{
						"node":20,
						"path":"translation"
					}
				},
				{
					"sampler":61,
					"target":{
						"node":20,
						"path":"rotation"
					}
				},
				{
					"sampler":62,
					"target":{
						"node":20,
						"path":"scale"
					}
				},
				{
					"sampler":63,
					"target":{
						"node":19,
						"path":"translation"
					}
				},
				{
					"sampler":64,
					"target":{
						"node":19,
						"path":"rotation"
					}
				},
				{
					"sampler":65,
					"target":{
						"node":19,
						"path":"scale"
					}
				},
				{
					"sampler":66,
					"target":{
						"node":18,
						"path":"translation"
					}
				},
				{
					"sampler":67,
					"target":{
						"node":18,
						"path":"rotation"
					}
				},
				{
					"sampler":68,
					"target":{
						"node":18,
						"path":"scale"
					}
				},
				{
					"sampler":69,
					"target":{
						"node":17,
						"path":"translation"
					}
				},
				{
					"sampler":70,
					"target":{
						"node":17,
						"path":"rotation"
					}
				},
				{
					"sampler":71,
					"target":{
						"node":17,
						"path":"scale"
					}
				},
				{
					"sampler":72,
					"target":{
						"node":16,
						"path":"translation"
					}
				},
				{
					"sampler":73,
					"target":{
						"node":16,
						"path":"rotation"
					}
				},
				{
					"sampler":74,
					"target":{
						"node":16,
						"path":"scale"
					}
				},
				{
					"sampler":75,
					"target":{
						"node":15,
						"path":"translation"
					}
				},
				{
					"sampler":76,
					"target":{
						"node":15,
						"path":"rotation"
					}
				},
				{
					"sampler":77,
					"target":{
						"node":15,
						"path":"scale"
					}
				},
				{
					"sampler":78,
					"target":{
						"node":28,
						"path":"translation"
					}
				},
				{
					"sampler":79,
					"target":{
						"node":28,
						"path":"rotation"
					}
				},
				{
					"sampler":80,
					"target":{
						"node":28,
						"path":"scale"
					}
				},
				{
					"sampler":81,
					"target":{
						"node":27,
						"path":"translation"
					}
				},
				{
					"sampler":82,
					"target":{
						"node":27,
						"path":"rotation"
					}
				},
				{
					"sampler":83,
					"target":{
						"node":27,
						"path":"scale"
					}
				},
				{
					"sampler":84,
					"target":{
						"node":26,
						"path":"translation"
					}
				},
				{
					"sampler":85,
					"target":{
						"node":26,
						"path":"rotation"
					}
				},
				{
					"sampler":86,
					"target":{
						"node":26,
						"path":"scale"
					}
				},
				{
					"sampler":87,
					"target":{
						"node":25,
						"path":"translation"
					}
				},
				{
					"sampler":88,
					"target":{
						"node":25,
						"path":"rotation"
					}
				},
				{
					"sampler":89,
					"target":{
						"node":25,
						"path":"scale"
					}
				},
				{
					"sampler":90,
					"target":{
						"node":24,
						"path":"translation"
					}
				},
				{
					"sampler":91,
					"target":{
						"node":24,
						"path":"rotation"
					}
				},
				{
					"sampler":92,
					"target":{
						"node":24,
						"path":"scale"
					}
				},
				{
					"sampler":93,
					"target":{
						"node":33,
						"path":"translation"
					}
				},
				{
					"sampler":94,
					"target":{
						"node":33,
						"path":"rotation"
					}
				},
				{
					"sampler":95,
					"target":{
						"node":33,
						"path":"scale"
					}
				},
				{
					"sampler":96,
					"target":{
						"node":32,
						"path":"translation"
					}
				},
				{
					"sampler":97,
					"target":{
						"node":32,
						"path":"rotation"
					}
				},
				{
					"sampler":98,
					"target":{
						"node":32,
						"path":"scale"
					}
				},
				{
					"sampler":99,
					"target":{
						"node":31,
						"path":"translation"
					}
				},
				{
					"sampler":100,
					"target":{
						"node":31,
						"path":"rotation"
					}
				},
				{
					"sampler":101,
					"target":{
						"node":31,
						"path":"scale"
					}
				},
				{
					"sampler":102,
					"target":{
						"node":30,
						"path":"translation"
					}
				},
				{
					"sampler":103,
					"target":{
						"node":30,
						"path":"rotation"
					}
				},
				{
					"sampler":104,
					"target":{
						"node":30,
						"path":"scale"
					}
				},
				{
					"sampler":105,
					"target":{
						"node":29,
						"path":"translation"
					}
				},
				{
					"sampler":106,
					"target":{
						"node":29,
						"path":"rotation"
					}
				},
				{
					"sampler":107,
					"target":{
						"node":29,
						"path":"scale"
					}
				},
				{
					"sampler":108,
					"target":{
						"node":37,
						"path":"translation"
					}
				},
				{
					"sampler":109,
					"target":{
						"node":37,
						"path":"rotation"
					}
				},
				{
					"sampler":110,
					"target":{
						"node":37,
						"path":"scale"
					}
				}
			],
			"name":"rig|rig|jump_start",
			"samplers":[
				{
					"input":7,
					"interpolation":"LINEAR",
					"output":8
				},
				{
					"input":9,
					"interpolation":"LINEAR",
					"output":10
				},
				{
					"input":9,
					"interpolation":"STEP",
					"output":11
				},
				{
					"input":9,
					"interpolation":"LINEAR",
					"output":12
				},
				{
					"input":7,
					"interpolation":"LINEAR",
					"output":13
				},
				{
					"input":9,
					"interpolation":"LINEAR",
					"output":14
				},
				{
					"input":9,
					"interpolation":"LINEAR",
					"output":15
				},
				{
					"input":7,
					"interpolation":"LINEAR",
					"output":16
				},
				{
					"input":9,
					"interpolation":"LINEAR",
					"output":17
				},
				{
					"input":9,
					"interpolation":"LINEAR",
					"output":18
				},
				{
					"input":7,
					"interpolation":"LINEAR",
					"output":19
				},
				{
					"input":9,
					"interpolation":"LINEAR",
					"output":20
				},
				{
					"input":9,
					"interpolation":"LINEAR",
					"output":21
				},
				{
					"input":7,
					"interpolation":"LINEAR",
					"output":22
				},
				{
					"input":9,
					"interpolation":"LINEAR",
					"output":23
				},
				{
					"input":9,
					"interpolation":"LINEAR",
					"output":24
				},
				{
					"input":7,
					"interpolation":"LINEAR",
					"output":25
				},
				{
					"input":9,
					"interpolation":"LINEAR",
					"output":26
				},
				{
					"input":9,
					"interpolation":"LINEAR",
					"output":27
				},
				{
					"input":7,
					"interpolation":"LINEAR",
					"output":28
				},
				{
					"input":9,
					"interpolation":"LINEAR",
					"output":29
				},
				{
					"input":9,
					"interpolation":"LINEAR",
					"output":30
				},
				{
					"input":7,
					"interpolation":"LINEAR",
					"output":31
				},
				{
					"input":9,
					"interpolation":"LINEAR",
					"output":32
				},
				{
					"input":9,
					"interpolation":"LINEAR",
					"output":33
				},
				{
					"input":7,
					"interpolation":"LINEAR",
					"output":34
				},
				{
					"input":9,
					"interpolation":"LINEAR",
					"output":35
				},
				{
					"input":9,
					"interpolation":"LINEAR",
					"output":36
				},
				{
					"input":7,
					"interpolation":"LINEAR",
					"output":37
				},
				{
					"input":9,
					"interpolation":"LINEAR",
					"output":38
				},
				{
					"input":9,
					"interpolation":"LINEAR",
					"output":39
				},
				{
					"input":7,
					"interpolation":"LINEAR",
					"output":40
				},
				{
					"input":9,
					"interpolation":"STEP",
					"output":41
				},
				{
					"input":9,
					"interpolation":"LINEAR",
					"output":42
				},
				{
					"input":7,
					"interpolation":"LINEAR",
					"output":43
				},
				{
					"input":9,
					"interpolation":"LINEAR",
					"output":44
				},
				{
					"input":9,
					"interpolation":"LINEAR",
					"output":45
				},
				{
					"input":7,
					"interpolation":"LINEAR",
					"output":46
				},
				{
					"input":9,
					"interpolation":"LINEAR",
					"output":47
				},
				{
					"input":9,
					"interpolation":"LINEAR",
					"output":48
				},
				{
					"input":7,
					"interpolation":"LINEAR",
					"output":49
				},
				{
					"input":9,
					"interpolation":"LINEAR",
					"output":50
				},
				{
					"input":9,
					"interpolation":"LINEAR",
					"output":51
				},
				{
					"input":7,
					"interpolation":"LINEAR",
					"output":52
				},
				{
					"input":9,
					"interpolation":"STEP",
					"output":53
				},
				{
					"input":9,
					"interpolation":"LINEAR",
					"output":54
				},
				{
					"input":7,
					"interpolation":"LINEAR",
					"output":55
				},
				{
					"input":9,
					"interpolation":"LINEAR",
					"output":56
				},
				{
					"input":7,
					"interpolation":"LINEAR",
					"output":57
				},
				{
					"input":7,
					"interpolation":"LINEAR",
					"output":58
				},
				{
					"input":9,
					"interpolation":"LINEAR",
					"output":59
				},
				{
					"input":9,
					"interpolation":"LINEAR",
					"output":60
				},
				{
					"input":7,
					"interpolation":"LINEAR",
					"output":61
				},
				{
					"input":9,
					"interpolation":"LINEAR",
					"output":62
				},
				{
					"input":9,
					"interpolation":"LINEAR",
					"output":63
				},
				{
					"input":7,
					"interpolation":"LINEAR",
					"output":64
				},
				{
					"input":9,
					"interpolation":"LINEAR",
					"output":65
				},
				{
					"input":9,
					"interpolation":"LINEAR",
					"output":66
				},
				{
					"input":7,
					"interpolation":"LINEAR",
					"output":67
				},
				{
					"input":9,
					"interpolation":"LINEAR",
					"output":68
				},
				{
					"input":9,
					"interpolation":"LINEAR",
					"output":69
				},
				{
					"input":7,
					"interpolation":"LINEAR",
					"output":70
				},
				{
					"input":9,
					"interpolation":"LINEAR",
					"output":71
				},
				{
					"input":9,
					"interpolation":"LINEAR",
					"output":72
				},
				{
					"input":7,
					"interpolation":"LINEAR",
					"output":73
				},
				{
					"input":9,
					"interpolation":"LINEAR",
					"output":74
				},
				{
					"input":9,
					"interpolation":"LINEAR",
					"output":75
				},
				{
					"input":7,
					"interpolation":"LINEAR",
					"output":76
				},
				{
					"input":9,
					"interpolation":"LINEAR",
					"output":77
				},
				{
					"input":9,
					"interpolation":"LINEAR",
					"output":78
				},
				{
					"input":7,
					"interpolation":"LINEAR",
					"output":79
				},
				{
					"input":9,
					"interpolation":"STEP",
					"output":80
				},
				{
					"input":9,
					"interpolation":"LINEAR",
					"output":81
				},
				{
					"input":7,
					"interpolation":"LINEAR",
					"output":82
				},
				{
					"input":9,
					"interpolation":"LINEAR",
					"output":83
				},
				{
					"input":9,
					"interpolation":"LINEAR",
					"output":84
				},
				{
					"input":7,
					"interpolation":"LINEAR",
					"output":85
				},
				{
					"input":9,
					"interpolation":"LINEAR",
					"output":86
				},
				{
					"input":9,
					"interpolation":"LINEAR",
					"output":87
				},
				{
					"input":7,
					"interpolation":"LINEAR",
					"output":88
				},
				{
					"input":9,
					"interpolation":"LINEAR",
					"output":89
				},
				{
					"input":9,
					"interpolation":"LINEAR",
					"output":90
				},
				{
					"input":7,
					"interpolation":"LINEAR",
					"output":91
				},
				{
					"input":9,
					"interpolation":"LINEAR",
					"output":92
				},
				{
					"input":9,
					"interpolation":"LINEAR",
					"output":93
				},
				{
					"input":7,
					"interpolation":"LINEAR",
					"output":94
				},
				{
					"input":9,
					"interpolation":"LINEAR",
					"output":95
				},
				{
					"input":9,
					"interpolation":"LINEAR",
					"output":96
				},
				{
					"input":7,
					"interpolation":"LINEAR",
					"output":97
				},
				{
					"input":9,
					"interpolation":"LINEAR",
					"output":98
				},
				{
					"input":9,
					"interpolation":"LINEAR",
					"output":99
				},
				{
					"input":7,
					"interpolation":"LINEAR",
					"output":100
				},
				{
					"input":9,
					"interpolation":"LINEAR",
					"output":101
				},
				{
					"input":9,
					"interpolation":"LINEAR",
					"output":102
				},
				{
					"input":7,
					"interpolation":"LINEAR",
					"output":103
				},
				{
					"input":9,
					"interpolation":"LINEAR",
					"output":104
				},
				{
					"input":9,
					"interpolation":"LINEAR",
					"output":105
				},
				{
					"input":7,
					"interpolation":"LINEAR",
					"output":106
				},
				{
					"input":9,
					"interpolation":"LINEAR",
					"output":107
				},
				{
					"input":9,
					"interpolation":"LINEAR",
					"output":108
				},
				{
					"input":7,
					"interpolation":"LINEAR",
					"output":109
				},
				{
					"input":9,
					"interpolation":"LINEAR",
					"output":110
				},
				{
					"input":9,
					"interpolation":"LINEAR",
					"output":111
				},
				{
					"input":7,
					"interpolation":"LINEAR",
					"output":112
				},
				{
					"input":9,
					"interpolation":"LINEAR",
					"output":113
				},
				{
					"input":9,
					"interpolation":"LINEAR",
					"output":114
				},
				{
					"input":7,
					"interpolation":"LINEAR",
					"output":115
				},
				{
					"input":9,
					"interpolation":"LINEAR",
					"output":116
				},
				{
					"input":9,
					"interpolation":"STEP",
					"output":117
				},
				{
					"input":9,
					"interpolation":"STEP",
					"output":118
				},
				{
					"input":9,
					"interpolation":"STEP",
					"output":119
				}
			]
		}
	],
	"materials":[
		{
			"doubleSided":true,
			"name":"Leopard_Tris_Material",
			"pbrMetallicRoughness":{
				"baseColorTexture":{
					"index":0
				},
				"metallicFactor":0,
				"roughnessFactor":0.5
			}
		}
	],
	"meshes":[
		{
			"name":"uploads_files_5014699_Leopard_Low_Poly",
			"primitives":[
				{
					"attributes":{
						"POSITION":0,
						"NORMAL":1,
						"TEXCOORD_0":2,
						"JOINTS_0":3,
						"WEIGHTS_0":4
					},
					"indices":5,
					"material":0
				}
			]
		}
	],
	"textures":[
		{
			"sampler":0,
			"source":0
		}
	],
	"images":[
		{
			"bufferView":6,
			"mimeType":"image/png",
			"name":"Leopard_Tris_Diffuse"
		}
	],
	"skins":[
		{
			"inverseBindMatrices":6,
			"joints":[
				35,
				14,
				13,
				4,
				3,
				2,
				1,
				0,
				7,
				6,
				5,
				12,
				11,
				10,
				9,
				8,
				34,
				23,
				22,
				21,
				20,
				19,
				18,
				17,
				16,
				15,
				28,
				27,
				26,
				25,
				24,
				33,
				32,
				31,
				30,
				29
			],
			"name":"rig"
		}
	],
	"accessors":[
		{
			"bufferView":0,
			"componentType":5126,
			"count":2401,
			"max":[
				10.586514472961426,
				25.76962661743164,
				41.5192985534668
			],
			"min":[
				-10.586514472961426,
				-25.76962661743164,
				-41.519290924072266
			],
			"type":"VEC3"
		},
		{
			"bufferView":1,
			"componentType":5126,
			"count":2401,
			"type":"VEC3"
		},
		{
			"bufferView":2,
			"componentType":5126,
			"count":2401,
			"type":"VEC2"
		},
		{
			"bufferView":3,
			"componentType":5121,
			"count":2401,
			"type":"VEC4"
		},
		{
			"bufferView":4,
			"componentType":5126,
			"count":2401,
			"type":"VEC4"
		},
		{
			"bufferView":5,
			"componentType":5123,
			"count":8718,
			"type":"SCALAR"
		},
		{
			"bufferView":7,
			"componentType":5126,
			"count":36,
			"type":"MAT4"
		},
		{
			"bufferView":8,
			"componentType":5126,
			"count":8,
			"max":[
				0.26666666666666666
			],
			"min":[
				0.03333333333333333
			],
			"type":"SCALAR"
		},
		{
			"bufferView":9,
			"componentType":5126,
			"count":8,
			"type":"VEC3"
		},
		{
			"bufferView":10,
			"componentType":5126,
			"count":2,
			"max":[
				0.26666666666666666
			],
			"min":[
				0.03333333333333333
			],
			"type":"SCALAR"
		},
		{
			"bufferView":11,
			"componentType":5126,
			"count":2,
			"type":"VEC4"
		},
		{
			"bufferView":12,
			"componentType":5126,
			"count":2,
			"type":"VEC3"
		},
		{
			"bufferView":13,
			"componentType":5126,
			"count":2,
			"type":"VEC3"
		},
		{
			"bufferView":14,
			"componentType":5126,
			"count":8,
			"type":"VEC4"
		},
		{
			"bufferView":15,
			"componentType":5126,
			"count":2,
			"type":"VEC3"
		},
		{
			"bufferView":16,
			"componentType":5126,
			"count":2,
			"type":"VEC3"
		},
		{
			"bufferView":17,
			"componentType":5126,
			"count":8,
			"type":"VEC4"
		},
		{
			"bufferView":18,
			"componentType":5126,
			"count":2,
			"type":"VEC3"
		},
		{
			"bufferView":19,
			"componentType":5126,
			"count":2,
			"type":"VEC3"
		},
		{
			"bufferView":20,
			"componentType":5126,
			"count":8,
			"type":"VEC4"
		},
		{
			"bufferView":21,
			"componentType":5126,
			"count":2,
			"type":"VEC3"
		},
		{
			"bufferView":22,
			"componentType":5126,
			"count":2,
			"type":"VEC3"
		},
		{
			"bufferView":23,
			"componentType":5126,
			"count":8,
			"type":"VEC4"
		},
		{
			"bufferView":24,
			"componentType":5126,
			"count":2,
			"type":"VEC3"
		},
		{
			"bufferView":25,
			"componentType":5126,
			"count":2,
			"type":"VEC3"
		},
		{
			"bufferView":26,
			"componentType":5126,
			"count":8,
			"type":"VEC4"
		},
		{
			"bufferView":27,
			"componentType":5126,
			"count":2,
			"type":"VEC3"
		},
		{
			"bufferView":28,
			"componentType":5126,
			"count":2,
			"type":"VEC3"
		},
		{
			"bufferView":29,
			"componentType":5126,
			"count":8,
			"type":"VEC4"
		},
		{
			"bufferView":30,
			"componentType":5126,
			"count":2,
			"type":"VEC3"
		},
		{
			"bufferView":31,
			"componentType":5126,
			"count":2,
			"type":"VEC3"
		},
		{
			"bufferView":32,
			"componentType":5126,
			"count":8,
			"type":"VEC4"
		},
		{
			"bufferView":33,
			"componentType":5126,
			"count":2,
			"type":"VEC3"
		},
		{
			"bufferView":34,
			"componentType":5126,
			"count":2,
			"type":"VEC3"
		},
		{
			"bufferView":35,
			"componentType":5126,
			"count":8,
			"type":"VEC4"
		},
		{
			"bufferView":36,
			"componentType":5126,
			"count":2,
			"type":"VEC3"
		},
		{
			"bufferView":37,
			"componentType":5126,
			"count":2,
			"type":"VEC3"
		},
		{
			"bufferView":38,
			"componentType":5126,
			"count":8,
			"type":"VEC4"
		},
		{
			"bufferView":39,
			"componentType":5126,
			"count":2,
			"type":"VEC3"
		},
		{
			"bufferView":40,
			"componentType":5126,
			"count":2,
			"type":"VEC3"
		},
		{
			"bufferView":41,
			"componentType":5126,
			"count":8,
			"type":"VEC4"
		},
		{
			"bufferView":42,
			"componentType":5126,
			"count":2,
			"type":"VEC3"
		},
		{
			"bufferView":43,
			"componentType":5126,
			"count":2,
			"type":"VEC3"
		},
		{
			"bufferView":44,
			"componentType":5126,
			"count":8,
			"type":"VEC4"
		},
		{
			"bufferView":45,
			"componentType":5126,
			"count":2,
			"type":"VEC3"
		},
		{
			"bufferView":46,
			"componentType":5126,
			"count":2,
			"type":"VEC3"
		},
		{
			"bufferView":47,
			"componentType":5126,
			"count":8,
			"type":"VEC4"
		},
		{
			"bufferView":48,
			"componentType":5126,
			"count":2,
			"type":"VEC3"
		},
		{
			"bufferView":49,
			"componentType":5126,
			"count":2,
			"type":"VEC3"
		},
		{
			"bufferView":50,
			"componentType":5126,
			"count":8,
			"type":"VEC4"
		},
		{
			"bufferView":51,
			"componentType":5126,
			"count":2,
			"type":"VEC3"
		},
		{
			"bufferView":52,
			"componentType":5126,
			"count":2,
			"type":"VEC3"
		},
		{
			"bufferView":53,
			"componentType":5126,
			"count":8,
			"type":"VEC4"
		},
		{
			"bufferView":54,
			"componentType":5126,
			"count":2,
			"type":"VEC3"
		},
		{
			"bufferView":55,
			"componentType":5126,
			"count":2,
			"type":"VEC3"
		},
		{
			"bufferView":56,
			"componentType":5126,
			"count":8,
			"type":"VEC4"
		},
		{
			"bufferView":57,
			"componentType":5126,
			"count":2,
			"type":"VEC3"
		},
		{
			"bufferView":58,
			"componentType":5126,
			"count":8,
			"type":"VEC3"
		},
		{
			"bufferView":59,
			"componentType":5126,
			"count":8,
			"type":"VEC4"
		},
		{
			"bufferView":60,
			"componentType":5126,
			"count":2,
			"type":"VEC3"
		},
		{
			"bufferView":61,
			"componentType":5126,
			"count":2,
			"type":"VEC3"
		},
		{
			"bufferView":62,
			"componentType":5126,
			"count":8,
			"type":"VEC4"
		},
		{
			"bufferView":63,
			"componentType":5126,
			"count":2,
			"type":"VEC3"
		},
		{
			"bufferView":64,
			"componentType":5126,
			"count":2,
			"type":"VEC3"
		},
		{
			"bufferView":65,
			"componentType":5126,
			"count":8,
			"type":"VEC4"
		},
		{
			"bufferView":66,
			"componentType":5126,
			"count":2,
			"type":"VEC3"
		},
		{
			"bufferView":67,
			"componentType":5126,
			"count":2,
			"type":"VEC3"
		},
		{
			"bufferView":68,
			"componentType":5126,
			"count":8,
			"type":"VEC4"
		},
		{
			"bufferView":69,
			"componentType":5126,
			"count":2,
			"type":"VEC3"
		},
		{
			"bufferView":70,
			"componentType":5126,
			"count":2,
			"type":"VEC3"
		},
		{
			"bufferView":71,
			"componentType":5126,
			"count":8,
			"type":"VEC4"
		},
		{
			"bufferView":72,
			"componentType":5126,
			"count":2,
			"type":"VEC3"
		},
		{
			"bufferView":73,
			"componentType":5126,
			"count":2,
			"type":"VEC3"
		},
		{
			"bufferView":74,
			"componentType":5126,
			"count":8,
			"type":"VEC4"
		},
		{
			"bufferView":75,
			"componentType":5126,
			"count":2,
			"type":"VEC3"
		},
		{
			"bufferView":76,
			"componentType":5126,
			"count":2,
			"type":"VEC3"
		},
		{
			"bufferView":77,
			"componentType":5126,
			"count":8,
			"type":"VEC4"
		},
		{
			"bufferView":78,
			"componentType":5126,
			"count":2,
			"type":"VEC3"
		},
		{
			"bufferView":79,
			"componentType":5126,
			"count":2,
			"type":"VEC3"
		},
		{
			"bufferView":80,
			"componentType":5126,
			"count":8,
			"type":"VEC4"
		},
		{
			"bufferView":81,
			"componentType":5126,
			"count":2,
			"type":"VEC3"
		},
		{
			"bufferView":82,
			"componentType":5126,
			"count":2,
			"type":"VEC3"
		},
		{
			"bufferView":83,
			"componentType":5126,
			"count":8,
			"type":"VEC4"
		},
		{
			"bufferView":84,
			"componentType":5126,
			"count":2,
			"type":"VEC3"
		},
		{
			"bufferView":85,
			"componentType":5126,
			"count":2,
			"type":"VEC3"
		},
		{
			"bufferView":86,
			"componentType":5126,
			"count":8,
			"type":"VEC4"
		},
		{
			"bufferView":87,
			"componentType":5126,
			"count":2,
			"type":"VEC3"
		},
		{
			"bufferView":88,
			"componentType":5126,
			"count":2,
			"type":"VEC3"
		},
		{
			"bufferView":89,
			"componentType":5126,
			"count":8,
			"type":"VEC4"
		},
		{
			"bufferView":90,
			"componentType":5126,
			"count":2,
			"type":"VEC3"
		},
		{
			"bufferView":91,
			"componentType":5126,
			"count":2,
			"type":"VEC3"
		},
		{
			"bufferView":92,
			"componentType":5126,
			"count":8,
			"type":"VEC4"
		},
		{
			"bufferView":93,
			"componentType":5126,
			"count":2,
			"type":"VEC3"
		},
		{
			"bufferView":94,
			"componentType":5126,
			"count":2,
			"type":"VEC3"
		},
		{
			"bufferView":95,
			"componentType":5126,
			"count":8,
			"type":"VEC4"
		},
		{
			"bufferView":96,
			"componentType":5126,
			"count":2,
			"type":"VEC3"
		},
		{
			"bufferView":97,
			"componentType":5126,
			"count":2,
			"type":"VEC3"
		},
		{
			"bufferView":98,
			"componentType":5126,
			"count":8,
			"type":"VEC4"
		},
		{
			"bufferView":99,
			"componentType":5126,
			"count":2,
			"type":"VEC3"
		},
		{
			"bufferView":100,
			"componentType":5126,
			"count":2,
			"type":"VEC3"
		},
		{
			"bufferView":101,
			"componentType":5126,
			"count":8,
			"type":"VEC4"
		},
		{
			"bufferView":102,
			"componentType":5126,
			"count":2,
			"type":"VEC3"
		},
		{
			"bufferView":103,
			"componentType":5126,
			"count":2,
			"type":"VEC3"
		},
		{
			"bufferView":104,
			"componentType":5126,
			"count":8,
			"type":"VEC4"
		},
		{
			"bufferView":105,
			"componentType":5126,
			"count":2,
			"type":"VEC3"
		},
		{
			"bufferView":106,
			"componentType":5126,
			"count":2,
			"type":"VEC3"
		},
		{
			"bufferView":107,
			"componentType":5126,
			"count":8,
			"type":"VEC4"
		},
		{
			"bufferView":108,
			"componentType":5126,
			"count":2,
			"type":"VEC3"
		},
		{
			"bufferView":109,
			"componentType":5126,
			"count":2,
			"type":"VEC3"
		},
		{
			"bufferView":110,
			"componentType":5126,
			"count":8,
			"type":"VEC4"
		},
		{
			"bufferView":111,
			"componentType":5126,
			"count":2,
			"type":"VEC3"
		},
		{
			"bufferView":112,
			"componentType":5126,
			"count":2,
			"type":"VEC3"
		},
		{
			"bufferView":113,
			"componentType":5126,
			"count":8,
			"type":"VEC4"
		},
		{
			"bufferView":114,
			"componentType":5126,
			"count":2,
			"type":"VEC3"
		},
		{
			"bufferView":115,
			"componentType":5126,
			"count":2,
			"type":"VEC3"
		},
		{
			"bufferView":116,
			"componentType":5126,
			"count":8,
			"type":"VEC4"
		},
		{
			"bufferView":117,
			"componentType":5126,
			"count":2,
			"type":"VEC3"
		},
		{
			"bufferView":118,
			"componentType":5126,
			"count":2,
			"type":"VEC3"
		},
		{
			"bufferView":119,
			"componentType":5126,
			"count":2,
			"type":"VEC4"
		},
		{
			"bufferView":120,
			"componentType":5126,
			"count":2,
			"type":"VEC3"
		}
	],
	"bufferViews":[
		{
			"buffer":0,
			"byteLength":28812,
			"byteOffset":0,
			"target":34962
		},
		{
			"buffer":0,
			"byteLength":28812,
			"byteOffset":28812,
			"target":34962
		},
		{
			"buffer":0,
			"byteLength":19208,
			"byteOffset":57624,
			"target":34962
		},
		{
			"buffer":0,
			"byteLength":9604,
			"byteOffset":76832,
			"target":34962
		},
		{
			"buffer":0,
			"byteLength":38416,
			"byteOffset":86436,
			"target":34962
		},
		{
			"buffer":0,
			"byteLength":17436,
			"byteOffset":124852,
			"target":34963
		},
		{
			"buffer":0,
			"byteLength":207974,
			"byteOffset":142288
		},
		{
			"buffer":0,
			"byteLength":2304,
			"byteOffset":350264
		},
		{
			"buffer":0,
			"byteLength":32,
			"byteOffset":352568
		},
		{
			"buffer":0,
			"byteLength":96,
			"byteOffset":352600
		},
		{
			"buffer":0,
			"byteLength":8,
			"byteOffset":352696
		},
		{
			"buffer":0,
			"byteLength":32,
			"byteOffset":352704
		},
		{
			"buffer":0,
			"byteLength":24,
			"byteOffset":352736
		},
		{
			"buffer":0,
			"byteLength":24,
			"byteOffset":352760
		},
		{
			"buffer":0,
			"byteLength":128,
			"byteOffset":352784
		},
		{
			"buffer":0,
			"byteLength":24,
			"byteOffset":352912
		},
		{
			"buffer":0,
			"byteLength":24,
			"byteOffset":352936
		},
		{
			"buffer":0,
			"byteLength":128,
			"byteOffset":352960
		},
		{
			"buffer":0,
			"byteLength":24,
			"byteOffset":353088
		},
		{
			"buffer":0,
			"byteLength":24,
			"byteOffset":353112
		},
		{
			"buffer":0,
			"byteLength":128,
			"byteOffset":353136
		},
		{
			"buffer":0,
			"byteLength":24,
			"byteOffset":353264
		},
		{
			"buffer":0,
			"byteLength":24,
			"byteOffset":353288
		},
		{
			"buffer":0,
			"byteLength":128,
			"byteOffset":353312
		},
		{
			"buffer":0,
			"byteLength":24,
			"byteOffset":353440
		},
		{
			"buffer":0,
			"byteLength":24,
			"byteOffset":353464
		},
		{
			"buffer":0,
			"byteLength":128,
			"byteOffset":353488
		},
		{
			"buffer":0,
			"byteLength":24,
			"byteOffset":353616
		},
		{
			"buffer":0,
			"byteLength":24,
			"byteOffset":353640
		},
		{
			"buffer":0,
			"byteLength":128,
			"byteOffset":353664
		},
		{
			"buffer":0,
			"byteLength":24,
			"byteOffset":353792
		},
		{
			"buffer":0,
			"byteLength":24,
			"byteOffset":353816
		},
		{
			"buffer":0,
			"byteLength":128,
			"byteOffset":353840
		},
		{
			"buffer":0,
			"byteLength":24,
			"byteOffset":353968
		},
		{
			"buffer":0,
			"byteLength":24,
			"byteOffset":353992
		},
		{
			"buffer":0,
			"byteLength":128,
			"byteOffset":354016
		},
		{
			"buffer":0,
			"byteLength":24,
			"byteOffset":354144
		},
		{
			"buffer":0,
			"byteLength":24,
			"byteOffset":354168
		},
		{
			"buffer":0,
			"byteLength":128,
			"byteOffset":354192
		},
		{
			"buffer":0,
			"byteLength":24,
			"byteOffset":354320
		},
		{
			"buffer":0,
			"byteLength":24,
			"byteOffset":354344
		},
		{
			"buffer":0,
			"byteLength":128,
			"byteOffset":354368
		},
		{
			"buffer":0,
			"byteLength":24,
			"byteOffset":354496
		},
		{
			"buffer":0,
			"byteLength":24,
			"byteOffset":354520
		},
		{
			"buffer":0,
			"byteLength":128,
			"byteOffset":354544
		},
		{
			"buffer":0,
			"byteLength":24,
			"byteOffset":354672
		},
		{
			"buffer":0,
			"byteLength":24,
			"byteOffset":354696
		},
		{
			"buffer":0,
			"byteLength":128,
			"byteOffset":354720
		},
		{
			"buffer":0,
			"byteLength":24,
			"byteOffset":354848
		},
		{
			"buffer":0,
			"byteLength":24,
			"byteOffset":354872
		},
		{
			"buffer":0,
			"byteLength":128,
			"byteOffset":354896
		},
		{
			"buffer":0,
			"byteLength":24,
			"byteOffset":355024
		},
		{
			"buffer":0,
			"byteLength":24,
			"byteOffset":355048
		},
		{
			"buffer":0,
			"byteLength":128,
			"byteOffset":355072
		},
		{
			"buffer":0,
			"byteLength":24,
			"byteOffset":355200
		},
		{
			"buffer":0,
			"byteLength":24,
			"byteOffset":355224
		},
		{
			"buffer":0,
			"byteLength":128,
			"byteOffset":355248
		},
		{
			"buffer":0,
			"byteLength":24,
			"byteOffset":355376
		},
		{
			"buffer":0,
			"byteLength":96,
			"byteOffset":355400
		},
		{
			"buffer":0,
			"byteLength":128,
			"byteOffset":355496
		},
		{
			"buffer":0,
			"byteLength":24,
			"byteOffset":355624
		},
		{
			"buffer":0,
			"byteLength":24,
			"byteOffset":355648
		},
		{
			"buffer":0,
			"byteLength":128,
			"byteOffset":355672
		},
		{
			"buffer":0,
			"byteLength":24,
			"byteOffset":355800
		},
		{
			"buffer":0,
			"byteLength":24,
			"byteOffset":355824
		},
		{
			"buffer":0,
			"byteLength":128,
			"byteOffset":355848
		},
		{
			"buffer":0,
			"byteLength":24,
			"byteOffset":355976
		},
		{
			"buffer":0,
			"byteLength":24,
			"byteOffset":356000
		},
		{
			"buffer":0,
			"byteLength":128,
			"byteOffset":356024
		},
		{
			"buffer":0,
			"byteLength":24,
			"byteOffset":356152
		},
		{
			"buffer":0,
			"byteLength":24,
			"byteOffset":356176
		},
		{
			"buffer":0,
			"byteLength":128,
			"byteOffset":356200
		},
		{
			"buffer":0,
			"byteLength":24,
			"byteOffset":356328
		},
		{
			"buffer":0,
			"byteLength":24,
			"byteOffset":356352
		},
		{
			"buffer":0,
			"byteLength":128,
			"byteOffset":356376
		},
		{
			"buffer":0,
			"byteLength":24,
			"byteOffset":356504
		},
		{
			"buffer":0,
			"byteLength":24,
			"byteOffset":356528
		},
		{
			"buffer":0,
			"byteLength":128,
			"byteOffset":356552
		},
		{
			"buffer":0,
			"byteLength":24,
			"byteOffset":356680
		},
		{
			"buffer":0,
			"byteLength":24,
			"byteOffset":356704
		},
		{
			"buffer":0,
			"byteLength":128,
			"byteOffset":356728
		},
		{
			"buffer":0,
			"byteLength":24,
			"byteOffset":356856
		},
		{
			"buffer":0,
			"byteLength":24,
			"byteOffset":356880
		},
		{
			"buffer":0,
			"byteLength":128,
			"byteOffset":356904
		},
		{
			"buffer":0,
			"byteLength":24,
			"byteOffset":357032
		},
		{
			"buffer":0,
			"byteLength":24,
			"byteOffset":357056
		},
		{
			"buffer":0,
			"byteLength":128,
			"byteOffset":357080
		},
		{
			"buffer":0,
			"byteLength":24,
			"byteOffset":357208
		},
		{
			"buffer":0,
			"byteLength":24,
			"byteOffset":357232
		},
		{
			"buffer":0,
			"byteLength":128,
			"byteOffset":357256
		},
		{
			"buffer":0,
			"byteLength":24,
			"byteOffset":357384
		},
		{
			"buffer":0,
			"byteLength":24,
			"byteOffset":357408
		},
		{
			"buffer":0,
			"byteLength":128,
			"byteOffset":357432
		},
		{
			"buffer":0,
			"byteLength":24,
			"byteOffset":357560
		},
		{
			"buffer":0,
			"byteLength":24,
			"byteOffset":357584
		},
		{
			"buffer":0,
			"byteLength":128,
			"byteOffset":357608
		},
		{
			"buffer":0,
			"byteLength":24,
			"byteOffset":357736
		},
		{
			"buffer":0,
			"byteLength":24,
			"byteOffset":357760
		},
		{
			"buffer":0,
			"byteLength":128,
			"byteOffset":357784
		},
		{
			"buffer":0,
			"byteLength":24,
			"byteOffset":357912
		},
		{
			"buffer":0,
			"byteLength":24,
			"byteOffset":357936
		},
		{
			"buffer":0,
			"byteLength":128,
			"byteOffset":357960
		},
		{
			"buffer":0,
			"byteLength":24,
			"byteOffset":358088
		},
		{
			"buffer":0,
			"byteLength":24,
			"byteOffset":358112
		},
		{
			"buffer":0,
			"byteLength":128,
			"byteOffset":358136
		},
		{
			"buffer":0,
			"byteLength":24,
			"byteOffset":358264
		},
		{
			"buffer":0,
			"byteLength":24,
			"byteOffset":358288
		},
		{
			"buffer":0,
			"byteLength":128,
			"byteOffset":358312
		},
		{
			"buffer":0,
			"byteLength":24,
			"byteOffset":358440
		},
		{
			"buffer":0,
			"byteLength":24,
			"byteOffset":358464
		},
		{
			"buffer":0,
			"byteLength":128,
			"byteOffset":358488
		},
		{
			"buffer":0,
			"byteLength":24,
			"byteOffset":358616
		},
		{
			"buffer":0,
			"byteLength":24,
			"byteOffset":358640
		},
		{
			"buffer":0,
			"byteLength":128,
			"byteOffset":358664
		},
		{
			"buffer":0,
			"byteLength":24,
			"byteOffset":358792
		},
		{
			"buffer":0,
			"byteLength":24,
			"byteOffset":358816
		},
		{
			"buffer":0,
			"byteLength":128,
			"byteOffset":358840
		},
		{
			"buffer":0,
			"byteLength":24,
			"byteOffset":358968
		},
		{
			"buffer":0,
			"byteLength":24,
			"byteOffset":358992
		},
		{
			"buffer":0,
			"byteLength":32,
			"byteOffset":359016
		},
		{
			"buffer":0,
			"byteLength":24,
			"byteOffset":359048
		}
	],
	"samplers":[
		{
			"magFilter":9729,
			"minFilter":9987
		}
	],
	"buffers":[
		{
			"byteLength":359072,
			"uri":"data:application/octet-stream;base64,"
		}
	]
}
