{
	"asset":{
		"generator":"Khronos glTF Blender I/O v4.1.62",
		"version":"2.0"
	},
	"scene":0,
	"scenes":[
		{
			"name":"Scene",
			"nodes":[
				35
			]
		}
	],
	"nodes":[
		{
			"name":"leg_front_right_bot2_end",
			"rotation":[
				6.780013816408371e-16,
				-5.865683494477025e-09,
				-9.091820178663834e-13,
				1
			],
			"translation":[
				-2.3530198234311683e-07,
				3.0000016689300537,
				-6.904551241859735e-07
			]
		},
		{
			"children":[
				0
			],
			"name":"leg_front_right_bot2",
			"rotation":[
				0.02678596042096615,
				0.706598699092865,
				0.706599235534668,
				0.02680273912847042
			],
			"scale":[
				0.9999999403953552,
				0.9999996423721313,
				0.9999998807907104
			],
			"translation":[
				-5.80010237172246e-07,
				7.922752380371094,
				-1.6351259546354413e-07
			]
		},
		{
			"children":[
				1
			],
			"name":"leg_front_right_bot1",
			"rotation":[
				-0.01310381107032299,
				-0.3455725908279419,
				-0.05683466047048569,
				0.9365776181221008
			],
			"scale":[
				1.0000001192092896,
				1.000000238418579,
				1.000000238418579
			],
			"translation":[
				-4.76837158203125e-07,
				7.833425998687744,
				-5.960464477539063e-08
			]
		},
		{
			"children":[
				2
			],
			"name":"leg_front_right_bot0",
			"rotation":[
				-0.06765169650316238,
				-0.9314210414886475,
				-0.0658835917711258,
				0.35147902369499207
			],
			"translation":[
				-2.6705356503953226e-07,
				14.208139419555664,
				-2.7810783649329096e-06
			]
		},
		{
			"children":[
				3
			],
			"name":"leg_front_right_top1",
			"rotation":[
				-0.497103750705719,
				0.8490468263626099,
				0.06005542725324631,
				0.1685250848531723
			],
			"scale":[
				1,
				1.0000001192092896,
				1
			],
			"translation":[
				9.5367431640625e-07,
				8.90665054321289,
				-3.5762786865234375e-07
			]
		},
		{
			"children":[
				4
			],
			"name":"leg_front_right_top0",
			"rotation":[
				-0.4694964587688446,
				0.5557479858398438,
				0.6430341005325317,
				0.23921628296375275
			],
			"scale":[
				1.0000001192092896,
				1,
				1.0000001192092896
			],
			"translation":[
				-0.4228159189224243,
				12.107254981994629,
				1.2336058616638184
			]
		},
		{
			"name":"head0_end",
			"rotation":[
				1.2505552149377763e-12,
				-1.1932570487260818e-09,
				-1.6007106751203537e-10,
				1
			],
			"scale":[
				0.9999999403953552,
				1,
				1
			],
			"translation":[
				-5.587935447692871e-09,
				14.95887279510498,
				2.68442090600729e-06
			]
		},
		{
			"children":[
				6
			],
			"name":"head0",
			"rotation":[
				0.16545230150222778,
				3.4674896287612e-10,
				-0.0003244165563955903,
				0.9862177968025208
			],
			"scale":[
				0.9999999403953552,
				1,
				1.0000001192092896
			],
			"translation":[
				0,
				13.058889389038086,
				-9.15475538931787e-07
			]
		},
		{
			"children":[
				7
			],
			"name":"neck0",
			"rotation":[
				0.1835332214832306,
				-0.005144678521901369,
				-0.004489955957978964,
				0.9829897880554199
			],
			"scale":[
				0.9999999403953552,
				1,
				1
			],
			"translation":[
				3.725290298461914e-08,
				12.391812324523926,
				-1.1822558008134365e-06
			]
		},
		{
			"name":"leg_front_left_bot2_end",
			"rotation":[
				-3.178909082635073e-07,
				6.43988471438206e-08,
				7.947143387809774e-08,
				1
			],
			"scale":[
				1,
				0.9999998807907104,
				0.9999999403953552
			],
			"translation":[
				2.800568950078741e-07,
				3.000007152557373,
				4.913507041237608e-07
			]
		},
		{
			"children":[
				9
			],
			"name":"leg_front_left_bot2",
			"rotation":[
				0.0267899502068758,
				-0.7065989375114441,
				-0.7065989971160889,
				0.02679869905114174
			],
			"scale":[
				0.9999999403953552,
				1,
				0.9999998807907104
			],
			"translation":[
				-5.420588422566652e-07,
				7.922754287719727,
				4.926387191517279e-07
			]
		},
		{
			"children":[
				10
			],
			"name":"leg_front_left_bot1",
			"rotation":[
				-0.013104341924190521,
				0.34557926654815674,
				0.0568346232175827,
				0.9365752339363098
			],
			"scale":[
				1,
				1,
				0.9999998807907104
			],
			"translation":[
				-9.5367431640625e-07,
				7.8334269523620605,
				-1.7881393432617188e-06
			]
		},
		{
			"children":[
				11
			],
			"name":"leg_front_left_bot0",
			"rotation":[
				-0.0676521360874176,
				0.9314188957214355,
				0.06588321179151535,
				0.35148462653160095
			],
			"scale":[
				1.0000001192092896,
				1.000000238418579,
				1
			],
			"translation":[
				-7.674316293559968e-09,
				14.208144187927246,
				-2.1659980120602995e-06
			]
		},
		{
			"children":[
				12
			],
			"name":"leg_front_left_top1",
			"rotation":[
				-0.501430332660675,
				-0.847631573677063,
				-0.05995739623904228,
				0.16276797652244568
			],
			"scale":[
				0.9999998211860657,
				0.9999995827674866,
				1
			],
			"translation":[
				2.384185791015625e-07,
				9.072097778320312,
				-1.1920928955078125e-06
			]
		},
		{
			"children":[
				13
			],
			"name":"leg_front_left_top0",
			"rotation":[
				-0.4684467613697052,
				-0.5526910424232483,
				-0.6471326947212219,
				0.23729610443115234
			],
			"scale":[
				1.0000001192092896,
				1,
				1.0000001192092896
			],
			"translation":[
				0.40439873933792114,
				12.102951049804688,
				1.2350575923919678
			]
		},
		{
			"children":[
				5,
				8,
				14
			],
			"name":"body_top1",
			"rotation":[
				-0.009078445844352245,
				0.0035030946601182222,
				0.004003344103693962,
				0.9999446868896484
			],
			"translation":[
				1.0645750947446686e-08,
				12.308850288391113,
				-1.430511474609375e-06
			]
		},
		{
			"children":[
				15
			],
			"name":"body_top0",
			"rotation":[
				-0.1723896712064743,
				0.0022796401754021645,
				0.0026051769964396954,
				0.985022783279419
			],
			"scale":[
				0.9999999403953552,
				1,
				1
			],
			"translation":[
				-1.210710465215925e-08,
				11.961365699768066,
				-2.3839849916384992e-07
			]
		},
		{
			"name":"tail0_end",
			"rotation":[
				-1.5087425708770752e-07,
				7.066410034894943e-08,
				-7.04312625998682e-08,
				1
			],
			"scale":[
				1.0000001192092896,
				1.0000001192092896,
				1
			],
			"translation":[
				1.1920928955078125e-07,
				2.918059825897217,
				9.872019290924072e-07
			]
		},
		{
			"children":[
				17
			],
			"name":"tail0",
			"rotation":[
				1.982553072821247e-07,
				-3.4528784453868866e-07,
				1.1757948215063152e-07,
				1
			],
			"scale":[
				1,
				0.9999998807907104,
				1
			],
			"translation":[
				-3.2782554626464844e-07,
				5.836113929748535,
				-1.1920928955078125e-07
			]
		},
		{
			"children":[
				18
			],
			"name":"pelvis",
			"rotation":[
				-0.03983316943049431,
				0.03751244395971298,
				-0.03781824931502342,
				0.9977855086326599
			],
			"scale":[
				1,
				0.9999999403953552,
				1
			],
			"translation":[
				1.490278123128519e-08,
				10.348702430725098,
				-1.1179075727341115e-06
			]
		},
		{
			"name":"leg_hind_right_bot2_end",
			"rotation":[
				3.1789289778316743e-07,
				6.384019570759847e-07,
				2.3841798224566446e-07,
				1
			],
			"translation":[
				-6.359268809319474e-07,
				3.00000262260437,
				1.6678150132065639e-06
			]
		},
		{
			"children":[
				20
			],
			"name":"leg_hind_right_bot2",
			"rotation":[
				0.08047185093164444,
				0.7025124430656433,
				0.7025132179260254,
				0.08047184348106384
			],
			"translation":[
				-5.599285941570997e-07,
				11.497897148132324,
				-9.676414265413769e-07
			]
		},
		{
			"children":[
				21
			],
			"name":"leg_hind_right_bot1",
			"rotation":[
				8.36178060126258e-08,
				3.7943601682854933e-07,
				0.07516898959875107,
				0.9971708059310913
			],
			"scale":[
				1,
				0.9999999403953552,
				1
			],
			"translation":[
				3.7351492210291326e-07,
				4.513625621795654,
				-2.9349544092838187e-06
			]
		},
		{
			"children":[
				22
			],
			"name":"leg_hind_right_bot0",
			"rotation":[
				-0.03870541229844093,
				-0.9967911243438721,
				-0.07001414149999619,
				0.002715153619647026
			],
			"scale":[
				1.0000001192092896,
				0.9999997019767761,
				0.9999998807907104
			],
			"translation":[
				-9.8204782261746e-07,
				14.307238578796387,
				-7.143862603697926e-07
			]
		},
		{
			"children":[
				23
			],
			"name":"leg_hind_right_top1",
			"rotation":[
				-0.5207455158233643,
				0.8419950008392334,
				0.05914023891091347,
				0.1279490441083908
			],
			"scale":[
				1,
				0.9999995827674866,
				1
			],
			"translation":[
				2.6226043701171875e-06,
				7.854654788970947,
				2.1457672119140625e-06
			]
		},
		{
			"children":[
				24
			],
			"name":"leg_hind_right_top0",
			"rotation":[
				0.24426500499248505,
				-0.5966073274612427,
				0.5994953513145447,
				0.47434136271476746
			],
			"scale":[
				0.9999998211860657,
				0.9999998211860657,
				0.9999998807907104
			],
			"translation":[
				-0.4250214695930481,
				10.42689323425293,
				-1.2417904138565063
			]
		},
		{
			"name":"leg_hind_left_bot2_end",
			"rotation":[
				-5.80510845556853e-14,
				-3.3569585866644047e-07,
				7.947234337279951e-08,
				1
			],
			"translation":[
				4.5370552470558323e-07,
				2.999994993209839,
				1.7538129668537294e-06
			]
		},
		{
			"children":[
				26
			],
			"name":"leg_hind_left_bot2",
			"rotation":[
				0.08047333359718323,
				-0.7025126218795776,
				-0.7025130987167358,
				0.08046991378068924
			],
			"translation":[
				3.9630685932934284e-07,
				11.49791145324707,
				-3.192169970134273e-06
			]
		},
		{
			"children":[
				27
			],
			"name":"leg_hind_left_bot1",
			"rotation":[
				-1.320984779340506e-06,
				1.315195368079003e-05,
				-0.07516905665397644,
				0.9971708059310913
			],
			"scale":[
				1,
				1.0000001192092896,
				1
			],
			"translation":[
				6.068148650228977e-07,
				4.513620376586914,
				-1.3779244909528643e-06
			]
		},
		{
			"children":[
				28
			],
			"name":"leg_hind_left_bot0",
			"rotation":[
				-0.0387042835354805,
				0.9967911839485168,
				0.07001403719186783,
				0.002727631013840437
			],
			"scale":[
				0.9999999403953552,
				0.9999995231628418,
				0.9999999403953552
			],
			"translation":[
				3.400687091925647e-07,
				14.307231903076172,
				1.3322041922947392e-06
			]
		},
		{
			"children":[
				29
			],
			"name":"leg_hind_left_top1",
			"rotation":[
				-0.5207459330558777,
				-0.8419947028160095,
				-0.059140678495168686,
				0.127949520945549
			],
			"scale":[
				0.9999998211860657,
				1,
				1
			],
			"translation":[
				-1.1920928955078125e-06,
				7.854654788970947,
				-2.384185791015625e-06
			]
		},
		{
			"children":[
				30
			],
			"name":"leg_hind_left_top0",
			"rotation":[
				0.24426552653312683,
				0.5954309701919556,
				-0.5958365797996521,
				0.4803905785083771
			],
			"scale":[
				1.0000001192092896,
				1,
				1
			],
			"translation":[
				0.43675294518470764,
				10.431262969970703,
				-1.2374277114868164
			]
		},
		{
			"children":[
				19,
				25,
				31
			],
			"name":"body_bot",
			"rotation":[
				0.9944454431533813,
				0.005233754403889179,
				-0.00020147043687757105,
				0.1051233783364296
			],
			"scale":[
				0.9999999403953552,
				0.9999999403953552,
				0.9999968409538269
			],
			"translation":[
				-0.005584915168583393,
				0.9790725111961365,
				-0.14867852628231049
			]
		},
		{
			"children":[
				16,
				32
			],
			"name":"body",
			"rotation":[
				0.1065090224146843,
				-0.0024478258565068245,
				-0.002447826787829399,
				0.9943057298660278
			],
			"translation":[
				-0.051988210529088974,
				-21.33983612060547,
				-11.800285339355469
			]
		},
		{
			"mesh":0,
			"name":"uploads-files-5014602-Rhino_Quad",
			"skin":0
		},
		{
			"children":[
				34,
				33
			],
			"name":"rig",
			"rotation":[
				0.7071068286895752,
				0,
				0,
				0.7071068286895752
			]
		}
	],
	"materials":[
		{
			"doubleSided":true,
			"name":"Rhino_Quad_Material",
			"pbrMetallicRoughness":{
				"baseColorTexture":{
					"index":0
				},
				"metallicFactor":0,
				"roughnessFactor":0.5
			}
		}
	],
	"meshes":[
		{
			"name":"uploads-files-5014602-Rhino_Quad",
			"primitives":[
				{
					"attributes":{
						"POSITION":0,
						"NORMAL":1,
						"TEXCOORD_0":2,
						"JOINTS_0":3,
						"WEIGHTS_0":4
					},
					"indices":5,
					"material":0
				}
			]
		}
	],
	"textures":[
		{
			"sampler":0,
			"source":0
		}
	],
	"images":[
		{
			"mimeType":"image/png",
			"name":"Textures_Rhino_Quad_Diffuse",
			"uri":"Textures_Rhino_Quad_Diffuse.png"
		}
	],
	"skins":[
		{
			"inverseBindMatrices":6,
			"joints":[
				33,
				16,
				15,
				5,
				4,
				3,
				2,
				1,
				0,
				8,
				7,
				6,
				14,
				13,
				12,
				11,
				10,
				9,
				32,
				19,
				18,
				17,
				25,
				24,
				23,
				22,
				21,
				20,
				31,
				30,
				29,
				28,
				27,
				26
			],
			"name":"rig"
		}
	],
	"accessors":[
		{
			"bufferView":0,
			"componentType":5126,
			"count":13752,
			"max":[
				16.527204513549805,
				24.12021827697754,
				40.559417724609375
			],
			"min":[
				-16.527204513549805,
				-24.120222091674805,
				-40.559417724609375
			],
			"type":"VEC3"
		},
		{
			"bufferView":1,
			"componentType":5126,
			"count":13752,
			"type":"VEC3"
		},
		{
			"bufferView":2,
			"componentType":5126,
			"count":13752,
			"type":"VEC2"
		},
		{
			"bufferView":3,
			"componentType":5121,
			"count":13752,
			"type":"VEC4"
		},
		{
			"bufferView":4,
			"componentType":5126,
			"count":13752,
			"type":"VEC4"
		},
		{
			"bufferView":5,
			"componentType":5123,
			"count":69816,
			"type":"SCALAR"
		},
		{
			"bufferView":6,
			"componentType":5126,
			"count":34,
			"type":"MAT4"
		}
	],
	"bufferViews":[
		{
			"buffer":0,
			"byteLength":165024,
			"byteOffset":0,
			"target":34962
		},
		{
			"buffer":0,
			"byteLength":165024,
			"byteOffset":165024,
			"target":34962
		},
		{
			"buffer":0,
			"byteLength":110016,
			"byteOffset":330048,
			"target":34962
		},
		{
			"buffer":0,
			"byteLength":55008,
			"byteOffset":440064,
			"target":34962
		},
		{
			"buffer":0,
			"byteLength":220032,
			"byteOffset":495072,
			"target":34962
		},
		{
			"buffer":0,
			"byteLength":139632,
			"byteOffset":715104,
			"target":34963
		},
		{
			"buffer":0,
			"byteLength":2176,
			"byteOffset":854736
		}
	],
	"samplers":[
		{
			"magFilter":9729,
			"minFilter":9987
		}
	],
	"buffers":[
		{
			"byteLength":856912,
			"uri":"uploads-files-5014602-Rhino_Quad.bin"
		}
	]
}
