{
	"asset":{
		"generator":"Khronos glTF Blender I/O v4.1.62",
		"version":"2.0"
	},
	"scene":0,
	"scenes":[
		{
			"name":"Scene",
			"nodes":[
				29
			]
		}
	],
	"nodes":[
		{
			"name":"leg_front_left_bot2",
			"rotation":[
				0.007392469793558121,
				-0.7070665955543518,
				-0.707068145275116,
				0.007543354295194149
			],
			"scale":[
				0.9999999403953552,
				1,
				0.9999999403953552
			],
			"translation":[
				-6.598420441150665e-07,
				7.101600170135498,
				2.537541149649769e-06
			]
		},
		{
			"children":[
				0
			],
			"name":"leg_front_left_bot1",
			"rotation":[
				-0.0024658814072608948,
				0.23428428173065186,
				0.09049644321203232,
				0.9679437875747681
			],
			"scale":[
				1.0000001192092896,
				1,
				0.9999999403953552
			],
			"translation":[
				1.1920928955078125e-07,
				8.47187614440918,
				-3.5762786865234375e-07
			]
		},
		{
			"children":[
				1
			],
			"name":"leg_front_left_bot0",
			"rotation":[
				-0.1013048067688942,
				0.9668567180633545,
				-0.0024620508775115013,
				0.2343488186597824
			],
			"scale":[
				0.9999999403953552,
				0.9999997615814209,
				1
			],
			"translation":[
				7.430808182107285e-07,
				9.943197250366211,
				-1.4791730791330338e-06
			]
		},
		{
			"children":[
				2
			],
			"name":"leg_front_left_top1",
			"rotation":[
				0.3506566286087036,
				0.9350451231002808,
				-0.00228667794726789,
				0.05220405384898186
			],
			"scale":[
				0.9999998807907104,
				0.9999998807907104,
				1
			],
			"translation":[
				2.384185791015625e-07,
				11.55180835723877,
				1.9371509552001953e-07
			]
		},
		{
			"children":[
				3
			],
			"name":"leg_front_left_top0",
			"rotation":[
				-0.21155838668346405,
				-0.6649618148803711,
				-0.6618951559066772,
				0.2737949788570404
			],
			"scale":[
				0.9999998807907104,
				0.9999998211860657,
				0.9999999403953552
			],
			"translation":[
				0.16289523243904114,
				12.43653392791748,
				7.077691555023193
			]
		},
		{
			"name":"head0",
			"rotation":[
				0.004427730571478605,
				-0.028805458918213844,
				-0.009843832813203335,
				0.9995267987251282
			],
			"scale":[
				0.9999999403953552,
				1,
				0.9999999403953552
			],
			"translation":[
				-2.2351741790771484e-08,
				12.441537857055664,
				1.169741153717041e-06
			]
		},
		{
			"children":[
				5
			],
			"name":"neck0",
			"rotation":[
				0.43353384733200073,
				0.0023363789077848196,
				0.009290109388530254,
				0.9010863900184631
			],
			"scale":[
				0.9999999403953552,
				1,
				1
			],
			"translation":[
				-1.4901161193847656e-07,
				15.538344383239746,
				1.1450611054897308e-06
			]
		},
		{
			"name":"leg_front_right_bot2",
			"rotation":[
				0.007240270730108023,
				0.7070651054382324,
				0.7070695161819458,
				0.007695917505770922
			],
			"scale":[
				0.9999999403953552,
				0.9999997615814209,
				0.9999999403953552
			],
			"translation":[
				1.210719347000122e-08,
				7.10159969329834,
				1.6676494851708412e-07
			]
		},
		{
			"children":[
				7
			],
			"name":"leg_front_right_bot1",
			"rotation":[
				-0.00244624400511384,
				-0.23407280445098877,
				-0.0904964953660965,
				0.9679949879646301
			],
			"scale":[
				1,
				1,
				1.0000001192092896
			],
			"translation":[
				-2.384185791015625e-07,
				8.471887588500977,
				4.76837158203125e-07
			]
		},
		{
			"children":[
				8
			],
			"name":"leg_front_right_bot0",
			"rotation":[
				-0.10130446404218674,
				-0.9668588042259216,
				0.002461201511323452,
				0.23434028029441833
			],
			"scale":[
				0.9999998807907104,
				0.9999995231628418,
				0.9999999403953552
			],
			"translation":[
				-2.2021777112968266e-07,
				9.943188667297363,
				-2.1615996956825256e-06
			]
		},
		{
			"children":[
				9
			],
			"name":"leg_front_right_top1",
			"rotation":[
				0.3417246639728546,
				-0.9382144212722778,
				0.0022984205279499292,
				0.05452246218919754
			],
			"scale":[
				1,
				0.9999996423721313,
				0.9999998807907104
			],
			"translation":[
				3.5762786865234375e-07,
				11.357325553894043,
				-1.1175870895385742e-06
			]
		},
		{
			"children":[
				10
			],
			"name":"leg_front_right_top0",
			"rotation":[
				-0.20359614491462708,
				0.6659688353538513,
				0.6562116146087646,
				0.2905520498752594
			],
			"scale":[
				0.9999999403953552,
				0.9999995827674866,
				0.9999998807907104
			],
			"translation":[
				-0.48525944352149963,
				12.447332382202148,
				7.0733442306518555
			]
		},
		{
			"children":[
				4,
				6,
				11
			],
			"name":"body_top1",
			"rotation":[
				-0.02971106953918934,
				0.011563695035874844,
				0.010973048396408558,
				0.9994314312934875
			],
			"scale":[
				0.9999998807907104,
				0.9999999403953552,
				0.9999999403953552
			],
			"translation":[
				-1.862645149230957e-08,
				16.252248764038086,
				-4.958652425557375e-06
			]
		},
		{
			"children":[
				12
			],
			"name":"body_top0",
			"rotation":[
				-0.195534810423851,
				-0.005658041685819626,
				-0.004073343705385923,
				0.9806720018386841
			],
			"scale":[
				0.9999999403953552,
				0.9999999403953552,
				1
			],
			"translation":[
				0.010441498830914497,
				11.11886978149414,
				-7.374526500701904
			]
		},
		{
			"name":"tail0",
			"rotation":[
				0.08338499814271927,
				0.07226981967687607,
				-0.03579350560903549,
				0.9932486414909363
			],
			"scale":[
				1.0000001192092896,
				1,
				0.9999998807907104
			],
			"translation":[
				-2.0116567611694336e-07,
				10.61876392364502,
				-2.078106626868248e-05
			]
		},
		{
			"children":[
				14
			],
			"name":"pelvis",
			"rotation":[
				-0.6473286151885986,
				0.0017043736297637224,
				0.011004354804754257,
				0.7621297240257263
			],
			"scale":[
				0.9999999403953552,
				0.9999998211860657,
				0.9999999403953552
			],
			"translation":[
				-0.299656480550766,
				36.947628021240234,
				4.751908779144287
			]
		},
		{
			"name":"leg_hind_left_bot2",
			"rotation":[
				0.0588160902261734,
				-0.7046568989753723,
				-0.7046560645103455,
				0.058813806623220444
			],
			"translation":[
				9.023278835229576e-07,
				11.762738227844238,
				7.561285428892006e-07
			]
		},
		{
			"children":[
				16
			],
			"name":"leg_hind_left_bot1",
			"rotation":[
				-0.060620613396167755,
				0.7262845635414124,
				0.07685735076665878,
				0.6803888082504272
			],
			"scale":[
				0.9999999403953552,
				0.9999997615814209,
				0.9999999403953552
			],
			"translation":[
				3.5762786865234375e-07,
				6.428035736083984,
				5.960464477539062e-07
			]
		},
		{
			"children":[
				17
			],
			"name":"leg_hind_left_bot0",
			"rotation":[
				-0.057323407381772995,
				0.6911303997039795,
				0.07347125560045242,
				0.7166971564292908
			],
			"scale":[
				0.9999999403953552,
				1.0000001192092896,
				0.9999999403953552
			],
			"translation":[
				1.2218952178955078e-06,
				12.294292449951172,
				2.5033950805664062e-06
			]
		},
		{
			"children":[
				18
			],
			"name":"leg_hind_left_top1",
			"rotation":[
				-0.5512024760246277,
				-0.7866288423538208,
				-0.06370373070240021,
				0.2708001136779785
			],
			"scale":[
				1.0000001192092896,
				0.9999996423721313,
				0.9999999403953552
			],
			"translation":[
				0,
				8.062276840209961,
				-9.5367431640625e-07
			]
		},
		{
			"children":[
				19
			],
			"name":"leg_hind_left_top0",
			"rotation":[
				-0.10718874633312225,
				0.3239689767360687,
				-0.7157499194145203,
				0.6093084216117859
			],
			"scale":[
				0.9999998807907104,
				0.9999999403953552,
				0.9999998807907104
			],
			"translation":[
				-1.9371509552001953e-07,
				32.99131393432617,
				-8.531380444765091e-06
			]
		},
		{
			"name":"leg_hind_right_bot2",
			"rotation":[
				0.05881958827376366,
				0.7046571969985962,
				0.7046557664871216,
				0.05881071090698242
			],
			"translation":[
				-2.425513230264187e-07,
				11.76274299621582,
				-9.620198397897184e-07
			]
		},
		{
			"children":[
				21
			],
			"name":"leg_hind_right_bot1",
			"rotation":[
				-0.06062091886997223,
				-0.7262848615646362,
				-0.07685727626085281,
				0.6803884506225586
			],
			"scale":[
				1,
				0.9999997615814209,
				1
			],
			"translation":[
				-2.2649765014648438e-06,
				6.428046703338623,
				8.344650268554688e-07
			]
		},
		{
			"children":[
				22
			],
			"name":"leg_hind_right_bot0",
			"rotation":[
				-0.0573238767683506,
				-0.6911348104476929,
				-0.07347181439399719,
				0.7166928648948669
			],
			"scale":[
				1.0000001192092896,
				1,
				1
			],
			"translation":[
				2.7567148208618164e-07,
				12.294280052185059,
				-4.798173904418945e-06
			]
		},
		{
			"children":[
				23
			],
			"name":"leg_hind_right_top1",
			"rotation":[
				-0.5543677806854248,
				0.7876806855201721,
				0.06370946764945984,
				0.2611064910888672
			],
			"scale":[
				1,
				1.0000001192092896,
				1
			],
			"translation":[
				2.384185791015625e-06,
				8.224675178527832,
				-1.1920928955078125e-06
			]
		},
		{
			"children":[
				24
			],
			"name":"leg_hind_right_top0",
			"rotation":[
				-0.09702947735786438,
				-0.3180173337459564,
				0.7072197198867798,
				0.6239315867424011
			],
			"scale":[
				0.9999997615814209,
				0.9999999403953552,
				0.9999999403953552
			],
			"translation":[
				-0.8117865324020386,
				33.005531311035156,
				0.01173399668186903
			]
		},
		{
			"children":[
				15,
				20,
				25
			],
			"name":"body_bot",
			"rotation":[
				-0.9914854168891907,
				0.009010410867631435,
				0.0026671355590224266,
				0.129877969622612
			],
			"scale":[
				1,
				1.0000001192092896,
				1.0000016689300537
			],
			"translation":[
				1.028377652168274,
				31.337038040161133,
				17.117536544799805
			]
		},
		{
			"children":[
				13,
				26
			],
			"name":"body",
			"rotation":[
				0.22935199737548828,
				0.0017630037618800998,
				0.0017630039947107434,
				0.9733403921127319
			],
			"scale":[
				0.9999999403953552,
				1,
				1
			],
			"translation":[
				0.04999999329447746,
				-26.7045841217041,
				-17.943222045898438
			]
		},
		{
			"mesh":0,
			"name":"uploads-files-5014602-Rhino_Low_Poly",
			"skin":0
		},
		{
			"children":[
				28,
				27
			],
			"name":"rig",
			"rotation":[
				0.7071068286895752,
				0,
				0,
				0.7071068286895752
			]
		}
	],
	"animations":[
		{
			"channels":[
				{
					"sampler":0,
					"target":{
						"node":27,
						"path":"translation"
					}
				},
				{
					"sampler":1,
					"target":{
						"node":27,
						"path":"rotation"
					}
				},
				{
					"sampler":2,
					"target":{
						"node":27,
						"path":"scale"
					}
				},
				{
					"sampler":3,
					"target":{
						"node":13,
						"path":"translation"
					}
				},
				{
					"sampler":4,
					"target":{
						"node":13,
						"path":"rotation"
					}
				},
				{
					"sampler":5,
					"target":{
						"node":13,
						"path":"scale"
					}
				},
				{
					"sampler":6,
					"target":{
						"node":12,
						"path":"translation"
					}
				},
				{
					"sampler":7,
					"target":{
						"node":12,
						"path":"rotation"
					}
				},
				{
					"sampler":8,
					"target":{
						"node":12,
						"path":"scale"
					}
				},
				{
					"sampler":9,
					"target":{
						"node":4,
						"path":"translation"
					}
				},
				{
					"sampler":10,
					"target":{
						"node":4,
						"path":"rotation"
					}
				},
				{
					"sampler":11,
					"target":{
						"node":4,
						"path":"scale"
					}
				},
				{
					"sampler":12,
					"target":{
						"node":3,
						"path":"translation"
					}
				},
				{
					"sampler":13,
					"target":{
						"node":3,
						"path":"rotation"
					}
				},
				{
					"sampler":14,
					"target":{
						"node":3,
						"path":"scale"
					}
				},
				{
					"sampler":15,
					"target":{
						"node":2,
						"path":"translation"
					}
				},
				{
					"sampler":16,
					"target":{
						"node":2,
						"path":"rotation"
					}
				},
				{
					"sampler":17,
					"target":{
						"node":2,
						"path":"scale"
					}
				},
				{
					"sampler":18,
					"target":{
						"node":1,
						"path":"translation"
					}
				},
				{
					"sampler":19,
					"target":{
						"node":1,
						"path":"rotation"
					}
				},
				{
					"sampler":20,
					"target":{
						"node":1,
						"path":"scale"
					}
				},
				{
					"sampler":21,
					"target":{
						"node":0,
						"path":"translation"
					}
				},
				{
					"sampler":22,
					"target":{
						"node":0,
						"path":"rotation"
					}
				},
				{
					"sampler":23,
					"target":{
						"node":0,
						"path":"scale"
					}
				},
				{
					"sampler":24,
					"target":{
						"node":6,
						"path":"translation"
					}
				},
				{
					"sampler":25,
					"target":{
						"node":6,
						"path":"rotation"
					}
				},
				{
					"sampler":26,
					"target":{
						"node":6,
						"path":"scale"
					}
				},
				{
					"sampler":27,
					"target":{
						"node":5,
						"path":"translation"
					}
				},
				{
					"sampler":28,
					"target":{
						"node":5,
						"path":"rotation"
					}
				},
				{
					"sampler":29,
					"target":{
						"node":5,
						"path":"scale"
					}
				},
				{
					"sampler":30,
					"target":{
						"node":11,
						"path":"translation"
					}
				},
				{
					"sampler":31,
					"target":{
						"node":11,
						"path":"rotation"
					}
				},
				{
					"sampler":32,
					"target":{
						"node":11,
						"path":"scale"
					}
				},
				{
					"sampler":33,
					"target":{
						"node":10,
						"path":"translation"
					}
				},
				{
					"sampler":34,
					"target":{
						"node":10,
						"path":"rotation"
					}
				},
				{
					"sampler":35,
					"target":{
						"node":10,
						"path":"scale"
					}
				},
				{
					"sampler":36,
					"target":{
						"node":9,
						"path":"translation"
					}
				},
				{
					"sampler":37,
					"target":{
						"node":9,
						"path":"rotation"
					}
				},
				{
					"sampler":38,
					"target":{
						"node":9,
						"path":"scale"
					}
				},
				{
					"sampler":39,
					"target":{
						"node":8,
						"path":"translation"
					}
				},
				{
					"sampler":40,
					"target":{
						"node":8,
						"path":"rotation"
					}
				},
				{
					"sampler":41,
					"target":{
						"node":8,
						"path":"scale"
					}
				},
				{
					"sampler":42,
					"target":{
						"node":7,
						"path":"translation"
					}
				},
				{
					"sampler":43,
					"target":{
						"node":7,
						"path":"rotation"
					}
				},
				{
					"sampler":44,
					"target":{
						"node":7,
						"path":"scale"
					}
				},
				{
					"sampler":45,
					"target":{
						"node":26,
						"path":"translation"
					}
				},
				{
					"sampler":46,
					"target":{
						"node":26,
						"path":"rotation"
					}
				},
				{
					"sampler":47,
					"target":{
						"node":26,
						"path":"scale"
					}
				},
				{
					"sampler":48,
					"target":{
						"node":15,
						"path":"translation"
					}
				},
				{
					"sampler":49,
					"target":{
						"node":15,
						"path":"rotation"
					}
				},
				{
					"sampler":50,
					"target":{
						"node":15,
						"path":"scale"
					}
				},
				{
					"sampler":51,
					"target":{
						"node":14,
						"path":"translation"
					}
				},
				{
					"sampler":52,
					"target":{
						"node":14,
						"path":"rotation"
					}
				},
				{
					"sampler":53,
					"target":{
						"node":14,
						"path":"scale"
					}
				},
				{
					"sampler":54,
					"target":{
						"node":20,
						"path":"translation"
					}
				},
				{
					"sampler":55,
					"target":{
						"node":20,
						"path":"rotation"
					}
				},
				{
					"sampler":56,
					"target":{
						"node":20,
						"path":"scale"
					}
				},
				{
					"sampler":57,
					"target":{
						"node":19,
						"path":"translation"
					}
				},
				{
					"sampler":58,
					"target":{
						"node":19,
						"path":"rotation"
					}
				},
				{
					"sampler":59,
					"target":{
						"node":19,
						"path":"scale"
					}
				},
				{
					"sampler":60,
					"target":{
						"node":18,
						"path":"translation"
					}
				},
				{
					"sampler":61,
					"target":{
						"node":18,
						"path":"rotation"
					}
				},
				{
					"sampler":62,
					"target":{
						"node":18,
						"path":"scale"
					}
				},
				{
					"sampler":63,
					"target":{
						"node":17,
						"path":"translation"
					}
				},
				{
					"sampler":64,
					"target":{
						"node":17,
						"path":"rotation"
					}
				},
				{
					"sampler":65,
					"target":{
						"node":17,
						"path":"scale"
					}
				},
				{
					"sampler":66,
					"target":{
						"node":16,
						"path":"translation"
					}
				},
				{
					"sampler":67,
					"target":{
						"node":16,
						"path":"rotation"
					}
				},
				{
					"sampler":68,
					"target":{
						"node":16,
						"path":"scale"
					}
				},
				{
					"sampler":69,
					"target":{
						"node":25,
						"path":"translation"
					}
				},
				{
					"sampler":70,
					"target":{
						"node":25,
						"path":"rotation"
					}
				},
				{
					"sampler":71,
					"target":{
						"node":25,
						"path":"scale"
					}
				},
				{
					"sampler":72,
					"target":{
						"node":24,
						"path":"translation"
					}
				},
				{
					"sampler":73,
					"target":{
						"node":24,
						"path":"rotation"
					}
				},
				{
					"sampler":74,
					"target":{
						"node":24,
						"path":"scale"
					}
				},
				{
					"sampler":75,
					"target":{
						"node":23,
						"path":"translation"
					}
				},
				{
					"sampler":76,
					"target":{
						"node":23,
						"path":"rotation"
					}
				},
				{
					"sampler":77,
					"target":{
						"node":23,
						"path":"scale"
					}
				},
				{
					"sampler":78,
					"target":{
						"node":22,
						"path":"translation"
					}
				},
				{
					"sampler":79,
					"target":{
						"node":22,
						"path":"rotation"
					}
				},
				{
					"sampler":80,
					"target":{
						"node":22,
						"path":"scale"
					}
				},
				{
					"sampler":81,
					"target":{
						"node":21,
						"path":"translation"
					}
				},
				{
					"sampler":82,
					"target":{
						"node":21,
						"path":"rotation"
					}
				},
				{
					"sampler":83,
					"target":{
						"node":21,
						"path":"scale"
					}
				},
				{
					"sampler":84,
					"target":{
						"node":29,
						"path":"translation"
					}
				},
				{
					"sampler":85,
					"target":{
						"node":29,
						"path":"rotation"
					}
				},
				{
					"sampler":86,
					"target":{
						"node":29,
						"path":"scale"
					}
				}
			],
			"name":"rig|rig|run",
			"samplers":[
				{
					"input":7,
					"interpolation":"LINEAR",
					"output":8
				},
				{
					"input":9,
					"interpolation":"STEP",
					"output":10
				},
				{
					"input":9,
					"interpolation":"STEP",
					"output":11
				},
				{
					"input":9,
					"interpolation":"STEP",
					"output":12
				},
				{
					"input":7,
					"interpolation":"LINEAR",
					"output":13
				},
				{
					"input":9,
					"interpolation":"STEP",
					"output":14
				},
				{
					"input":9,
					"interpolation":"STEP",
					"output":15
				},
				{
					"input":7,
					"interpolation":"LINEAR",
					"output":16
				},
				{
					"input":9,
					"interpolation":"STEP",
					"output":17
				},
				{
					"input":9,
					"interpolation":"STEP",
					"output":18
				},
				{
					"input":7,
					"interpolation":"LINEAR",
					"output":19
				},
				{
					"input":9,
					"interpolation":"STEP",
					"output":20
				},
				{
					"input":9,
					"interpolation":"STEP",
					"output":21
				},
				{
					"input":7,
					"interpolation":"LINEAR",
					"output":22
				},
				{
					"input":9,
					"interpolation":"STEP",
					"output":23
				},
				{
					"input":9,
					"interpolation":"STEP",
					"output":24
				},
				{
					"input":7,
					"interpolation":"LINEAR",
					"output":25
				},
				{
					"input":9,
					"interpolation":"STEP",
					"output":26
				},
				{
					"input":9,
					"interpolation":"STEP",
					"output":27
				},
				{
					"input":7,
					"interpolation":"LINEAR",
					"output":28
				},
				{
					"input":9,
					"interpolation":"STEP",
					"output":29
				},
				{
					"input":9,
					"interpolation":"STEP",
					"output":30
				},
				{
					"input":7,
					"interpolation":"LINEAR",
					"output":31
				},
				{
					"input":9,
					"interpolation":"STEP",
					"output":32
				},
				{
					"input":9,
					"interpolation":"STEP",
					"output":33
				},
				{
					"input":7,
					"interpolation":"LINEAR",
					"output":34
				},
				{
					"input":9,
					"interpolation":"STEP",
					"output":35
				},
				{
					"input":9,
					"interpolation":"STEP",
					"output":36
				},
				{
					"input":7,
					"interpolation":"LINEAR",
					"output":37
				},
				{
					"input":9,
					"interpolation":"STEP",
					"output":38
				},
				{
					"input":9,
					"interpolation":"STEP",
					"output":39
				},
				{
					"input":7,
					"interpolation":"LINEAR",
					"output":40
				},
				{
					"input":9,
					"interpolation":"STEP",
					"output":41
				},
				{
					"input":9,
					"interpolation":"STEP",
					"output":42
				},
				{
					"input":7,
					"interpolation":"LINEAR",
					"output":43
				},
				{
					"input":9,
					"interpolation":"STEP",
					"output":44
				},
				{
					"input":9,
					"interpolation":"STEP",
					"output":45
				},
				{
					"input":7,
					"interpolation":"LINEAR",
					"output":46
				},
				{
					"input":9,
					"interpolation":"STEP",
					"output":47
				},
				{
					"input":9,
					"interpolation":"STEP",
					"output":48
				},
				{
					"input":7,
					"interpolation":"LINEAR",
					"output":49
				},
				{
					"input":9,
					"interpolation":"STEP",
					"output":50
				},
				{
					"input":9,
					"interpolation":"STEP",
					"output":51
				},
				{
					"input":7,
					"interpolation":"LINEAR",
					"output":52
				},
				{
					"input":9,
					"interpolation":"STEP",
					"output":53
				},
				{
					"input":9,
					"interpolation":"STEP",
					"output":54
				},
				{
					"input":7,
					"interpolation":"LINEAR",
					"output":55
				},
				{
					"input":9,
					"interpolation":"STEP",
					"output":56
				},
				{
					"input":9,
					"interpolation":"STEP",
					"output":57
				},
				{
					"input":7,
					"interpolation":"LINEAR",
					"output":58
				},
				{
					"input":9,
					"interpolation":"STEP",
					"output":59
				},
				{
					"input":9,
					"interpolation":"STEP",
					"output":60
				},
				{
					"input":7,
					"interpolation":"LINEAR",
					"output":61
				},
				{
					"input":9,
					"interpolation":"STEP",
					"output":62
				},
				{
					"input":9,
					"interpolation":"STEP",
					"output":63
				},
				{
					"input":7,
					"interpolation":"LINEAR",
					"output":64
				},
				{
					"input":9,
					"interpolation":"STEP",
					"output":65
				},
				{
					"input":9,
					"interpolation":"STEP",
					"output":66
				},
				{
					"input":7,
					"interpolation":"LINEAR",
					"output":67
				},
				{
					"input":9,
					"interpolation":"STEP",
					"output":68
				},
				{
					"input":9,
					"interpolation":"STEP",
					"output":69
				},
				{
					"input":7,
					"interpolation":"LINEAR",
					"output":70
				},
				{
					"input":9,
					"interpolation":"STEP",
					"output":71
				},
				{
					"input":9,
					"interpolation":"STEP",
					"output":72
				},
				{
					"input":7,
					"interpolation":"LINEAR",
					"output":73
				},
				{
					"input":9,
					"interpolation":"STEP",
					"output":74
				},
				{
					"input":9,
					"interpolation":"STEP",
					"output":75
				},
				{
					"input":7,
					"interpolation":"LINEAR",
					"output":76
				},
				{
					"input":9,
					"interpolation":"STEP",
					"output":77
				},
				{
					"input":9,
					"interpolation":"STEP",
					"output":78
				},
				{
					"input":7,
					"interpolation":"LINEAR",
					"output":79
				},
				{
					"input":9,
					"interpolation":"STEP",
					"output":80
				},
				{
					"input":9,
					"interpolation":"STEP",
					"output":81
				},
				{
					"input":7,
					"interpolation":"LINEAR",
					"output":82
				},
				{
					"input":9,
					"interpolation":"STEP",
					"output":83
				},
				{
					"input":9,
					"interpolation":"STEP",
					"output":84
				},
				{
					"input":7,
					"interpolation":"LINEAR",
					"output":85
				},
				{
					"input":9,
					"interpolation":"STEP",
					"output":86
				},
				{
					"input":9,
					"interpolation":"STEP",
					"output":87
				},
				{
					"input":7,
					"interpolation":"LINEAR",
					"output":88
				},
				{
					"input":9,
					"interpolation":"STEP",
					"output":89
				},
				{
					"input":9,
					"interpolation":"STEP",
					"output":90
				},
				{
					"input":7,
					"interpolation":"LINEAR",
					"output":91
				},
				{
					"input":9,
					"interpolation":"STEP",
					"output":92
				},
				{
					"input":9,
					"interpolation":"STEP",
					"output":93
				},
				{
					"input":9,
					"interpolation":"STEP",
					"output":94
				},
				{
					"input":9,
					"interpolation":"STEP",
					"output":95
				}
			]
		}
	],
	"materials":[
		{
			"doubleSided":true,
			"name":"Rhino_Tris_Material",
			"pbrMetallicRoughness":{
				"baseColorTexture":{
					"index":0
				},
				"metallicFactor":0,
				"roughnessFactor":0.5
			}
		}
	],
	"meshes":[
		{
			"name":"uploads-files-5014602-Rhino_Low_Poly",
			"primitives":[
				{
					"attributes":{
						"POSITION":0,
						"NORMAL":1,
						"TEXCOORD_0":2,
						"JOINTS_0":3,
						"WEIGHTS_0":4
					},
					"indices":5,
					"material":0
				}
			]
		}
	],
	"textures":[
		{
			"sampler":0,
			"source":0
		}
	],
	"images":[
		{
			"bufferView":6,
			"mimeType":"image/png",
			"name":"Textures_Rhino_Tris_Diffuse"
		}
	],
	"skins":[
		{
			"inverseBindMatrices":6,
			"joints":[
				27,
				13,
				12,
				4,
				3,
				2,
				1,
				0,
				6,
				5,
				11,
				10,
				9,
				8,
				7,
				26,
				15,
				14,
				20,
				19,
				18,
				17,
				16,
				25,
				24,
				23,
				22,
				21
			],
			"name":"rig"
		}
	],
	"accessors":[
		{
			"bufferView":0,
			"componentType":5126,
			"count":1486,
			"max":[
				16.48042106628418,
				24.065662384033203,
				40.610836029052734
			],
			"min":[
				-16.480419158935547,
				-24.06566047668457,
				-40.6108283996582
			],
			"type":"VEC3"
		},
		{
			"bufferView":1,
			"componentType":5126,
			"count":1486,
			"type":"VEC3"
		},
		{
			"bufferView":2,
			"componentType":5126,
			"count":1486,
			"type":"VEC2"
		},
		{
			"bufferView":3,
			"componentType":5121,
			"count":1486,
			"type":"VEC4"
		},
		{
			"bufferView":4,
			"componentType":5126,
			"count":1486,
			"type":"VEC4"
		},
		{
			"bufferView":5,
			"componentType":5123,
			"count":4530,
			"type":"SCALAR"
		},
		{
			"bufferView":7,
			"componentType":5126,
			"count":28,
			"type":"MAT4"
		},
		{
			"bufferView":8,
			"componentType":5126,
			"count":15,
			"max":[
				0.5
			],
			"min":[
				0.03333333333333333
			],
			"type":"SCALAR"
		},
		{
			"bufferView":9,
			"componentType":5126,
			"count":15,
			"type":"VEC3"
		},
		{
			"bufferView":10,
			"componentType":5126,
			"count":2,
			"max":[
				0.5
			],
			"min":[
				0.03333333333333333
			],
			"type":"SCALAR"
		},
		{
			"bufferView":11,
			"componentType":5126,
			"count":2,
			"type":"VEC4"
		},
		{
			"bufferView":12,
			"componentType":5126,
			"count":2,
			"type":"VEC3"
		},
		{
			"bufferView":13,
			"componentType":5126,
			"count":2,
			"type":"VEC3"
		},
		{
			"bufferView":14,
			"componentType":5126,
			"count":15,
			"type":"VEC4"
		},
		{
			"bufferView":15,
			"componentType":5126,
			"count":2,
			"type":"VEC3"
		},
		{
			"bufferView":16,
			"componentType":5126,
			"count":2,
			"type":"VEC3"
		},
		{
			"bufferView":17,
			"componentType":5126,
			"count":15,
			"type":"VEC4"
		},
		{
			"bufferView":18,
			"componentType":5126,
			"count":2,
			"type":"VEC3"
		},
		{
			"bufferView":19,
			"componentType":5126,
			"count":2,
			"type":"VEC3"
		},
		{
			"bufferView":20,
			"componentType":5126,
			"count":15,
			"type":"VEC4"
		},
		{
			"bufferView":21,
			"componentType":5126,
			"count":2,
			"type":"VEC3"
		},
		{
			"bufferView":22,
			"componentType":5126,
			"count":2,
			"type":"VEC3"
		},
		{
			"bufferView":23,
			"componentType":5126,
			"count":15,
			"type":"VEC4"
		},
		{
			"bufferView":24,
			"componentType":5126,
			"count":2,
			"type":"VEC3"
		},
		{
			"bufferView":25,
			"componentType":5126,
			"count":2,
			"type":"VEC3"
		},
		{
			"bufferView":26,
			"componentType":5126,
			"count":15,
			"type":"VEC4"
		},
		{
			"bufferView":27,
			"componentType":5126,
			"count":2,
			"type":"VEC3"
		},
		{
			"bufferView":28,
			"componentType":5126,
			"count":2,
			"type":"VEC3"
		},
		{
			"bufferView":29,
			"componentType":5126,
			"count":15,
			"type":"VEC4"
		},
		{
			"bufferView":30,
			"componentType":5126,
			"count":2,
			"type":"VEC3"
		},
		{
			"bufferView":31,
			"componentType":5126,
			"count":2,
			"type":"VEC3"
		},
		{
			"bufferView":32,
			"componentType":5126,
			"count":15,
			"type":"VEC4"
		},
		{
			"bufferView":33,
			"componentType":5126,
			"count":2,
			"type":"VEC3"
		},
		{
			"bufferView":34,
			"componentType":5126,
			"count":2,
			"type":"VEC3"
		},
		{
			"bufferView":35,
			"componentType":5126,
			"count":15,
			"type":"VEC4"
		},
		{
			"bufferView":36,
			"componentType":5126,
			"count":2,
			"type":"VEC3"
		},
		{
			"bufferView":37,
			"componentType":5126,
			"count":2,
			"type":"VEC3"
		},
		{
			"bufferView":38,
			"componentType":5126,
			"count":15,
			"type":"VEC4"
		},
		{
			"bufferView":39,
			"componentType":5126,
			"count":2,
			"type":"VEC3"
		},
		{
			"bufferView":40,
			"componentType":5126,
			"count":2,
			"type":"VEC3"
		},
		{
			"bufferView":41,
			"componentType":5126,
			"count":15,
			"type":"VEC4"
		},
		{
			"bufferView":42,
			"componentType":5126,
			"count":2,
			"type":"VEC3"
		},
		{
			"bufferView":43,
			"componentType":5126,
			"count":2,
			"type":"VEC3"
		},
		{
			"bufferView":44,
			"componentType":5126,
			"count":15,
			"type":"VEC4"
		},
		{
			"bufferView":45,
			"componentType":5126,
			"count":2,
			"type":"VEC3"
		},
		{
			"bufferView":46,
			"componentType":5126,
			"count":2,
			"type":"VEC3"
		},
		{
			"bufferView":47,
			"componentType":5126,
			"count":15,
			"type":"VEC4"
		},
		{
			"bufferView":48,
			"componentType":5126,
			"count":2,
			"type":"VEC3"
		},
		{
			"bufferView":49,
			"componentType":5126,
			"count":2,
			"type":"VEC3"
		},
		{
			"bufferView":50,
			"componentType":5126,
			"count":15,
			"type":"VEC4"
		},
		{
			"bufferView":51,
			"componentType":5126,
			"count":2,
			"type":"VEC3"
		},
		{
			"bufferView":52,
			"componentType":5126,
			"count":2,
			"type":"VEC3"
		},
		{
			"bufferView":53,
			"componentType":5126,
			"count":15,
			"type":"VEC4"
		},
		{
			"bufferView":54,
			"componentType":5126,
			"count":2,
			"type":"VEC3"
		},
		{
			"bufferView":55,
			"componentType":5126,
			"count":2,
			"type":"VEC3"
		},
		{
			"bufferView":56,
			"componentType":5126,
			"count":15,
			"type":"VEC4"
		},
		{
			"bufferView":57,
			"componentType":5126,
			"count":2,
			"type":"VEC3"
		},
		{
			"bufferView":58,
			"componentType":5126,
			"count":2,
			"type":"VEC3"
		},
		{
			"bufferView":59,
			"componentType":5126,
			"count":15,
			"type":"VEC4"
		},
		{
			"bufferView":60,
			"componentType":5126,
			"count":2,
			"type":"VEC3"
		},
		{
			"bufferView":61,
			"componentType":5126,
			"count":2,
			"type":"VEC3"
		},
		{
			"bufferView":62,
			"componentType":5126,
			"count":15,
			"type":"VEC4"
		},
		{
			"bufferView":63,
			"componentType":5126,
			"count":2,
			"type":"VEC3"
		},
		{
			"bufferView":64,
			"componentType":5126,
			"count":2,
			"type":"VEC3"
		},
		{
			"bufferView":65,
			"componentType":5126,
			"count":15,
			"type":"VEC4"
		},
		{
			"bufferView":66,
			"componentType":5126,
			"count":2,
			"type":"VEC3"
		},
		{
			"bufferView":67,
			"componentType":5126,
			"count":2,
			"type":"VEC3"
		},
		{
			"bufferView":68,
			"componentType":5126,
			"count":15,
			"type":"VEC4"
		},
		{
			"bufferView":69,
			"componentType":5126,
			"count":2,
			"type":"VEC3"
		},
		{
			"bufferView":70,
			"componentType":5126,
			"count":2,
			"type":"VEC3"
		},
		{
			"bufferView":71,
			"componentType":5126,
			"count":15,
			"type":"VEC4"
		},
		{
			"bufferView":72,
			"componentType":5126,
			"count":2,
			"type":"VEC3"
		},
		{
			"bufferView":73,
			"componentType":5126,
			"count":2,
			"type":"VEC3"
		},
		{
			"bufferView":74,
			"componentType":5126,
			"count":15,
			"type":"VEC4"
		},
		{
			"bufferView":75,
			"componentType":5126,
			"count":2,
			"type":"VEC3"
		},
		{
			"bufferView":76,
			"componentType":5126,
			"count":2,
			"type":"VEC3"
		},
		{
			"bufferView":77,
			"componentType":5126,
			"count":15,
			"type":"VEC4"
		},
		{
			"bufferView":78,
			"componentType":5126,
			"count":2,
			"type":"VEC3"
		},
		{
			"bufferView":79,
			"componentType":5126,
			"count":2,
			"type":"VEC3"
		},
		{
			"bufferView":80,
			"componentType":5126,
			"count":15,
			"type":"VEC4"
		},
		{
			"bufferView":81,
			"componentType":5126,
			"count":2,
			"type":"VEC3"
		},
		{
			"bufferView":82,
			"componentType":5126,
			"count":2,
			"type":"VEC3"
		},
		{
			"bufferView":83,
			"componentType":5126,
			"count":15,
			"type":"VEC4"
		},
		{
			"bufferView":84,
			"componentType":5126,
			"count":2,
			"type":"VEC3"
		},
		{
			"bufferView":85,
			"componentType":5126,
			"count":2,
			"type":"VEC3"
		},
		{
			"bufferView":86,
			"componentType":5126,
			"count":15,
			"type":"VEC4"
		},
		{
			"bufferView":87,
			"componentType":5126,
			"count":2,
			"type":"VEC3"
		},
		{
			"bufferView":88,
			"componentType":5126,
			"count":2,
			"type":"VEC3"
		},
		{
			"bufferView":89,
			"componentType":5126,
			"count":15,
			"type":"VEC4"
		},
		{
			"bufferView":90,
			"componentType":5126,
			"count":2,
			"type":"VEC3"
		},
		{
			"bufferView":91,
			"componentType":5126,
			"count":2,
			"type":"VEC3"
		},
		{
			"bufferView":92,
			"componentType":5126,
			"count":15,
			"type":"VEC4"
		},
		{
			"bufferView":93,
			"componentType":5126,
			"count":2,
			"type":"VEC3"
		},
		{
			"bufferView":94,
			"componentType":5126,
			"count":2,
			"type":"VEC3"
		},
		{
			"bufferView":95,
			"componentType":5126,
			"count":2,
			"type":"VEC4"
		},
		{
			"bufferView":96,
			"componentType":5126,
			"count":2,
			"type":"VEC3"
		}
	],
	"bufferViews":[
		{
			"buffer":0,
			"byteLength":17832,
			"byteOffset":0,
			"target":34962
		},
		{
			"buffer":0,
			"byteLength":17832,
			"byteOffset":17832,
			"target":34962
		},
		{
			"buffer":0,
			"byteLength":11888,
			"byteOffset":35664,
			"target":34962
		},
		{
			"buffer":0,
			"byteLength":5944,
			"byteOffset":47552,
			"target":34962
		},
		{
			"buffer":0,
			"byteLength":23776,
			"byteOffset":53496,
			"target":34962
		},
		{
			"buffer":0,
			"byteLength":9060,
			"byteOffset":77272,
			"target":34963
		},
		{
			"buffer":0,
			"byteLength":70995,
			"byteOffset":86332
		},
		{
			"buffer":0,
			"byteLength":1792,
			"byteOffset":157328
		},
		{
			"buffer":0,
			"byteLength":60,
			"byteOffset":159120
		},
		{
			"buffer":0,
			"byteLength":180,
			"byteOffset":159180
		},
		{
			"buffer":0,
			"byteLength":8,
			"byteOffset":159360
		},
		{
			"buffer":0,
			"byteLength":32,
			"byteOffset":159368
		},
		{
			"buffer":0,
			"byteLength":24,
			"byteOffset":159400
		},
		{
			"buffer":0,
			"byteLength":24,
			"byteOffset":159424
		},
		{
			"buffer":0,
			"byteLength":240,
			"byteOffset":159448
		},
		{
			"buffer":0,
			"byteLength":24,
			"byteOffset":159688
		},
		{
			"buffer":0,
			"byteLength":24,
			"byteOffset":159712
		},
		{
			"buffer":0,
			"byteLength":240,
			"byteOffset":159736
		},
		{
			"buffer":0,
			"byteLength":24,
			"byteOffset":159976
		},
		{
			"buffer":0,
			"byteLength":24,
			"byteOffset":160000
		},
		{
			"buffer":0,
			"byteLength":240,
			"byteOffset":160024
		},
		{
			"buffer":0,
			"byteLength":24,
			"byteOffset":160264
		},
		{
			"buffer":0,
			"byteLength":24,
			"byteOffset":160288
		},
		{
			"buffer":0,
			"byteLength":240,
			"byteOffset":160312
		},
		{
			"buffer":0,
			"byteLength":24,
			"byteOffset":160552
		},
		{
			"buffer":0,
			"byteLength":24,
			"byteOffset":160576
		},
		{
			"buffer":0,
			"byteLength":240,
			"byteOffset":160600
		},
		{
			"buffer":0,
			"byteLength":24,
			"byteOffset":160840
		},
		{
			"buffer":0,
			"byteLength":24,
			"byteOffset":160864
		},
		{
			"buffer":0,
			"byteLength":240,
			"byteOffset":160888
		},
		{
			"buffer":0,
			"byteLength":24,
			"byteOffset":161128
		},
		{
			"buffer":0,
			"byteLength":24,
			"byteOffset":161152
		},
		{
			"buffer":0,
			"byteLength":240,
			"byteOffset":161176
		},
		{
			"buffer":0,
			"byteLength":24,
			"byteOffset":161416
		},
		{
			"buffer":0,
			"byteLength":24,
			"byteOffset":161440
		},
		{
			"buffer":0,
			"byteLength":240,
			"byteOffset":161464
		},
		{
			"buffer":0,
			"byteLength":24,
			"byteOffset":161704
		},
		{
			"buffer":0,
			"byteLength":24,
			"byteOffset":161728
		},
		{
			"buffer":0,
			"byteLength":240,
			"byteOffset":161752
		},
		{
			"buffer":0,
			"byteLength":24,
			"byteOffset":161992
		},
		{
			"buffer":0,
			"byteLength":24,
			"byteOffset":162016
		},
		{
			"buffer":0,
			"byteLength":240,
			"byteOffset":162040
		},
		{
			"buffer":0,
			"byteLength":24,
			"byteOffset":162280
		},
		{
			"buffer":0,
			"byteLength":24,
			"byteOffset":162304
		},
		{
			"buffer":0,
			"byteLength":240,
			"byteOffset":162328
		},
		{
			"buffer":0,
			"byteLength":24,
			"byteOffset":162568
		},
		{
			"buffer":0,
			"byteLength":24,
			"byteOffset":162592
		},
		{
			"buffer":0,
			"byteLength":240,
			"byteOffset":162616
		},
		{
			"buffer":0,
			"byteLength":24,
			"byteOffset":162856
		},
		{
			"buffer":0,
			"byteLength":24,
			"byteOffset":162880
		},
		{
			"buffer":0,
			"byteLength":240,
			"byteOffset":162904
		},
		{
			"buffer":0,
			"byteLength":24,
			"byteOffset":163144
		},
		{
			"buffer":0,
			"byteLength":24,
			"byteOffset":163168
		},
		{
			"buffer":0,
			"byteLength":240,
			"byteOffset":163192
		},
		{
			"buffer":0,
			"byteLength":24,
			"byteOffset":163432
		},
		{
			"buffer":0,
			"byteLength":24,
			"byteOffset":163456
		},
		{
			"buffer":0,
			"byteLength":240,
			"byteOffset":163480
		},
		{
			"buffer":0,
			"byteLength":24,
			"byteOffset":163720
		},
		{
			"buffer":0,
			"byteLength":24,
			"byteOffset":163744
		},
		{
			"buffer":0,
			"byteLength":240,
			"byteOffset":163768
		},
		{
			"buffer":0,
			"byteLength":24,
			"byteOffset":164008
		},
		{
			"buffer":0,
			"byteLength":24,
			"byteOffset":164032
		},
		{
			"buffer":0,
			"byteLength":240,
			"byteOffset":164056
		},
		{
			"buffer":0,
			"byteLength":24,
			"byteOffset":164296
		},
		{
			"buffer":0,
			"byteLength":24,
			"byteOffset":164320
		},
		{
			"buffer":0,
			"byteLength":240,
			"byteOffset":164344
		},
		{
			"buffer":0,
			"byteLength":24,
			"byteOffset":164584
		},
		{
			"buffer":0,
			"byteLength":24,
			"byteOffset":164608
		},
		{
			"buffer":0,
			"byteLength":240,
			"byteOffset":164632
		},
		{
			"buffer":0,
			"byteLength":24,
			"byteOffset":164872
		},
		{
			"buffer":0,
			"byteLength":24,
			"byteOffset":164896
		},
		{
			"buffer":0,
			"byteLength":240,
			"byteOffset":164920
		},
		{
			"buffer":0,
			"byteLength":24,
			"byteOffset":165160
		},
		{
			"buffer":0,
			"byteLength":24,
			"byteOffset":165184
		},
		{
			"buffer":0,
			"byteLength":240,
			"byteOffset":165208
		},
		{
			"buffer":0,
			"byteLength":24,
			"byteOffset":165448
		},
		{
			"buffer":0,
			"byteLength":24,
			"byteOffset":165472
		},
		{
			"buffer":0,
			"byteLength":240,
			"byteOffset":165496
		},
		{
			"buffer":0,
			"byteLength":24,
			"byteOffset":165736
		},
		{
			"buffer":0,
			"byteLength":24,
			"byteOffset":165760
		},
		{
			"buffer":0,
			"byteLength":240,
			"byteOffset":165784
		},
		{
			"buffer":0,
			"byteLength":24,
			"byteOffset":166024
		},
		{
			"buffer":0,
			"byteLength":24,
			"byteOffset":166048
		},
		{
			"buffer":0,
			"byteLength":240,
			"byteOffset":166072
		},
		{
			"buffer":0,
			"byteLength":24,
			"byteOffset":166312
		},
		{
			"buffer":0,
			"byteLength":24,
			"byteOffset":166336
		},
		{
			"buffer":0,
			"byteLength":240,
			"byteOffset":166360
		},
		{
			"buffer":0,
			"byteLength":24,
			"byteOffset":166600
		},
		{
			"buffer":0,
			"byteLength":24,
			"byteOffset":166624
		},
		{
			"buffer":0,
			"byteLength":240,
			"byteOffset":166648
		},
		{
			"buffer":0,
			"byteLength":24,
			"byteOffset":166888
		},
		{
			"buffer":0,
			"byteLength":24,
			"byteOffset":166912
		},
		{
			"buffer":0,
			"byteLength":240,
			"byteOffset":166936
		},
		{
			"buffer":0,
			"byteLength":24,
			"byteOffset":167176
		},
		{
			"buffer":0,
			"byteLength":24,
			"byteOffset":167200
		},
		{
			"buffer":0,
			"byteLength":32,
			"byteOffset":167224
		},
		{
			"buffer":0,
			"byteLength":24,
			"byteOffset":167256
		}
	],
	"samplers":[
		{
			"magFilter":9729,
			"minFilter":9987
		}
	],
	"buffers":[
		{
			"byteLength":167280,
			"uri":"data:application/octet-stream;base64,"
		}
	]
}
