{
	"asset":{
		"generator":"Khronos glTF Blender I/O v4.1.62",
		"version":"2.0"
	},
	"scene":0,
	"scenes":[
		{
			"name":"Scene",
			"nodes":[
				41
			]
		}
	],
	"nodes":[
		{
			"name":"leg_front_left_bot2_end",
			"rotation":[
				-3.67872416973114e-08,
				-2.1234156122318382e-07,
				-2.323649823665619e-07,
				1
			],
			"scale":[
				1,
				1,
				0.9999999403953552
			],
			"translation":[
				7.152557373046875e-07,
				3.5206379890441895,
				0
			]
		},
		{
			"children":[
				0
			],
			"name":"leg_front_left_bot2",
			"rotation":[
				-0.4487539231777191,
				-0.5200498104095459,
				-0.2547817528247833,
				0.6806279420852661
			],
			"scale":[
				1,
				1.0000001192092896,
				1
			],
			"translation":[
				-1.5497207641601562e-06,
				4.341953277587891,
				1.6093254089355469e-06
			]
		},
		{
			"children":[
				1
			],
			"name":"leg_front_left_bot1",
			"rotation":[
				-0.013827025890350342,
				-0.179963618516922,
				-0.08545325696468353,
				0.9798569679260254
			],
			"scale":[
				0.9999999403953552,
				0.9999999403953552,
				1
			],
			"translation":[
				-2.384185791015625e-07,
				4.103880405426025,
				1.1920928955078125e-06
			]
		},
		{
			"children":[
				2
			],
			"name":"leg_front_left_bot0",
			"rotation":[
				0.09317590296268463,
				0.713068962097168,
				0.3479336202144623,
				0.6014924645423889
			],
			"scale":[
				1,
				0.9999996423721313,
				0.9999998807907104
			],
			"translation":[
				1.430511474609375e-06,
				4.893570899963379,
				4.76837158203125e-07
			]
		},
		{
			"children":[
				3
			],
			"name":"leg_front_left_top1",
			"rotation":[
				0.43312588334083557,
				0.5970761179924011,
				-0.06031281128525734,
				0.6725061535835266
			],
			"scale":[
				0.9999999403953552,
				0.9999998211860657,
				1
			],
			"translation":[
				0,
				13.822568893432617,
				5.364418029785156e-07
			]
		},
		{
			"children":[
				4
			],
			"name":"leg_front_left_top0",
			"rotation":[
				-0.5097424983978271,
				-0.5756987929344177,
				-0.548517644405365,
				0.328423410654068
			],
			"scale":[
				1.0000001192092896,
				1,
				1.0000001192092896
			],
			"translation":[
				0.5177770853042603,
				11.141823768615723,
				1.2658616304397583
			]
		},
		{
			"name":"head1_end",
			"rotation":[
				6.560004095490513e-08,
				4.6100474548893544e-08,
				1.3271348464627408e-08,
				1
			],
			"scale":[
				0.9999999403953552,
				0.9999998807907104,
				0.9999999403953552
			],
			"translation":[
				-9.592622518539429e-08,
				4.514889717102051,
				-1.748441718518734e-06
			]
		},
		{
			"children":[
				6
			],
			"name":"head1",
			"rotation":[
				0.161687433719635,
				0.011274460703134537,
				0.011699876748025417,
				0.9867082834243774
			],
			"scale":[
				0.9999999403953552,
				1,
				0.9999999403953552
			],
			"translation":[
				2.7939677238464355e-09,
				5.115655899047852,
				7.172639016062021e-08
			]
		},
		{
			"children":[
				7
			],
			"name":"head0",
			"rotation":[
				-0.01970609650015831,
				-0.003986259922385216,
				-0.003983453847467899,
				0.9997900128364563
			],
			"scale":[
				0.9999999403953552,
				0.9999998807907104,
				1
			],
			"translation":[
				-3.073364496231079e-08,
				3.133854389190674,
				-1.9726576283574104e-07
			]
		},
		{
			"children":[
				8
			],
			"name":"neck2",
			"rotation":[
				0.015539120882749557,
				0.00314713129773736,
				0.003154707606881857,
				0.9998693466186523
			],
			"translation":[
				1.6763806343078613e-08,
				6.142551898956299,
				-3.585591912269592e-08
			]
		},
		{
			"children":[
				9
			],
			"name":"neck1",
			"rotation":[
				-0.9997515678405762,
				0.004323853645473719,
				-0.001499965088441968,
				0.02181417867541313
			],
			"scale":[
				1,
				0.9999999403953552,
				1.000001072883606
			],
			"translation":[
				8.847564458847046e-09,
				2.468447208404541,
				2.9482180252671242e-08
			]
		},
		{
			"children":[
				10
			],
			"name":"neck0",
			"rotation":[
				0.9996182918548584,
				0.003982908092439175,
				-0.006708418484777212,
				0.0265024583786726
			],
			"scale":[
				1,
				1,
				1.0000020265579224
			],
			"translation":[
				6.51925802230835e-08,
				14.231531143188477,
				3.650784492492676e-07
			]
		},
		{
			"name":"leg_front_right_bot2_end",
			"rotation":[
				3.525055944919586e-07,
				-1.341104507446289e-07,
				2.6868656277656555e-07,
				1
			],
			"translation":[
				1.1920928955078125e-06,
				3.5206406116485596,
				1.9073486328125e-06
			]
		},
		{
			"children":[
				12
			],
			"name":"leg_front_right_bot2",
			"rotation":[
				-0.44522008299827576,
				0.5179656744003296,
				0.25603920221328735,
				0.6840574741363525
			],
			"scale":[
				1,
				1.0000001192092896,
				1
			],
			"translation":[
				-1.6689300537109375e-06,
				3.82155704498291,
				6.854534149169922e-07
			]
		},
		{
			"children":[
				13
			],
			"name":"leg_front_right_bot1",
			"rotation":[
				-0.022762445732951164,
				0.16340717673301697,
				0.07876776903867722,
				0.9831457734107971
			],
			"scale":[
				0.9999998807907104,
				0.9999999403953552,
				1
			],
			"translation":[
				-4.76837158203125e-07,
				4.62076473236084,
				-2.384185791015625e-07
			]
		},
		{
			"children":[
				14
			],
			"name":"leg_front_right_bot0",
			"rotation":[
				0.09649071842432022,
				-0.7037180066108704,
				-0.3388780653476715,
				0.61695396900177
			],
			"scale":[
				1.0000001192092896,
				1.0000001192092896,
				1.0000001192092896
			],
			"translation":[
				-9.5367431640625e-07,
				4.89356803894043,
				-9.5367431640625e-07
			]
		},
		{
			"children":[
				15
			],
			"name":"leg_front_right_top1",
			"rotation":[
				0.43359097838401794,
				-0.5943278670310974,
				0.0624711774289608,
				0.6744409799575806
			],
			"scale":[
				1,
				1.000000238418579,
				1
			],
			"translation":[
				4.76837158203125e-07,
				14.105687141418457,
				1.3709068298339844e-06
			]
		},
		{
			"children":[
				16
			],
			"name":"leg_front_right_top0",
			"rotation":[
				-0.5095519423484802,
				0.572864294052124,
				0.5565423965454102,
				0.3200688064098358
			],
			"scale":[
				0.9999999403953552,
				1,
				1
			],
			"translation":[
				-0.4258633852005005,
				11.133152961730957,
				1.2732239961624146
			]
		},
		{
			"children":[
				5,
				11,
				17
			],
			"name":"body_top1",
			"rotation":[
				0.0057898773811757565,
				-0.005446994211524725,
				-0.005301767028868198,
				0.999954342842102
			],
			"scale":[
				0.9999999403953552,
				1,
				1
			],
			"translation":[
				0,
				11.104057312011719,
				-4.76837158203125e-07
			]
		},
		{
			"children":[
				18
			],
			"name":"body_top0",
			"rotation":[
				0.015960490331053734,
				0,
				0,
				0.9998726844787598
			],
			"scale":[
				1,
				0.9999999403953552,
				0.9999999403953552
			],
			"translation":[
				0,
				10.200126647949219,
				2.7136411517858505e-07
			]
		},
		{
			"name":"leg_hind_left_bot2_end",
			"rotation":[
				1.0617078771701927e-07,
				-1.2665987014770508e-07,
				1.695007085800171e-07,
				1
			],
			"scale":[
				1,
				0.9999998807907104,
				0.9999999403953552
			],
			"translation":[
				-9.5367431640625e-07,
				4.614112854003906,
				3.5762786865234375e-06
			]
		},
		{
			"children":[
				20
			],
			"name":"leg_hind_left_bot2",
			"rotation":[
				0.20738311111927032,
				0.8241117000579834,
				-0.36438220739364624,
				0.38086456060409546
			],
			"scale":[
				1.0000001192092896,
				1.000000238418579,
				1.0000001192092896
			],
			"translation":[
				-2.980232238769531e-07,
				3.8836512565612793,
				1.1920928955078125e-07
			]
		},
		{
			"children":[
				21
			],
			"name":"leg_hind_left_bot1",
			"rotation":[
				3.800960541866516e-07,
				2.2258609533309937e-07,
				-9.499490971620617e-08,
				1
			],
			"scale":[
				1,
				0.9999999403953552,
				1
			],
			"translation":[
				-1.4901161193847656e-07,
				3.8437323570251465,
				-1.1920928955078125e-07
			]
		},
		{
			"children":[
				22
			],
			"name":"leg_hind_left_bot0",
			"rotation":[
				-0.37988874316215515,
				-0.6093880534172058,
				0.2596777081489563,
				0.6456766128540039
			],
			"scale":[
				0.9999999403953552,
				0.9999998211860657,
				0.9999999403953552
			],
			"translation":[
				8.940696716308594e-07,
				4.897445201873779,
				4.76837158203125e-07
			]
		},
		{
			"children":[
				23
			],
			"name":"leg_hind_left_top1",
			"rotation":[
				-0.27743372321128845,
				-0.41745051741600037,
				0.14886558055877686,
				0.8524110913276672
			],
			"scale":[
				1,
				1.0000001192092896,
				1
			],
			"translation":[
				2.384185791015625e-07,
				10.683686256408691,
				2.980232238769531e-07
			]
		},
		{
			"children":[
				24
			],
			"name":"leg_hind_left_top0",
			"rotation":[
				0.4754827916622162,
				0.6597897410392761,
				-0.528264582157135,
				0.2439882457256317
			],
			"translation":[
				0.44260871410369873,
				11.812273025512695,
				1.4408828020095825
			]
		},
		{
			"name":"tail3_end",
			"rotation":[
				9.225914254784584e-09,
				-2.3283064365386963e-10,
				-1.9208528101444244e-09,
				1
			],
			"translation":[
				5.960464477539063e-08,
				2.3712668418884277,
				-1.94646418094635e-07
			]
		},
		{
			"children":[
				26
			],
			"name":"tail3",
			"rotation":[
				0.05939717963337898,
				0.013795057311654091,
				-0.010166613385081291,
				0.9980873465538025
			],
			"scale":[
				1,
				0.9999998211860657,
				1
			],
			"translation":[
				2.9802322387695312e-08,
				3.869460105895996,
				-2.423767000436783e-07
			]
		},
		{
			"children":[
				27
			],
			"name":"tail2",
			"rotation":[
				0.008369289338588715,
				-0.0009365113219246268,
				0.0009155706502497196,
				0.9999641180038452
			],
			"scale":[
				1,
				1,
				1.0000001192092896
			],
			"translation":[
				-1.4901161193847656e-08,
				4.217282772064209,
				6.780028343200684e-07
			]
		},
		{
			"children":[
				28
			],
			"name":"tail1",
			"rotation":[
				0.13788600265979767,
				0.013218690641224384,
				-0.007874052971601486,
				0.9903286099433899
			],
			"scale":[
				0.9999999403953552,
				1.0000001192092896,
				1.0000001192092896
			],
			"translation":[
				0,
				4.872659683227539,
				1.1920928955078125e-06
			]
		},
		{
			"children":[
				29
			],
			"name":"tail0",
			"rotation":[
				-0.17651884257793427,
				0,
				0,
				0.9842972755432129
			],
			"scale":[
				1,
				0.9999999403953552,
				0.9999999403953552
			],
			"translation":[
				0,
				17.0909366607666,
				4.470348358154297e-07
			]
		},
		{
			"children":[
				30
			],
			"name":"pelvis",
			"rotation":[
				0.03953120857477188,
				0,
				0,
				0.9992183446884155
			],
			"translation":[
				0,
				1.0169243812561035,
				0
			]
		},
		{
			"name":"leg_hind_right_bot2_end",
			"rotation":[
				4.2468315086807706e-07,
				-6.835908266111801e-07,
				-2.402812526725029e-07,
				1
			],
			"scale":[
				0.9999998807907104,
				0.9999998807907104,
				0.9999999403953552
			],
			"translation":[
				0,
				4.614107608795166,
				2.1457672119140625e-06
			]
		},
		{
			"children":[
				32
			],
			"name":"leg_hind_right_bot2",
			"rotation":[
				0.20738276839256287,
				-0.8241114616394043,
				0.36438173055648804,
				0.3808656632900238
			],
			"scale":[
				1,
				1,
				1.0000001192092896
			],
			"translation":[
				-2.086162567138672e-07,
				2.4845964908599854,
				1.5497207641601562e-06
			]
		},
		{
			"children":[
				33
			],
			"name":"leg_hind_right_bot1",
			"rotation":[
				1.501757829203143e-08,
				-5.224719643592834e-07,
				2.2072346439472312e-07,
				1
			],
			"scale":[
				1,
				0.9999999403953552,
				1
			],
			"translation":[
				1.4603137969970703e-06,
				5.242786407470703,
				-3.5762786865234375e-07
			]
		},
		{
			"children":[
				34
			],
			"name":"leg_hind_right_bot0",
			"rotation":[
				-0.3798886835575104,
				0.609387993812561,
				-0.2596776485443115,
				0.6456767320632935
			],
			"scale":[
				0.9999999403953552,
				0.9999998211860657,
				0.9999999403953552
			],
			"translation":[
				-8.940696716308594e-07,
				4.897445201873779,
				4.76837158203125e-07
			]
		},
		{
			"children":[
				35
			],
			"name":"leg_hind_right_top1",
			"rotation":[
				-0.27743372321128845,
				0.41745051741600037,
				-0.14886558055877686,
				0.8524110913276672
			],
			"scale":[
				1,
				1.0000001192092896,
				1
			],
			"translation":[
				-2.384185791015625e-07,
				10.683686256408691,
				2.980232238769531e-07
			]
		},
		{
			"children":[
				36
			],
			"name":"leg_hind_right_top0",
			"rotation":[
				0.4754827916622162,
				-0.6597897410392761,
				0.528264582157135,
				0.2439882457256317
			],
			"translation":[
				-0.44260871410369873,
				11.812273025512695,
				1.4408828020095825
			]
		},
		{
			"children":[
				25,
				31,
				37
			],
			"name":"body_bot",
			"rotation":[
				0.994194507598877,
				0,
				0,
				0.10759791731834412
			],
			"scale":[
				1,
				1,
				0.999999463558197
			],
			"translation":[
				0,
				0.4970496892929077,
				0.050483644008636475
			]
		},
		{
			"children":[
				19,
				38
			],
			"name":"body",
			"rotation":[
				-0.0024509625509381294,
				0,
				0,
				0.9999970197677612
			],
			"scale":[
				1,
				0.9999999403953552,
				0.9999999403953552
			],
			"translation":[
				0,
				-9.850000381469727,
				-2.4000000953674316
			]
		},
		{
			"mesh":0,
			"name":"uploads_files_2184392_Turtle_OBJ",
			"skin":0
		},
		{
			"children":[
				40,
				39
			],
			"name":"rig",
			"rotation":[
				0.7071068286895752,
				0,
				0,
				0.7071068286895752
			]
		}
	],
	"materials":[
		{
			"doubleSided":true,
			"name":"unghie2SG1",
			"pbrMetallicRoughness":{
				"baseColorTexture":{
					"index":0
				},
				"metallicFactor":0,
				"roughnessFactor":0.5
			}
		},
		{
			"doubleSided":true,
			"name":"unghie2SG3",
			"pbrMetallicRoughness":{
				"baseColorTexture":{
					"index":1
				},
				"metallicFactor":0,
				"roughnessFactor":0.5
			}
		},
		{
			"doubleSided":true,
			"name":"unghie2SG2",
			"pbrMetallicRoughness":{
				"baseColorTexture":{
					"index":2
				},
				"metallicFactor":0,
				"roughnessFactor":0.5
			}
		},
		{
			"doubleSided":true,
			"name":"unghie2SG",
			"pbrMetallicRoughness":{
				"baseColorTexture":{
					"index":3
				},
				"metallicFactor":0,
				"roughnessFactor":0.5
			}
		}
	],
	"meshes":[
		{
			"name":"uploads_files_2184392_Turtle_OBJ",
			"primitives":[
				{
					"attributes":{
						"POSITION":0,
						"NORMAL":1,
						"TEXCOORD_0":2,
						"JOINTS_0":3,
						"WEIGHTS_0":4
					},
					"indices":5,
					"material":0
				},
				{
					"attributes":{
						"POSITION":6,
						"NORMAL":7,
						"TEXCOORD_0":8,
						"JOINTS_0":9,
						"WEIGHTS_0":10
					},
					"indices":11,
					"material":1
				},
				{
					"attributes":{
						"POSITION":12,
						"NORMAL":13,
						"TEXCOORD_0":14,
						"JOINTS_0":15,
						"WEIGHTS_0":16
					},
					"indices":17,
					"material":2
				},
				{
					"attributes":{
						"POSITION":18,
						"NORMAL":19,
						"TEXCOORD_0":20,
						"JOINTS_0":21,
						"WEIGHTS_0":22
					},
					"indices":23,
					"material":3
				}
			]
		}
	],
	"textures":[
		{
			"sampler":0,
			"source":0
		},
		{
			"sampler":0,
			"source":0
		},
		{
			"sampler":0,
			"source":0
		},
		{
			"sampler":0,
			"source":0
		}
	],
	"images":[
		{
			"mimeType":"image/png",
			"name":"Turtle_body_BaseColor",
			"uri":"Turtle_body_BaseColor.png"
		}
	],
	"skins":[
		{
			"inverseBindMatrices":24,
			"joints":[
				39,
				19,
				18,
				5,
				4,
				3,
				2,
				1,
				0,
				11,
				10,
				9,
				8,
				7,
				6,
				17,
				16,
				15,
				14,
				13,
				12,
				38,
				25,
				24,
				23,
				22,
				21,
				20,
				31,
				30,
				29,
				28,
				27,
				26,
				37,
				36,
				35,
				34,
				33,
				32
			],
			"name":"rig"
		}
	],
	"accessors":[
		{
			"bufferView":0,
			"componentType":5126,
			"count":4652,
			"max":[
				20.770095825195312,
				16.2370548248291,
				42.48484420776367
			],
			"min":[
				-20.770092010498047,
				-15.114642143249512,
				-42.48483657836914
			],
			"type":"VEC3"
		},
		{
			"bufferView":1,
			"componentType":5126,
			"count":4652,
			"type":"VEC3"
		},
		{
			"bufferView":2,
			"componentType":5126,
			"count":4652,
			"type":"VEC2"
		},
		{
			"bufferView":3,
			"componentType":5121,
			"count":4652,
			"type":"VEC4"
		},
		{
			"bufferView":4,
			"componentType":5126,
			"count":4652,
			"type":"VEC4"
		},
		{
			"bufferView":5,
			"componentType":5123,
			"count":25872,
			"type":"SCALAR"
		},
		{
			"bufferView":6,
			"componentType":5126,
			"count":804,
			"max":[
				2.745785713195801,
				2.040243148803711,
				40.88557815551758
			],
			"min":[
				-2.8706841468811035,
				0.3452509939670563,
				39.23196792602539
			],
			"type":"VEC3"
		},
		{
			"bufferView":7,
			"componentType":5126,
			"count":804,
			"type":"VEC3"
		},
		{
			"bufferView":8,
			"componentType":5126,
			"count":804,
			"type":"VEC2"
		},
		{
			"bufferView":9,
			"componentType":5121,
			"count":804,
			"type":"VEC4"
		},
		{
			"bufferView":10,
			"componentType":5126,
			"count":804,
			"type":"VEC4"
		},
		{
			"bufferView":11,
			"componentType":5123,
			"count":4560,
			"type":"SCALAR"
		},
		{
			"bufferView":12,
			"componentType":5126,
			"count":804,
			"max":[
				2.6789870262145996,
				1.9268587827682495,
				40.77678298950195
			],
			"min":[
				-2.836559534072876,
				0.4088572561740875,
				39.26126480102539
			],
			"type":"VEC3"
		},
		{
			"bufferView":13,
			"componentType":5126,
			"count":804,
			"type":"VEC3"
		},
		{
			"bufferView":14,
			"componentType":5126,
			"count":804,
			"type":"VEC2"
		},
		{
			"bufferView":15,
			"componentType":5121,
			"count":804,
			"type":"VEC4"
		},
		{
			"bufferView":16,
			"componentType":5126,
			"count":804,
			"type":"VEC4"
		},
		{
			"bufferView":17,
			"componentType":5123,
			"count":4560,
			"type":"SCALAR"
		},
		{
			"bufferView":18,
			"componentType":5126,
			"count":3020,
			"max":[
				20.12188148498535,
				-11.67587661743164,
				33.52360153198242
			],
			"min":[
				-20.121877670288086,
				-16.23705291748047,
				-29.22025489807129
			],
			"type":"VEC3"
		},
		{
			"bufferView":19,
			"componentType":5126,
			"count":3020,
			"type":"VEC3"
		},
		{
			"bufferView":20,
			"componentType":5126,
			"count":3020,
			"type":"VEC2"
		},
		{
			"bufferView":21,
			"componentType":5121,
			"count":3020,
			"type":"VEC4"
		},
		{
			"bufferView":22,
			"componentType":5126,
			"count":3020,
			"type":"VEC4"
		},
		{
			"bufferView":23,
			"componentType":5123,
			"count":16320,
			"type":"SCALAR"
		},
		{
			"bufferView":24,
			"componentType":5126,
			"count":40,
			"type":"MAT4"
		}
	],
	"bufferViews":[
		{
			"buffer":0,
			"byteLength":55824,
			"byteOffset":0,
			"target":34962
		},
		{
			"buffer":0,
			"byteLength":55824,
			"byteOffset":55824,
			"target":34962
		},
		{
			"buffer":0,
			"byteLength":37216,
			"byteOffset":111648,
			"target":34962
		},
		{
			"buffer":0,
			"byteLength":18608,
			"byteOffset":148864,
			"target":34962
		},
		{
			"buffer":0,
			"byteLength":74432,
			"byteOffset":167472,
			"target":34962
		},
		{
			"buffer":0,
			"byteLength":51744,
			"byteOffset":241904,
			"target":34963
		},
		{
			"buffer":0,
			"byteLength":9648,
			"byteOffset":293648,
			"target":34962
		},
		{
			"buffer":0,
			"byteLength":9648,
			"byteOffset":303296,
			"target":34962
		},
		{
			"buffer":0,
			"byteLength":6432,
			"byteOffset":312944,
			"target":34962
		},
		{
			"buffer":0,
			"byteLength":3216,
			"byteOffset":319376,
			"target":34962
		},
		{
			"buffer":0,
			"byteLength":12864,
			"byteOffset":322592,
			"target":34962
		},
		{
			"buffer":0,
			"byteLength":9120,
			"byteOffset":335456,
			"target":34963
		},
		{
			"buffer":0,
			"byteLength":9648,
			"byteOffset":344576,
			"target":34962
		},
		{
			"buffer":0,
			"byteLength":9648,
			"byteOffset":354224,
			"target":34962
		},
		{
			"buffer":0,
			"byteLength":6432,
			"byteOffset":363872,
			"target":34962
		},
		{
			"buffer":0,
			"byteLength":3216,
			"byteOffset":370304,
			"target":34962
		},
		{
			"buffer":0,
			"byteLength":12864,
			"byteOffset":373520,
			"target":34962
		},
		{
			"buffer":0,
			"byteLength":9120,
			"byteOffset":386384,
			"target":34963
		},
		{
			"buffer":0,
			"byteLength":36240,
			"byteOffset":395504,
			"target":34962
		},
		{
			"buffer":0,
			"byteLength":36240,
			"byteOffset":431744,
			"target":34962
		},
		{
			"buffer":0,
			"byteLength":24160,
			"byteOffset":467984,
			"target":34962
		},
		{
			"buffer":0,
			"byteLength":12080,
			"byteOffset":492144,
			"target":34962
		},
		{
			"buffer":0,
			"byteLength":48320,
			"byteOffset":504224,
			"target":34962
		},
		{
			"buffer":0,
			"byteLength":32640,
			"byteOffset":552544,
			"target":34963
		},
		{
			"buffer":0,
			"byteLength":2560,
			"byteOffset":585184
		}
	],
	"samplers":[
		{
			"magFilter":9729,
			"minFilter":9987
		}
	],
	"buffers":[
		{
			"byteLength":587744,
			"uri":"uploads_files_2184392_Turtle_OBJ.bin"
		}
	]
}
