{
	"asset":{
		"generator":"Khronos glTF Blender I/O v4.1.62",
		"version":"2.0"
	},
	"extensionsUsed":[
		"KHR_materials_specular"
	],
	"scene":0,
	"scenes":[
		{
			"name":"Scene",
			"nodes":[
				42
			]
		}
	],
	"nodes":[
		{
			"name":"leg_front_left_toe_end",
			"rotation":[
				5.090372567906343e-13,
				7.003544624240021e-07,
				7.301567848116974e-07,
				1
			],
			"translation":[
				-3.1295166991185397e-07,
				3.000000238418579,
				7.306746283575194e-07
			]
		},
		{
			"children":[
				0
			],
			"name":"leg_front_left_toe",
			"rotation":[
				-0.497810959815979,
				0.11487071961164474,
				0.11487127095460892,
				0.8519352078437805
			],
			"translation":[
				0,
				4.916548728942871,
				2.7418136596679688e-06
			]
		},
		{
			"children":[
				1
			],
			"name":"leg_front_left_ankle",
			"rotation":[
				0.03743119165301323,
				-0.1714567244052887,
				-0.05135514959692955,
				0.9831399321556091
			],
			"translation":[
				-7.450580596923828e-08,
				15.393677711486816,
				-1.6540288925170898e-06
			]
		},
		{
			"children":[
				2
			],
			"name":"leg_front_left_bot0",
			"rotation":[
				-0.02569194696843624,
				-0.9564589262008667,
				-0.2905951738357544,
				0.008983990177512169
			],
			"scale":[
				1,
				1,
				1.0000001192092896
			],
			"translation":[
				-2.1077721612527966e-07,
				9.313426971435547,
				-6.384988182617235e-07
			]
		},
		{
			"children":[
				3
			],
			"name":"leg_front_left_top1",
			"rotation":[
				0.01829725131392479,
				0.6811106204986572,
				-0.39577439427375793,
				0.6157241463661194
			],
			"scale":[
				0.9999998807907104,
				0.9999999403953552,
				0.9999998807907104
			],
			"translation":[
				9.5367431640625e-07,
				8.224113464355469,
				-5.960464477539063e-08
			]
		},
		{
			"children":[
				4
			],
			"name":"leg_front_left_top0",
			"rotation":[
				0.7737587094306946,
				0.4265284538269043,
				0.4288923442363739,
				0.1882081925868988
			],
			"scale":[
				1,
				1.0000001192092896,
				1.0000001192092896
			],
			"translation":[
				0.24930909276008606,
				7.954158782958984,
				2.7386326789855957
			]
		},
		{
			"name":"head0_end",
			"rotation":[
				2.5331974029541016e-07,
				0,
				0,
				1
			],
			"translation":[
				0,
				9.946916580200195,
				4.76837158203125e-07
			]
		},
		{
			"children":[
				6
			],
			"name":"head0",
			"rotation":[
				0.7161226272583008,
				0,
				0,
				0.6979745030403137
			],
			"scale":[
				1,
				0.9999999403953552,
				1
			],
			"translation":[
				0,
				7.3249006271362305,
				9.5367431640625e-07
			]
		},
		{
			"children":[
				7
			],
			"name":"neck1",
			"rotation":[
				-0.343941330909729,
				0,
				0,
				0.938991129398346
			],
			"translation":[
				0,
				7.244688034057617,
				2.384185791015625e-07
			]
		},
		{
			"children":[
				8
			],
			"name":"neck0",
			"rotation":[
				-0.05553989112377167,
				0,
				0,
				0.9984564781188965
			],
			"scale":[
				1,
				1.0000001192092896,
				1
			],
			"translation":[
				0,
				10.351561546325684,
				1.2665987014770508e-07
			]
		},
		{
			"name":"leg_front_right_toe_end",
			"rotation":[
				5.090372567906343e-13,
				-7.003544624240021e-07,
				-7.301567848116974e-07,
				1
			],
			"translation":[
				3.1295166991185397e-07,
				3.000000238418579,
				7.306746283575194e-07
			]
		},
		{
			"children":[
				10
			],
			"name":"leg_front_right_toe",
			"rotation":[
				-0.497810959815979,
				-0.11487071961164474,
				-0.11487127095460892,
				0.8519352078437805
			],
			"translation":[
				0,
				4.916548728942871,
				2.7418136596679688e-06
			]
		},
		{
			"children":[
				11
			],
			"name":"leg_front_right_ankle",
			"rotation":[
				0.03743119165301323,
				0.1714567244052887,
				0.05135514959692955,
				0.9831399321556091
			],
			"translation":[
				7.450580596923828e-08,
				15.393677711486816,
				-1.6540288925170898e-06
			]
		},
		{
			"children":[
				12
			],
			"name":"leg_front_right_bot0",
			"rotation":[
				-0.02569194696843624,
				0.9564589262008667,
				0.2905951738357544,
				0.008983990177512169
			],
			"scale":[
				1,
				1,
				1.0000001192092896
			],
			"translation":[
				2.1077721612527966e-07,
				9.313426971435547,
				-6.384988182617235e-07
			]
		},
		{
			"children":[
				13
			],
			"name":"leg_front_right_top1",
			"rotation":[
				0.01829725131392479,
				-0.6811106204986572,
				0.39577439427375793,
				0.6157241463661194
			],
			"scale":[
				0.9999998807907104,
				0.9999999403953552,
				0.9999998807907104
			],
			"translation":[
				-9.5367431640625e-07,
				8.224113464355469,
				-5.960464477539063e-08
			]
		},
		{
			"children":[
				14
			],
			"name":"leg_front_right_top0",
			"rotation":[
				0.7737587094306946,
				-0.4265284538269043,
				-0.4288923442363739,
				0.1882081925868988
			],
			"scale":[
				1,
				1.0000001192092896,
				1.0000001192092896
			],
			"translation":[
				-0.24930909276008606,
				7.954158782958984,
				2.7386326789855957
			]
		},
		{
			"children":[
				5,
				9,
				15
			],
			"name":"body_top1",
			"rotation":[
				0.01790047623217106,
				0,
				0,
				0.9998397827148438
			],
			"scale":[
				1,
				0.9999999403953552,
				0.9999999403953552
			],
			"translation":[
				0,
				8.207011222839355,
				-2.9802322387695312e-08
			]
		},
		{
			"children":[
				16
			],
			"name":"body_top0",
			"rotation":[
				-0.06219561770558357,
				0,
				0,
				0.9980640411376953
			],
			"scale":[
				1,
				0.9999998211860657,
				0.9999999403953552
			],
			"translation":[
				0,
				7.194611549377441,
				-0.36414867639541626
			]
		},
		{
			"name":"tail5_end",
			"rotation":[
				1.8626455755565985e-07,
				-1.1013412404281553e-13,
				1.021405182655144e-13,
				1
			],
			"translation":[
				9.094947017729282e-13,
				2.974053382873535,
				1.0728784900493338e-06
			]
		},
		{
			"children":[
				18
			],
			"name":"tail5",
			"rotation":[
				0.0759020745754242,
				2.6597515301318708e-08,
				6.396768981176137e-08,
				0.9971152544021606
			],
			"translation":[
				6.821210263296962e-13,
				4.092997074127197,
				4.7683244019935955e-07
			]
		},
		{
			"children":[
				19
			],
			"name":"tail4",
			"rotation":[
				0.1291705220937729,
				6.61596786244445e-08,
				9.679681056695699e-08,
				0.9916223883628845
			],
			"translation":[
				-1.1368683772161603e-12,
				4.186935901641846,
				9.53670621584024e-07
			]
		},
		{
			"children":[
				20
			],
			"name":"tail3",
			"rotation":[
				0.0911669135093689,
				6.07822343567932e-08,
				5.667092750627489e-08,
				0.9958356618881226
			],
			"scale":[
				1,
				0.9999998807907104,
				0.9999999403953552
			],
			"translation":[
				-6.821210263296962e-13,
				4.334229469299316,
				-2.7000623958883807e-12
			]
		},
		{
			"children":[
				21
			],
			"name":"tail2",
			"rotation":[
				0.04678487777709961,
				3.500641554410322e-08,
				2.458720160802841e-08,
				0.9989050030708313
			],
			"scale":[
				1,
				0.9999999403953552,
				1
			],
			"translation":[
				0,
				4.826064109802246,
				-1.1920948281840538e-06
			]
		},
		{
			"children":[
				22
			],
			"name":"tail1",
			"rotation":[
				-0.004911064635962248,
				-4.674962639228397e-08,
				-2.6060393842897156e-09,
				0.9999879598617554
			],
			"scale":[
				1,
				0.9999999403953552,
				1
			],
			"translation":[
				3.1919284992909525e-09,
				8.016531944274902,
				4.827974407817237e-06
			]
		},
		{
			"children":[
				23
			],
			"name":"tail0",
			"rotation":[
				-0.1511286199092865,
				0.005078648682683706,
				-0.001580994576215744,
				0.9884998202323914
			],
			"scale":[
				0.9999999403953552,
				1,
				0.9999999403953552
			],
			"translation":[
				2.2396818621928105e-08,
				10.728438377380371,
				-4.6921465468585666e-07
			]
		},
		{
			"children":[
				24
			],
			"name":"pelvis",
			"rotation":[
				-0.2995329201221466,
				-0.007750647608190775,
				0.005549564026296139,
				0.9540383815765381
			],
			"scale":[
				1,
				0.9999999403953552,
				0.9999999403953552
			],
			"translation":[
				-1.1175870895385742e-08,
				8.413064956665039,
				-2.2150634322315454e-06
			]
		},
		{
			"name":"leg_hind_left_toe_end",
			"rotation":[
				3.3776052532630274e-07,
				-9.493564334661642e-07,
				1.88750618690392e-07,
				1
			],
			"translation":[
				-3.152990757371299e-08,
				3.0000033378601074,
				8.734232324059121e-07
			]
		},
		{
			"children":[
				26
			],
			"name":"leg_hind_left_toe",
			"rotation":[
				-0.5356806516647339,
				0.1529029905796051,
				0.15289658308029175,
				0.8162657022476196
			],
			"scale":[
				0.9999999403953552,
				1,
				0.9999998211860657
			],
			"translation":[
				-1.430511474609375e-06,
				11.071978569030762,
				-9.5367431640625e-07
			]
		},
		{
			"children":[
				27
			],
			"name":"leg_hind_left_ankle",
			"rotation":[
				-0.46332332491874695,
				-0.2947990894317627,
				0.04361661151051521,
				0.8345792889595032
			],
			"scale":[
				1,
				1,
				1.0000001192092896
			],
			"translation":[
				-1.1920928955078125e-07,
				13.165735244750977,
				9.5367431640625e-07
			]
		},
		{
			"children":[
				28
			],
			"name":"leg_hind_left_bot0",
			"rotation":[
				-0.04845947027206421,
				-0.9522716403007507,
				0.2816888689994812,
				0.10715281963348389
			],
			"scale":[
				0.9999998807907104,
				1.0000004768371582,
				1.0000001192092896
			],
			"translation":[
				-1.1127849575132132e-07,
				4.9255805015563965,
				-6.395362674993521e-07
			]
		},
		{
			"children":[
				29
			],
			"name":"leg_hind_left_top1",
			"rotation":[
				-0.009435293264687061,
				-0.18542852997779846,
				-0.17429886758327484,
				0.9670301079750061
			],
			"scale":[
				0.9999998211860657,
				0.9999999403953552,
				0.9999999403953552
			],
			"translation":[
				2.384185791015625e-07,
				7.341635227203369,
				1.3709068298339844e-06
			]
		},
		{
			"children":[
				30
			],
			"name":"leg_hind_left_top0",
			"rotation":[
				0.2897518575191498,
				0.6959205865859985,
				-0.6566768288612366,
				0.022670306265354156
			],
			"scale":[
				0.9999999403953552,
				0.9999997019767761,
				0.9999999403953552
			],
			"translation":[
				0.22248032689094543,
				8.453266143798828,
				-1.448914885520935
			]
		},
		{
			"name":"leg_hind_right_toe_end",
			"rotation":[
				-3.2286271789416787e-07,
				8.469146450806875e-07,
				-2.0364655028970446e-07,
				1
			],
			"translation":[
				-7.245571396197192e-07,
				3.000000238418579,
				4.786907084053382e-07
			]
		},
		{
			"children":[
				32
			],
			"name":"leg_hind_right_toe",
			"rotation":[
				-0.5356804132461548,
				-0.1529029756784439,
				-0.15289591252803802,
				0.8162659406661987
			],
			"translation":[
				1.1920928955078125e-06,
				11.07197093963623,
				-9.5367431640625e-07
			]
		},
		{
			"children":[
				33
			],
			"name":"leg_hind_right_ankle",
			"rotation":[
				-0.4633236229419708,
				0.29479801654815674,
				-0.04361669719219208,
				0.8345795273780823
			],
			"scale":[
				0.9999999403953552,
				1.0000001192092896,
				1
			],
			"translation":[
				-2.980232238769531e-07,
				13.165736198425293,
				-1.1920928955078125e-07
			]
		},
		{
			"children":[
				34
			],
			"name":"leg_hind_right_bot0",
			"rotation":[
				-0.0484587624669075,
				0.952271580696106,
				-0.28168895840644836,
				0.10715394467115402
			],
			"scale":[
				0.9999999403953552,
				0.9999997615814209,
				0.9999998807907104
			],
			"translation":[
				-3.036984708160162e-08,
				4.925576686859131,
				-9.78012621999369e-07
			]
		},
		{
			"children":[
				35
			],
			"name":"leg_hind_right_top1",
			"rotation":[
				-0.00915987603366375,
				0.18000797927379608,
				0.1797674298286438,
				0.9670557975769043
			],
			"scale":[
				0.9999998211860657,
				0.9999998807907104,
				0.9999999403953552
			],
			"translation":[
				2.086162567138672e-07,
				7.384878158569336,
				1.1920928955078125e-06
			]
		},
		{
			"children":[
				36
			],
			"name":"leg_hind_right_top0",
			"rotation":[
				0.289988249540329,
				-0.6941553950309753,
				0.6584580540657043,
				0.022093765437602997
			],
			"scale":[
				0.9999999403953552,
				0.9999998807907104,
				0.9999999403953552
			],
			"translation":[
				-0.2099056839942932,
				8.450785636901855,
				-1.4491548538208008
			]
		},
		{
			"children":[
				25,
				31,
				37
			],
			"name":"body_bot",
			"rotation":[
				0.9975926876068115,
				0.0031819024588912725,
				0.0029283335898071527,
				0.06921114772558212
			],
			"scale":[
				0.9999999403953552,
				0.9999999403953552,
				0.9999935030937195
			],
			"translation":[
				0,
				-0.04201483726501465,
				-0.5041810274124146
			]
		},
		{
			"children":[
				17,
				38
			],
			"name":"body",
			"rotation":[
				0.7358790636062622,
				0,
				0,
				0.6771129965782166
			],
			"translation":[
				0,
				35.41306686401367,
				-5.15035343170166
			]
		},
		{
			"children":[
				39
			],
			"name":"root",
			"rotation":[
				-0.7071031928062439,
				0,
				0,
				0.7071103453636169
			],
			"translation":[
				0,
				1.1368683772161603e-13,
				23.793119430541992
			]
		},
		{
			"mesh":0,
			"name":"0708151833_texture",
			"skin":0
		},
		{
			"children":[
				41,
				40
			],
			"name":"rig",
			"rotation":[
				0.7071068286895752,
				0,
				0,
				0.7071068286895752
			]
		}
	],
	"materials":[
		{
			"doubleSided":true,
			"extensions":{
				"KHR_materials_specular":{
					"specularColorFactor":[
						2.0,
						2.0,
						2.0
					]
				}
			},
			"name":"Material_0",
			"pbrMetallicRoughness":{
				"baseColorTexture":{
					"index":0
				},
				"roughnessFactor":0.8999999761581421
			}
		}
	],
	"meshes":[
		{
			"name":"0708151833_texture",
			"primitives":[
				{
					"attributes":{
						"POSITION":0,
						"NORMAL":1,
						"TEXCOORD_0":2,
						"JOINTS_0":3,
						"WEIGHTS_0":4
					},
					"indices":5,
					"material":0
				}
			]
		}
	],
	"textures":[
		{
			"sampler":0,
			"source":0
		}
	],
	"images":[
		{
			"mimeType":"image/png",
			"name":"0708151833_texture",
			"uri":"0708151833_texture.png"
		}
	],
	"skins":[
		{
			"inverseBindMatrices":6,
			"joints":[
				40,
				39,
				17,
				16,
				5,
				4,
				3,
				2,
				1,
				0,
				9,
				8,
				7,
				6,
				15,
				14,
				13,
				12,
				11,
				10,
				38,
				25,
				24,
				23,
				22,
				21,
				20,
				19,
				18,
				31,
				30,
				29,
				28,
				27,
				26,
				37,
				36,
				35,
				34,
				33,
				32
			],
			"name":"rig"
		}
	],
	"accessors":[
		{
			"bufferView":0,
			"componentType":5126,
			"count":8561,
			"max":[
				7.796105861663818,
				23.793123245239258,
				43.27942657470703
			],
			"min":[
				-7.796105861663818,
				-23.793115615844727,
				-43.279422760009766
			],
			"type":"VEC3"
		},
		{
			"bufferView":1,
			"componentType":5126,
			"count":8561,
			"type":"VEC3"
		},
		{
			"bufferView":2,
			"componentType":5126,
			"count":8561,
			"type":"VEC2"
		},
		{
			"bufferView":3,
			"componentType":5121,
			"count":8561,
			"type":"VEC4"
		},
		{
			"bufferView":4,
			"componentType":5126,
			"count":8561,
			"type":"VEC4"
		},
		{
			"bufferView":5,
			"componentType":5123,
			"count":8856,
			"type":"SCALAR"
		},
		{
			"bufferView":6,
			"componentType":5126,
			"count":41,
			"type":"MAT4"
		}
	],
	"bufferViews":[
		{
			"buffer":0,
			"byteLength":102732,
			"byteOffset":0,
			"target":34962
		},
		{
			"buffer":0,
			"byteLength":102732,
			"byteOffset":102732,
			"target":34962
		},
		{
			"buffer":0,
			"byteLength":68488,
			"byteOffset":205464,
			"target":34962
		},
		{
			"buffer":0,
			"byteLength":34244,
			"byteOffset":273952,
			"target":34962
		},
		{
			"buffer":0,
			"byteLength":136976,
			"byteOffset":308196,
			"target":34962
		},
		{
			"buffer":0,
			"byteLength":17712,
			"byteOffset":445172,
			"target":34963
		},
		{
			"buffer":0,
			"byteLength":2624,
			"byteOffset":462884
		}
	],
	"samplers":[
		{
			"magFilter":9729,
			"minFilter":9987
		}
	],
	"buffers":[
		{
			"byteLength":465508,
			"uri":"0708151833_texture.bin"
		}
	]
}
