{
	"asset":{
		"generator":"Khronos glTF Blender I/O v4.1.62",
		"version":"2.0"
	},
	"scene":0,
	"scenes":[
		{
			"name":"Scene",
			"nodes":[
				43
			]
		}
	],
	"nodes":[
		{
			"name":"leg_front_right_toe_end",
			"rotation":[
				1.0013283334008721e-13,
				3.843258582492126e-07,
				3.2285851148117217e-07,
				1
			],
			"translation":[
				-3.277455107308924e-08,
				3.000000238418579,
				1.0425197842778289e-06
			]
		},
		{
			"children":[
				0
			],
			"name":"leg_front_right_toe",
			"rotation":[
				-0.5214506983757019,
				-0.15085507929325104,
				-0.15085452795028687,
				0.8261808753013611
			],
			"translation":[
				2.3096799850463867e-07,
				8.157524108886719,
				9.5367431640625e-07
			]
		},
		{
			"children":[
				1
			],
			"name":"leg_front_right_ankle",
			"rotation":[
				0.010324757546186447,
				-0.13272255659103394,
				-0.027700122445821762,
				0.9907122850418091
			],
			"scale":[
				1,
				1,
				0.9999999403953552
			],
			"translation":[
				-2.384185791015625e-07,
				11.70662784576416,
				7.152557373046875e-07
			]
		},
		{
			"children":[
				2
			],
			"name":"leg_front_right_bot0",
			"rotation":[
				0.034016937017440796,
				-0.9128971695899963,
				-0.20445211231708527,
				0.3516545295715332
			],
			"scale":[
				0.9999998807907104,
				0.9999998807907104,
				1
			],
			"translation":[
				1.537337084300816e-07,
				6.718631744384766,
				2.049601334874751e-06
			]
		},
		{
			"children":[
				3
			],
			"name":"leg_front_right_top1",
			"rotation":[
				0.01873154379427433,
				-0.5027217864990234,
				0.19127894937992096,
				0.8428121209144592
			],
			"translation":[
				1.217566705236095e-06,
				10.665851593017578,
				-8.693888275956851e-07
			]
		},
		{
			"children":[
				4
			],
			"name":"leg_front_right_top0",
			"rotation":[
				0.5311280488967896,
				-0.5249860882759094,
				-0.6494511365890503,
				0.14319832623004913
			],
			"scale":[
				1,
				0.9999998807907104,
				1
			],
			"translation":[
				-0.185834601521492,
				8.842119216918945,
				1.394796371459961
			]
		},
		{
			"name":"head0_end",
			"rotation":[
				7.450307748513296e-08,
				-1.9208528101444244e-09,
				-1.3096723705530167e-09,
				1
			],
			"translation":[
				2.2351741790771484e-08,
				12.64984130859375,
				-8.530914783477783e-07
			]
		},
		{
			"children":[
				6
			],
			"name":"head0",
			"rotation":[
				0.5420681238174438,
				-0.00547304330393672,
				-0.0011746962554752827,
				0.8403158783912659
			],
			"scale":[
				1.0000001192092896,
				1,
				1
			],
			"translation":[
				0,
				7.90876579284668,
				1.9739381968975067e-06
			]
		},
		{
			"children":[
				7
			],
			"name":"neck1",
			"rotation":[
				-0.10601208359003067,
				2.619562122774255e-09,
				-0.002398463198915124,
				0.994361937046051
			],
			"scale":[
				0.9999999403953552,
				0.9999999403953552,
				1
			],
			"translation":[
				6.705522537231445e-08,
				6.627109050750732,
				1.728214556351304e-06
			]
		},
		{
			"children":[
				8
			],
			"name":"neck0",
			"rotation":[
				-0.18574686348438263,
				0.006730495486408472,
				0.008326176553964615,
				0.9825393557548523
			],
			"translation":[
				2.8137183250009912e-08,
				9.255607604980469,
				-1.1928864296351094e-06
			]
		},
		{
			"name":"leg_front_left_toe_end",
			"rotation":[
				2.8312234690019977e-07,
				5.010516588299652e-07,
				4.768369876728684e-07,
				1
			],
			"translation":[
				-1.3409953680820763e-07,
				3.000004768371582,
				2.5594813450879883e-06
			]
		},
		{
			"children":[
				10
			],
			"name":"leg_front_left_toe",
			"rotation":[
				-0.5214507579803467,
				0.15085376799106598,
				0.15085424482822418,
				0.826181173324585
			],
			"scale":[
				1,
				0.9999998211860657,
				1
			],
			"translation":[
				7.450580596923828e-08,
				8.157519340515137,
				1.9073486328125e-06
			]
		},
		{
			"children":[
				11
			],
			"name":"leg_front_left_ankle",
			"rotation":[
				0.010324527509510517,
				0.1327228993177414,
				0.027700329199433327,
				0.9907122254371643
			],
			"scale":[
				0.9999999403953552,
				1,
				1
			],
			"translation":[
				1.9073486328125e-06,
				11.706620216369629,
				4.76837158203125e-07
			]
		},
		{
			"children":[
				12
			],
			"name":"leg_front_left_bot0",
			"rotation":[
				0.03401677682995796,
				0.9128969311714172,
				0.2044520378112793,
				0.35165533423423767
			],
			"scale":[
				1,
				0.9999998211860657,
				0.9999998807907104
			],
			"translation":[
				5.840120138600469e-07,
				6.718631744384766,
				1.9056551536777988e-07
			]
		},
		{
			"children":[
				13
			],
			"name":"leg_front_left_top1",
			"rotation":[
				0.019443796947598457,
				0.5218330025672913,
				-0.18491420149803162,
				0.8325377106666565
			],
			"scale":[
				1.0000001192092896,
				0.9999999403953552,
				1
			],
			"translation":[
				-5.101575766275346e-07,
				10.593070030212402,
				-9.205136848322581e-07
			]
		},
		{
			"children":[
				14
			],
			"name":"leg_front_left_top0",
			"rotation":[
				0.541761577129364,
				0.5186807513237,
				0.6416508555412292,
				0.16046445071697235
			],
			"scale":[
				1,
				0.9999999403953552,
				1
			],
			"translation":[
				0.17803926765918732,
				8.840782165527344,
				1.3975310325622559
			]
		},
		{
			"children":[
				5,
				9,
				15
			],
			"name":"body_top1",
			"rotation":[
				-0.061585403978824615,
				0.009329956956207752,
				0.011541939340531826,
				0.9979915022850037
			],
			"scale":[
				0.9999998807907104,
				1,
				1
			],
			"translation":[
				-3.725290298461914e-08,
				9.137286186218262,
				3.725290298461914e-08
			]
		},
		{
			"children":[
				16
			],
			"name":"body_top0",
			"rotation":[
				-0.0360950343310833,
				-0.016284288838505745,
				-0.016989311203360558,
				0.9990712404251099
			],
			"scale":[
				0.9999999403953552,
				0.9999998807907104,
				1
			],
			"translation":[
				4.6566128730773926e-08,
				8.50150203704834,
				-2.187793143093586e-06
			]
		},
		{
			"name":"tail7_end",
			"rotation":[
				-2.112938091158867e-07,
				-2.2165477275848389e-07,
				-1.4901161193847656e-08,
				1
			],
			"translation":[
				2.5331974029541016e-07,
				2.446934461593628,
				1.494772732257843e-06
			]
		},
		{
			"children":[
				18
			],
			"name":"tail7",
			"rotation":[
				0.07909812778234482,
				0.03589942306280136,
				-0.018610836938023567,
				0.9960463643074036
			],
			"scale":[
				1,
				0.9999999403953552,
				1
			],
			"translation":[
				2.121369107044302e-07,
				3.413577079772949,
				1.0502283657842781e-05
			]
		},
		{
			"children":[
				19
			],
			"name":"tail6",
			"rotation":[
				0.06267181038856506,
				0.021482789888978004,
				-0.0108725531026721,
				0.9977437257766724
			],
			"scale":[
				0.9999999403953552,
				0.9999999403953552,
				0.9999999403953552
			],
			"translation":[
				-3.725290298461914e-09,
				2.011251449584961,
				6.779446266591549e-07
			]
		},
		{
			"children":[
				20
			],
			"name":"tail5",
			"rotation":[
				3.1421222956851125e-08,
				-4.6566123179658803e-10,
				-1.1641532182693481e-09,
				1
			],
			"scale":[
				1,
				1,
				1.0000001192092896
			],
			"translation":[
				-6.705522537231445e-08,
				2.185838222503662,
				-5.995912943035364e-06
			]
		},
		{
			"children":[
				21
			],
			"name":"tail4",
			"rotation":[
				-3.731838660314679e-08,
				-4.916219040751457e-07,
				2.7706846594810486e-08,
				1
			],
			"translation":[
				3.4086406230926514e-07,
				2.2375948429107666,
				4.311499651521444e-06
			]
		},
		{
			"children":[
				22
			],
			"name":"tail3",
			"rotation":[
				0.04219413921236992,
				-0.7227116823196411,
				0.3442632853984833,
				0.5978212952613831
			],
			"scale":[
				1.000000238418579,
				1,
				1.0000001192092896
			],
			"translation":[
				4.0531158447265625e-06,
				4.383510112762451,
				5.960464477539062e-07
			]
		},
		{
			"children":[
				23
			],
			"name":"tail2",
			"rotation":[
				-0.029673544690012932,
				0.8694052696228027,
				-0.384429395198822,
				0.30897894501686096
			],
			"scale":[
				1,
				0.9999998807907104,
				0.9999998807907104
			],
			"translation":[
				3.337860107421875e-06,
				6.771648406982422,
				2.384185791015625e-06
			]
		},
		{
			"children":[
				24
			],
			"name":"tail1",
			"rotation":[
				0.2277168184518814,
				-0.3248332738876343,
				0.06031379476189613,
				0.9159643650054932
			],
			"scale":[
				0.9999999403953552,
				1,
				1
			],
			"translation":[
				1.1305004932182783e-08,
				1.3928427696228027,
				1.744061819408671e-06
			]
		},
		{
			"children":[
				25
			],
			"name":"tail0",
			"rotation":[
				-0.32061612606048584,
				-0.055004432797431946,
				0.010213031433522701,
				0.9455556869506836
			],
			"scale":[
				1,
				1,
				0.9999999403953552
			],
			"translation":[
				-1.043081283569336e-07,
				6.4120707511901855,
				7.059425115585327e-07
			]
		},
		{
			"children":[
				26
			],
			"name":"pelvis",
			"rotation":[
				-0.15091218054294586,
				0.03868376836180687,
				-0.031354956328868866,
				0.9872922301292419
			],
			"scale":[
				1,
				1.0000001192092896,
				1
			],
			"translation":[
				-0.23850415647029877,
				8.606232643127441,
				1.4032659530639648
			]
		},
		{
			"name":"leg_hind_right_toe_end",
			"rotation":[
				3.2658593340784137e-07,
				1.5894631815172033e-06,
				-7.947295443955227e-08,
				1
			],
			"translation":[
				1.1635961527645122e-07,
				3.0000016689300537,
				-6.180962373036891e-07
			]
		},
		{
			"children":[
				28
			],
			"name":"leg_hind_right_toe",
			"rotation":[
				-0.5403321385383606,
				-0.3347459137439728,
				-0.3347446620464325,
				0.6956525444984436
			],
			"scale":[
				0.9999998807907104,
				0.9999997615814209,
				0.9999998807907104
			],
			"translation":[
				-9.5367431640625e-07,
				6.250825881958008,
				9.5367431640625e-07
			]
		},
		{
			"children":[
				29
			],
			"name":"leg_hind_right_ankle",
			"rotation":[
				-0.35901203751564026,
				0.7790957093238831,
				-0.09655851125717163,
				0.5047738552093506
			],
			"scale":[
				0.9999998807907104,
				1,
				1
			],
			"translation":[
				-2.384185791015625e-06,
				12.390856742858887,
				-1.430511474609375e-06
			]
		},
		{
			"children":[
				30
			],
			"name":"leg_hind_right_bot0",
			"rotation":[
				-0.02524697780609131,
				0.8490384817123413,
				-0.29108431935310364,
				0.44018885493278503
			],
			"scale":[
				1.0000001192092896,
				1.000000238418579,
				1
			],
			"translation":[
				-2.3895154299680144e-07,
				8.414904594421387,
				-1.975290160771692e-06
			]
		},
		{
			"children":[
				31
			],
			"name":"leg_hind_right_top1",
			"rotation":[
				-0.0023703097831457853,
				0.07971982657909393,
				0.1874992400407791,
				0.9790215492248535
			],
			"scale":[
				1,
				0.9999998807907104,
				0.9999999403953552
			],
			"translation":[
				8.533079380868003e-07,
				6.738710403442383,
				-2.0060031147295376e-06
			]
		},
		{
			"children":[
				32
			],
			"name":"leg_hind_right_top0",
			"rotation":[
				0.21978461742401123,
				-0.7668302059173584,
				0.5996244549751282,
				0.06416160613298416
			],
			"scale":[
				1,
				1,
				0.9999999403953552
			],
			"translation":[
				-0.43784359097480774,
				8.942259788513184,
				-0.012221390381455421
			]
		},
		{
			"name":"leg_hind_left_toe_end",
			"rotation":[
				-4.966994815447379e-09,
				-1.4053724726181827e-06,
				-2.980232949312267e-08,
				1
			],
			"translation":[
				6.375684051818098e-07,
				3.0000035762786865,
				5.031088221585378e-06
			]
		},
		{
			"children":[
				34
			],
			"name":"leg_hind_left_toe",
			"rotation":[
				-0.540331244468689,
				0.3347473442554474,
				0.3347458839416504,
				0.6956518888473511
			],
			"scale":[
				0.9999998211860657,
				0.9999997615814209,
				0.9999997615814209
			],
			"translation":[
				2.384185791015625e-07,
				6.250823020935059,
				-4.76837158203125e-07
			]
		},
		{
			"children":[
				35
			],
			"name":"leg_hind_left_ankle",
			"rotation":[
				-0.35901135206222534,
				-0.7790970206260681,
				0.0965590551495552,
				0.5047722458839417
			],
			"translation":[
				1.430511474609375e-06,
				12.390862464904785,
				9.5367431640625e-07
			]
		},
		{
			"children":[
				36
			],
			"name":"leg_hind_left_bot0",
			"rotation":[
				-0.025246767327189445,
				-0.849038302898407,
				0.2910841107368469,
				0.44018930196762085
			],
			"scale":[
				0.9999999403953552,
				1,
				0.9999999403953552
			],
			"translation":[
				-7.296421244973317e-08,
				8.41490650177002,
				-1.0111239134857897e-06
			]
		},
		{
			"children":[
				37
			],
			"name":"leg_hind_left_top1",
			"rotation":[
				-0.002150183077901602,
				-0.07231374084949493,
				-0.2055160105228424,
				0.9759761095046997
			],
			"scale":[
				0.9999999403953552,
				0.9999999403953552,
				0.9999999403953552
			],
			"translation":[
				1.3162662071408704e-07,
				6.8701395988464355,
				3.90354017554273e-07
			]
		},
		{
			"children":[
				38
			],
			"name":"leg_hind_left_top0",
			"rotation":[
				0.22935913503170013,
				0.7649561762809753,
				-0.594610333442688,
				0.0931401327252388
			],
			"scale":[
				1.0000001192092896,
				0.9999999403953552,
				1
			],
			"translation":[
				8.568167686462402e-08,
				8.943948745727539,
				-3.6392011679708958e-06
			]
		},
		{
			"children":[
				27,
				33,
				39
			],
			"name":"body_bot",
			"rotation":[
				0.9933007955551147,
				-0.00248225056566298,
				0.009792962111532688,
				0.1151154413819313
			],
			"scale":[
				1,
				0.9999999403953552,
				0.999993622303009
			],
			"translation":[
				0.016712740063667297,
				0.991851270198822,
				-0.09327485412359238
			]
		},
		{
			"children":[
				17,
				40
			],
			"name":"body",
			"rotation":[
				-0.007844477891921997,
				0.0061497436836361885,
				0.0061497436836361885,
				0.9999313950538635
			],
			"translation":[
				0.005377139896154404,
				-10.949809074401855,
				-8.187272071838379
			]
		},
		{
			"mesh":0,
			"name":"uploads_files_5014699_Leopard_Low_Poly",
			"skin":0
		},
		{
			"children":[
				42,
				41
			],
			"name":"rig",
			"rotation":[
				0.7071068286895752,
				0,
				0,
				0.7071068286895752
			]
		}
	],
	"materials":[
		{
			"doubleSided":true,
			"name":"Leopard_Tris_Material",
			"pbrMetallicRoughness":{
				"baseColorTexture":{
					"index":0
				},
				"metallicFactor":0,
				"roughnessFactor":0.5
			}
		}
	],
	"meshes":[
		{
			"name":"uploads_files_5014699_Leopard_Low_Poly",
			"primitives":[
				{
					"attributes":{
						"POSITION":0,
						"NORMAL":1,
						"TEXCOORD_0":2,
						"JOINTS_0":3,
						"WEIGHTS_0":4
					},
					"indices":5,
					"material":0
				}
			]
		}
	],
	"textures":[
		{
			"sampler":0,
			"source":0
		}
	],
	"images":[
		{
			"mimeType":"image/png",
			"name":"Leopard_Tris_Diffuse",
			"uri":"Leopard_Tris_Diffuse.png"
		}
	],
	"skins":[
		{
			"inverseBindMatrices":6,
			"joints":[
				41,
				17,
				16,
				5,
				4,
				3,
				2,
				1,
				0,
				9,
				8,
				7,
				6,
				15,
				14,
				13,
				12,
				11,
				10,
				40,
				27,
				26,
				25,
				24,
				23,
				22,
				21,
				20,
				19,
				18,
				33,
				32,
				31,
				30,
				29,
				28,
				39,
				38,
				37,
				36,
				35,
				34
			],
			"name":"rig"
		}
	],
	"accessors":[
		{
			"bufferView":0,
			"componentType":5126,
			"count":2401,
			"max":[
				10.586514472961426,
				25.769628524780273,
				41.51929473876953
			],
			"min":[
				-10.586514472961426,
				-25.769630432128906,
				-41.51929473876953
			],
			"type":"VEC3"
		},
		{
			"bufferView":1,
			"componentType":5126,
			"count":2401,
			"type":"VEC3"
		},
		{
			"bufferView":2,
			"componentType":5126,
			"count":2401,
			"type":"VEC2"
		},
		{
			"bufferView":3,
			"componentType":5121,
			"count":2401,
			"type":"VEC4"
		},
		{
			"bufferView":4,
			"componentType":5126,
			"count":2401,
			"type":"VEC4"
		},
		{
			"bufferView":5,
			"componentType":5123,
			"count":8718,
			"type":"SCALAR"
		},
		{
			"bufferView":6,
			"componentType":5126,
			"count":42,
			"type":"MAT4"
		}
	],
	"bufferViews":[
		{
			"buffer":0,
			"byteLength":28812,
			"byteOffset":0,
			"target":34962
		},
		{
			"buffer":0,
			"byteLength":28812,
			"byteOffset":28812,
			"target":34962
		},
		{
			"buffer":0,
			"byteLength":19208,
			"byteOffset":57624,
			"target":34962
		},
		{
			"buffer":0,
			"byteLength":9604,
			"byteOffset":76832,
			"target":34962
		},
		{
			"buffer":0,
			"byteLength":38416,
			"byteOffset":86436,
			"target":34962
		},
		{
			"buffer":0,
			"byteLength":17436,
			"byteOffset":124852,
			"target":34963
		},
		{
			"buffer":0,
			"byteLength":2688,
			"byteOffset":142288
		}
	],
	"samplers":[
		{
			"magFilter":9729,
			"minFilter":9987
		}
	],
	"buffers":[
		{
			"byteLength":144976,
			"uri":"uploads_files_5014699_Leopard_Low_Poly.bin"
		}
	]
}
