{
	"asset":{
		"generator":"Khronos glTF Blender I/O v4.1.62",
		"version":"2.0"
	},
	"extensionsUsed":[
		"KHR_materials_specular"
	],
	"scene":0,
	"scenes":[
		{
			"name":"Scene",
			"nodes":[
				36
			]
		}
	],
	"nodes":[
		{
			"name":"leg_front_left_toe",
			"rotation":[
				-0.497810959815979,
				0.11487040668725967,
				0.11487098783254623,
				0.8519352674484253
			],
			"translation":[
				-4.172325134277344e-07,
				4.916553020477295,
				1.1920928955078125e-06
			]
		},
		{
			"children":[
				0
			],
			"name":"leg_front_left_ankle",
			"rotation":[
				0.037431053817272186,
				-0.17145638167858124,
				-0.051355041563510895,
				0.9831399917602539
			],
			"scale":[
				1.0000001192092896,
				1,
				1
			],
			"translation":[
				4.172325134277344e-07,
				15.393675804138184,
				-2.682209014892578e-07
			]
		},
		{
			"children":[
				1
			],
			"name":"leg_front_left_bot0",
			"rotation":[
				-0.02569246105849743,
				-0.9564589262008667,
				-0.29059508442878723,
				0.008985930122435093
			],
			"scale":[
				1,
				1.0000001192092896,
				1
			],
			"translation":[
				-4.133980837650597e-07,
				9.313427925109863,
				1.919848727993667e-06
			]
		},
		{
			"children":[
				2
			],
			"name":"leg_front_left_top1",
			"rotation":[
				0.018296528607606888,
				0.6811093688011169,
				-0.3957745134830475,
				0.6157255172729492
			],
			"scale":[
				0.9999999403953552,
				0.9999999403953552,
				0.9999999403953552
			],
			"translation":[
				-1.1920928955078125e-06,
				8.224114418029785,
				7.748603820800781e-07
			]
		},
		{
			"children":[
				3
			],
			"name":"leg_front_left_top0",
			"rotation":[
				0.7737586498260498,
				0.42652836441993713,
				0.42889246344566345,
				0.1882081776857376
			],
			"scale":[
				1.0000001192092896,
				1.0000001192092896,
				1
			],
			"translation":[
				0.24930909276008606,
				7.954157829284668,
				2.738630533218384
			]
		},
		{
			"name":"head0",
			"rotation":[
				0.7161225080490112,
				0,
				0,
				0.697974681854248
			],
			"scale":[
				1,
				0.9999999403953552,
				0.9999999403953552
			],
			"translation":[
				0,
				7.324899673461914,
				0
			]
		},
		{
			"children":[
				5
			],
			"name":"neck1",
			"rotation":[
				-0.3439413011074066,
				0,
				0,
				0.9389911890029907
			],
			"scale":[
				1,
				0.9999998807907104,
				1
			],
			"translation":[
				0,
				7.244693756103516,
				-2.384185791015625e-07
			]
		},
		{
			"children":[
				6
			],
			"name":"neck0",
			"rotation":[
				-0.0555398091673851,
				0,
				0,
				0.9984564781188965
			],
			"scale":[
				1,
				1.0000001192092896,
				1
			],
			"translation":[
				0,
				10.351560592651367,
				-1.1995434761047363e-06
			]
		},
		{
			"name":"leg_front_right_toe",
			"rotation":[
				-0.497810959815979,
				-0.11487040668725967,
				-0.11487098783254623,
				0.8519352674484253
			],
			"translation":[
				4.172325134277344e-07,
				4.916553020477295,
				1.1920928955078125e-06
			]
		},
		{
			"children":[
				8
			],
			"name":"leg_front_right_ankle",
			"rotation":[
				0.037431053817272186,
				0.17145638167858124,
				0.051355041563510895,
				0.9831399917602539
			],
			"scale":[
				1.0000001192092896,
				1,
				1
			],
			"translation":[
				-4.172325134277344e-07,
				15.393675804138184,
				-2.682209014892578e-07
			]
		},
		{
			"children":[
				9
			],
			"name":"leg_front_right_bot0",
			"rotation":[
				-0.02569246105849743,
				0.9564589262008667,
				0.29059508442878723,
				0.008985930122435093
			],
			"scale":[
				1,
				1.0000001192092896,
				1
			],
			"translation":[
				4.133980837650597e-07,
				9.313427925109863,
				1.919848727993667e-06
			]
		},
		{
			"children":[
				10
			],
			"name":"leg_front_right_top1",
			"rotation":[
				0.018296528607606888,
				-0.6811093688011169,
				0.3957745134830475,
				0.6157255172729492
			],
			"scale":[
				0.9999999403953552,
				0.9999999403953552,
				0.9999999403953552
			],
			"translation":[
				1.1920928955078125e-06,
				8.224114418029785,
				7.748603820800781e-07
			]
		},
		{
			"children":[
				11
			],
			"name":"leg_front_right_top0",
			"rotation":[
				0.7737586498260498,
				-0.42652836441993713,
				-0.42889246344566345,
				0.1882081776857376
			],
			"scale":[
				1.0000001192092896,
				1.0000001192092896,
				1
			],
			"translation":[
				-0.24930909276008606,
				7.954157829284668,
				2.738630533218384
			]
		},
		{
			"children":[
				4,
				7,
				12
			],
			"name":"body_top1",
			"rotation":[
				0.01790042407810688,
				0,
				0,
				0.9998397827148438
			],
			"scale":[
				1,
				0.9999998807907104,
				0.9999998807907104
			],
			"translation":[
				0,
				8.207012176513672,
				-2.384185791015625e-07
			]
		},
		{
			"children":[
				13
			],
			"name":"body_top0",
			"rotation":[
				-0.06219562515616417,
				0,
				0,
				0.9980640411376953
			],
			"scale":[
				1,
				0.9999998211860657,
				0.9999999403953552
			],
			"translation":[
				0,
				7.1946120262146,
				-0.36415013670921326
			]
		},
		{
			"name":"tail5",
			"rotation":[
				0.07590135931968689,
				3.433840589650572e-08,
				8.369192272539294e-08,
				0.9971153140068054
			],
			"scale":[
				1,
				1.0000001192092896,
				1.0000001192092896
			],
			"translation":[
				2.2737367544323206e-12,
				4.0929951667785645,
				4.7683468551440455e-07
			]
		},
		{
			"children":[
				15
			],
			"name":"tail4",
			"rotation":[
				0.12917034327983856,
				8.579886667803294e-08,
				1.2680200711656653e-07,
				0.9916223883628845
			],
			"scale":[
				1,
				1.0000001192092896,
				1
			],
			"translation":[
				9.094947017729282e-13,
				4.186920166015625,
				-1.907350679175579e-06
			]
		},
		{
			"children":[
				16
			],
			"name":"tail3",
			"rotation":[
				0.09116722643375397,
				7.902286114358503e-08,
				7.437324001102752e-08,
				0.9958356618881226
			],
			"scale":[
				1,
				1,
				0.9999999403953552
			],
			"translation":[
				-4.547473508864641e-13,
				4.334214687347412,
				-3.3378614716639277e-06
			]
		},
		{
			"children":[
				17
			],
			"name":"tail2",
			"rotation":[
				0.04678497463464737,
				4.555986521381783e-08,
				3.2320549792075326e-08,
				0.9989050030708313
			],
			"scale":[
				1,
				1,
				1.0000001192092896
			],
			"translation":[
				0,
				4.8260369300842285,
				9.536732932247105e-07
			]
		},
		{
			"children":[
				18
			],
			"name":"tail1",
			"rotation":[
				-0.004911004565656185,
				-3.589916985902164e-08,
				-3.2260341065182274e-09,
				0.9999879598617554
			],
			"scale":[
				1,
				1.0000001192092896,
				1.0000001192092896
			],
			"translation":[
				4.104134632143541e-08,
				8.016490936279297,
				7.927416845632251e-06
			]
		},
		{
			"children":[
				19
			],
			"name":"tail0",
			"rotation":[
				-0.15112899243831635,
				0.005078575108200312,
				-0.0015810318291187286,
				0.9884997606277466
			],
			"scale":[
				0.9999998807907104,
				1.0000001192092896,
				1.0000001192092896
			],
			"translation":[
				-4.2778424358402845e-08,
				10.728401184082031,
				1.917892632263829e-06
			]
		},
		{
			"children":[
				20
			],
			"name":"pelvis",
			"rotation":[
				-0.2995316684246063,
				-0.007750663906335831,
				0.0055494848638772964,
				0.9540387988090515
			],
			"scale":[
				1,
				1.0000001192092896,
				1
			],
			"translation":[
				-7.450580596923828e-09,
				8.413065910339355,
				7.16507202014327e-07
			]
		},
		{
			"name":"leg_hind_left_toe",
			"rotation":[
				-0.5356789827346802,
				0.15290161967277527,
				0.15289710462093353,
				0.8162668943405151
			],
			"scale":[
				0.9999999403953552,
				0.9999999403953552,
				1
			],
			"translation":[
				-5.960464477539062e-07,
				11.071914672851562,
				4.76837158203125e-07
			]
		},
		{
			"children":[
				22
			],
			"name":"leg_hind_left_ankle",
			"rotation":[
				-0.46332576870918274,
				-0.29479852318763733,
				0.043616678565740585,
				0.8345781564712524
			],
			"scale":[
				1,
				1,
				0.9999999403953552
			],
			"translation":[
				5.364418029785156e-07,
				13.165656089782715,
				-7.748603820800781e-07
			]
		},
		{
			"children":[
				23
			],
			"name":"leg_hind_left_bot0",
			"rotation":[
				-0.048459552228450775,
				-0.9522711038589478,
				0.28169044852256775,
				0.10715389251708984
			],
			"translation":[
				-6.365007720887661e-08,
				4.9255475997924805,
				1.755409471115854e-06
			]
		},
		{
			"children":[
				24
			],
			"name":"leg_hind_left_top1",
			"rotation":[
				-0.009435540065169334,
				-0.1854291558265686,
				-0.17429976165294647,
				0.9670298099517822
			],
			"scale":[
				1,
				1.0000001192092896,
				1.0000001192092896
			],
			"translation":[
				6.556510925292969e-07,
				7.341592788696289,
				-5.066394805908203e-07
			]
		},
		{
			"children":[
				25
			],
			"name":"leg_hind_left_top0",
			"rotation":[
				0.2897525131702423,
				0.695919930934906,
				-0.6566771268844604,
				0.02267170138657093
			],
			"scale":[
				1.0000001192092896,
				1.0000003576278687,
				1.0000003576278687
			],
			"translation":[
				0.22248078882694244,
				8.453264236450195,
				-1.4489026069641113
			]
		},
		{
			"name":"leg_hind_right_toe",
			"rotation":[
				-0.5356786251068115,
				-0.152901753783226,
				-0.15289606153964996,
				0.8162672519683838
			],
			"scale":[
				0.9999999403953552,
				1.0000001192092896,
				1
			],
			"translation":[
				-5.960464477539062e-07,
				11.071903228759766,
				2.1457672119140625e-06
			]
		},
		{
			"children":[
				27
			],
			"name":"leg_hind_right_ankle",
			"rotation":[
				-0.46332624554634094,
				0.2947971224784851,
				-0.04361683502793312,
				0.8345783352851868
			],
			"scale":[
				1,
				1.0000001192092896,
				1
			],
			"translation":[
				2.384185791015625e-07,
				13.165658950805664,
				1.1920928955078125e-07
			]
		},
		{
			"children":[
				28
			],
			"name":"leg_hind_right_bot0",
			"rotation":[
				-0.048457808792591095,
				0.9522706270217896,
				-0.28169068694114685,
				0.10715799778699875
			],
			"scale":[
				0.9999999403953552,
				1.000000238418579,
				1
			],
			"translation":[
				2.2198219085112214e-07,
				4.925539493560791,
				2.891489430112415e-07
			]
		},
		{
			"children":[
				29
			],
			"name":"leg_hind_right_top1",
			"rotation":[
				-0.009160848334431648,
				0.1800122708082199,
				0.17976868152618408,
				0.9670547246932983
			],
			"scale":[
				1,
				1.0000001192092896,
				1.0000001192092896
			],
			"translation":[
				2.8312206268310547e-07,
				7.384832859039307,
				3.2782554626464844e-07
			]
		},
		{
			"children":[
				30
			],
			"name":"leg_hind_right_top0",
			"rotation":[
				0.2899893522262573,
				-0.694154679775238,
				0.6584582924842834,
				0.022094830870628357
			],
			"scale":[
				1,
				1.000000238418579,
				1.0000001192092896
			],
			"translation":[
				-0.20990535616874695,
				8.450782775878906,
				-1.4491422176361084
			]
		},
		{
			"children":[
				21,
				26,
				31
			],
			"name":"body_bot",
			"rotation":[
				0.9975926876068115,
				0.0031818917486816645,
				0.0029281761962920427,
				0.06921068578958511
			],
			"scale":[
				0.9999999403953552,
				1,
				1.000007152557373
			],
			"translation":[
				0,
				-0.04201483726501465,
				-0.5041804313659668
			]
		},
		{
			"children":[
				14,
				32
			],
			"name":"body",
			"rotation":[
				0.7358790636062622,
				0,
				0,
				0.6771129965782166
			],
			"translation":[
				0,
				35.41306686401367,
				-5.150352954864502
			]
		},
		{
			"children":[
				33
			],
			"name":"root",
			"rotation":[
				-0.7071031928062439,
				0,
				0,
				0.7071103453636169
			],
			"translation":[
				0,
				2.2737367544323206e-13,
				23.793119430541992
			]
		},
		{
			"mesh":0,
			"name":"0708151833_texture",
			"skin":0
		},
		{
			"children":[
				35,
				34
			],
			"name":"rig",
			"rotation":[
				0.7071068286895752,
				0,
				0,
				0.7071068286895752
			]
		}
	],
	"animations":[
		{
			"channels":[
				{
					"sampler":0,
					"target":{
						"node":34,
						"path":"translation"
					}
				},
				{
					"sampler":1,
					"target":{
						"node":34,
						"path":"rotation"
					}
				},
				{
					"sampler":2,
					"target":{
						"node":34,
						"path":"scale"
					}
				},
				{
					"sampler":3,
					"target":{
						"node":33,
						"path":"translation"
					}
				},
				{
					"sampler":4,
					"target":{
						"node":33,
						"path":"rotation"
					}
				},
				{
					"sampler":5,
					"target":{
						"node":33,
						"path":"scale"
					}
				},
				{
					"sampler":6,
					"target":{
						"node":14,
						"path":"translation"
					}
				},
				{
					"sampler":7,
					"target":{
						"node":14,
						"path":"rotation"
					}
				},
				{
					"sampler":8,
					"target":{
						"node":14,
						"path":"scale"
					}
				},
				{
					"sampler":9,
					"target":{
						"node":13,
						"path":"translation"
					}
				},
				{
					"sampler":10,
					"target":{
						"node":13,
						"path":"rotation"
					}
				},
				{
					"sampler":11,
					"target":{
						"node":13,
						"path":"scale"
					}
				},
				{
					"sampler":12,
					"target":{
						"node":4,
						"path":"translation"
					}
				},
				{
					"sampler":13,
					"target":{
						"node":4,
						"path":"rotation"
					}
				},
				{
					"sampler":14,
					"target":{
						"node":4,
						"path":"scale"
					}
				},
				{
					"sampler":15,
					"target":{
						"node":3,
						"path":"translation"
					}
				},
				{
					"sampler":16,
					"target":{
						"node":3,
						"path":"rotation"
					}
				},
				{
					"sampler":17,
					"target":{
						"node":3,
						"path":"scale"
					}
				},
				{
					"sampler":18,
					"target":{
						"node":2,
						"path":"translation"
					}
				},
				{
					"sampler":19,
					"target":{
						"node":2,
						"path":"rotation"
					}
				},
				{
					"sampler":20,
					"target":{
						"node":2,
						"path":"scale"
					}
				},
				{
					"sampler":21,
					"target":{
						"node":1,
						"path":"translation"
					}
				},
				{
					"sampler":22,
					"target":{
						"node":1,
						"path":"rotation"
					}
				},
				{
					"sampler":23,
					"target":{
						"node":1,
						"path":"scale"
					}
				},
				{
					"sampler":24,
					"target":{
						"node":0,
						"path":"translation"
					}
				},
				{
					"sampler":25,
					"target":{
						"node":0,
						"path":"rotation"
					}
				},
				{
					"sampler":26,
					"target":{
						"node":0,
						"path":"scale"
					}
				},
				{
					"sampler":27,
					"target":{
						"node":7,
						"path":"translation"
					}
				},
				{
					"sampler":28,
					"target":{
						"node":7,
						"path":"rotation"
					}
				},
				{
					"sampler":29,
					"target":{
						"node":7,
						"path":"scale"
					}
				},
				{
					"sampler":30,
					"target":{
						"node":6,
						"path":"translation"
					}
				},
				{
					"sampler":31,
					"target":{
						"node":6,
						"path":"rotation"
					}
				},
				{
					"sampler":32,
					"target":{
						"node":6,
						"path":"scale"
					}
				},
				{
					"sampler":33,
					"target":{
						"node":5,
						"path":"translation"
					}
				},
				{
					"sampler":34,
					"target":{
						"node":5,
						"path":"rotation"
					}
				},
				{
					"sampler":35,
					"target":{
						"node":5,
						"path":"scale"
					}
				},
				{
					"sampler":36,
					"target":{
						"node":12,
						"path":"translation"
					}
				},
				{
					"sampler":37,
					"target":{
						"node":12,
						"path":"rotation"
					}
				},
				{
					"sampler":38,
					"target":{
						"node":12,
						"path":"scale"
					}
				},
				{
					"sampler":39,
					"target":{
						"node":11,
						"path":"translation"
					}
				},
				{
					"sampler":40,
					"target":{
						"node":11,
						"path":"rotation"
					}
				},
				{
					"sampler":41,
					"target":{
						"node":11,
						"path":"scale"
					}
				},
				{
					"sampler":42,
					"target":{
						"node":10,
						"path":"translation"
					}
				},
				{
					"sampler":43,
					"target":{
						"node":10,
						"path":"rotation"
					}
				},
				{
					"sampler":44,
					"target":{
						"node":10,
						"path":"scale"
					}
				},
				{
					"sampler":45,
					"target":{
						"node":9,
						"path":"translation"
					}
				},
				{
					"sampler":46,
					"target":{
						"node":9,
						"path":"rotation"
					}
				},
				{
					"sampler":47,
					"target":{
						"node":9,
						"path":"scale"
					}
				},
				{
					"sampler":48,
					"target":{
						"node":8,
						"path":"translation"
					}
				},
				{
					"sampler":49,
					"target":{
						"node":8,
						"path":"rotation"
					}
				},
				{
					"sampler":50,
					"target":{
						"node":8,
						"path":"scale"
					}
				},
				{
					"sampler":51,
					"target":{
						"node":32,
						"path":"translation"
					}
				},
				{
					"sampler":52,
					"target":{
						"node":32,
						"path":"rotation"
					}
				},
				{
					"sampler":53,
					"target":{
						"node":32,
						"path":"scale"
					}
				},
				{
					"sampler":54,
					"target":{
						"node":21,
						"path":"translation"
					}
				},
				{
					"sampler":55,
					"target":{
						"node":21,
						"path":"rotation"
					}
				},
				{
					"sampler":56,
					"target":{
						"node":21,
						"path":"scale"
					}
				},
				{
					"sampler":57,
					"target":{
						"node":20,
						"path":"translation"
					}
				},
				{
					"sampler":58,
					"target":{
						"node":20,
						"path":"rotation"
					}
				},
				{
					"sampler":59,
					"target":{
						"node":20,
						"path":"scale"
					}
				},
				{
					"sampler":60,
					"target":{
						"node":19,
						"path":"translation"
					}
				},
				{
					"sampler":61,
					"target":{
						"node":19,
						"path":"rotation"
					}
				},
				{
					"sampler":62,
					"target":{
						"node":19,
						"path":"scale"
					}
				},
				{
					"sampler":63,
					"target":{
						"node":18,
						"path":"translation"
					}
				},
				{
					"sampler":64,
					"target":{
						"node":18,
						"path":"rotation"
					}
				},
				{
					"sampler":65,
					"target":{
						"node":18,
						"path":"scale"
					}
				},
				{
					"sampler":66,
					"target":{
						"node":17,
						"path":"translation"
					}
				},
				{
					"sampler":67,
					"target":{
						"node":17,
						"path":"rotation"
					}
				},
				{
					"sampler":68,
					"target":{
						"node":17,
						"path":"scale"
					}
				},
				{
					"sampler":69,
					"target":{
						"node":16,
						"path":"translation"
					}
				},
				{
					"sampler":70,
					"target":{
						"node":16,
						"path":"rotation"
					}
				},
				{
					"sampler":71,
					"target":{
						"node":16,
						"path":"scale"
					}
				},
				{
					"sampler":72,
					"target":{
						"node":15,
						"path":"translation"
					}
				},
				{
					"sampler":73,
					"target":{
						"node":15,
						"path":"rotation"
					}
				},
				{
					"sampler":74,
					"target":{
						"node":15,
						"path":"scale"
					}
				},
				{
					"sampler":75,
					"target":{
						"node":26,
						"path":"translation"
					}
				},
				{
					"sampler":76,
					"target":{
						"node":26,
						"path":"rotation"
					}
				},
				{
					"sampler":77,
					"target":{
						"node":26,
						"path":"scale"
					}
				},
				{
					"sampler":78,
					"target":{
						"node":25,
						"path":"translation"
					}
				},
				{
					"sampler":79,
					"target":{
						"node":25,
						"path":"rotation"
					}
				},
				{
					"sampler":80,
					"target":{
						"node":25,
						"path":"scale"
					}
				},
				{
					"sampler":81,
					"target":{
						"node":24,
						"path":"translation"
					}
				},
				{
					"sampler":82,
					"target":{
						"node":24,
						"path":"rotation"
					}
				},
				{
					"sampler":83,
					"target":{
						"node":24,
						"path":"scale"
					}
				},
				{
					"sampler":84,
					"target":{
						"node":23,
						"path":"translation"
					}
				},
				{
					"sampler":85,
					"target":{
						"node":23,
						"path":"rotation"
					}
				},
				{
					"sampler":86,
					"target":{
						"node":23,
						"path":"scale"
					}
				},
				{
					"sampler":87,
					"target":{
						"node":22,
						"path":"translation"
					}
				},
				{
					"sampler":88,
					"target":{
						"node":22,
						"path":"rotation"
					}
				},
				{
					"sampler":89,
					"target":{
						"node":22,
						"path":"scale"
					}
				},
				{
					"sampler":90,
					"target":{
						"node":31,
						"path":"translation"
					}
				},
				{
					"sampler":91,
					"target":{
						"node":31,
						"path":"rotation"
					}
				},
				{
					"sampler":92,
					"target":{
						"node":31,
						"path":"scale"
					}
				},
				{
					"sampler":93,
					"target":{
						"node":30,
						"path":"translation"
					}
				},
				{
					"sampler":94,
					"target":{
						"node":30,
						"path":"rotation"
					}
				},
				{
					"sampler":95,
					"target":{
						"node":30,
						"path":"scale"
					}
				},
				{
					"sampler":96,
					"target":{
						"node":29,
						"path":"translation"
					}
				},
				{
					"sampler":97,
					"target":{
						"node":29,
						"path":"rotation"
					}
				},
				{
					"sampler":98,
					"target":{
						"node":29,
						"path":"scale"
					}
				},
				{
					"sampler":99,
					"target":{
						"node":28,
						"path":"translation"
					}
				},
				{
					"sampler":100,
					"target":{
						"node":28,
						"path":"rotation"
					}
				},
				{
					"sampler":101,
					"target":{
						"node":28,
						"path":"scale"
					}
				},
				{
					"sampler":102,
					"target":{
						"node":27,
						"path":"translation"
					}
				},
				{
					"sampler":103,
					"target":{
						"node":27,
						"path":"rotation"
					}
				},
				{
					"sampler":104,
					"target":{
						"node":27,
						"path":"scale"
					}
				},
				{
					"sampler":105,
					"target":{
						"node":36,
						"path":"translation"
					}
				},
				{
					"sampler":106,
					"target":{
						"node":36,
						"path":"rotation"
					}
				},
				{
					"sampler":107,
					"target":{
						"node":36,
						"path":"scale"
					}
				}
			],
			"name":"rig|rig|walk",
			"samplers":[
				{
					"input":7,
					"interpolation":"STEP",
					"output":8
				},
				{
					"input":7,
					"interpolation":"STEP",
					"output":9
				},
				{
					"input":7,
					"interpolation":"STEP",
					"output":10
				},
				{
					"input":7,
					"interpolation":"STEP",
					"output":11
				},
				{
					"input":12,
					"interpolation":"LINEAR",
					"output":13
				},
				{
					"input":7,
					"interpolation":"STEP",
					"output":14
				},
				{
					"input":7,
					"interpolation":"STEP",
					"output":15
				},
				{
					"input":12,
					"interpolation":"LINEAR",
					"output":16
				},
				{
					"input":7,
					"interpolation":"STEP",
					"output":17
				},
				{
					"input":7,
					"interpolation":"STEP",
					"output":18
				},
				{
					"input":12,
					"interpolation":"LINEAR",
					"output":19
				},
				{
					"input":7,
					"interpolation":"STEP",
					"output":20
				},
				{
					"input":7,
					"interpolation":"STEP",
					"output":21
				},
				{
					"input":12,
					"interpolation":"LINEAR",
					"output":22
				},
				{
					"input":7,
					"interpolation":"STEP",
					"output":23
				},
				{
					"input":7,
					"interpolation":"STEP",
					"output":24
				},
				{
					"input":12,
					"interpolation":"LINEAR",
					"output":25
				},
				{
					"input":7,
					"interpolation":"STEP",
					"output":26
				},
				{
					"input":7,
					"interpolation":"STEP",
					"output":27
				},
				{
					"input":12,
					"interpolation":"LINEAR",
					"output":28
				},
				{
					"input":7,
					"interpolation":"STEP",
					"output":29
				},
				{
					"input":7,
					"interpolation":"STEP",
					"output":30
				},
				{
					"input":12,
					"interpolation":"LINEAR",
					"output":31
				},
				{
					"input":7,
					"interpolation":"STEP",
					"output":32
				},
				{
					"input":7,
					"interpolation":"STEP",
					"output":33
				},
				{
					"input":12,
					"interpolation":"LINEAR",
					"output":34
				},
				{
					"input":7,
					"interpolation":"STEP",
					"output":35
				},
				{
					"input":7,
					"interpolation":"STEP",
					"output":36
				},
				{
					"input":12,
					"interpolation":"LINEAR",
					"output":37
				},
				{
					"input":7,
					"interpolation":"STEP",
					"output":38
				},
				{
					"input":7,
					"interpolation":"STEP",
					"output":39
				},
				{
					"input":12,
					"interpolation":"LINEAR",
					"output":40
				},
				{
					"input":7,
					"interpolation":"STEP",
					"output":41
				},
				{
					"input":7,
					"interpolation":"STEP",
					"output":42
				},
				{
					"input":12,
					"interpolation":"LINEAR",
					"output":43
				},
				{
					"input":7,
					"interpolation":"STEP",
					"output":44
				},
				{
					"input":7,
					"interpolation":"LINEAR",
					"output":45
				},
				{
					"input":12,
					"interpolation":"LINEAR",
					"output":46
				},
				{
					"input":7,
					"interpolation":"STEP",
					"output":47
				},
				{
					"input":7,
					"interpolation":"STEP",
					"output":48
				},
				{
					"input":12,
					"interpolation":"LINEAR",
					"output":49
				},
				{
					"input":7,
					"interpolation":"STEP",
					"output":50
				},
				{
					"input":7,
					"interpolation":"STEP",
					"output":51
				},
				{
					"input":12,
					"interpolation":"LINEAR",
					"output":52
				},
				{
					"input":7,
					"interpolation":"STEP",
					"output":53
				},
				{
					"input":7,
					"interpolation":"STEP",
					"output":54
				},
				{
					"input":12,
					"interpolation":"LINEAR",
					"output":55
				},
				{
					"input":7,
					"interpolation":"STEP",
					"output":56
				},
				{
					"input":7,
					"interpolation":"STEP",
					"output":57
				},
				{
					"input":12,
					"interpolation":"LINEAR",
					"output":58
				},
				{
					"input":7,
					"interpolation":"STEP",
					"output":59
				},
				{
					"input":7,
					"interpolation":"STEP",
					"output":60
				},
				{
					"input":12,
					"interpolation":"LINEAR",
					"output":61
				},
				{
					"input":7,
					"interpolation":"STEP",
					"output":62
				},
				{
					"input":7,
					"interpolation":"STEP",
					"output":63
				},
				{
					"input":12,
					"interpolation":"LINEAR",
					"output":64
				},
				{
					"input":7,
					"interpolation":"STEP",
					"output":65
				},
				{
					"input":7,
					"interpolation":"STEP",
					"output":66
				},
				{
					"input":12,
					"interpolation":"LINEAR",
					"output":67
				},
				{
					"input":7,
					"interpolation":"STEP",
					"output":68
				},
				{
					"input":7,
					"interpolation":"STEP",
					"output":69
				},
				{
					"input":12,
					"interpolation":"LINEAR",
					"output":70
				},
				{
					"input":7,
					"interpolation":"STEP",
					"output":71
				},
				{
					"input":7,
					"interpolation":"STEP",
					"output":72
				},
				{
					"input":12,
					"interpolation":"LINEAR",
					"output":73
				},
				{
					"input":7,
					"interpolation":"STEP",
					"output":74
				},
				{
					"input":7,
					"interpolation":"STEP",
					"output":75
				},
				{
					"input":12,
					"interpolation":"LINEAR",
					"output":76
				},
				{
					"input":7,
					"interpolation":"STEP",
					"output":77
				},
				{
					"input":7,
					"interpolation":"STEP",
					"output":78
				},
				{
					"input":12,
					"interpolation":"LINEAR",
					"output":79
				},
				{
					"input":7,
					"interpolation":"STEP",
					"output":80
				},
				{
					"input":7,
					"interpolation":"STEP",
					"output":81
				},
				{
					"input":12,
					"interpolation":"LINEAR",
					"output":82
				},
				{
					"input":7,
					"interpolation":"STEP",
					"output":83
				},
				{
					"input":7,
					"interpolation":"STEP",
					"output":84
				},
				{
					"input":12,
					"interpolation":"LINEAR",
					"output":85
				},
				{
					"input":7,
					"interpolation":"STEP",
					"output":86
				},
				{
					"input":7,
					"interpolation":"STEP",
					"output":87
				},
				{
					"input":12,
					"interpolation":"LINEAR",
					"output":88
				},
				{
					"input":7,
					"interpolation":"STEP",
					"output":89
				},
				{
					"input":7,
					"interpolation":"STEP",
					"output":90
				},
				{
					"input":12,
					"interpolation":"LINEAR",
					"output":91
				},
				{
					"input":7,
					"interpolation":"STEP",
					"output":92
				},
				{
					"input":7,
					"interpolation":"STEP",
					"output":93
				},
				{
					"input":12,
					"interpolation":"LINEAR",
					"output":94
				},
				{
					"input":7,
					"interpolation":"STEP",
					"output":95
				},
				{
					"input":7,
					"interpolation":"STEP",
					"output":96
				},
				{
					"input":12,
					"interpolation":"LINEAR",
					"output":97
				},
				{
					"input":7,
					"interpolation":"STEP",
					"output":98
				},
				{
					"input":7,
					"interpolation":"STEP",
					"output":99
				},
				{
					"input":12,
					"interpolation":"LINEAR",
					"output":100
				},
				{
					"input":7,
					"interpolation":"STEP",
					"output":101
				},
				{
					"input":7,
					"interpolation":"STEP",
					"output":102
				},
				{
					"input":12,
					"interpolation":"LINEAR",
					"output":103
				},
				{
					"input":7,
					"interpolation":"STEP",
					"output":104
				},
				{
					"input":7,
					"interpolation":"STEP",
					"output":105
				},
				{
					"input":12,
					"interpolation":"LINEAR",
					"output":106
				},
				{
					"input":7,
					"interpolation":"STEP",
					"output":107
				},
				{
					"input":7,
					"interpolation":"STEP",
					"output":108
				},
				{
					"input":12,
					"interpolation":"LINEAR",
					"output":109
				},
				{
					"input":7,
					"interpolation":"STEP",
					"output":110
				},
				{
					"input":7,
					"interpolation":"STEP",
					"output":111
				},
				{
					"input":12,
					"interpolation":"LINEAR",
					"output":112
				},
				{
					"input":7,
					"interpolation":"STEP",
					"output":113
				},
				{
					"input":7,
					"interpolation":"STEP",
					"output":114
				},
				{
					"input":7,
					"interpolation":"STEP",
					"output":115
				},
				{
					"input":7,
					"interpolation":"STEP",
					"output":116
				}
			]
		}
	],
	"materials":[
		{
			"doubleSided":true,
			"extensions":{
				"KHR_materials_specular":{
					"specularColorFactor":[
						2.0,
						2.0,
						2.0
					]
				}
			},
			"name":"Material_0",
			"pbrMetallicRoughness":{
				"baseColorTexture":{
					"index":0
				},
				"roughnessFactor":0.8999999761581421
			}
		}
	],
	"meshes":[
		{
			"name":"0708151833_texture",
			"primitives":[
				{
					"attributes":{
						"POSITION":0,
						"NORMAL":1,
						"TEXCOORD_0":2,
						"JOINTS_0":3,
						"WEIGHTS_0":4
					},
					"indices":5,
					"material":0
				}
			]
		}
	],
	"textures":[
		{
			"sampler":0,
			"source":0
		}
	],
	"images":[
		{
			"mimeType":"image/png",
			"name":"0708151833_texture",
			"uri":"0708151833_texture.png"
		}
	],
	"skins":[
		{
			"inverseBindMatrices":6,
			"joints":[
				34,
				33,
				14,
				13,
				4,
				3,
				2,
				1,
				0,
				7,
				6,
				5,
				12,
				11,
				10,
				9,
				8,
				32,
				21,
				20,
				19,
				18,
				17,
				16,
				15,
				26,
				25,
				24,
				23,
				22,
				31,
				30,
				29,
				28,
				27
			],
			"name":"rig"
		}
	],
	"accessors":[
		{
			"bufferView":0,
			"componentType":5126,
			"count":8561,
			"max":[
				7.796106815338135,
				23.793121337890625,
				43.27943420410156
			],
			"min":[
				-7.796104907989502,
				-23.79311752319336,
				-43.2794303894043
			],
			"type":"VEC3"
		},
		{
			"bufferView":1,
			"componentType":5126,
			"count":8561,
			"type":"VEC3"
		},
		{
			"bufferView":2,
			"componentType":5126,
			"count":8561,
			"type":"VEC2"
		},
		{
			"bufferView":3,
			"componentType":5121,
			"count":8561,
			"type":"VEC4"
		},
		{
			"bufferView":4,
			"componentType":5126,
			"count":8561,
			"type":"VEC4"
		},
		{
			"bufferView":5,
			"componentType":5123,
			"count":8856,
			"type":"SCALAR"
		},
		{
			"bufferView":6,
			"componentType":5126,
			"count":35,
			"type":"MAT4"
		},
		{
			"bufferView":7,
			"componentType":5126,
			"count":2,
			"max":[
				1.0333333333333334
			],
			"min":[
				0.03333333333333333
			],
			"type":"SCALAR"
		},
		{
			"bufferView":8,
			"componentType":5126,
			"count":2,
			"type":"VEC3"
		},
		{
			"bufferView":9,
			"componentType":5126,
			"count":2,
			"type":"VEC4"
		},
		{
			"bufferView":10,
			"componentType":5126,
			"count":2,
			"type":"VEC3"
		},
		{
			"bufferView":11,
			"componentType":5126,
			"count":2,
			"type":"VEC3"
		},
		{
			"bufferView":12,
			"componentType":5126,
			"count":31,
			"max":[
				1.0333333333333334
			],
			"min":[
				0.03333333333333333
			],
			"type":"SCALAR"
		},
		{
			"bufferView":13,
			"componentType":5126,
			"count":31,
			"type":"VEC4"
		},
		{
			"bufferView":14,
			"componentType":5126,
			"count":2,
			"type":"VEC3"
		},
		{
			"bufferView":15,
			"componentType":5126,
			"count":2,
			"type":"VEC3"
		},
		{
			"bufferView":16,
			"componentType":5126,
			"count":31,
			"type":"VEC4"
		},
		{
			"bufferView":17,
			"componentType":5126,
			"count":2,
			"type":"VEC3"
		},
		{
			"bufferView":18,
			"componentType":5126,
			"count":2,
			"type":"VEC3"
		},
		{
			"bufferView":19,
			"componentType":5126,
			"count":31,
			"type":"VEC4"
		},
		{
			"bufferView":20,
			"componentType":5126,
			"count":2,
			"type":"VEC3"
		},
		{
			"bufferView":21,
			"componentType":5126,
			"count":2,
			"type":"VEC3"
		},
		{
			"bufferView":22,
			"componentType":5126,
			"count":31,
			"type":"VEC4"
		},
		{
			"bufferView":23,
			"componentType":5126,
			"count":2,
			"type":"VEC3"
		},
		{
			"bufferView":24,
			"componentType":5126,
			"count":2,
			"type":"VEC3"
		},
		{
			"bufferView":25,
			"componentType":5126,
			"count":31,
			"type":"VEC4"
		},
		{
			"bufferView":26,
			"componentType":5126,
			"count":2,
			"type":"VEC3"
		},
		{
			"bufferView":27,
			"componentType":5126,
			"count":2,
			"type":"VEC3"
		},
		{
			"bufferView":28,
			"componentType":5126,
			"count":31,
			"type":"VEC4"
		},
		{
			"bufferView":29,
			"componentType":5126,
			"count":2,
			"type":"VEC3"
		},
		{
			"bufferView":30,
			"componentType":5126,
			"count":2,
			"type":"VEC3"
		},
		{
			"bufferView":31,
			"componentType":5126,
			"count":31,
			"type":"VEC4"
		},
		{
			"bufferView":32,
			"componentType":5126,
			"count":2,
			"type":"VEC3"
		},
		{
			"bufferView":33,
			"componentType":5126,
			"count":2,
			"type":"VEC3"
		},
		{
			"bufferView":34,
			"componentType":5126,
			"count":31,
			"type":"VEC4"
		},
		{
			"bufferView":35,
			"componentType":5126,
			"count":2,
			"type":"VEC3"
		},
		{
			"bufferView":36,
			"componentType":5126,
			"count":2,
			"type":"VEC3"
		},
		{
			"bufferView":37,
			"componentType":5126,
			"count":31,
			"type":"VEC4"
		},
		{
			"bufferView":38,
			"componentType":5126,
			"count":2,
			"type":"VEC3"
		},
		{
			"bufferView":39,
			"componentType":5126,
			"count":2,
			"type":"VEC3"
		},
		{
			"bufferView":40,
			"componentType":5126,
			"count":31,
			"type":"VEC4"
		},
		{
			"bufferView":41,
			"componentType":5126,
			"count":2,
			"type":"VEC3"
		},
		{
			"bufferView":42,
			"componentType":5126,
			"count":2,
			"type":"VEC3"
		},
		{
			"bufferView":43,
			"componentType":5126,
			"count":31,
			"type":"VEC4"
		},
		{
			"bufferView":44,
			"componentType":5126,
			"count":2,
			"type":"VEC3"
		},
		{
			"bufferView":45,
			"componentType":5126,
			"count":2,
			"type":"VEC3"
		},
		{
			"bufferView":46,
			"componentType":5126,
			"count":31,
			"type":"VEC4"
		},
		{
			"bufferView":47,
			"componentType":5126,
			"count":2,
			"type":"VEC3"
		},
		{
			"bufferView":48,
			"componentType":5126,
			"count":2,
			"type":"VEC3"
		},
		{
			"bufferView":49,
			"componentType":5126,
			"count":31,
			"type":"VEC4"
		},
		{
			"bufferView":50,
			"componentType":5126,
			"count":2,
			"type":"VEC3"
		},
		{
			"bufferView":51,
			"componentType":5126,
			"count":2,
			"type":"VEC3"
		},
		{
			"bufferView":52,
			"componentType":5126,
			"count":31,
			"type":"VEC4"
		},
		{
			"bufferView":53,
			"componentType":5126,
			"count":2,
			"type":"VEC3"
		},
		{
			"bufferView":54,
			"componentType":5126,
			"count":2,
			"type":"VEC3"
		},
		{
			"bufferView":55,
			"componentType":5126,
			"count":31,
			"type":"VEC4"
		},
		{
			"bufferView":56,
			"componentType":5126,
			"count":2,
			"type":"VEC3"
		},
		{
			"bufferView":57,
			"componentType":5126,
			"count":2,
			"type":"VEC3"
		},
		{
			"bufferView":58,
			"componentType":5126,
			"count":31,
			"type":"VEC4"
		},
		{
			"bufferView":59,
			"componentType":5126,
			"count":2,
			"type":"VEC3"
		},
		{
			"bufferView":60,
			"componentType":5126,
			"count":2,
			"type":"VEC3"
		},
		{
			"bufferView":61,
			"componentType":5126,
			"count":31,
			"type":"VEC4"
		},
		{
			"bufferView":62,
			"componentType":5126,
			"count":2,
			"type":"VEC3"
		},
		{
			"bufferView":63,
			"componentType":5126,
			"count":2,
			"type":"VEC3"
		},
		{
			"bufferView":64,
			"componentType":5126,
			"count":31,
			"type":"VEC4"
		},
		{
			"bufferView":65,
			"componentType":5126,
			"count":2,
			"type":"VEC3"
		},
		{
			"bufferView":66,
			"componentType":5126,
			"count":2,
			"type":"VEC3"
		},
		{
			"bufferView":67,
			"componentType":5126,
			"count":31,
			"type":"VEC4"
		},
		{
			"bufferView":68,
			"componentType":5126,
			"count":2,
			"type":"VEC3"
		},
		{
			"bufferView":69,
			"componentType":5126,
			"count":2,
			"type":"VEC3"
		},
		{
			"bufferView":70,
			"componentType":5126,
			"count":31,
			"type":"VEC4"
		},
		{
			"bufferView":71,
			"componentType":5126,
			"count":2,
			"type":"VEC3"
		},
		{
			"bufferView":72,
			"componentType":5126,
			"count":2,
			"type":"VEC3"
		},
		{
			"bufferView":73,
			"componentType":5126,
			"count":31,
			"type":"VEC4"
		},
		{
			"bufferView":74,
			"componentType":5126,
			"count":2,
			"type":"VEC3"
		},
		{
			"bufferView":75,
			"componentType":5126,
			"count":2,
			"type":"VEC3"
		},
		{
			"bufferView":76,
			"componentType":5126,
			"count":31,
			"type":"VEC4"
		},
		{
			"bufferView":77,
			"componentType":5126,
			"count":2,
			"type":"VEC3"
		},
		{
			"bufferView":78,
			"componentType":5126,
			"count":2,
			"type":"VEC3"
		},
		{
			"bufferView":79,
			"componentType":5126,
			"count":31,
			"type":"VEC4"
		},
		{
			"bufferView":80,
			"componentType":5126,
			"count":2,
			"type":"VEC3"
		},
		{
			"bufferView":81,
			"componentType":5126,
			"count":2,
			"type":"VEC3"
		},
		{
			"bufferView":82,
			"componentType":5126,
			"count":31,
			"type":"VEC4"
		},
		{
			"bufferView":83,
			"componentType":5126,
			"count":2,
			"type":"VEC3"
		},
		{
			"bufferView":84,
			"componentType":5126,
			"count":2,
			"type":"VEC3"
		},
		{
			"bufferView":85,
			"componentType":5126,
			"count":31,
			"type":"VEC4"
		},
		{
			"bufferView":86,
			"componentType":5126,
			"count":2,
			"type":"VEC3"
		},
		{
			"bufferView":87,
			"componentType":5126,
			"count":2,
			"type":"VEC3"
		},
		{
			"bufferView":88,
			"componentType":5126,
			"count":31,
			"type":"VEC4"
		},
		{
			"bufferView":89,
			"componentType":5126,
			"count":2,
			"type":"VEC3"
		},
		{
			"bufferView":90,
			"componentType":5126,
			"count":2,
			"type":"VEC3"
		},
		{
			"bufferView":91,
			"componentType":5126,
			"count":31,
			"type":"VEC4"
		},
		{
			"bufferView":92,
			"componentType":5126,
			"count":2,
			"type":"VEC3"
		},
		{
			"bufferView":93,
			"componentType":5126,
			"count":2,
			"type":"VEC3"
		},
		{
			"bufferView":94,
			"componentType":5126,
			"count":31,
			"type":"VEC4"
		},
		{
			"bufferView":95,
			"componentType":5126,
			"count":2,
			"type":"VEC3"
		},
		{
			"bufferView":96,
			"componentType":5126,
			"count":2,
			"type":"VEC3"
		},
		{
			"bufferView":97,
			"componentType":5126,
			"count":31,
			"type":"VEC4"
		},
		{
			"bufferView":98,
			"componentType":5126,
			"count":2,
			"type":"VEC3"
		},
		{
			"bufferView":99,
			"componentType":5126,
			"count":2,
			"type":"VEC3"
		},
		{
			"bufferView":100,
			"componentType":5126,
			"count":31,
			"type":"VEC4"
		},
		{
			"bufferView":101,
			"componentType":5126,
			"count":2,
			"type":"VEC3"
		},
		{
			"bufferView":102,
			"componentType":5126,
			"count":2,
			"type":"VEC3"
		},
		{
			"bufferView":103,
			"componentType":5126,
			"count":31,
			"type":"VEC4"
		},
		{
			"bufferView":104,
			"componentType":5126,
			"count":2,
			"type":"VEC3"
		},
		{
			"bufferView":105,
			"componentType":5126,
			"count":2,
			"type":"VEC3"
		},
		{
			"bufferView":106,
			"componentType":5126,
			"count":31,
			"type":"VEC4"
		},
		{
			"bufferView":107,
			"componentType":5126,
			"count":2,
			"type":"VEC3"
		},
		{
			"bufferView":108,
			"componentType":5126,
			"count":2,
			"type":"VEC3"
		},
		{
			"bufferView":109,
			"componentType":5126,
			"count":31,
			"type":"VEC4"
		},
		{
			"bufferView":110,
			"componentType":5126,
			"count":2,
			"type":"VEC3"
		},
		{
			"bufferView":111,
			"componentType":5126,
			"count":2,
			"type":"VEC3"
		},
		{
			"bufferView":112,
			"componentType":5126,
			"count":31,
			"type":"VEC4"
		},
		{
			"bufferView":113,
			"componentType":5126,
			"count":2,
			"type":"VEC3"
		},
		{
			"bufferView":114,
			"componentType":5126,
			"count":2,
			"type":"VEC3"
		},
		{
			"bufferView":115,
			"componentType":5126,
			"count":2,
			"type":"VEC4"
		},
		{
			"bufferView":116,
			"componentType":5126,
			"count":2,
			"type":"VEC3"
		}
	],
	"bufferViews":[
		{
			"buffer":0,
			"byteLength":102732,
			"byteOffset":0,
			"target":34962
		},
		{
			"buffer":0,
			"byteLength":102732,
			"byteOffset":102732,
			"target":34962
		},
		{
			"buffer":0,
			"byteLength":68488,
			"byteOffset":205464,
			"target":34962
		},
		{
			"buffer":0,
			"byteLength":34244,
			"byteOffset":273952,
			"target":34962
		},
		{
			"buffer":0,
			"byteLength":136976,
			"byteOffset":308196,
			"target":34962
		},
		{
			"buffer":0,
			"byteLength":17712,
			"byteOffset":445172,
			"target":34963
		},
		{
			"buffer":0,
			"byteLength":2240,
			"byteOffset":462884
		},
		{
			"buffer":0,
			"byteLength":8,
			"byteOffset":465124
		},
		{
			"buffer":0,
			"byteLength":24,
			"byteOffset":465132
		},
		{
			"buffer":0,
			"byteLength":32,
			"byteOffset":465156
		},
		{
			"buffer":0,
			"byteLength":24,
			"byteOffset":465188
		},
		{
			"buffer":0,
			"byteLength":24,
			"byteOffset":465212
		},
		{
			"buffer":0,
			"byteLength":124,
			"byteOffset":465236
		},
		{
			"buffer":0,
			"byteLength":496,
			"byteOffset":465360
		},
		{
			"buffer":0,
			"byteLength":24,
			"byteOffset":465856
		},
		{
			"buffer":0,
			"byteLength":24,
			"byteOffset":465880
		},
		{
			"buffer":0,
			"byteLength":496,
			"byteOffset":465904
		},
		{
			"buffer":0,
			"byteLength":24,
			"byteOffset":466400
		},
		{
			"buffer":0,
			"byteLength":24,
			"byteOffset":466424
		},
		{
			"buffer":0,
			"byteLength":496,
			"byteOffset":466448
		},
		{
			"buffer":0,
			"byteLength":24,
			"byteOffset":466944
		},
		{
			"buffer":0,
			"byteLength":24,
			"byteOffset":466968
		},
		{
			"buffer":0,
			"byteLength":496,
			"byteOffset":466992
		},
		{
			"buffer":0,
			"byteLength":24,
			"byteOffset":467488
		},
		{
			"buffer":0,
			"byteLength":24,
			"byteOffset":467512
		},
		{
			"buffer":0,
			"byteLength":496,
			"byteOffset":467536
		},
		{
			"buffer":0,
			"byteLength":24,
			"byteOffset":468032
		},
		{
			"buffer":0,
			"byteLength":24,
			"byteOffset":468056
		},
		{
			"buffer":0,
			"byteLength":496,
			"byteOffset":468080
		},
		{
			"buffer":0,
			"byteLength":24,
			"byteOffset":468576
		},
		{
			"buffer":0,
			"byteLength":24,
			"byteOffset":468600
		},
		{
			"buffer":0,
			"byteLength":496,
			"byteOffset":468624
		},
		{
			"buffer":0,
			"byteLength":24,
			"byteOffset":469120
		},
		{
			"buffer":0,
			"byteLength":24,
			"byteOffset":469144
		},
		{
			"buffer":0,
			"byteLength":496,
			"byteOffset":469168
		},
		{
			"buffer":0,
			"byteLength":24,
			"byteOffset":469664
		},
		{
			"buffer":0,
			"byteLength":24,
			"byteOffset":469688
		},
		{
			"buffer":0,
			"byteLength":496,
			"byteOffset":469712
		},
		{
			"buffer":0,
			"byteLength":24,
			"byteOffset":470208
		},
		{
			"buffer":0,
			"byteLength":24,
			"byteOffset":470232
		},
		{
			"buffer":0,
			"byteLength":496,
			"byteOffset":470256
		},
		{
			"buffer":0,
			"byteLength":24,
			"byteOffset":470752
		},
		{
			"buffer":0,
			"byteLength":24,
			"byteOffset":470776
		},
		{
			"buffer":0,
			"byteLength":496,
			"byteOffset":470800
		},
		{
			"buffer":0,
			"byteLength":24,
			"byteOffset":471296
		},
		{
			"buffer":0,
			"byteLength":24,
			"byteOffset":471320
		},
		{
			"buffer":0,
			"byteLength":496,
			"byteOffset":471344
		},
		{
			"buffer":0,
			"byteLength":24,
			"byteOffset":471840
		},
		{
			"buffer":0,
			"byteLength":24,
			"byteOffset":471864
		},
		{
			"buffer":0,
			"byteLength":496,
			"byteOffset":471888
		},
		{
			"buffer":0,
			"byteLength":24,
			"byteOffset":472384
		},
		{
			"buffer":0,
			"byteLength":24,
			"byteOffset":472408
		},
		{
			"buffer":0,
			"byteLength":496,
			"byteOffset":472432
		},
		{
			"buffer":0,
			"byteLength":24,
			"byteOffset":472928
		},
		{
			"buffer":0,
			"byteLength":24,
			"byteOffset":472952
		},
		{
			"buffer":0,
			"byteLength":496,
			"byteOffset":472976
		},
		{
			"buffer":0,
			"byteLength":24,
			"byteOffset":473472
		},
		{
			"buffer":0,
			"byteLength":24,
			"byteOffset":473496
		},
		{
			"buffer":0,
			"byteLength":496,
			"byteOffset":473520
		},
		{
			"buffer":0,
			"byteLength":24,
			"byteOffset":474016
		},
		{
			"buffer":0,
			"byteLength":24,
			"byteOffset":474040
		},
		{
			"buffer":0,
			"byteLength":496,
			"byteOffset":474064
		},
		{
			"buffer":0,
			"byteLength":24,
			"byteOffset":474560
		},
		{
			"buffer":0,
			"byteLength":24,
			"byteOffset":474584
		},
		{
			"buffer":0,
			"byteLength":496,
			"byteOffset":474608
		},
		{
			"buffer":0,
			"byteLength":24,
			"byteOffset":475104
		},
		{
			"buffer":0,
			"byteLength":24,
			"byteOffset":475128
		},
		{
			"buffer":0,
			"byteLength":496,
			"byteOffset":475152
		},
		{
			"buffer":0,
			"byteLength":24,
			"byteOffset":475648
		},
		{
			"buffer":0,
			"byteLength":24,
			"byteOffset":475672
		},
		{
			"buffer":0,
			"byteLength":496,
			"byteOffset":475696
		},
		{
			"buffer":0,
			"byteLength":24,
			"byteOffset":476192
		},
		{
			"buffer":0,
			"byteLength":24,
			"byteOffset":476216
		},
		{
			"buffer":0,
			"byteLength":496,
			"byteOffset":476240
		},
		{
			"buffer":0,
			"byteLength":24,
			"byteOffset":476736
		},
		{
			"buffer":0,
			"byteLength":24,
			"byteOffset":476760
		},
		{
			"buffer":0,
			"byteLength":496,
			"byteOffset":476784
		},
		{
			"buffer":0,
			"byteLength":24,
			"byteOffset":477280
		},
		{
			"buffer":0,
			"byteLength":24,
			"byteOffset":477304
		},
		{
			"buffer":0,
			"byteLength":496,
			"byteOffset":477328
		},
		{
			"buffer":0,
			"byteLength":24,
			"byteOffset":477824
		},
		{
			"buffer":0,
			"byteLength":24,
			"byteOffset":477848
		},
		{
			"buffer":0,
			"byteLength":496,
			"byteOffset":477872
		},
		{
			"buffer":0,
			"byteLength":24,
			"byteOffset":478368
		},
		{
			"buffer":0,
			"byteLength":24,
			"byteOffset":478392
		},
		{
			"buffer":0,
			"byteLength":496,
			"byteOffset":478416
		},
		{
			"buffer":0,
			"byteLength":24,
			"byteOffset":478912
		},
		{
			"buffer":0,
			"byteLength":24,
			"byteOffset":478936
		},
		{
			"buffer":0,
			"byteLength":496,
			"byteOffset":478960
		},
		{
			"buffer":0,
			"byteLength":24,
			"byteOffset":479456
		},
		{
			"buffer":0,
			"byteLength":24,
			"byteOffset":479480
		},
		{
			"buffer":0,
			"byteLength":496,
			"byteOffset":479504
		},
		{
			"buffer":0,
			"byteLength":24,
			"byteOffset":480000
		},
		{
			"buffer":0,
			"byteLength":24,
			"byteOffset":480024
		},
		{
			"buffer":0,
			"byteLength":496,
			"byteOffset":480048
		},
		{
			"buffer":0,
			"byteLength":24,
			"byteOffset":480544
		},
		{
			"buffer":0,
			"byteLength":24,
			"byteOffset":480568
		},
		{
			"buffer":0,
			"byteLength":496,
			"byteOffset":480592
		},
		{
			"buffer":0,
			"byteLength":24,
			"byteOffset":481088
		},
		{
			"buffer":0,
			"byteLength":24,
			"byteOffset":481112
		},
		{
			"buffer":0,
			"byteLength":496,
			"byteOffset":481136
		},
		{
			"buffer":0,
			"byteLength":24,
			"byteOffset":481632
		},
		{
			"buffer":0,
			"byteLength":24,
			"byteOffset":481656
		},
		{
			"buffer":0,
			"byteLength":496,
			"byteOffset":481680
		},
		{
			"buffer":0,
			"byteLength":24,
			"byteOffset":482176
		},
		{
			"buffer":0,
			"byteLength":24,
			"byteOffset":482200
		},
		{
			"buffer":0,
			"byteLength":496,
			"byteOffset":482224
		},
		{
			"buffer":0,
			"byteLength":24,
			"byteOffset":482720
		},
		{
			"buffer":0,
			"byteLength":24,
			"byteOffset":482744
		},
		{
			"buffer":0,
			"byteLength":496,
			"byteOffset":482768
		},
		{
			"buffer":0,
			"byteLength":24,
			"byteOffset":483264
		},
		{
			"buffer":0,
			"byteLength":24,
			"byteOffset":483288
		},
		{
			"buffer":0,
			"byteLength":496,
			"byteOffset":483312
		},
		{
			"buffer":0,
			"byteLength":24,
			"byteOffset":483808
		},
		{
			"buffer":0,
			"byteLength":24,
			"byteOffset":483832
		},
		{
			"buffer":0,
			"byteLength":32,
			"byteOffset":483856
		},
		{
			"buffer":0,
			"byteLength":24,
			"byteOffset":483888
		}
	],
	"samplers":[
		{
			"magFilter":9729,
			"minFilter":9987
		}
	],
	"buffers":[
		{
			"byteLength":483912,
			"uri":"0708151833_texture_walk.bin"
		}
	]
}
