{
	"asset":{
		"generator":"Khronos glTF Blender I/O v4.1.62",
		"version":"2.0"
	},
	"scene":0,
	"scenes":[
		{
			"name":"Scene",
			"nodes":[
				44
			]
		}
	],
	"nodes":[
		{
			"name":"leg_front_left_toe_end",
			"rotation":[
				5.966061656205793e-14,
				-1.6624110799057235e-07,
				-1.6391281576488836e-07,
				1
			],
			"translation":[
				3.6191204344504513e-07,
				3.0000016689300537,
				-2.7528874397830805e-06
			]
		},
		{
			"children":[
				0
			],
			"name":"leg_front_left_toe",
			"rotation":[
				-0.6428108811378479,
				-0.039078690111637115,
				-0.03907888010144234,
				0.764028787612915
			],
			"scale":[
				0.9999999403953552,
				0.9999999403953552,
				0.9999998211860657
			],
			"translation":[
				-3.2782554626464844e-07,
				5.277545928955078,
				-5.960464477539063e-08
			]
		},
		{
			"children":[
				1
			],
			"name":"leg_front_left_ankle",
			"rotation":[
				-0.07149841636419296,
				0.05525948852300644,
				0.0007892175926826894,
				0.9959084987640381
			],
			"scale":[
				1,
				0.9999999403953552,
				0.9999998807907104
			],
			"translation":[
				1.2520240488811396e-07,
				10.504290580749512,
				-4.1116982174571604e-07
			]
		},
		{
			"children":[
				2
			],
			"name":"leg_front_left_bot0",
			"rotation":[
				-6.129612017957697e-08,
				-0.9998980164527893,
				-0.014281303621828556,
				7.906730843387777e-07
			],
			"scale":[
				1,
				1.000000238418579,
				0.9999999403953552
			],
			"translation":[
				-5.906671276534325e-07,
				7.320002555847168,
				-1.2018683719361434e-06
			]
		},
		{
			"children":[
				3
			],
			"name":"leg_front_left_top1",
			"rotation":[
				-2.700754064832722e-09,
				0.015295391902327538,
				-0.3169931173324585,
				0.9483044743537903
			],
			"translation":[
				-7.450580596923828e-08,
				9.812500953674316,
				-8.407514542341232e-07
			]
		},
		{
			"children":[
				4
			],
			"name":"leg_front_left_top0",
			"rotation":[
				-0.22902563214302063,
				-0.6519139409065247,
				-0.6886869072914124,
				0.2196950912475586
			],
			"scale":[
				1,
				0.9999998211860657,
				1
			],
			"translation":[
				0.3006061613559723,
				7.5799641609191895,
				1.3971433639526367
			]
		},
		{
			"name":"head0_end",
			"rotation":[
				-2.2351738948600541e-07,
				-1.5643308870494366e-10,
				-8.822097913308014e-11,
				1
			],
			"scale":[
				1,
				1.0000001192092896,
				1.0000001192092896
			],
			"translation":[
				-3.4924596548080444e-10,
				8.181396484375,
				1.7667329075266025e-06
			]
		},
		{
			"children":[
				6
			],
			"name":"head0",
			"rotation":[
				0.6194597482681274,
				5.0973554607480764e-05,
				9.543543274048716e-05,
				0.7850283980369568
			],
			"scale":[
				1,
				1.0000001192092896,
				1.0000001192092896
			],
			"translation":[
				0,
				10.016510963439941,
				1.6689300537109375e-06
			]
		},
		{
			"children":[
				7
			],
			"name":"neck1",
			"rotation":[
				-0.09214654564857483,
				1.7325275600017093e-13,
				-5.492759567495009e-13,
				0.9957454204559326
			],
			"translation":[
				-5.204170427930421e-18,
				9.058182716369629,
				-3.5762786865234375e-07
			]
		},
		{
			"children":[
				8
			],
			"name":"neck0",
			"rotation":[
				-0.17423728108406067,
				5.838434119845304e-13,
				-9.049864265094076e-13,
				0.9847037196159363
			],
			"translation":[
				3.2959746043559335e-17,
				7.661523818969727,
				6.556510925292969e-07
			]
		},
		{
			"name":"leg_front_right_toe_end",
			"rotation":[
				5.966061656205793e-14,
				1.6624110799057235e-07,
				1.6391281576488836e-07,
				1
			],
			"translation":[
				-3.6191204344504513e-07,
				3.0000016689300537,
				-2.7528874397830805e-06
			]
		},
		{
			"children":[
				10
			],
			"name":"leg_front_right_toe",
			"rotation":[
				-0.6428108811378479,
				0.039078690111637115,
				0.03907888010144234,
				0.764028787612915
			],
			"scale":[
				0.9999999403953552,
				0.9999999403953552,
				0.9999998211860657
			],
			"translation":[
				3.2782554626464844e-07,
				5.277545928955078,
				-5.960464477539063e-08
			]
		},
		{
			"children":[
				11
			],
			"name":"leg_front_right_ankle",
			"rotation":[
				-0.07149841636419296,
				-0.05525948852300644,
				-0.0007892175926826894,
				0.9959084987640381
			],
			"scale":[
				1,
				0.9999999403953552,
				0.9999998807907104
			],
			"translation":[
				-1.2520240488811396e-07,
				10.504290580749512,
				-4.1116982174571604e-07
			]
		},
		{
			"children":[
				12
			],
			"name":"leg_front_right_bot0",
			"rotation":[
				-6.129612017957697e-08,
				0.9998980164527893,
				0.014281303621828556,
				7.906730843387777e-07
			],
			"scale":[
				1,
				1.000000238418579,
				0.9999999403953552
			],
			"translation":[
				5.906671276534325e-07,
				7.320002555847168,
				-1.2018683719361434e-06
			]
		},
		{
			"children":[
				13
			],
			"name":"leg_front_right_top1",
			"rotation":[
				-2.700754064832722e-09,
				-0.015295391902327538,
				0.3169931173324585,
				0.9483044743537903
			],
			"translation":[
				7.450580596923828e-08,
				9.812500953674316,
				-8.407514542341232e-07
			]
		},
		{
			"children":[
				14
			],
			"name":"leg_front_right_top0",
			"rotation":[
				-0.22902563214302063,
				0.6519139409065247,
				0.6886869072914124,
				0.2196950912475586
			],
			"scale":[
				1,
				0.9999998211860657,
				1
			],
			"translation":[
				-0.3006061613559723,
				7.5799641609191895,
				1.3971434831619263
			]
		},
		{
			"children":[
				5,
				9,
				15
			],
			"name":"body_top1",
			"rotation":[
				-0.035258617252111435,
				1.277429984708478e-12,
				1.2368870684620337e-11,
				0.9993782639503479
			],
			"translation":[
				1.0404901246152676e-10,
				7.650943279266357,
				1.6391277313232422e-07
			]
		},
		{
			"children":[
				16
			],
			"name":"body_top0",
			"rotation":[
				-0.02485673688352108,
				3.775708319153637e-05,
				3.716944775078446e-05,
				0.9996910095214844
			],
			"scale":[
				1,
				0.9999999403953552,
				0.9999999403953552
			],
			"translation":[
				2.9103830456733704e-11,
				7.164519309997559,
				2.4884939193725586e-06
			]
		},
		{
			"name":"leg_hind_left_toe_end",
			"rotation":[
				-3.476938559288101e-07,
				7.947316049694564e-08,
				7.947302549382584e-08,
				1
			],
			"translation":[
				-1.2345185496087652e-07,
				2.9999983310699463,
				-3.6043843465449754e-09
			]
		},
		{
			"children":[
				18
			],
			"name":"leg_hind_left_toe",
			"rotation":[
				-0.5104646682739258,
				-6.063658588573162e-07,
				-3.956122611725732e-07,
				0.8598987460136414
			],
			"scale":[
				1,
				1.0000001192092896,
				1
			],
			"translation":[
				-4.3423915485618636e-07,
				5.0119853019714355,
				-3.744266905414406e-06
			]
		},
		{
			"children":[
				19
			],
			"name":"leg_hind_left_ankle",
			"rotation":[
				-0.2866014242172241,
				-0.5650416016578674,
				-0.14408263564109802,
				0.7601498961448669
			],
			"scale":[
				1,
				1,
				1.0000001192092896
			],
			"translation":[
				-8.344650268554688e-07,
				12.400409698486328,
				7.152557373046875e-07
			]
		},
		{
			"children":[
				20
			],
			"name":"leg_hind_left_bot0",
			"rotation":[
				-2.814516051330429e-07,
				-0.8073952794075012,
				0.0898917093873024,
				0.5831229090690613
			],
			"scale":[
				1,
				1.0000001192092896,
				1
			],
			"translation":[
				3.7699939525737136e-07,
				6.4200005531311035,
				7.682137379561027e-07
			]
		},
		{
			"children":[
				21
			],
			"name":"leg_hind_left_top1",
			"rotation":[
				-8.6298292956144e-09,
				-0.3496219217777252,
				-0.3638514280319214,
				0.8633520007133484
			],
			"scale":[
				1,
				0.9999999403953552,
				0.9999998807907104
			],
			"translation":[
				9.685754776000977e-07,
				9.129714965820312,
				-2.2351741790771484e-07
			]
		},
		{
			"children":[
				22
			],
			"name":"leg_hind_left_top0",
			"rotation":[
				-0.49916693568229675,
				-0.7011362314224243,
				0.5029643177986145,
				0.07916668802499771
			],
			"scale":[
				1,
				1,
				0.9999999403953552
			],
			"translation":[
				0.23503367602825165,
				10.005668640136719,
				0.602468729019165
			]
		},
		{
			"name":"tail8_end",
			"rotation":[
				-3.469446951953614e-16,
				-1.1131357169347211e-08,
				1.746222832998967e-09,
				1
			],
			"translation":[
				1.7053025658242404e-13,
				4.040121078491211,
				-2.842170943040401e-14
			]
		},
		{
			"children":[
				24
			],
			"name":"tail8",
			"rotation":[
				0.025670424103736877,
				-0.02114698477089405,
				0.006961881183087826,
				0.999422550201416
			],
			"scale":[
				0.9999999403953552,
				1,
				0.9999999403953552
			],
			"translation":[
				-6.253612809814513e-07,
				3.897123336791992,
				9.327129646408139e-07
			]
		},
		{
			"children":[
				25
			],
			"name":"tail7",
			"rotation":[
				0.12418929487466812,
				0.052372533828020096,
				-0.012875101529061794,
				0.9907917976379395
			],
			"scale":[
				0.9999999403953552,
				0.9999998807907104,
				1
			],
			"translation":[
				-1.0058283805847168e-07,
				4.712483882904053,
				-4.8826914280653e-06
			]
		},
		{
			"children":[
				26
			],
			"name":"tail6",
			"rotation":[
				-0.05013835057616234,
				-0.031037159264087677,
				0.006873328238725662,
				0.9982362389564514
			],
			"scale":[
				1,
				0.9999998807907104,
				0.9999999403953552
			],
			"translation":[
				5.590898410900991e-08,
				4.026474952697754,
				1.430511474609375e-06
			]
		},
		{
			"children":[
				27
			],
			"name":"tail5",
			"rotation":[
				-0.030178191140294075,
				0.020570337772369385,
				-0.00455540232360363,
				0.9993224740028381
			],
			"scale":[
				0.9999999403953552,
				1,
				0.9999999403953552
			],
			"translation":[
				-1.7499272075838235e-07,
				2.0736632347106934,
				3.3422720662201755e-06
			]
		},
		{
			"children":[
				28
			],
			"name":"tail4",
			"rotation":[
				1.2698728824034333e-07,
				1.1641532182693481e-09,
				-5.587935447692871e-09,
				1
			],
			"translation":[
				4.1909515857696533e-07,
				2.7590301036834717,
				2.885295543819666e-06
			]
		},
		{
			"children":[
				29
			],
			"name":"tail3",
			"rotation":[
				-0.08138788491487503,
				-0.03660130873322487,
				0.011042172089219093,
				0.9959490299224854
			],
			"scale":[
				0.9999999403953552,
				0.9999999403953552,
				0.9999999403953552
			],
			"translation":[
				1.2665987014770508e-07,
				4.490830421447754,
				-3.831228241324425e-06
			]
		},
		{
			"children":[
				30
			],
			"name":"tail2",
			"rotation":[
				-0.1447773426771164,
				0.01529659517109394,
				-0.00786555465310812,
				0.9893147349357605
			],
			"translation":[
				2.9531932455029164e-14,
				8.852256774902344,
				-2.2649765014648438e-06
			]
		},
		{
			"children":[
				31
			],
			"name":"tail1",
			"rotation":[
				-0.06450352817773819,
				-6.241037131538008e-10,
				-9.431652125968526e-10,
				0.9979175329208374
			],
			"scale":[
				1,
				1.0000001192092896,
				1
			],
			"translation":[
				3.197442310920451e-14,
				1.5882413387298584,
				-4.76837158203125e-07
			]
		},
		{
			"children":[
				32
			],
			"name":"tail0",
			"rotation":[
				-0.14482980966567993,
				1.2895862155914983e-09,
				-2.0265635836125284e-09,
				0.9894565939903259
			],
			"scale":[
				1,
				0.9999999403953552,
				0.9999999403953552
			],
			"translation":[
				1.1870017857518178e-08,
				15.267845153808594,
				-9.5367431640625e-07
			]
		},
		{
			"children":[
				33
			],
			"name":"pelvis",
			"rotation":[
				0.06610386818647385,
				0.004817852284759283,
				-0.003934686537832022,
				0.9977933764457703
			],
			"scale":[
				1,
				0.9999999403953552,
				1.0000001192092896
			],
			"translation":[
				2.6075879233644628e-08,
				1.0275191068649292,
				9.535232834423368e-07
			]
		},
		{
			"name":"leg_hind_right_toe_end",
			"rotation":[
				-3.2782565995148616e-07,
				7.947267022245796e-08,
				7.947288338527869e-08,
				1
			],
			"translation":[
				1.8543153146310942e-07,
				2.9999990463256836,
				3.2767725315352436e-06
			]
		},
		{
			"children":[
				35
			],
			"name":"leg_hind_right_toe",
			"rotation":[
				-0.5104642510414124,
				2.4569979473199055e-07,
				4.013618593035062e-07,
				0.8598989248275757
			],
			"scale":[
				1,
				1.0000001192092896,
				1.0000001192092896
			],
			"translation":[
				-3.198520062142052e-07,
				5.011979103088379,
				4.5364777179202065e-07
			]
		},
		{
			"children":[
				36
			],
			"name":"leg_hind_right_ankle",
			"rotation":[
				-0.2866019904613495,
				0.5650408267974854,
				0.14408248662948608,
				0.7601503133773804
			],
			"scale":[
				0.9999999403953552,
				1,
				1
			],
			"translation":[
				1.9073486328125e-06,
				12.400405883789062,
				0
			]
		},
		{
			"children":[
				37
			],
			"name":"leg_hind_right_bot0",
			"rotation":[
				-2.79144416026611e-07,
				0.8073959350585938,
				-0.08989172428846359,
				0.5831220149993896
			],
			"scale":[
				1,
				0.9999998807907104,
				0.9999999403953552
			],
			"translation":[
				1.1921201803488657e-08,
				6.419997215270996,
				1.3640362794831162e-07
			]
		},
		{
			"children":[
				38
			],
			"name":"leg_hind_right_top1",
			"rotation":[
				-3.4634805246014366e-08,
				0.36663636565208435,
				0.3537847697734833,
				0.8604732155799866
			],
			"scale":[
				1,
				1,
				0.9999999403953552
			],
			"translation":[
				-3.427267074584961e-07,
				8.944120407104492,
				1.0579824447631836e-06
			]
		},
		{
			"children":[
				39
			],
			"name":"leg_hind_right_top0",
			"rotation":[
				-0.5008338689804077,
				0.7032464146614075,
				-0.4968307912349701,
				0.08814246207475662
			],
			"scale":[
				1.0000001192092896,
				1.0000003576278687,
				1.0000001192092896
			],
			"translation":[
				-0.3835500180721283,
				10.010129928588867,
				0.6010938882827759
			]
		},
		{
			"children":[
				23,
				34,
				40
			],
			"name":"body_bot",
			"rotation":[
				0.9801629185676575,
				-0.004496792331337929,
				-0.00428305147215724,
				0.1980961263179779
			],
			"scale":[
				1,
				1,
				0.9999995827674866
			],
			"translation":[
				0.00785619392991066,
				0.9775402545928955,
				-0.07222766429185867
			]
		},
		{
			"children":[
				17,
				41
			],
			"name":"body",
			"rotation":[
				0.0326959602534771,
				-3.746442234842107e-05,
				-3.746441871044226e-05,
				0.9994654059410095
			],
			"scale":[
				1,
				0.9999999403953552,
				0.9999999403953552
			],
			"translation":[
				-0.0005189899820834398,
				-5.049201011657715,
				-9.128251075744629
			]
		},
		{
			"mesh":0,
			"name":"tasmanian_wolf",
			"skin":0
		},
		{
			"children":[
				43,
				42
			],
			"name":"rig",
			"rotation":[
				0.7071068286895752,
				0,
				0,
				0.7071068286895752
			]
		}
	],
	"materials":[
		{
			"doubleSided":true,
			"name":"Material.002",
			"pbrMetallicRoughness":{
				"baseColorTexture":{
					"index":0
				},
				"metallicFactor":0,
				"roughnessFactor":0.6732679605484009
			}
		}
	],
	"meshes":[
		{
			"name":"tasmanian_wolf",
			"primitives":[
				{
					"attributes":{
						"POSITION":0,
						"NORMAL":1,
						"TEXCOORD_0":2,
						"JOINTS_0":3,
						"WEIGHTS_0":4
					},
					"indices":5,
					"material":0
				}
			]
		}
	],
	"textures":[
		{
			"sampler":0,
			"source":0
		}
	],
	"images":[
		{
			"mimeType":"image/png",
			"name":"tasmanian_wolf_uv",
			"uri":"tasmanian_wolf_uv.png"
		}
	],
	"skins":[
		{
			"inverseBindMatrices":6,
			"joints":[
				42,
				17,
				16,
				5,
				4,
				3,
				2,
				1,
				0,
				9,
				8,
				7,
				6,
				15,
				14,
				13,
				12,
				11,
				10,
				41,
				23,
				22,
				21,
				20,
				19,
				18,
				34,
				33,
				32,
				31,
				30,
				29,
				28,
				27,
				26,
				25,
				24,
				40,
				39,
				38,
				37,
				36,
				35
			],
			"name":"rig"
		}
	],
	"accessors":[
		{
			"bufferView":0,
			"componentType":5126,
			"count":1438,
			"max":[
				9.95260238647461,
				24.29530906677246,
				42.552120208740234
			],
			"min":[
				-9.95260238647461,
				-24.295310974121094,
				-42.5521240234375
			],
			"type":"VEC3"
		},
		{
			"bufferView":1,
			"componentType":5126,
			"count":1438,
			"type":"VEC3"
		},
		{
			"bufferView":2,
			"componentType":5126,
			"count":1438,
			"type":"VEC2"
		},
		{
			"bufferView":3,
			"componentType":5121,
			"count":1438,
			"type":"VEC4"
		},
		{
			"bufferView":4,
			"componentType":5126,
			"count":1438,
			"type":"VEC4"
		},
		{
			"bufferView":5,
			"componentType":5123,
			"count":7596,
			"type":"SCALAR"
		},
		{
			"bufferView":6,
			"componentType":5126,
			"count":43,
			"type":"MAT4"
		}
	],
	"bufferViews":[
		{
			"buffer":0,
			"byteLength":17256,
			"byteOffset":0,
			"target":34962
		},
		{
			"buffer":0,
			"byteLength":17256,
			"byteOffset":17256,
			"target":34962
		},
		{
			"buffer":0,
			"byteLength":11504,
			"byteOffset":34512,
			"target":34962
		},
		{
			"buffer":0,
			"byteLength":5752,
			"byteOffset":46016,
			"target":34962
		},
		{
			"buffer":0,
			"byteLength":23008,
			"byteOffset":51768,
			"target":34962
		},
		{
			"buffer":0,
			"byteLength":15192,
			"byteOffset":74776,
			"target":34963
		},
		{
			"buffer":0,
			"byteLength":2752,
			"byteOffset":89968
		}
	],
	"samplers":[
		{
			"magFilter":9729,
			"minFilter":9987
		}
	],
	"buffers":[
		{
			"byteLength":92720,
			"uri":"tasmanian_wolf.bin"
		}
	]
}
